<?xml version="1.0" encoding="utf-8"?>
<svg width="2000px" height="2000px" viewBox="0 0 2000 2000" version="1.1" xmlns:xlink="http://www.w3.org/1999/xlink" xmlns="http://www.w3.org/2000/svg">
  <desc>Created with Lunacy</desc>
  <defs>
    <rect width="2000" height="2000" id="artboard_1" />
    <clipPath id="clip_1">
      <use xlink:href="#artboard_1" clip-rule="evenodd" />
    </clipPath>
  </defs>
  <g id="Ultra-HD-Copy-9" clip-path="url(#clip_1)">
    <use xlink:href="#artboard_1" stroke="none" fill="#FFFFFF" />
    <g id="Group" transform="translate(100.1101 206.0796)">
      <g id="Shadow--inject-67" transform="translate(0 1484.637)">
        <path d="M0 52.5453C0 23.5253 402.944 0 900 0C1397.06 0 1800 23.5253 1800 52.5453C1800 81.5652 1397.06 105.091 900 105.091C402.944 105.091 0 81.5652 0 52.5453Z" id="path--inject-67" fill="#E9E9E9" stroke="none" />
      </g>
      <g id="Table--inject-67" transform="translate(839.6096 635.5537)">
        <path d="M0 0L702.259 0L702.259 19.8669L0 19.8669L0 0Z" transform="translate(29.38265 151.2341)" id="Rectangle" fill="#407BFF" stroke="none" />
        <path d="M0 0L162.974 0L162.974 19.8669L0 19.8669L0 0Z" transform="translate(568.6677 151.2341)" id="Rectangle" fill="#000000" fill-opacity="0.2" stroke="none" />
        <path d="M36.6702 742.178L0 0L9.19082 0L45.861 742.178L36.6702 742.178L36.6702 742.178Z" transform="translate(552.1428 171.0546)" id="Polygon" fill="#407BFF" stroke="none" />
        <path d="M36.6702 742.178L0 0L9.19082 0L45.861 742.178L36.6702 742.178L36.6702 742.178Z" transform="translate(552.1428 171.0546)" id="Polygon" fill="#EEEEEE" fill-opacity="0.7" stroke="none" />
        <path d="M36.7167 742.178L0 0L9.23715 0L45.9074 742.178L36.7167 742.178L36.7167 742.178Z" transform="translate(715.0703 171.0546)" id="Polygon" fill="#407BFF" stroke="none" />
        <path d="M36.7167 742.178L0 0L9.23715 0L45.9074 742.178L36.7167 742.178L36.7167 742.178Z" transform="translate(715.0703 171.0546)" id="Polygon" fill="#407BFF" stroke="none" />
        <path d="M36.7167 742.178L0 0L9.23715 0L45.9074 742.178L36.7167 742.178L36.7167 742.178Z" transform="translate(715.0703 171.0546)" id="Polygon" fill="#EEEEEE" fill-opacity="0.7" stroke="none" />
        <path d="M9.19069 742.178L45.9074 0L36.6702 0L0 742.178L9.19069 742.178L9.19069 742.178Z" transform="translate(162.9738 171.0546)" id="Polygon" fill="#407BFF" stroke="none" />
        <path d="M9.19069 742.178L45.9074 0L36.6702 0L0 742.178L9.19069 742.178L9.19069 742.178Z" transform="translate(162.9738 171.0546)" id="Polygon" fill="#EEEEEE" fill-opacity="0.7" stroke="none" />
        <path d="M9.23715 742.178L45.9075 0L36.7166 0L0 742.178L9.23715 742.178L9.23715 742.178Z" transform="translate(0 171.0546)" id="Polygon" fill="#407BFF" stroke="none" />
        <path d="M9.23715 742.178L45.9075 0L36.7166 0L0 742.178L9.23715 742.178L9.23715 742.178Z" transform="translate(0 171.0546)" id="Polygon" fill="#EEEEEE" fill-opacity="0.7" stroke="none" />
        <path d="M34.5005 0.00403722L260.092 0.00403722C263.473 -0.0871189 266.712 1.36245 268.897 3.94429C271.082 6.52605 271.975 9.96052 271.326 13.2796L252.341 138.144C251.028 145.623 244.658 151.161 237.069 151.42L11.4772 151.42C8.09412 151.508 4.85302 150.059 2.66187 147.48C0.470583 144.901 -0.435453 141.469 0.197611 138.144L19.1826 13.2797C20.5313 5.8029 26.908 0.276372 34.5005 0.00403722L34.5005 0.00403722Z" transform="translate(408.3742 0)" id="Shape" fill="#407BFF" stroke="none" />
        <path d="M34.5005 0.00403722L260.278 0.00403722C263.659 -0.0871189 266.898 1.36245 269.083 3.94429C271.267 6.52605 272.161 9.96052 271.511 13.2796L252.526 138.144C251.214 145.623 244.843 151.161 237.255 151.42L11.4772 151.42C8.09412 151.508 4.85302 150.059 2.66187 147.48C0.470583 144.901 -0.435453 141.469 0.197611 138.144L19.1826 13.2797C20.515 5.79362 26.901 0.258948 34.5005 0.00403722L34.5005 0.00403722Z" transform="translate(404.8929 0)" id="Shape" fill="#407BFF" stroke="none" />
        <path d="M34.5005 0.00403722L260.278 0.00403722C263.659 -0.0871189 266.898 1.36245 269.083 3.94429C271.267 6.52605 272.161 9.96052 271.511 13.2796L252.526 138.144C251.214 145.623 244.843 151.161 237.255 151.42L11.4772 151.42C8.09412 151.508 4.85302 150.059 2.66187 147.48C0.470583 144.901 -0.435453 141.469 0.197611 138.144L19.1826 13.2797C20.515 5.79362 26.901 0.258948 34.5005 0.00403722L34.5005 0.00403722Z" transform="translate(404.8929 0)" id="Shape" fill="#EEEEEE" fill-opacity="0.2" stroke="none" />
        <path d="M7.4578 143.203C5.28521 143.263 3.19648 142.363 1.74833 140.743C0.314903 139.011 -0.279772 136.734 0.123666 134.523L19.1088 9.88997C20.1551 4.35977 24.8593 0.269998 30.4813 0.00290396L256.259 0.00290396C258.431 -0.0576543 260.52 0.842361 261.968 2.46306C263.385 4.20253 263.963 6.47846 263.547 8.68306L244.608 133.548C243.562 139.078 238.857 143.168 233.236 143.435L7.4578 143.203Z" transform="translate(408.9122 4.039482)" id="Shape" fill="#EEEEEE" fill-opacity="0.8" stroke="none" />
        <path d="M5.75579 0.00177071L305.199 0.00177071C306.466 -0.0352725 307.682 0.505289 308.503 1.4711C309.325 2.43692 309.663 3.72359 309.423 4.96854L0 4.96854C0.503448 2.16055 2.90439 0.0886771 5.75579 0.00177071L5.75579 0.00177071Z" transform="translate(344.7005 146.2656)" id="Shape" fill="#407BFF" stroke="none" />
      </g>
      <g id="Character--inject-67" transform="translate(743.8882 213.1514)">
        <path d="M66.1458 70.834L36.5775 87.498L0 16.6641L29.5684 0L66.1458 70.834L66.1458 70.834Z" transform="translate(132.9489 1204.645)" id="Polygon" fill="#FFB573" stroke="none" />
        <path d="M43.0971 17.2434L77.5393 0.300879C78.1047 -0.0113325 78.7718 -0.0840024 79.3911 0.0991596C80.0104 0.282322 80.5306 0.706158 80.835 1.27576L95.8744 27.6876C97.3633 30.6631 96.1843 34.283 93.2285 35.8108C81.1135 41.4738 75.0326 43.609 59.9004 51.0359C50.6168 55.6777 28.3826 67.0502 15.5247 73.4094C2.6669 79.7687 -3.0425 66.818 1.5993 62.9654C23.5086 45.7907 33.3493 32.7937 38.7338 21.6997C39.6308 19.7556 41.1723 18.1812 43.0971 17.2434L43.0971 17.2434Z" transform="translate(122.8551 1269.051)" id="Shape" fill="#263238" stroke="none" />
        <path d="M29.5684 0L0 16.6641L18.8458 53.1952L49.3424 38.2486L29.5684 0L29.5684 0Z" transform="translate(132.9489 1204.645)" id="Polygon" fill="#000000" fill-opacity="0.2" stroke="none" />
        <path d="M128.455 0C128.455 0 32.973 191.939 4.33307 285.657C-26.9991 388.287 121.864 735.634 121.864 735.634L176.219 711.821C176.219 711.821 78.7412 367.817 95.6837 329.661C142.102 224.292 250.535 2.22812 250.535 2.22812L128.455 0Z" transform="translate(9.971288 510.2768)" id="Shape" fill="#263238" stroke="none" />
        <path d="M38.7591 20.4242C12.7186 64.1036 1.62466 142.829 0 194.028C14.7145 162.371 30.4967 129.414 45.2576 98.7779L45.2576 98.7779C55.1912 69.5809 64.8461 41.4516 73.8512 17.3606C71.8552 0.696526 58.4868 -12.7647 38.7591 20.4242L38.7591 20.4242Z" transform="translate(135.5947 604.923)" id="Shape" fill="#000000" fill-opacity="0.3" stroke="none" />
        <path d="M76.4041 26.4119L17.0354 57.5121L0 37.413L70.277 0L76.4041 26.4119L76.4041 26.4119Z" transform="translate(116.7955 1199.724)" id="Polygon" fill="#407BFF" stroke="none" />
        <path d="M17.0879 2.01463C14.7378 3.98054 12.186 5.69217 9.47535 7.12077L9.47528 7.12077C7.51779 8.31791 5.18626 8.74769 2.93059 8.3274C1.46353 7.7391 0.396568 6.44479 0.099018 4.89252C-0.161701 3.89172 0.100151 2.82689 0.795261 2.0611C3.81241 -1.281 15.4169 0.390121 16.7166 0.622154C17.0292 0.65176 17.2893 0.874727 17.3664 1.17915C17.4665 1.48852 17.3537 1.82722 17.0879 2.01463ZM3.44091 6.84228C5.57617 7.53852 9.66092 5.72829 14.6277 1.92199L14.6278 1.92199C9.93956 1.41132 3.5803 1.365 1.9555 3.1289C1.62417 3.5118 1.51842 4.0406 1.677 4.52138C1.80067 5.5576 2.47566 6.44564 3.44091 6.84228Z" transform="translate(148.2144 1289.849)" id="Shape" fill="#407BFF" fill-rule="evenodd" stroke="none" />
        <path d="M13.4732 11.9912C13.4024 12.0918 13.3064 12.1718 13.1947 12.2233L12.6841 12.316C8.73851 11.9911 1.0331 7.81349 0.104755 4.14643C-0.266669 2.78284 0.373974 1.3463 1.63656 0.711541C2.6499 -0.0022665 3.94223 -0.191803 5.11791 0.201011C9.71333 1.68642 13.4732 10.8308 13.4732 11.2021C13.6366 11.4398 13.6366 11.7537 13.4732 11.9912ZM4.23596 1.96478C3.64794 1.68826 2.96728 1.68826 2.37926 1.96478L2.0543 2.28974C1.21881 2.89305 1.21881 3.49651 1.21881 3.96072C1.72941 6.42086 7.25317 9.76297 11.013 10.6914C9.66686 7.76703 6.97461 2.84673 4.23596 1.96478Z" transform="translate(152.2005 1279.734)" id="Shape" fill="#407BFF" fill-rule="evenodd" stroke="none" />
        <path d="M183.863 43.7688C177.922 55.7911 171.934 66.3744 165.296 77.2363C158.658 88.0981 151.928 98.5421 144.501 108.847C140.88 114.046 137.028 119.105 133.268 124.211C129.508 129.317 125.377 134.284 121.106 139.158C112.734 149.209 103.759 158.743 94.2299 167.705C91.909 170.026 89.1704 172.347 86.6637 174.436C84.1469 176.751 81.5131 178.935 78.7726 180.981L70.3709 187.201C69.4426 187.804 69.6747 187.758 66.8432 189.615C64.6208 191.008 62.2555 192.16 59.7876 193.05C49.721 196.634 38.5718 195.456 29.4766 189.847C27.1939 188.414 25.0767 186.732 23.1638 184.833C22.2198 183.868 21.3361 182.844 20.5179 181.77C19.8365 180.95 19.216 180.081 18.6612 179.17C16.5352 175.55 14.6736 171.78 13.0911 167.891C10.3809 161.204 8.20787 154.313 6.59249 147.281C3.7884 134.592 1.91123 121.716 0.975873 108.754C0.00750781 96.137 -0.240391 83.4754 0.233167 70.8305C0.505219 63.3971 6.20187 57.295 13.599 56.5133C20.9962 55.7316 27.8425 60.5082 29.6622 67.7205L29.6622 68.2311C34.8473 90.5392 41.4995 112.481 49.5755 133.912C51.3618 138.476 53.5198 142.885 56.0276 147.095C56.9539 148.724 58.0094 150.277 59.184 151.737C59.5089 152.201 59.184 151.319 58.6734 150.948C58.33 150.477 57.9579 150.027 57.5594 149.602C56.7409 148.718 55.8035 147.953 54.7743 147.327C52.8805 146.071 50.7183 145.276 48.4615 145.007C46.2771 144.741 44.0612 144.947 41.963 145.61C40.0134 146.028 36.8106 148.488 38.9458 146.678L44.516 141.386C48.183 137.765 51.8964 133.866 55.4706 129.921C70 112.815 83.2936 94.6973 95.2509 75.7045C101.378 66.0496 107.459 56.209 113.308 46.3219C119.156 36.4348 125.098 26.0372 130.297 16.6607L130.668 16.0109C138.362 1.38002 156.457 -4.24687 171.092 3.44091C185.726 11.1288 191.36 29.2219 183.679 43.8593L183.863 43.7688Z" transform="translate(19.13053 209.1663)" id="Shape" fill="#263238" stroke="none" />
        <path d="M4.64181 42.5302C1.77269 56.2767 0.218364 70.2653 0 84.3065C1.53181 82.8211 2.97075 81.3357 4.4097 79.6647C40.26 37.2076 26.447 55.6033 36.2062 42.5302C36.2062 42.5302 44.1591 31.7921 47.9036 26.2838C50.2245 20.3887 52.5454 14.4937 54.3093 8.50571C54.9591 6.50976 55.5626 4.60661 56.166 2.61059C41.08 -4.90911 13.6933 2.47134 4.64181 42.5302L4.64181 42.5302Z" transform="translate(116.3777 291.683)" id="Shape" fill="#000000" fill-opacity="0.3" stroke="none" />
        <path d="M33.6066 23.9981L29.8468 0L0 13.9254C2.25291 21.8423 5.26878 29.5218 9.00519 36.856C10.7476 40.3485 14.0604 42.7925 17.9115 43.4267C21.7626 44.0609 25.6841 42.8082 28.4544 40.0589L28.4544 40.0589C32.7274 35.8901 34.6572 29.8748 33.6066 23.9981L33.6066 23.9981Z" transform="translate(11.38006 240.9128)" id="Shape" fill="#FFB573" stroke="none" />
        <path d="M22.2807 0L0 15.3644L9.23722 29.8469L39.084 16.1071L22.2807 0L22.2807 0Z" transform="translate(2.142841 224.8057)" id="Polygon" fill="#FFB573" stroke="none" />
        <path d="M33.2817 85.7341L0 78.1215L13.3684 0L46.6502 7.61249L33.2817 85.7341L33.2817 85.7341Z" transform="translate(71.02725 1234.77)" id="Polygon" fill="#FFB573" stroke="none" />
        <path d="M70.1453 0.2275L107.558 8.81486C108.195 8.92748 108.759 9.29054 109.125 9.82275C109.492 10.355 109.63 11.0117 109.508 11.6463L104.541 41.6788C103.823 44.9384 100.612 47.0101 97.3462 46.3206C84.3956 43.0712 78.3612 40.8896 61.8828 37.0369C51.7637 34.716 23.6343 29.378 9.66248 26.1752C-4.30934 22.9723 -0.735198 9.23261 5.48488 9.32539C33.3357 9.83592 52.8778 6.169 63.9717 0.923742C65.8947 0.0109076 68.0673 -0.234017 70.1454 0.2275L70.1453 0.2275Z" transform="translate(0 1308.394)" id="Shape" fill="#263238" stroke="none" />
        <path d="M40.1981 7.65895L6.86986 0L0 40.2908L33.3282 47.9033L40.1981 7.65895L40.1981 7.65895Z" transform="translate(77.47935 1234.77)" id="Polygon" fill="#000000" fill-opacity="0.2" stroke="none" />
        <path d="M139.718 0C139.718 0 84.7129 228.841 68.2346 325.437C50.2243 431.177 0 750.719 0 750.719L60.9933 764.645C60.9933 764.645 137.119 460.003 164.459 357.466C194.167 246.062 255.717 111.45 255.717 2.13526C218.861 2.13519 139.718 0 139.718 0L139.718 0Z" transform="translate(65.4107 511.4837)" id="Shape" fill="#263238" stroke="none" />
        <path d="M74.3618 41.0336L0 23.9982L1.67105 0L82.0207 22.2343L74.3618 41.0336L74.3618 41.0336Z" transform="translate(54.50243 1235.698)" id="Polygon" fill="#407BFF" stroke="none" />
        <path d="M15.4518 10.2936C12.3364 10.3446 9.2244 10.0646 6.16816 9.45812L6.16816 9.45826C3.98941 9.08769 2.01436 7.95189 0.598074 6.25513C-0.199382 4.89338 -0.199382 3.2071 0.598074 1.84536C1.01214 0.885495 1.88708 0.202994 2.91898 0.0349892C7.37514 -0.614789 15.3126 7.97257 16.1945 8.94731C16.3742 9.21391 16.3742 9.56266 16.1945 9.82926C16.0544 10.1117 15.7672 10.2913 15.4518 10.2936ZM1.66567 5.41978C2.87251 7.32293 7.23582 8.66909 13.4558 8.66909C10.1601 5.32699 5.23981 1.24219 2.7798 1.61347C2.28627 1.70696 1.87001 2.0366 1.66567 2.49542C1.15266 3.40273 1.15266 4.51247 1.66567 5.41978Z" transform="translate(50.84081 1302.273)" id="Shape" fill="#407BFF" fill-rule="evenodd" stroke="none" />
        <path d="M5.80679 16.3119L5.43544 16.3119L5.06408 16.0334C2.18619 13.2947 -1.20238 5.21792 0.422279 1.78303C0.98678 0.489282 2.3838 -0.228634 3.76438 0.065587C4.99843 0.16248 6.11546 0.832657 6.78153 1.87596C9.05974 5.43317 7.10495 12.9135 6.51771 15.1607C6.42294 15.5234 6.36378 15.7498 6.36378 15.8014C6.28502 16.0603 6.07162 16.2559 5.80679 16.3119ZM5.3615 2.52588C4.98965 1.9788 4.39772 1.5942 3.71866 1.45807L3.56924 1.41175C2.32462 1.2725 1.72722 1.78317 1.72722 2.20092C1.30318 6.30272 2.60645 10.3976 5.3615 13.6198C6.60004 10.012 6.60004 6.13373 5.3615 2.52588Z" transform="translate(60.57865 1296.255)" id="Shape" fill="#407BFF" fill-rule="evenodd" stroke="none" />
        <path d="M21.6859 26.7987C25.5002 15.2214 35.3229 6.64434 47.3087 4.42521C55.7705 2.56462 64.3454 1.26209 72.9779 0.526113C98.8692 -0.494665 124.798 -0.0297479 150.635 1.91867C164.143 2.84702 177.929 4.75017 188.93 6.56047L189.302 6.56047C195.112 7.51765 200.286 10.7875 203.645 15.6241C207.003 20.4606 208.259 26.4514 207.126 32.2297C197.674 77.8216 191.208 123.982 187.77 170.416C183.871 237.954 186.517 291.103 184.938 307.396L2.2369 304.054C-5.88647 138.898 9.84925 64.1653 21.6859 26.7987L21.6859 26.7987Z" transform="translate(136.1896 206.1766)" id="Shape" fill="#EEEEEE" stroke="none" />
        <path d="M75.0581 0C65.7745 35.6026 7.10196 98.6848 0 197.787C2.5994 252.143 0.417746 289.231 7.10196 325.623L118.97 322.652C120.687 305.431 108.015 250.054 116.324 193.935C124.4 139.533 135.866 65.5423 142.364 32.4926C143.504 26.435 142.186 20.1729 138.703 15.0874C135.22 10.002 129.857 6.51111 123.797 5.38451L123.379 5.38451C111.775 3.48135 97.2458 1.43895 82.9954 0.510602L75.0581 0Z" transform="translate(206.6143 204.7995)" id="Shape" fill="#263238" stroke="none" />
        <path d="M28.0079 52.6399C27.6443 52.633 27.3033 52.4624 27.0795 52.1757C15.4584 36.8264 6.34055 19.7341 0.0641705 1.53358C-0.038389 1.23822 -0.0172821 0.91404 0.122533 0.63441C0.262348 0.354779 0.508972 0.143427 0.806735 0.0481633C1.43371 -0.134007 2.09199 0.215672 2.29215 0.837262C8.46059 18.7969 17.4549 35.6574 28.9361 50.783C29.1208 51.0292 29.2001 51.3387 29.1566 51.6434C29.1131 51.9481 28.9502 52.223 28.704 52.4077C28.4969 52.5459 28.2565 52.6261 28.0079 52.6399L28.0079 52.6399Z" transform="translate(279.7516 421.2916)" id="Shape" fill="#EEEEEE" fill-opacity="0.2" stroke="none" />
        <path d="M4.89396 26.4367C-3.08996 58.9293 -0.351309 103.908 6.28644 144.942C13.1099 98.8953 22.3471 39.1088 28.892 2.0672C21.1403 -3.22446 11.2067 0.535391 4.89396 26.4367L4.89396 26.4367Z" transform="translate(316.8838 252.4925)" id="Shape" fill="#000000" fill-opacity="0.3" stroke="none" />
        <path d="M26.3108 28.6863C30.5188 15.7956 41.2084 6.07622 54.4401 3.11C66.6454 1.41543 78.933 0.377232 91.2497 0C80.8521 33.6995 86.9328 132.338 91.5282 210.181C77.6027 249.451 78.6704 278.276 78.4382 325.483L1.8948 318.799C-6.4604 145.613 14.8455 60.1577 26.3108 28.6863L26.3108 28.6863Z" transform="translate(122.1883 204.9389)" id="Shape" fill="#263238" stroke="none" />
        <path d="M1.0467 85.6878C23.7452 80.7675 27.9691 67.1205 26.7159 51.5241C26.4347 47.6726 25.9076 43.843 25.1377 40.0588L53.8705 16.8498L74.9443 0C68.7243 24.8801 61.3902 70.3698 78.0079 87.3588C78.0079 87.3588 63.572 110.15 24.9984 107.365C-7.63345 105.23 1.0467 85.6878 1.0467 85.6878L1.0467 85.6878Z" transform="translate(211.7878 120.7828)" id="Shape" fill="#FFB573" stroke="none" />
        <path d="M6.40557 0L0 5.94151L19.774 13.4148L17.4068 5.84865L6.40557 0L6.40557 0Z" transform="translate(240.314 222.6241)" id="Polygon" fill="#E0E0E0" stroke="none" />
        <path d="M7.19474 45.0255C7.19474 45.0255 7.19474 25.5763 0 21.3987C14.7439 17.8789 28.2832 10.4924 39.2232 0L50.9669 4.64181C50.9669 4.64181 46.6501 27.1081 7.19474 45.0255L7.19474 45.0255Z" transform="translate(246.7198 201.2254)" id="Shape" fill="#F5F5F5" stroke="none" />
        <path d="M16.525 0L21.0275 7.47331L0 9.28362L4.36331 2.64579L16.525 0L16.525 0Z" transform="translate(219.2865 221.0923)" id="Polygon" fill="#E0E0E0" stroke="none" />
        <path d="M8.74376 40.2908C10.9253 30.7595 17.584 22.873 26.6146 19.1242C15.2886 15.7357 14.9636 0 14.9636 0L3.86964 2.13526C3.86964 2.13526 -7.50257 23.1162 8.74376 40.2908L8.74376 40.2908Z" transform="translate(209.1967 201.9681)" id="Shape" fill="#F5F5F5" stroke="none" />
        <path d="M0 22.9769C0.772879 26.7607 1.30013 30.5905 1.5782 34.4423C12.1615 32.4927 26.4582 21.5381 28.1293 10.769C28.7376 7.2138 28.94 3.60091 28.7328 0L0 22.9769Z" transform="translate(236.9255 137.8647)" id="Shape" fill="#000000" fill-opacity="0.2" stroke="none" />
        <path d="M4.66306 0C-2.07867 12.4803 -1.47351 27.6447 6.24111 39.5481L28.9859 11.2331L4.66306 0Z" transform="translate(193.5033 47.07096)" id="Shape" fill="#263238" stroke="none" />
        <path d="M96.8194 47.637C95.1947 81.6151 95.9839 101.482 79.1341 119.724C68.1046 131.882 51.2501 136.932 35.3526 132.843C19.455 128.754 7.12859 116.199 3.33347 100.229C-4.32549 70.1498 -0.426387 19.6469 32.484 4.56106C46.8157 -2.4581 63.8009 -1.31351 77.0613 7.56496C90.3216 16.4435 97.8501 31.7121 96.8194 47.637L96.8194 47.637Z" transform="translate(193.1154 30.85899)" id="Shape" fill="#FFB573" stroke="none" />
        <path d="M117.217 43.4967C102.549 -3.47831 -43.7142 -27.755 13.0086 51.7128L75.2088 43.2183L77.5297 59.1861C80.6979 71.6801 84.9537 83.8729 90.2484 95.6246L87.649 110.061L90.3411 133.548C90.3411 133.548 116.196 104.862 129.286 91.2613C148.874 71.0227 129.007 42.3363 117.217 43.4967L117.217 43.4967Z" transform="translate(193.6057 0)" id="Shape" fill="#263238" stroke="none" />
        <path d="M8.56202 30.021C24.8083 41.9969 67.2809 44.2714 67.2809 44.2714C64.3765 37.9949 59.9191 32.563 54.3303 28.4893C71.3658 39.5368 86.498 52.2553 114.952 53.323C107.26 32.0823 91.1834 14.9318 70.4839 5.88371C36.2271 -9.48073 -21.9347 7.60108 8.56202 30.021L8.56202 30.021Z" transform="translate(190.8112 22.75935)" id="Shape" fill="#263238" stroke="none" />
        <path d="M7.84892 0C7.84892 0 1.53613 4.27045 0.0970349 19.1242C-1.34206 33.978 13.6975 53.1487 13.6975 53.1487L17.4109 43.633C3.3465 25.4835 7.84892 0 7.84892 0L7.84892 0Z" transform="translate(296.1506 1.906204)" id="Shape" fill="#263238" stroke="none" />
        <path d="M25.6931 17.5058C22.794 24.2745 17.645 29.8335 11.1178 33.2415C2.80891 37.3263 -1.60072 29.8065 0.534471 20.6158C2.43763 12.3534 9.12184 0.284659 17.57 0.00616207C26.0181 -0.272335 29.3137 8.96488 25.6931 17.5058L25.6931 17.5058Z" transform="translate(273.7575 86.61294)" id="Shape" fill="#FFB573" stroke="none" />
        <path d="M6.49963 4.87696C6.49963 7.6156 5.10715 9.93651 3.34324 10.0294C1.57933 10.1222 0.0475966 7.94056 0.00113325 5.15545C-0.0453301 2.37034 1.39362 0.0959016 3.20399 0.00304562C5.01436 -0.0898103 6.45331 1.9526 6.49963 4.87696L6.49963 4.87696Z" transform="translate(231.5398 86.24477)" id="Shape" fill="#263238" stroke="none" />
        <path d="M6.4985 4.64528C6.4985 7.43039 5.10602 9.70483 3.29564 9.79769C1.48527 9.89054 0 7.70889 0 5.15588C0 2.60287 1.39249 0.0963266 3.1564 0.00347059C4.92031 -0.0893854 6.22001 1.67452 6.4985 4.64528L6.4985 4.64528Z" transform="translate(200.673 88.1939)" id="Shape" fill="#263238" stroke="none" />
        <path d="M12.8116 0C9.64314 8.61301 5.33423 16.7624 0 24.2303C3.90094 26.7752 8.73087 27.4555 13.1829 26.087L12.8116 0Z" transform="translate(204.7575 92.83918)" id="Shape" fill="#ED893E" stroke="none" />
        <path d="M4.03835 11.0793C10.4271 10.1052 16.1341 6.54674 19.8205 1.23872C20.047 0.863964 19.9457 0.377798 19.5884 0.124658C19.4054 0.00743698 19.1822 -0.0291813 18.9714 0.0235858C18.7606 0.0762822 18.5807 0.213618 18.4745 0.403155C14.2806 6.00589 7.78248 9.41699 0.78917 9.68677C0.338701 9.73444 -0.00254982 10.1157 0 10.5687C0.047455 10.9936 0.407972 11.3141 0.835492 11.3114C1.90727 11.3099 2.97748 11.2323 4.03835 11.0793L4.03835 11.0793Z" transform="translate(225.2282 114.7167)" id="Shape" fill="#263238" stroke="none" />
        <path d="M13.9394 8.70757C14.2093 8.66011 14.464 8.5487 14.682 8.38261C15.37 7.81633 15.4736 6.80158 14.914 6.1081C11.7748 2.00033 6.79938 -0.278639 1.63854 0.0273397C1.01001 0.0219568 0.434603 0.379711 0.161489 0.945983C-0.111767 1.51219 -0.0337143 2.1852 0.361791 2.67391C0.757297 3.16263 1.39914 3.37929 2.00997 3.2302C6.02069 3.01516 9.89005 4.74252 12.4076 7.872C12.6941 8.44253 13.3045 8.77549 13.9394 8.70749L13.9394 8.70757Z" transform="translate(238.1184 70.57755)" id="Shape" fill="#263238" stroke="none" />
        <path d="M1.62863 11.9494C2.15998 11.8593 2.61215 11.5115 2.83554 11.021C4.52409 7.10083 7.96635 4.20947 12.1192 3.22283C12.5409 3.15512 12.9171 2.91947 13.162 2.56958C13.407 2.21969 13.4996 1.78551 13.4189 1.36614C13.2763 0.482624 12.4462 -0.119204 11.5622 0.0200444L11.5622 0.0200444C6.45473 1.27413 2.22897 4.84714 0.143357 9.67508C-0.100435 10.2163 -0.0296062 10.8474 0.328077 11.3211C0.685902 11.7949 1.27349 12.0358 1.8608 11.9495L1.62863 11.9494Z" transform="translate(191.6174 71.00272)" id="Shape" fill="#263238" stroke="none" />
        <path d="M56.8276 17.138C59.9377 24.1007 62.5834 30.4136 65.1365 37.0513C67.6895 43.6891 70.2425 50.2805 72.6562 56.9182C77.298 70.1938 81.9398 83.7015 85.6532 97.3948C93.9857 125.318 99.3687 154.037 101.714 183.083C103.269 211.144 103.269 239.27 101.714 267.331C100.367 295.182 98.1858 322.43 94.5189 349.956C93.514 357.426 87.1032 362.98 79.5653 362.909C72.0276 362.838 65.7222 357.166 64.8577 349.677L64.8577 349.677C55.8061 254.907 59.4732 295.368 57.013 268.399C57.013 268.399 54.5064 241.492 53.1139 228.155C51.8607 214.833 50.1895 201.604 48.4721 189.024C44.0238 163.793 37.5667 138.957 29.1622 114.755C24.9846 102.361 20.6677 89.9212 16.0722 77.6204C11.4767 65.3197 6.55658 52.694 2.14681 41.043L1.86831 40.3931C-3.69951 25.3366 3.57768 8.56591 18.3774 2.34753C33.1771 -3.87084 50.2489 2.66924 57.1059 17.1841L56.8276 17.138Z" transform="translate(297.35 213.1915)" id="Shape" fill="#263238" stroke="none" />
        <path d="M19.3564 2.36418L0 11.6478L32.8176 23.3915C32.8176 23.3915 55.0519 16.3824 44.6079 4.12809L38.7591 2.27139C29.2435 -0.931534 24.5552 -0.606644 19.3564 2.36418L19.3564 2.36418Z" transform="translate(343.3156 558.462)" id="Shape" fill="#FFB573" stroke="none" />
        <path d="M0 20.9809L34.6743 27.6188L43.9115 11.7438L11.0938 0L0 20.9809L0 20.9809Z" transform="translate(332.2218 569.9241)" id="Polygon" fill="#FFB573" stroke="none" />
      </g>
      <g id="Chat--inject-67" transform="translate(110.7268 0)">
        <path d="M0 0L155.733 0L155.733 5.19882L0 5.19882L0 0Z" transform="translate(284.5691 0.1404526)" id="Rectangle" fill="#407BFF" stroke="none" />
        <path d="M3.80628 27.4807L0 23.9065C14.4378 8.54278 34.6189 -0.118319 55.7016 0.00120408L55.7016 5.15361C36.0486 5.04337 17.2402 13.1354 3.80632 27.4807L3.80628 27.4807Z" transform="translate(194.6573 0)" id="Shape" fill="#407BFF" stroke="none" />
        <path d="M58.2914 0.00216026L356.017 0.00216026C390.775 0.569637 419.391 27.4965 422.07 62.1559L433.349 240.401L436.97 298.238L375.512 240.448L73.5166 240.448C38.784 239.88 10.1886 212.974 7.51007 178.34L0.176008 62.2952C-1.08651 46.1476 4.48531 30.2112 15.5343 18.368C26.5832 6.52474 42.0951 -0.138151 58.2914 0.00219568L58.2914 0.00216026Z" transform="translate(192.2532 18.19492)" id="Shape" fill="#407BFF" stroke="none" />
        <path d="M11.0263 20.7028L292.366 20.7028C295.06 20.7227 297.64 19.6162 299.482 17.6505C301.325 15.6847 302.262 13.0386 302.068 10.3515L302.068 10.3515C301.591 4.57523 296.815 0.0999034 291.02 0.000247899L9.72657 0.000247899C7.03255 -0.0196903 4.4527 1.08686 2.61038 3.0526C0.768063 5.01833 -0.169138 7.66444 0.0252149 10.3515L0.0252149 10.3515C0.478587 16.1205 5.24045 20.601 11.0263 20.7028L11.0263 20.7028Z" transform="translate(255.254 82.67145)" id="Shape" fill="#EEEEEE" stroke="none" />
        <path d="M11.1227 20.7033L292.463 20.7033C295.157 20.7233 297.737 19.6167 299.579 17.651C301.421 15.6853 302.358 13.0391 302.164 10.3521L302.164 10.3521C301.709 4.56563 296.92 0.0788319 291.116 0.000779112L9.73019 0.000779112C7.0317 -0.0333601 4.44327 1.06887 2.59777 3.03797C0.752339 5.00703 -0.179975 7.66143 0.0288271 10.3521L0.0288271 10.3521C0.48567 16.156 5.30108 20.6491 11.1227 20.7033L11.1227 20.7033Z" transform="translate(258.2676 130.3887)" id="Shape" fill="#EEEEEE" stroke="none" />
        <path d="M10.9799 20.7491L196.652 20.7491C199.355 20.7702 201.943 19.6573 203.787 17.6811C205.63 15.7049 206.561 13.0463 206.354 10.3515L206.354 10.3515C205.921 4.57247 201.147 0.0803194 195.352 0.000283314L9.72657 0.000283314C7.03255 -0.0196903 4.45269 1.08686 2.61038 3.0526C0.768063 5.01833 -0.169138 7.66444 0.0252149 10.3515L0.0252149 10.3515C0.432974 16.1314 5.18662 20.6433 10.9799 20.7491L10.9799 20.7491Z" transform="translate(357.1417 178.0607)" id="Shape" fill="#EEEEEE" stroke="none" />
        <path d="M356.146 0.00396639L58.4202 0.00396639C42.2302 -0.18557 26.7043 6.43079 15.6276 18.2401C4.5509 30.0494 -1.05899 45.9666 0.165561 62.1114L8.52083 192.825L12.1414 250.615L66.3113 192.825L368.307 192.825C384.493 192.988 400.006 186.355 411.071 174.54C422.136 162.726 427.738 146.812 426.515 130.671L422.199 62.1114C419.518 27.4602 390.896 0.547716 356.146 0.00396639L356.146 0.00396639Z" transform="translate(0 316.4756)" id="Shape" fill="#407BFF" stroke="none" />
        <path d="M356.146 0.00396639L58.4202 0.00396639C42.2302 -0.18557 26.7043 6.43079 15.6276 18.2401C4.5509 30.0494 -1.05899 45.9666 0.165561 62.1114L8.52083 192.825L12.1414 250.615L66.3113 192.825L368.307 192.825C384.493 192.988 400.006 186.355 411.071 174.54C422.136 162.726 427.738 146.812 426.515 130.671L422.199 62.1114C419.518 27.4602 390.896 0.547716 356.146 0.00396639L356.146 0.00396639Z" transform="translate(0 316.4756)" id="Shape" fill="#EEEEEE" fill-opacity="0.5" stroke="none" />
        <path d="M292.413 20.7026L11.0263 20.7026C5.24045 20.6009 0.478623 16.1203 0.0251795 10.3514L0.0251795 10.3514C-0.169174 7.66441 0.768027 5.01833 2.61034 3.05256C4.45266 1.08686 7.03251 -0.0196903 9.72654 0.000283314L291.02 0.000283314C296.824 0.0782654 301.612 4.56503 302.068 10.3514L302.068 10.3514C302.261 13.0304 301.33 15.6691 299.498 17.6332C297.666 19.5974 295.099 20.7096 292.413 20.7026L292.413 20.7026Z" transform="translate(58.76638 380.9078)" id="Shape" fill="#EEEEEE" stroke="none" />
        <path d="M196.745 20.7026L11.0727 20.7026C5.27767 20.603 0.501358 16.1277 0.0251795 10.3514L0.0251795 10.3514C-0.169173 7.66441 0.768027 5.01833 2.61034 3.05256C4.45266 1.08686 7.03251 -0.0196903 9.72654 0.000283314L195.399 0.000283314C201.202 0.0582209 205.989 4.5622 206.4 10.3514L206.4 10.3514C206.594 13.0304 205.662 15.669 203.83 17.6332C201.998 19.5974 199.431 20.7096 196.745 20.7026L196.745 20.7026Z" transform="translate(61.64435 428.7183)" id="Shape" fill="#EEEEEE" stroke="none" />
        <path d="M58.3597 0.00283313L356.039 0.00283313C390.806 0.548636 419.434 27.4871 422.092 62.1566L430.911 201.411L434.578 259.201L373.12 201.411L71.0783 201.411C36.3202 200.843 7.70414 173.917 5.02548 139.257L0.151573 61.9711C-1.01688 45.8611 4.61008 29.9974 15.6686 18.2244C26.7273 6.45147 42.2082 -0.156177 58.3597 0.00283313L58.3597 0.00283313Z" transform="translate(226.9056 567.0879)" id="Shape" fill="#407BFF" stroke="none" />
        <path d="M0.0616915 21.8651C0.952075 34.0715 11.033 43.5677 23.2707 43.728C28.9713 43.7963 34.4386 41.4681 38.3398 37.311C42.2409 33.1538 44.2174 27.5497 43.7875 21.8651C42.8546 9.67898 32.7986 0.20611 20.5785 0.00212485C14.8735 -0.0805318 9.39744 2.24335 5.49309 6.40387C1.58882 10.5644 -0.382827 16.1768 0.0616915 21.8651L0.0616915 21.8651Z" transform="translate(418.0986 638.5723)" id="Shape" fill="#EEEEEE" stroke="none" />
        <path d="M0.0616915 21.8644C0.952075 34.0709 11.033 43.5671 23.2707 43.7274C28.9677 43.7969 34.4313 41.4673 38.3253 37.3083C42.2194 33.1494 44.1848 27.5445 43.7411 21.8644C42.8082 9.67835 32.7522 0.205473 20.5321 0.0014874C14.8351 -0.0679953 9.37151 2.26162 5.47751 6.42059C1.58344 10.5795 -0.382048 16.1844 0.0616915 21.8644L0.0616915 21.8644Z" transform="translate(345.1758 645.907)" id="Shape" fill="#EEEEEE" stroke="none" />
        <path d="M0.0579376 21.8639C0.990818 34.05 11.0469 43.5229 23.267 43.7268C28.964 43.7963 34.4275 41.4667 38.3215 37.3077C42.2156 33.1488 44.1811 27.544 43.7374 21.8639C42.847 9.65751 32.766 0.161276 20.5283 0.000991596C14.8358 -0.0541837 9.38093 2.27975 5.49005 6.43532C1.59916 10.5909 -0.371211 16.1873 0.0579376 21.8639L0.0579376 21.8639Z" transform="translate(492.6033 656.9086)" id="Shape" fill="#EEEEEE" stroke="none" />
      </g>
    </g>
    <path d="M68.3169 96.1822L27.794 96.1822C24.72 96.0267 22.0962 93.9088 21.2955 90.937L0.221622 5.24923C-0.211139 4.01314 -0.00226651 2.64275 0.779041 1.5918C1.56042 0.540704 2.81231 -0.0542545 4.12072 0.00396639L44.6901 0.00396639C47.7641 0.159505 50.3879 2.27742 51.1886 5.24923L72.2624 90.8906C72.6938 92.1395 72.4793 93.5209 71.6896 94.5802C70.8997 95.6394 69.637 96.2393 68.3169 96.1822L68.3169 96.1822Z" transform="translate(807.5186 590.8145)" id="Shape" fill="#263238" stroke="none" />
  </g>
</svg>