<?xml version="1.0" encoding="utf-8"?>
<svg width="2000px" height="2000px" viewBox="0 0 2000 2000" version="1.1" xmlns:xlink="http://www.w3.org/1999/xlink" xmlns="http://www.w3.org/2000/svg">
  <desc>Created with Lunacy</desc>
  <defs>
    <rect width="2000" height="2000" id="artboard_1" />
    <clipPath id="clip_1">
      <use xlink:href="#artboard_1" clip-rule="evenodd" />
    </clipPath>
  </defs>
  <g id="Ultra-HD-Copy-16" clip-path="url(#clip_1)">
    <use xlink:href="#artboard_1" stroke="none" fill="#FFFFFF" />
    <g id="Group-6" transform="translate(100 215.001)">
      <g id="Shadow--inject-96" transform="translate(0 1465.453)">
        <path d="M0 52.4647C0 23.4893 402.327 0 898.623 0C1394.92 0 1797.25 23.4893 1797.25 52.4647C1797.25 81.4402 1394.92 104.929 898.623 104.929C402.327 104.929 0 81.4402 0 52.4647Z" id="Ellipse" fill="#E9E9E9" stroke="none" />
      </g>
      <g id="Group" transform="translate(184 0)">
        <path d="M0 0L800 0L800 1509.69L0 1509.69L0 0Z" id="Rectangle" fill="#407BFF" stroke="none" />
        <path d="M0 0L1464.18 0L1464.18 754.616L7.62939e-06 754.616L0 0Z" transform="matrix(-4.371139E-08 1 -1 -4.371139E-08 773.2085 22.54773)" id="Rectangle" fill="#FFFFFF" fill-opacity="0.95" stroke="none" />
        <path d="M0 0C0.0156984 18.5955 15.0925 33.6591 33.6849 33.6584C52.2772 33.6578 67.3529 18.5931 67.3673 0.000716997L0 0Z" transform="translate(364.832 18.45117)" id="Shape" fill="#407BFF" stroke="none" />
      </g>
      <g id="Group" transform="translate(259.0002 83.69238)">
        <path d="M0 0L14.5294 0L14.5294 3.18627L0 3.18627L0 0Z" transform="translate(144.4973 0)" id="Rectangle" fill="#407BFF" stroke="none" />
        <path d="M0 0L34.348 0L34.348 3.18627L0 3.18627L0 0Z" transform="translate(87.14453 0)" id="Rectangle" fill="#407BFF" stroke="none" />
        <path d="M0 0L636.554 0L636.554 160.397L0 160.397L0 0Z" transform="translate(0 11.15137)" id="Rectangle" fill="#407BFF" stroke="none" />
        <path d="M0 0L636.554 0L636.554 160.397L0 160.397L0 0Z" transform="translate(6.7229 17.875)" id="Rectangle" fill="#407BFF" stroke="none" />
        <path d="M0 0L636.554 0L636.554 160.397L0 160.397L0 0Z" transform="translate(6.7229 17.875)" id="Rectangle" fill="#FAFAFA" fill-opacity="0.6" stroke="none" />
        <path d="M0 0L636.554 0L636.554 160.397L0 160.397L0 0Z" transform="translate(13.44604 24.59668)" id="Rectangle" fill="#407BFF" stroke="none" />
        <path d="M0 0L636.554 0L636.554 160.397L0 160.397L0 0Z" transform="translate(13.44604 24.59668)" id="Rectangle" fill="#FAFAFA" fill-opacity="0.8" stroke="none" />
        <path d="M0 0L293.966 0L293.966 24.2794L0 24.2794L0 0Z" transform="translate(178.8777 51.71289)" id="Rectangle" fill="#407BFF" stroke="none" />
        <path d="M0 0L391.147 0L391.147 24.2794L0 24.2794L0 0Z" transform="translate(178.8777 92.65723)" id="Rectangle" fill="#407BFF" stroke="none" />
        <path d="M0 0L110.054 0L110.054 9.14461L0 9.14461L0 0Z" transform="translate(178.8777 133.6006)" id="Rectangle" fill="#407BFF" stroke="none" />
        <path d="M0 0L110.054 0L110.054 9.14461L0 9.14461L0 0Z" transform="translate(178.8777 133.6006)" id="Rectangle" fill="#FAFAFA" fill-opacity="0.5" stroke="none" />
        <path d="M0 57.1203C0 25.5737 25.5736 0 57.1204 0C88.6671 -1.14441e-05 114.241 25.5737 114.241 57.1204C114.241 88.6671 88.6671 114.241 57.1203 114.241C25.5736 114.241 4.57764e-05 88.6671 0 57.1203Z" transform="matrix(0.2315782 -0.9728163 0.9728163 0.2315782 21.97632 147.1475)" id="Circle" fill="#407BFF" stroke="none" />
        <path d="M94.3138 47.1572C94.3048 73.2175 73.1846 94.323 47.1406 94.314C21.0966 94.305 -0.00897015 73.1849 0 47.1409C0.00899446 21.097 21.1292 -0.00855687 47.1732 0.000437567C59.6953 -0.0548418 71.7204 4.89618 80.5734 13.7523C89.4265 22.6084 94.3734 34.6351 94.3138 47.1572L94.3138 47.1572Z" transform="translate(43.62012 57.63965)" id="Shape" fill="#FAFAFA" stroke="none" />
        <path d="M82.8431 12.5325C74.5868 27.7054 58.6954 37.1499 41.4216 37.1499C24.1477 37.1499 8.2563 27.7054 0 12.5325C25.0865 -4.1775 57.7567 -4.1775 82.8431 12.5325L82.8431 12.5325Z" transform="translate(49.38721 114.7266)" id="Shape" fill="#407BFF" stroke="none" />
        <path d="M82.8431 12.5325C74.5868 27.7054 58.6954 37.1499 41.4216 37.1499C24.1477 37.1499 8.2563 27.7054 0 12.5325C25.0865 -4.1775 57.7567 -4.1775 82.8431 12.5325L82.8431 12.5325Z" transform="translate(49.38721 114.7266)" id="Shape" fill="#FAFAFA" fill-opacity="0.7" stroke="none" />
        <path d="M0 20.9975C0 9.4009 9.40093 0 20.9976 0C32.5942 0 41.9951 9.4009 41.9951 20.9975C41.9951 32.5941 32.5942 41.995 20.9976 41.995C9.40093 41.995 0 32.5941 0 20.9975Z" transform="translate(69.7793 67.64453)" id="Circle" fill="#407BFF" stroke="none" />
        <path d="M0 20.9975C0 9.4009 9.40093 0 20.9976 0C32.5942 0 41.9951 9.4009 41.9951 20.9975C41.9951 32.5941 32.5942 41.995 20.9976 41.995C9.40093 41.995 0 32.5941 0 20.9975Z" transform="translate(69.7793 67.64453)" id="Circle" fill="#FAFAFA" fill-opacity="0.7" stroke="none" />
      </g>
      <g id="Group" transform="translate(261 286.6855)">
        <path d="M0 0L636.554 0L636.554 160.365L0 160.365L0 0Z" id="Rectangle" fill="#407BFF" stroke="none" />
        <path d="M0 0L636.554 0L636.554 160.397L0 160.397L0 0Z" transform="translate(6.7229 6.722656)" id="Rectangle" fill="#407BFF" stroke="none" />
        <path d="M0 0L636.554 0L636.554 160.397L0 160.397L0 0Z" transform="translate(6.7229 6.722656)" id="Rectangle" fill="#FAFAFA" fill-opacity="0.6" stroke="none" />
        <path d="M0 0L636.554 0L636.554 160.365L0 160.365L0 0Z" transform="translate(13.44629 13.44629)" id="Rectangle" fill="#407BFF" stroke="none" />
        <path d="M0 0L636.554 0L636.554 160.365L0 160.365L0 0Z" transform="translate(13.44629 13.44629)" id="Rectangle" fill="#FAFAFA" fill-opacity="0.8" stroke="none" />
        <path d="M0 0L104.382 0L104.382 24.2794L0 24.2794L0 0Z" transform="translate(178.8774 40.56152)" id="Rectangle" fill="#407BFF" stroke="none" />
        <path d="M0 0L83.3848 0L83.3848 24.2794L0 24.2794L0 0Z" transform="translate(296.801 40.56152)" id="Rectangle" fill="#407BFF" stroke="none" />
        <path d="M0 0L335.929 0L335.929 24.2794L0 24.2794L0 0Z" transform="translate(178.8774 81.50488)" id="Rectangle" fill="#407BFF" stroke="none" />
        <path d="M0 0L232.375 0L232.375 9.14456L0 9.14456L0 0Z" transform="translate(178.8774 122.4482)" id="Rectangle" fill="#407BFF" stroke="none" />
        <path d="M0 0L232.375 0L232.375 9.14456L0 9.14456L0 0Z" transform="translate(178.8774 122.4482)" id="Rectangle" fill="#FAFAFA" fill-opacity="0.5" stroke="none" />
        <path d="M0 57.1314C3.05176e-05 25.5786 25.5785 7.62939e-06 57.1314 0C88.6843 7.62939e-06 114.263 25.5786 114.263 57.1314C114.263 88.6843 88.6842 114.263 57.1314 114.263C25.5785 114.263 3.05176e-05 88.6843 0 57.1314Z" transform="matrix(0.2315782 -0.9728163 0.9728163 0.2315782 21.98242 136.0605)" id="Circle" fill="#407BFF" stroke="none" />
        <path d="M94.3151 47.1587C94.3216 66.2156 82.8382 83.4146 65.2194 90.7197C47.6006 98.0247 27.3162 93.9972 13.8248 80.5151C0.333378 67.033 -3.70815 46.7514 3.58475 29.1277C10.8777 11.5038 28.0688 0.00855687 47.142 0.00204198C59.6854 -0.113962 71.7491 4.81654 80.6206 13.6849C89.4921 22.5533 94.4267 34.6152 94.3151 47.1587L94.3151 47.1587Z" transform="translate(43.61865 46.48535)" id="Shape" fill="#FAFAFA" stroke="none" />
        <path d="M82.8431 12.5325C74.5868 27.7055 58.6954 37.1499 41.4216 37.1499C24.1477 37.1499 8.2563 27.7055 0 12.5325C25.0865 -4.1775 57.7567 -4.1775 82.8431 12.5325L82.8431 12.5325Z" transform="translate(49.38721 103.5762)" id="Shape" fill="#407BFF" stroke="none" />
        <path d="M82.8431 12.5325C74.5868 27.7055 58.6954 37.1499 41.4216 37.1499C24.1477 37.1499 8.2563 27.7055 0 12.5325C25.0865 -4.1775 57.7567 -4.1775 82.8431 12.5325L82.8431 12.5325Z" transform="translate(49.38721 103.5762)" id="Shape" fill="#FAFAFA" fill-opacity="0.7" stroke="none" />
        <path d="M0 20.9975C0 9.4009 9.40092 0 20.9975 0C32.5942 0 41.9951 9.4009 41.9951 20.9975C41.9951 32.5941 32.5942 41.995 20.9975 41.995C9.40092 41.995 0 32.5941 0 20.9975Z" transform="translate(69.77954 56.52441)" id="Circle" fill="#407BFF" stroke="none" />
        <path d="M0 20.9975C0 9.4009 9.40092 0 20.9975 0C32.5942 0 41.9951 9.4009 41.9951 20.9975C41.9951 32.5941 32.5942 41.995 20.9975 41.995C9.40092 41.995 0 32.5941 0 20.9975Z" transform="translate(69.77954 56.52441)" id="Circle" fill="#FAFAFA" fill-opacity="0.7" stroke="none" />
      </g>
      <g id="Group-3" transform="translate(261 708.6865)">
        <path d="M0 0L636.554 0L636.554 160.365L0 160.365L0 0Z" id="Rectangle" fill="#407BFF" stroke="none" />
        <path d="M0 0L636.554 0L636.554 160.397L0 160.397L0 0Z" transform="translate(6.7229 6.722656)" id="Rectangle" fill="#407BFF" stroke="none" />
        <path d="M0 0L636.554 0L636.554 160.397L0 160.397L0 0Z" transform="translate(6.7229 6.722656)" id="Rectangle" fill="#FAFAFA" fill-opacity="0.6" stroke="none" />
        <path d="M0 0L636.554 0L636.554 160.365L0 160.365L0 0Z" transform="translate(13.44629 13.44629)" id="Rectangle" fill="#407BFF" stroke="none" />
        <path d="M0 0L636.554 0L636.554 160.365L0 160.365L0 0Z" transform="translate(13.44629 13.44629)" id="Rectangle" fill="#FAFAFA" fill-opacity="0.8" stroke="none" />
        <path d="M0 0L104.382 0L104.382 24.2794L0 24.2794L0 0Z" transform="translate(178.8774 40.56152)" id="Rectangle" fill="#407BFF" stroke="none" />
        <path d="M0 0L83.3848 0L83.3848 24.2794L0 24.2794L0 0Z" transform="translate(296.801 40.56152)" id="Rectangle" fill="#407BFF" stroke="none" />
        <path d="M0 0L335.929 0L335.929 24.2794L0 24.2794L0 0Z" transform="translate(178.8774 81.50488)" id="Rectangle" fill="#407BFF" stroke="none" />
        <path d="M0 0L232.375 0L232.375 9.14456L0 9.14456L0 0Z" transform="translate(178.8774 122.4482)" id="Rectangle" fill="#407BFF" stroke="none" />
        <path d="M0 0L232.375 0L232.375 9.14456L0 9.14456L0 0Z" transform="translate(178.8774 122.4482)" id="Rectangle" fill="#FAFAFA" fill-opacity="0.5" stroke="none" />
        <path d="M0 57.1314C3.05176e-05 25.5786 25.5785 7.62939e-06 57.1314 0C88.6843 7.62939e-06 114.263 25.5786 114.263 57.1314C114.263 88.6843 88.6842 114.263 57.1314 114.263C25.5785 114.263 3.05176e-05 88.6843 0 57.1314Z" transform="matrix(0.2315782 -0.9728163 0.9728163 0.2315782 21.98242 136.0605)" id="Circle" fill="#407BFF" stroke="none" />
        <path d="M94.3151 47.1587C94.3216 66.2156 82.8382 83.4146 65.2194 90.7197C47.6006 98.0247 27.3162 93.9972 13.8248 80.5151C0.333378 67.033 -3.70815 46.7514 3.58475 29.1277C10.8777 11.5038 28.0688 0.00855687 47.142 0.00204198C59.6854 -0.113962 71.7491 4.81654 80.6206 13.6849C89.4921 22.5533 94.4267 34.6152 94.3151 47.1587L94.3151 47.1587Z" transform="translate(43.61865 46.48535)" id="Shape" fill="#FAFAFA" stroke="none" />
        <path d="M82.8431 12.5325C74.5868 27.7055 58.6954 37.1499 41.4216 37.1499C24.1477 37.1499 8.2563 27.7055 0 12.5325C25.0865 -4.1775 57.7567 -4.1775 82.8431 12.5325L82.8431 12.5325Z" transform="translate(49.38721 103.5762)" id="Shape" fill="#407BFF" stroke="none" />
        <path d="M82.8431 12.5325C74.5868 27.7055 58.6954 37.1499 41.4216 37.1499C24.1477 37.1499 8.2563 27.7055 0 12.5325C25.0865 -4.1775 57.7567 -4.1775 82.8431 12.5325L82.8431 12.5325Z" transform="translate(49.38721 103.5762)" id="Shape" fill="#FAFAFA" fill-opacity="0.7" stroke="none" />
        <path d="M0 20.9975C0 9.4009 9.40092 0 20.9975 0C32.5942 0 41.9951 9.4009 41.9951 20.9975C41.9951 32.5941 32.5942 41.995 20.9975 41.995C9.40092 41.995 0 32.5941 0 20.9975Z" transform="translate(69.77954 56.52441)" id="Circle" fill="#407BFF" stroke="none" />
        <path d="M0 20.9975C0 9.4009 9.40092 0 20.9975 0C32.5942 0 41.9951 9.4009 41.9951 20.9975C41.9951 32.5941 32.5942 41.995 20.9975 41.995C9.40092 41.995 0 32.5941 0 20.9975Z" transform="translate(69.77954 56.52441)" id="Circle" fill="#FAFAFA" fill-opacity="0.7" stroke="none" />
      </g>
      <g id="Group-2" transform="translate(261 903.6865)">
        <path d="M0 0L636.554 0L636.554 160.365L0 160.365L0 0Z" id="Rectangle" fill="#407BFF" stroke="none" />
        <path d="M0 0L636.554 0L636.554 160.397L0 160.397L0 0Z" transform="translate(6.7229 6.722656)" id="Rectangle" fill="#407BFF" stroke="none" />
        <path d="M0 0L636.554 0L636.554 160.397L0 160.397L0 0Z" transform="translate(6.7229 6.722656)" id="Rectangle" fill="#FAFAFA" fill-opacity="0.6" stroke="none" />
        <path d="M0 0L636.554 0L636.554 160.365L0 160.365L0 0Z" transform="translate(13.44629 13.44629)" id="Rectangle" fill="#407BFF" stroke="none" />
        <path d="M0 0L636.554 0L636.554 160.365L0 160.365L0 0Z" transform="translate(13.44629 13.44629)" id="Rectangle" fill="#FAFAFA" fill-opacity="0.8" stroke="none" />
        <path d="M0 0L104.382 0L104.382 24.2794L0 24.2794L0 0Z" transform="translate(178.8774 40.56152)" id="Rectangle" fill="#407BFF" stroke="none" />
        <path d="M0 0L83.3848 0L83.3848 24.2794L0 24.2794L0 0Z" transform="translate(296.801 40.56152)" id="Rectangle" fill="#407BFF" stroke="none" />
        <path d="M0 0L335.929 0L335.929 24.2794L0 24.2794L0 0Z" transform="translate(178.8774 81.50488)" id="Rectangle" fill="#407BFF" stroke="none" />
        <path d="M0 0L232.375 0L232.375 9.14456L0 9.14456L0 0Z" transform="translate(178.8774 122.4482)" id="Rectangle" fill="#407BFF" stroke="none" />
        <path d="M0 0L232.375 0L232.375 9.14456L0 9.14456L0 0Z" transform="translate(178.8774 122.4482)" id="Rectangle" fill="#FAFAFA" fill-opacity="0.5" stroke="none" />
        <path d="M0 57.1314C3.05176e-05 25.5786 25.5785 7.62939e-06 57.1314 0C88.6843 7.62939e-06 114.263 25.5786 114.263 57.1314C114.263 88.6843 88.6842 114.263 57.1314 114.263C25.5785 114.263 3.05176e-05 88.6843 0 57.1314Z" transform="matrix(0.2315782 -0.9728163 0.9728163 0.2315782 21.98242 136.0605)" id="Circle" fill="#407BFF" stroke="none" />
        <path d="M94.3151 47.1587C94.3216 66.2156 82.8382 83.4146 65.2194 90.7197C47.6006 98.0247 27.3162 93.9972 13.8248 80.5151C0.333378 67.033 -3.70815 46.7514 3.58475 29.1277C10.8777 11.5038 28.0688 0.00855687 47.142 0.00204198C59.6854 -0.113962 71.7491 4.81654 80.6206 13.6849C89.4921 22.5533 94.4267 34.6152 94.3151 47.1587L94.3151 47.1587Z" transform="translate(43.61865 46.48535)" id="Shape" fill="#FAFAFA" stroke="none" />
        <path d="M82.8431 12.5325C74.5868 27.7055 58.6954 37.1499 41.4216 37.1499C24.1477 37.1499 8.2563 27.7055 0 12.5325C25.0865 -4.1775 57.7567 -4.1775 82.8431 12.5325L82.8431 12.5325Z" transform="translate(49.38721 103.5762)" id="Shape" fill="#407BFF" stroke="none" />
        <path d="M82.8431 12.5325C74.5868 27.7055 58.6954 37.1499 41.4216 37.1499C24.1477 37.1499 8.2563 27.7055 0 12.5325C25.0865 -4.1775 57.7567 -4.1775 82.8431 12.5325L82.8431 12.5325Z" transform="translate(49.38721 103.5762)" id="Shape" fill="#FAFAFA" fill-opacity="0.7" stroke="none" />
        <path d="M0 20.9975C0 9.4009 9.40092 0 20.9975 0C32.5942 0 41.9951 9.4009 41.9951 20.9975C41.9951 32.5941 32.5942 41.995 20.9975 41.995C9.40092 41.995 0 32.5941 0 20.9975Z" transform="translate(69.77954 56.52441)" id="Circle" fill="#407BFF" stroke="none" />
        <path d="M0 20.9975C0 9.4009 9.40092 0 20.9975 0C32.5942 0 41.9951 9.4009 41.9951 20.9975C41.9951 32.5941 32.5942 41.995 20.9975 41.995C9.40092 41.995 0 32.5941 0 20.9975Z" transform="translate(69.77954 56.52441)" id="Circle" fill="#FAFAFA" fill-opacity="0.7" stroke="none" />
      </g>
      <g id="Group-5" transform="translate(261 1098.873)">
        <path d="M0 0L636.554 0L636.554 160.365L0 160.365L0 0Z" id="Rectangle" fill="#407BFF" stroke="none" />
        <path d="M0 0L636.554 0L636.554 160.397L0 160.397L0 0Z" transform="translate(6.7229 6.722656)" id="Rectangle" fill="#407BFF" stroke="none" />
        <path d="M0 0L636.554 0L636.554 160.397L0 160.397L0 0Z" transform="translate(6.7229 6.722656)" id="Rectangle" fill="#FAFAFA" fill-opacity="0.6" stroke="none" />
        <path d="M0 0L636.554 0L636.554 160.365L0 160.365L0 0Z" transform="translate(13.44629 13.44629)" id="Rectangle" fill="#407BFF" stroke="none" />
        <path d="M0 0L636.554 0L636.554 160.365L0 160.365L0 0Z" transform="translate(13.44629 13.44629)" id="Rectangle" fill="#FAFAFA" fill-opacity="0.8" stroke="none" />
        <path d="M0 0L104.382 0L104.382 24.2794L0 24.2794L0 0Z" transform="translate(178.8774 40.56152)" id="Rectangle" fill="#407BFF" stroke="none" />
        <path d="M0 0L83.3848 0L83.3848 24.2794L0 24.2794L0 0Z" transform="translate(296.801 40.56152)" id="Rectangle" fill="#407BFF" stroke="none" />
        <path d="M0 0L335.929 0L335.929 24.2794L0 24.2794L0 0Z" transform="translate(178.8774 81.50488)" id="Rectangle" fill="#407BFF" stroke="none" />
        <path d="M0 0L232.375 0L232.375 9.14456L0 9.14456L0 0Z" transform="translate(178.8774 122.4482)" id="Rectangle" fill="#407BFF" stroke="none" />
        <path d="M0 0L232.375 0L232.375 9.14456L0 9.14456L0 0Z" transform="translate(178.8774 122.4482)" id="Rectangle" fill="#FAFAFA" fill-opacity="0.5" stroke="none" />
        <path d="M0 57.1314C3.05176e-05 25.5786 25.5785 7.62939e-06 57.1314 0C88.6843 7.62939e-06 114.263 25.5786 114.263 57.1314C114.263 88.6843 88.6842 114.263 57.1314 114.263C25.5785 114.263 3.05176e-05 88.6843 0 57.1314Z" transform="matrix(0.2315782 -0.9728163 0.9728163 0.2315782 21.98242 136.0605)" id="Circle" fill="#407BFF" stroke="none" />
        <path d="M94.3151 47.1587C94.3216 66.2156 82.8382 83.4146 65.2194 90.7197C47.6006 98.0247 27.3162 93.9972 13.8248 80.5151C0.333378 67.033 -3.70815 46.7514 3.58475 29.1277C10.8777 11.5038 28.0688 0.00855687 47.142 0.00204198C59.6854 -0.113962 71.7491 4.81654 80.6206 13.6849C89.4921 22.5533 94.4267 34.6152 94.3151 47.1587L94.3151 47.1587Z" transform="translate(43.61865 46.48535)" id="Shape" fill="#FAFAFA" stroke="none" />
        <path d="M82.8431 12.5325C74.5868 27.7055 58.6954 37.1499 41.4216 37.1499C24.1477 37.1499 8.2563 27.7055 0 12.5325C25.0865 -4.1775 57.7567 -4.1775 82.8431 12.5325L82.8431 12.5325Z" transform="translate(49.38721 103.5762)" id="Shape" fill="#407BFF" stroke="none" />
        <path d="M82.8431 12.5325C74.5868 27.7055 58.6954 37.1499 41.4216 37.1499C24.1477 37.1499 8.2563 27.7055 0 12.5325C25.0865 -4.1775 57.7567 -4.1775 82.8431 12.5325L82.8431 12.5325Z" transform="translate(49.38721 103.5762)" id="Shape" fill="#FAFAFA" fill-opacity="0.7" stroke="none" />
        <path d="M0 20.9975C0 9.4009 9.40092 0 20.9975 0C32.5942 0 41.9951 9.4009 41.9951 20.9975C41.9951 32.5941 32.5942 41.995 20.9975 41.995C9.40092 41.995 0 32.5941 0 20.9975Z" transform="translate(69.77954 56.52441)" id="Circle" fill="#407BFF" stroke="none" />
        <path d="M0 20.9975C0 9.4009 9.40092 0 20.9975 0C32.5942 0 41.9951 9.4009 41.9951 20.9975C41.9951 32.5941 32.5942 41.995 20.9975 41.995C9.40092 41.995 0 32.5941 0 20.9975Z" transform="translate(69.77954 56.52441)" id="Circle" fill="#FAFAFA" fill-opacity="0.7" stroke="none" />
      </g>
      <g id="Character--inject-96" transform="translate(849.9124 268.6865)">
        <path d="M30.4036 0L0 15.8043L34.0651 42.2684C34.0651 42.2684 56.9605 23.0807 47.9692 9.82554L30.4036 0Z" transform="translate(709.4807 536.2529)" id="Shape" fill="#E4897B" stroke="none" />
        <path d="M0 32.2112L29.0595 52.4184L51.4453 26.4642L17.3801 0L0 32.2112L0 32.2112Z" transform="translate(692.1006 552.0576)" id="Polygon" fill="#E4897B" stroke="none" />
        <path d="M41.0172 0C45.1884 5.46891 48.7572 10.3817 52.3723 15.7116C55.9873 21.0415 59.417 26.186 62.8468 31.4696C69.6134 42.1294 76.0557 53.0672 81.9881 64.2832C88.0723 75.6152 93.5793 87.2479 98.4879 99.1366L102.149 108.406L105.44 117.675C106.599 120.734 107.479 123.979 108.453 127.176L109.889 131.811L110.214 133.016L110.77 135.009C111.124 136.446 111.403 137.9 111.604 139.366C112.681 148.148 112.052 157.055 109.75 165.598C108.039 172.446 105.855 179.167 103.215 185.713C98.3158 197.714 92.6178 209.373 86.1595 220.612C73.7818 242.366 59.6942 263.103 44.0297 282.624L22.71 268.72C32.9527 247.354 42.9637 225.339 51.7233 203.834C56.0135 193.334 59.742 182.612 62.893 171.716C64.3454 166.826 65.4451 161.839 66.1836 156.792C66.7883 153.513 66.7883 150.152 66.1836 146.874C65.5789 143.595 66.1836 146.874 66.1836 146.874C66.1836 146.874 66.1836 147.152 66.1836 146.874L65.8129 145.947L64.2835 142.1C63.3102 139.551 62.3832 137.048 61.1782 134.499L57.8412 126.898L54.1797 119.251C49.1124 109.147 43.6744 99.1054 37.8656 89.1254C31.9796 79.2071 25.9081 69.2889 19.3268 59.556C12.7454 49.8231 6.21063 39.9513 0 31.0063L41.0172 0Z" transform="translate(710.6394 273.4189)" id="Shape" fill="#E4897B" stroke="none" />
        <path d="M119.877 93.9855L43.5438 147.516C43.5438 147.516 38.9091 137.505 32.4668 122.906C27.2296 111.273 20.6946 96.7663 14.2061 82.1207C11.5643 76.1883 8.96885 70.2559 6.41982 64.4625C-11.2384 24.2334 9.3861 -4.73349 45.6294 0.642702C77.5627 5.41643 119.877 93.9855 119.877 93.9855L119.877 93.9855Z" transform="translate(695.0891 250.5762)" id="Shape" fill="#263238" stroke="none" />
        <path d="M21.9222 0C23.4053 14.3676 23.5444 58.8143 18.2608 84.6295C13.0235 72.9964 6.48856 58.4898 0 43.8442L21.9222 0Z" transform="translate(709.2952 288.8525)" id="Shape" fill="#407BFF" stroke="none" />
        <path d="M21.9222 0C23.4053 14.3676 23.5444 58.8143 18.2608 84.6295C13.0235 72.9964 6.48856 58.4898 0 43.8442L21.9222 0Z" transform="translate(709.2952 288.8525)" id="Shape" fill="#407BFF" fill-opacity="0.8" stroke="none" />
        <g id="Group" transform="translate(709.2952 288.8525)" opacity="0.8">
          <path d="M21.9222 0C23.4053 14.3676 23.5444 58.8143 18.2608 84.6295C13.0235 72.9964 6.48856 58.4898 0 43.8442L21.9222 0Z" id="Shape" fill="#000000" fill-opacity="0.8" stroke="none" />
          <path d="M21.9222 0C23.4053 14.3676 23.5444 58.8143 18.2608 84.6295C13.0235 72.9964 6.48856 58.4898 0 43.8442L21.9222 0Z" id="Shape" fill="#000000" fill-opacity="0.8" stroke="none" />
        </g>
        <path d="M845.417 443.364L30.7281 226.646C8.71101 220.63 -4.3828 198.036 1.3441 175.942L39.9975 30.5982C46.074 8.63737 68.6492 -4.38357 90.7012 1.3533L905.39 218.025C927.43 224.041 940.53 246.666 934.774 268.775L896.12 413.841C890.166 435.915 867.553 449.081 845.417 443.364L845.417 443.364Z" transform="translate(0 209.9609)" id="Shape" fill="#407BFF" stroke="none" />
        <path d="M845.417 443.364L30.7281 226.646C8.71101 220.63 -4.3828 198.036 1.3441 175.942L39.9975 30.5982C46.074 8.63737 68.6492 -4.38357 90.7012 1.3533L905.39 218.025C927.43 224.041 940.53 246.666 934.774 268.775L896.12 413.841C890.166 435.915 867.553 449.081 845.417 443.364L845.417 443.364Z" transform="translate(0 209.9609)" id="Shape" fill="#FAFAFA" fill-opacity="0.8" stroke="none" />
        <path d="M845.414 443.723L30.7715 226.773C8.73562 220.777 -4.38259 198.177 1.34106 176.069L40.0409 30.7714C46.0362 8.73553 68.6367 -4.38258 90.7446 1.34106L905.387 218.059C927.423 224.055 940.541 246.655 934.817 268.763L896.164 414.107C890.25 436.241 867.593 449.463 845.414 443.723L845.414 443.723Z" transform="translate(6.908691 221.791)" id="Shape" fill="#407BFF" stroke="none" />
        <path d="M845.414 443.723L30.7715 226.773C8.73562 220.777 -4.38259 198.177 1.34106 176.069L40.0409 30.7714C46.0362 8.73553 68.6367 -4.38258 90.7446 1.34106L905.387 218.059C927.423 224.055 940.541 246.655 934.817 268.763L896.164 414.107C890.25 436.241 867.593 449.463 845.414 443.723L845.414 443.723Z" transform="translate(6.908691 221.791)" id="Shape" fill="#FAFAFA" fill-opacity="0.4" stroke="none" />
        <path d="M845.414 443.505L30.7715 226.787C8.73562 220.792 -4.38259 198.191 1.34106 176.083L39.9945 30.7394C46.0097 8.69946 68.6355 -4.40068 90.7446 1.35542L905.387 218.027C927.56 224.02 940.717 246.811 934.817 269.009L896.117 414.307C890.021 436.249 867.452 449.246 845.414 443.505L845.414 443.505Z" transform="translate(13.86084 233.7813)" id="Shape" fill="#407BFF" stroke="none" />
        <path d="M845.414 443.505L30.7715 226.787C8.73562 220.792 -4.38259 198.191 1.34106 176.083L39.9945 30.7394C46.0097 8.69946 68.6355 -4.40068 90.7446 1.35542L905.387 218.027C927.56 224.02 940.717 246.811 934.817 269.009L896.117 414.307C890.021 436.249 867.452 449.246 845.414 443.505L845.414 443.505Z" transform="translate(13.86084 233.7813)" id="Shape" fill="#000000" fill-opacity="0.2" stroke="none" />
        <path d="M0 0L553.701 0L553.701 35.3159L0 35.316L0 0Z" transform="matrix(0.9663761 0.2571328 -0.2571328 0.9663761 286.8425 324.5294)" id="Rectangle" fill="#407BFF" stroke="none" />
        <path d="M0 0L553.701 0L553.701 35.3159L0 35.316L0 0Z" transform="matrix(0.9663761 0.2571328 -0.2571328 0.9663761 286.8425 324.5294)" id="Rectangle" fill="#FAFAFA" fill-opacity="0.7" stroke="none" />
        <path d="M0 3.05176e-05L356.265 0L356.265 35.316L3.05176e-05 35.316L0 3.05176e-05Z" transform="matrix(0.9663761 0.2571328 -0.2571328 0.9663761 271.5598 382.0488)" id="Rectangle" fill="#407BFF" stroke="none" />
        <path d="M0 3.05176e-05L356.265 0L356.265 35.316L3.05176e-05 35.316L0 3.05176e-05Z" transform="matrix(0.9663761 0.2571328 -0.2571328 0.9663761 271.5598 382.0488)" id="Rectangle" fill="#FAFAFA" fill-opacity="0.7" stroke="none" />
        <path d="M0 0L503.646 0L503.646 13.3015L3.05176e-05 13.3015L0 0Z" transform="matrix(0.9663761 0.2571328 -0.2571328 0.9663761 256.2441 439.5732)" id="Rectangle" fill="#FAFAFA" stroke="none" />
        <path d="M0 82.8747C0 37.1042 37.1043 0 82.8747 0C128.645 -1.52588e-05 165.749 37.1042 165.749 82.8747C165.749 128.645 128.645 165.749 82.8747 165.749C37.1043 165.749 0 128.645 0 82.8747Z" transform="matrix(0.5707136 -0.8211492 0.8211492 0.5707136 24.49005 383.6953)" id="Circle" fill="#407BFF" stroke="none" />
        <path d="M134.896 86.2534C125.153 122.859 87.5818 144.637 50.9748 134.898C14.3679 125.159 -7.41436 87.5898 2.32089 50.9819C12.0562 14.374 49.623 -7.41229 86.232 2.31897C103.879 6.89405 118.959 18.3462 128.103 34.1176C137.247 49.8889 139.693 68.6655 134.896 86.2534L134.896 86.2534Z" transform="translate(74.63867 297.4727)" id="Shape" fill="#FAFAFA" stroke="none" />
        <path d="M116.609 36.7986C99.3484 55.1586 73.4057 62.5675 49.0522 56.092C24.6987 49.6165 5.86198 30.3008 0 5.79245C41.5514 -8.33256 87.5208 3.89546 116.563 36.7986L116.609 36.7986Z" transform="translate(76.51904 376.3564)" id="Shape" fill="#407BFF" stroke="none" />
        <path d="M116.609 36.7986C99.3484 55.1586 73.4057 62.5675 49.0522 56.092C24.6987 49.6165 5.86198 30.3008 0 5.79245C41.5514 -8.33256 87.5208 3.89546 116.563 36.7986L116.609 36.7986Z" transform="translate(76.51904 376.3564)" id="Shape" fill="#FAFAFA" fill-opacity="0.7" stroke="none" />
        <path d="M60.0597 38.4272C55.7112 54.7173 38.9852 64.4023 22.6923 60.0647C6.39945 55.7269 -3.29654 39.0074 1.03039 22.7117C5.35746 6.41598 22.0707 -3.29102 38.3693 1.0253C46.2099 3.1017 52.9025 8.21142 56.9715 15.2277C61.0404 22.2441 62.1514 30.5908 60.0597 38.4272L60.0597 38.4272Z" transform="translate(118.7473 312.8545)" id="Shape" fill="#407BFF" stroke="none" />
        <path d="M60.0597 38.4272C55.7112 54.7173 38.9852 64.4023 22.6923 60.0647C6.39945 55.7269 -3.29654 39.0074 1.03039 22.7117C5.35746 6.41598 22.0707 -3.29102 38.3693 1.0253C46.2099 3.1017 52.9025 8.21142 56.9715 15.2277C61.0404 22.2441 62.1514 30.5908 60.0597 38.4272L60.0597 38.4272Z" transform="translate(118.7473 312.8545)" id="Shape" fill="#FAFAFA" fill-opacity="0.7" stroke="none" />
        <path d="M90.9271 0C82.2602 23.637 70.3026 67.5739 84.763 86.5761C84.763 86.5761 74.1495 110.259 28.8221 102.983C-21.0474 94.9649 8.93915 74.4331 8.93915 74.4331C37.2109 72.3011 39.7136 52.0012 38.0451 32.2574L90.9271 0Z" transform="translate(601.7297 151.6191)" id="Shape" fill="#E4897B" stroke="none" />
        <path d="M0 22.4667C2.54903 18.1565 0.278071 1.3325 0.278071 1.3325C0.278071 1.3325 72.3941 -3.99737 97.6068 6.66238C111.094 12.363 97.6068 36.3708 97.6068 36.3708L0 22.4667Z" transform="translate(600.2407 211.4658)" id="Shape" fill="#407BFF" stroke="none" />
        <path d="M0 22.4667C2.54903 18.1565 0.278071 1.3325 0.278071 1.3325C0.278071 1.3325 72.3941 -3.99737 97.6068 6.66238C111.094 12.363 97.6068 36.3708 97.6068 36.3708L0 22.4667Z" transform="translate(600.2407 211.4658)" id="Shape" fill="#000000" fill-opacity="0.1" stroke="none" />
        <path d="M6.48601 5.40271C6.02251 8.09085 4.2613 10.0374 2.50023 9.75934C0.739165 9.48127 -0.326868 7.07121 0.0902387 4.38308C0.507345 1.69494 2.31495 -0.251621 4.07602 0.0264492C5.83709 0.30452 6.76408 2.71458 6.48601 5.40271L6.48601 5.40271Z" transform="translate(603.0242 104.6895)" id="Shape" fill="#263238" stroke="none" />
        <path d="M16.546 0C12.0272 7.70146 6.45858 14.7365 0 20.9025C3.26105 24.2225 7.82942 25.9208 12.4674 25.5372L16.546 0Z" transform="translate(592.6396 111.4365)" id="Shape" fill="#DE5753" stroke="none" />
        <path d="M11.9552 10.9379C11.3538 10.9668 10.7914 10.6403 10.5185 10.1037C8.72217 6.44244 5.27118 3.87149 1.24906 3.19795C0.46562 3.01267 -0.0635065 2.28086 0.00622335 1.47882C0.0759532 0.676789 0.723465 0.0472409 1.52713 0C6.6208 0.780252 11.0233 3.97417 13.3456 8.57421C13.7591 9.35581 13.4706 10.3247 12.6966 10.7525C12.4699 10.878 12.2143 10.9419 11.9552 10.9379L11.9552 10.9379Z" transform="translate(608.4001 90.81152)" id="Shape" fill="#263238" stroke="none" />
        <path d="M33.4626 83.1929L0 78.6972L1.57578 0L35.0384 4.49566L33.4626 83.1929L33.4626 83.1929Z" transform="translate(365.5854 1093.204)" id="Polygon" fill="#E4897B" stroke="none" />
        <path d="M60.0657 78.2336L26.2788 78.2336L0 0L33.7406 0L60.0657 78.2336L60.0657 78.2336Z" transform="translate(588.793 1135.148)" id="Polygon" fill="#E4897B" stroke="none" />
        <path d="M52.7111 0L93.9137 0C95.2881 0.0263077 96.4703 0.979751 96.7872 2.31734L103.461 32.3502C103.773 33.8308 103.391 35.3725 102.425 36.5369C101.459 37.7014 100.015 38.3614 98.5021 38.329C85.2469 38.0973 75.6066 37.3557 58.9216 37.3557C48.6326 37.3557 27.4983 38.4218 13.3161 38.4218C-0.866037 38.4218 -2.71989 24.5177 3.07349 23.1273C29.1205 17.4266 38.8998 9.59398 47.2422 2.08581C48.7466 0.74185 50.6936 -0.000707197 52.7111 0.000141439L52.7111 0Z" transform="translate(557.865 1209.442)" id="Shape" fill="#263238" stroke="none" />
        <path d="M80.5642 0.0804792L117.132 4.99325C118.496 5.1866 119.539 6.30708 119.635 7.68131L122.23 38.3166C122.36 39.8128 121.798 41.2859 120.705 42.3155C119.612 43.3454 118.108 43.8186 116.622 43.6005C103.459 41.5612 84.5498 38.2242 67.9576 35.9995C48.5846 33.3577 35.5147 31.921 12.9437 28.8621C-0.960377 27.0082 -2.72159 12.5942 3.21083 12.0845C30.1384 9.90616 47.6576 12.4552 72.1289 1.56376C74.7497 0.300135 77.6693 -0.213291 80.5642 0.0804792L80.5642 0.0804792Z" transform="translate(283.8625 1164.173)" id="Shape" fill="#263238" stroke="none" />
        <path d="M0.834214 0L0 40.5999L33.509 45.0956L34.2968 4.54205L0.834214 0L0.834214 0Z" transform="translate(366.3271 1093.204)" id="Polygon" fill="#CE6F64" stroke="none" />
        <path d="M33.787 0L0 0L13.5796 40.3219L47.3666 40.3219L33.787 0L33.787 0Z" transform="translate(588.793 1135.195)" id="Polygon" fill="#CE6F64" stroke="none" />
        <path d="M42.8204 2.55348C42.8204 2.55348 -10.3397 98.2599 1.80322 291.527L180.749 315.674C185.708 288.375 186.543 152.022 230.526 26.1441C211.254 19.6389 191.576 14.4058 171.618 10.4786C146.489 5.56898 121.093 2.13341 95.5619 0.189317C77.9464 -0.400911 60.3118 0.389596 42.8198 2.55348L42.8204 2.55348Z" transform="translate(515.708 226.8828)" id="Shape" fill="#263238" stroke="none" />
        <path d="M261.583 26.5104C254.167 39.3485 246.288 51.7695 238.409 64.3759L214.448 101.453C206.476 113.874 198.134 126.11 189.745 138.531C185.574 144.649 181.263 150.72 176.953 156.792L170.418 166.061C168.008 169.352 165.181 173.106 162.493 176.211C151.937 188.276 140.302 199.353 127.732 209.303C115.636 218.943 103.354 227.842 90.6547 236.184C65.5863 252.778 39.434 267.673 12.3739 280.77L0 258.755C23.1735 241.746 46.3471 223.809 68.4083 205.595C79.3925 196.326 90.1451 187.056 100.202 177.37C110.006 168.219 119.029 158.267 127.176 147.615C129.123 145.066 130.606 142.98 132.367 140.061L138.068 130.791L149.423 112.252L172.133 74.8504L194.843 37.3093C202.583 24.8884 210.138 12.282 218.017 0L261.583 26.5104Z" transform="translate(317.5237 251.6826)" id="Shape" fill="#E4897B" stroke="none" />
        <path d="M138.161 41.0602C133.85 73.0396 77.9094 149.141 77.9094 149.141L0 83.3751C0 83.3751 40.7391 37.816 74.1553 11.8153C107.571 -14.1853 142.795 5.92922 138.161 41.0602L138.161 41.0602Z" transform="translate(457.4456 229.4854)" id="Shape" fill="#263238" stroke="none" />
        <path d="M29.1523 0L0 9.91823L29.1986 40.3682C29.1986 40.3682 46.9958 38.2362 45.3737 13.6723L29.1523 0Z" transform="translate(305.1489 500.7969)" id="Shape" fill="#E4897B" stroke="none" />
        <path d="M0 23.1735L33.3235 39.5339L48.5254 30.45L19.3266 0L0 23.1735L0 23.1735Z" transform="translate(285.8223 510.7158)" id="Polygon" fill="#E4897B" stroke="none" />
        <path d="M99.7414 56.2376C92.4186 88.9585 89.7768 108.471 70.4038 122.745C41.2052 144.204 2.87604 122.745 0.280617 88.3097C-2.08313 57.489 10.2916 9.19549 44.7738 1.22381C60.1953 -2.41735 76.4022 2.19005 87.602 13.3992C98.8018 24.6083 103.396 40.8192 99.7414 56.2376L99.7414 56.2376Z" transform="translate(601.7214 59.1377)" id="Shape" fill="#E4897B" stroke="none" />
        <path d="M193.249 114.264C192.372 109.17 189.351 104.697 184.953 101.982C200.804 95.0298 192.878 86.9654 179.345 75.1933L179.345 75.1933C161.872 59.5744 154.596 27.9657 155.384 21.1991C149.868 29.5879 151.351 41.9625 156.032 53.0859C150.2 46.6629 145.499 39.2975 142.128 31.3028C128.595 -2.66953 99.35 27.0389 71.1246 28.0121C23.7116 29.6343 61.2527 4.83865 96.0594 5.58022C44.197 -10.3168 -7.5263 9.3807 0.908893 44.0482C9.34409 78.7157 67.3706 34.7788 67.0461 66.7582C67.0461 73.2467 74.1372 79.6426 84.6579 84.6944C70.0586 114.727 105.653 175.071 126.37 177.018C147.087 178.964 183.377 142.906 184.907 111.668C187.827 111.997 190.658 112.878 193.249 114.264L193.249 114.264Z" transform="translate(553.4946 0)" id="Shape" fill="#263238" stroke="none" />
        <path d="M31.521 18.665C29.456 26.8303 24.2621 33.8556 17.0608 38.2234C7.42065 43.8778 -0.226728 35.9988 0.00509184 25.3853C0.236771 15.8842 5.5668 1.42394 16.3656 0.0798427C21.175 -0.429694 25.9168 1.5226 28.9731 5.27075C32.0297 9.0189 32.9879 14.0565 31.521 18.665L31.521 18.665Z" transform="translate(622.853 104.1729)" id="Shape" fill="#E4897B" stroke="none" />
        <path d="M152.818 640.839L90.8056 640.839C90.8056 640.839 9.14212 432.603 0.475238 324.568C-1.37862 301.394 2.32909 270.852 9.18851 237.992C20.8679 181.819 41.6315 118.463 58.3164 71.1426C73.2866 29.4303 85.2904 0 85.2904 0L200.834 15.6189C189.479 99.4605 97.8041 232.801 96.7382 347.463C95.8574 453.227 152.818 640.839 152.818 640.839L152.818 640.839Z" transform="translate(495.531 526.8447)" id="Shape" fill="#407BFF" stroke="none" />
        <path d="M152.818 640.839L90.8056 640.839C90.8056 640.839 9.14212 432.603 0.475238 324.568C-1.37862 301.394 2.32909 270.852 9.18851 237.992C20.8679 181.819 41.6315 118.463 58.3164 71.1426C73.2866 29.4303 85.2904 0 85.2904 0L200.834 15.6189C189.479 99.4605 97.8041 232.801 96.7382 347.463C95.8574 453.227 152.818 640.839 152.818 640.839L152.818 640.839Z" transform="translate(495.531 526.8447)" id="Shape" fill="#000000" fill-opacity="0.1" stroke="none" />
        <path d="M78.3729 26.3721C74.3408 82.4056 31.2379 142.008 0 166.896C11.6794 110.724 32.443 47.3673 49.1279 0.0470994C57.8876 -1.01879 71.7453 16.2685 78.3729 26.3721L78.3729 26.3721Z" transform="translate(504.8584 597.9404)" id="Shape" fill="#407BFF" stroke="none" />
        <path d="M78.3729 26.3721C74.3408 82.4056 31.2379 142.008 0 166.896C11.6794 110.724 32.443 47.3673 49.1279 0.0470994C57.8876 -1.01879 71.7453 16.2685 78.3729 26.3721L78.3729 26.3721Z" transform="translate(504.8584 597.9404)" id="Shape" fill="#000000" fill-opacity="0.2" stroke="none" />
        <path d="M172.501 0C172.501 0 13.6231 211.574 3.47306 313.954C-7.09406 420.552 9.82258 605.94 9.82258 605.94L66.5051 613.587C66.5051 613.587 83.6072 439.508 100.246 335.506C118.321 222.234 290.269 105.115 302.273 17.4264L172.501 0Z" transform="translate(345.0105 518.4102)" id="Shape" fill="#407BFF" stroke="none" />
        <path d="M172.501 0C172.501 0 13.6231 211.574 3.47306 313.954C-7.09406 420.552 9.82258 605.94 9.82258 605.94L66.5051 613.587C66.5051 613.587 83.6072 439.508 100.246 335.506C118.321 222.234 290.269 105.115 302.273 17.4264L172.501 0Z" transform="translate(345.0105 518.4102)" id="Shape" fill="#000000" fill-opacity="0.1" stroke="none" />
        <path d="M9.50123 23.1735L90.3768 23.1735L90.3768 1.39035L0 0L9.50123 23.1735L9.50123 23.1735Z" transform="translate(566.0366 1145.855)" id="Polygon" fill="#407BFF" stroke="none" />
        <path d="M9.50123 23.1735L90.3768 23.1735L90.3768 1.39035L0 0L9.50123 23.1735L9.50123 23.1735Z" transform="translate(566.0366 1145.855)" id="Polygon" fill="#FAFAFA" fill-opacity="0.4" stroke="none" />
        <path d="M6.34953 24.2395L85.0933 35.0383L88.0132 13.2552L0 0L6.34953 24.2395L6.34953 24.2395Z" transform="translate(337.0356 1099.739)" id="Polygon" fill="#407BFF" stroke="none" />
        <path d="M6.34953 24.2395L85.0933 35.0383L88.0132 13.2552L0 0L6.34953 24.2395L6.34953 24.2395Z" transform="translate(337.0356 1099.739)" id="Polygon" fill="#FAFAFA" fill-opacity="0.4" stroke="none" />
        <path d="M1.71043 6.81949C3.61039 8.12667 5.89888 8.74787 8.19912 8.58069C11.1887 8.51662 14.1601 8.09683 17.0504 7.33008C17.3726 7.27054 17.6174 7.00675 17.6529 6.68116C17.6872 6.36971 17.5439 6.06534 17.2824 5.89306C16.0773 4.96607 5.13935 -1.52245 1.43165 0.331392C0.578347 0.767166 0.0414418 1.64465 0.0420076 2.60191C-0.174678 4.20244 0.457416 5.80028 1.71043 6.81949ZM2.17407 1.58228C2.50928 1.50336 2.85835 1.50336 3.19371 1.58228L3.19357 1.58228C7.29008 2.31168 11.2081 3.82225 14.7339 6.03167C10.8005 7.35639 6.51118 7.14098 2.73021 5.42914C1.90859 4.69564 1.50845 3.59963 1.66432 2.50927C1.71057 1.90674 1.83886 1.6612 2.17407 1.58228Z" transform="translate(591.2073 1206.794)" id="Shape" fill="#407BFF" fill-rule="evenodd" stroke="none" />
        <path d="M9.5976 15.1991L9.96831 15.1991L10.2467 15.1527C10.5202 15.0142 10.6708 14.713 10.6172 14.4111C10.6172 13.994 9.92206 4.26115 5.98251 1.0632C5.06145 0.23875 3.82229 -0.13465 2.59911 0.0435634C1.36066 0.0415832 0.293348 0.914831 0.05007 2.12923C-0.645111 5.92971 6.07516 13.2989 9.5976 15.1991ZM3.0629 1.24863L3.43361 1.24863L3.15526 1.48045C3.89952 1.33802 4.6698 1.50548 5.28762 1.94409C7.63129 4.99508 9.01826 8.67222 9.27341 12.511C5.79737 9.86923 1.48711 4.26129 1.90422 2.03659C1.95061 1.85116 2.04325 1.24863 3.0629 1.24863Z" transform="translate(598.1052 1198.971)" id="Shape" fill="#407BFF" fill-rule="evenodd" stroke="none" />
        <path d="M1.10083 6.23906C3.41818 9.0663 9.7213 9.76147 15.0049 9.76147C16.6735 9.76147 18.3419 9.66883 19.6395 9.57576C19.9812 9.57081 20.2806 9.34621 20.3812 9.01962C20.4641 8.68724 20.3354 8.33817 20.0567 8.13902C20.0211 8.11489 19.9787 8.08607 19.9298 8.05282C18.0046 6.74473 5.99825 -1.41335 1.74961 0.213716C0.927563 0.564204 0.324039 1.28852 0.127579 2.16049C-0.216686 3.59738 0.144834 5.11235 1.10083 6.23906ZM2.16686 1.60435C2.4561 1.53363 2.75822 1.53363 3.04746 1.60435L3.04746 1.60449C8.07523 2.76741 12.819 4.92635 16.998 7.95401C9.48963 8.23208 3.97446 7.1198 2.16686 5.03413C1.5441 4.28775 1.31978 3.28678 1.56433 2.34592C1.60195 2.0018 1.83773 1.71171 2.16686 1.60435Z" transform="translate(340.894 1158.849)" id="Shape" fill="#407BFF" fill-rule="evenodd" stroke="none" />
        <path d="M9.80492 16.2215L10.222 16.2215L10.5925 16.2676C10.8571 16.1392 11.0207 15.8663 11.0097 15.5725C11.3257 10.7977 10.1254 6.04515 7.58007 1.99289C6.49579 0.793478 4.97771 0.0760947 3.3626 0L3.13092 0C1.09164 0 0.350065 1.01964 0.118386 1.85385C-0.993901 5.5617 6.00442 13.8577 9.80492 16.2215ZM2.01821 2.22443C2.0646 2.039 2.20364 1.52925 3.50135 1.52925L3.68664 1.52939C4.86342 1.55527 5.9743 2.07705 6.74557 2.96614C8.86194 6.21247 9.92967 10.0308 9.8045 13.9038C6.004 10.8449 1.32303 4.44914 2.01821 2.22443Z" transform="translate(350.1262 1152.251)" id="Shape" fill="#407BFF" fill-rule="evenodd" stroke="none" />
      </g>
    </g>
  </g>
</svg>