<?xml version="1.0" encoding="utf-8"?>
<svg width="2001px" height="2000px" viewBox="0 0 2001 2000" version="1.1" xmlns:xlink="http://www.w3.org/1999/xlink" xmlns="http://www.w3.org/2000/svg">
  <desc>Created with Lunacy</desc>
  <defs>
    <rect width="2000.00049" height="2000" id="artboard_1" />
    <clipPath id="clip_1">
      <use xlink:href="#artboard_1" clip-rule="evenodd" />
    </clipPath>
  </defs>
  <g id="Ultra-HD-Copy-15" clip-path="url(#clip_1)">
    <use xlink:href="#artboard_1" stroke="none" fill="#FFFFFF" />
    <g id="Group" transform="translate(100.0762 214.8916)">
      <g id="Shadow--inject-107" transform="translate(0 1466.44)">
        <path d="M0 52.5453C0 23.5253 402.944 0 900 0C1397.06 0 1800 23.5253 1800 52.5453C1800 81.5652 1397.06 105.091 900 105.091C402.944 105.091 0 81.5652 0 52.5453Z" id="path--inject-107" fill="#E9E9E9" stroke="none" />
      </g>
      <g id="Screen--inject-107" transform="translate(837.5815 0)">
        <path d="M0 0L109.449 0L109.449 4.64172L6.10352e-05 4.64166L0 0Z" transform="matrix(0.0547759 -0.9984987 0.9984987 0.0547759 691.2871 1061.263)" id="Rectangle" fill="#407BFF" stroke="none" />
        <path d="M0 6.10352e-05L56.3955 0L56.3956 4.64154L0 4.64154L0 6.10352e-05Z" transform="matrix(0.0547759 -0.9984987 0.9984987 0.0547759 699.3018 915.5869)" id="Rectangle" fill="#407BFF" stroke="none" />
        <path d="M604.581 1269.63L60.4683 1269.63C43.829 1269.83 27.8591 1263.09 16.405 1251.01C4.95076 1238.94 -0.949666 1222.64 0.1248 1206.04L62.7892 63.5943C65.2079 28.0882 94.5092 0.40358 130.095 0.00166447L674.254 0.00166447C690.849 -0.12225 706.749 6.65695 718.149 18.717C729.548 30.7771 735.423 47.0329 734.366 63.5944L671.655 1206.04C669.265 1241.46 640.086 1269.13 604.581 1269.63L604.581 1269.63Z" id="Shape" fill="#407BFF" stroke="none" />
        <path d="M571.67 1269.63L60.4683 1269.63C43.829 1269.83 27.8591 1263.09 16.405 1251.01C4.95076 1238.94 -0.949666 1222.64 0.1248 1206.04L62.7892 63.5947C65.2079 28.0885 94.5092 0.40397 130.095 0.00205402L641.344 0.00205402C657.943 -0.135707 673.851 6.6392 685.254 18.7025C696.657 30.7658 702.527 47.0297 701.455 63.5948L638.791 1206.04C636.357 1241.46 607.176 1269.11 571.67 1269.63L571.67 1269.63Z" id="Shape" fill="#EEEEEE" fill-opacity="0.8" stroke="none" />
        <path d="M172.22 53.7069L25.3996 53.7069C18.3909 53.761 11.6761 50.8943 6.86738 45.795C2.0587 40.6957 -0.409388 33.8244 0.0555294 26.8308L0.0555294 26.8308C1.06922 11.8797 13.3864 0.208554 28.3706 0.00116867L175.191 0.00116867C182.196 -0.0660121 188.911 2.79014 193.721 7.88228C198.531 12.9744 201.001 19.8415 200.535 26.8308L200.535 26.8308C199.523 41.7902 187.212 53.4756 172.22 53.7069L172.22 53.7069Z" transform="translate(146.1035 153.415)" id="Shape" fill="#EEEEEE" stroke="none" />
        <path d="M96.8395 48.3242C95.1132 75.3235 72.833 96.4086 45.7796 96.6454C33.1539 96.791 21.0416 91.6556 12.3681 82.4796C3.69455 73.3037 -0.751348 60.9216 0.104118 48.3242C1.83049 21.325 24.1107 0.23986 51.164 0.00301021C63.7896 -0.142577 75.9021 4.99276 84.5756 14.1687C93.2491 23.3446 97.695 35.7267 96.8395 48.3242L96.8395 48.3242Z" transform="translate(249.7979 131.9189)" id="Shape" fill="#407BFF" stroke="none" />
        <path d="M172.22 53.7067L25.3998 53.7067C18.3909 53.7609 11.6761 50.8942 6.86737 45.7949C2.05884 40.6956 -0.409388 33.8243 0.0555294 26.8308L0.0555294 26.8308C1.06922 11.8796 13.3864 0.208448 28.3706 0.00113325L175.191 0.00113325C182.196 -0.066012 188.911 2.79014 193.721 7.88228C198.531 12.9744 201.001 19.8414 200.535 26.8308L200.535 26.8308C199.523 41.7901 187.212 53.4755 172.22 53.7067L172.22 53.7067Z" transform="translate(136.6777 325.208)" id="Shape" fill="#EEEEEE" stroke="none" />
        <path d="M0 47.0195C3.05176e-05 21.0514 22.2359 0 49.6652 0C77.0946 0 99.3304 21.0513 99.3304 47.0194C99.3305 72.9876 77.0946 94.039 49.6653 94.039C22.2359 94.039 1.52588e-05 72.9877 0 47.0195Z" transform="matrix(0.7167889 -0.6972902 0.6972902 0.7167889 155.6846 353.0566)" id="Ellipse" fill="#407BFF" stroke="none" />
        <path d="M0 47.0195C3.05176e-05 21.0514 22.2359 0 49.6652 0C77.0946 0 99.3304 21.0513 99.3304 47.0194C99.3305 72.9876 77.0946 94.039 49.6653 94.039C22.2359 94.039 1.52588e-05 72.9877 0 47.0195Z" transform="matrix(0.7167889 -0.6972902 0.6972902 0.7167889 155.6846 353.0566)" id="Ellipse" fill="#FAFAFA" fill-opacity="0.3" stroke="none" />
        <path d="M25.4431 53.7073L172.078 53.7073C187.069 53.476 199.381 41.7905 200.393 26.8313L200.393 26.8313C200.859 19.8338 198.383 12.9593 193.563 7.86556C188.742 2.77187 182.015 -0.0785486 175.002 0.00162905L28.4138 0.00162905C13.4208 0.207173 1.0892 11.8727 0.052413 26.8313L0.052413 26.8313C-0.399047 33.8295 2.08009 40.7002 6.89599 45.7977C11.7119 50.8953 18.4307 53.7606 25.4431 53.7074L25.4431 53.7073Z" transform="translate(117.7891 668.7939)" id="Shape" fill="#EEEEEE" stroke="none" />
        <path d="M172.217 53.7072L25.443 53.7072C18.4305 53.7604 11.7117 50.8951 6.89599 45.7976C2.08009 40.7 -0.399047 33.8293 0.052413 26.8312L0.052413 26.8312C1.0892 11.8728 13.4208 0.207244 28.4138 0.00169988L175.188 0.00169988C182.2 -0.0786195 188.928 2.7718 193.748 7.86549C198.569 12.9592 201.045 19.8336 200.578 26.8312L200.578 26.8312C199.564 41.808 187.226 53.4998 172.217 53.7072L172.217 53.7072Z" transform="translate(108.3682 840.5869)" id="Shape" fill="#EEEEEE" stroke="none" />
        <path d="M96.8825 48.3246C95.1561 75.324 72.8759 96.409 45.8226 96.6458C33.1934 96.7905 21.0771 91.6565 12.3964 82.4823C3.7158 73.3082 -0.741148 60.9267 0.10086 48.3248C1.871 21.3461 24.1254 0.285297 51.1608 0.00354142C63.7943 -0.154972 75.9191 4.9747 84.6028 14.1521C93.2865 23.3296 97.7386 35.7192 96.8825 48.3246L96.8825 48.3246Z" transform="translate(212.0635 819.0908)" id="Shape" fill="#407BFF" stroke="none" />
        <path d="M25.3999 53.7074L172.22 53.7074C187.212 53.476 199.523 41.7905 200.535 26.8313L200.535 26.8313C201.001 19.8338 198.526 12.9592 193.705 7.86556C188.885 2.77187 182.157 -0.0785486 175.145 0.00162905L28.3706 0.00162905C13.3866 0.208944 1.06922 11.8801 0.0555294 26.8313L0.0555294 26.8313C-0.409388 33.8248 2.0587 40.6962 6.86737 45.7955C11.676 50.8948 18.391 53.7615 25.3997 53.7074L25.3999 53.7074Z" transform="translate(127.2568 497.001)" id="Shape" fill="#EEEEEE" stroke="none" />
        <path d="M227.748 21.4918L10.1401 21.4918C7.3398 21.4975 4.66249 20.3427 2.74488 18.302C0.827275 16.2613 -0.158797 13.5172 0.0209652 10.7228L0.0209652 10.7228C0.431061 4.74599 5.35675 0.0827983 11.347 0.000212485L228.955 0.000212485C231.751 -0.0184862 234.429 1.12585 236.348 3.15933C238.267 5.19285 239.254 7.93256 239.074 10.7228L239.074 10.7228C238.687 16.7179 233.755 21.4074 227.748 21.4918L227.748 21.4918Z" transform="translate(412.1592 150.7236)" id="Shape" fill="#EEEEEE" stroke="none" />
        <path d="M157.332 21.4918L10.1865 21.4918C7.37833 21.5105 4.68855 20.3613 2.76075 18.319C0.832941 16.2769 -0.159364 13.5254 0.0209652 10.7228L0.0209652 10.7228C0.431061 4.746 5.35675 0.0827984 11.347 0.000212485L158.539 0.000212485C161.338 -0.0175654 164.02 1.12532 165.947 3.15717C167.873 5.18896 168.871 7.92803 168.704 10.7228L168.704 10.7228C168.294 16.7252 163.348 21.4092 157.332 21.4918L157.332 21.4918Z" transform="translate(410.0684 188.3203)" id="Shape" fill="#EEEEEE" stroke="none" />
        <path d="M200.454 21.4918L10.1401 21.4918C7.3398 21.4976 4.66235 20.3426 2.74488 18.3019C0.827275 16.2612 -0.158797 13.5172 0.0209652 10.7227L0.0209652 10.7227C0.409246 4.73573 5.34768 0.0604875 11.347 0.000141657L201.429 0.000141657C204.229 -0.0177071 206.911 1.12532 208.837 3.15711C210.763 5.18889 211.762 7.92797 211.595 10.7227L211.595 10.7227C211.193 16.6385 206.38 21.291 200.454 21.4918L200.454 21.4918Z" transform="translate(374.2793 837.8955)" id="Shape" fill="#EEEEEE" stroke="none" />
        <path d="M103.994 21.4452L10.1836 21.4452C7.38385 21.4631 4.70187 20.3201 2.77562 18.2883C0.849373 16.2565 -0.149023 13.5174 0.0179904 10.7227L0.0179904 10.7227C0.428086 4.74592 5.35377 0.0827274 11.344 0.000141656L105.294 0.000141656C108.094 -0.0177071 110.776 1.12532 112.702 3.1571C114.628 5.18888 115.627 7.92795 115.46 10.7227L115.46 10.7227C115.045 16.7524 110.038 21.435 103.995 21.4452L103.994 21.4452Z" transform="translate(372.5195 875.4922)" id="Shape" fill="#EEEEEE" stroke="none" />
        <path d="M228.952 0.000212485L11.344 0.000212485C5.35377 0.0827984 0.428086 4.746 0.0179904 10.7228L0.0179904 10.7228C-0.149023 13.5175 0.849373 16.2566 2.77562 18.2884C4.70187 20.3202 7.38385 21.4631 10.1836 21.4453L227.791 21.4453C233.782 21.3628 238.707 16.6996 239.117 10.7228L239.117 10.7228C239.284 7.92803 238.286 5.18896 236.36 3.15717C234.434 1.12532 231.752 -0.0175654 228.952 0.000212485L228.952 0.000212485Z" transform="translate(400.6475 360.1133)" id="Shape" fill="#EEEEEE" stroke="none" />
        <path d="M158.492 0.000637455L11.347 0.000637455C5.35675 0.0832233 0.431061 4.74642 0.0209652 10.7232L0.0209652 10.7232C-0.158797 13.5177 0.827275 16.2618 2.74488 18.3025C4.66249 20.3432 7.3398 21.498 10.1401 21.4922L157.332 21.4922C163.33 21.3857 168.249 16.7081 168.658 10.7232L168.658 10.7232C168.839 7.92484 167.845 5.17769 165.916 3.14265C163.987 1.10761 161.296 -0.0310228 158.492 0.000637455L158.492 0.000637455Z" transform="translate(402.7324 322.5166)" id="Shape" fill="#EEEEEE" stroke="none" />
        <path d="M121.543 21.4937L10.1401 21.4937C7.3398 21.4995 4.66235 20.3446 2.74488 18.3039C0.827275 16.2632 -0.158797 13.5191 0.0209652 10.7246L0.0209652 10.7246C0.409246 4.73764 5.34768 0.062329 11.347 0.00205402L122.75 0.00205402C125.574 -0.054892 128.293 1.071 130.25 3.10738C132.207 5.14377 133.224 7.90537 133.055 10.7246L133.055 10.7246C132.641 16.7802 127.613 21.4835 121.544 21.4937L121.543 21.4937Z" transform="translate(393.541 494.3037)" id="Shape" fill="#EEEEEE" stroke="none" />
        <path d="M75.9145 21.4918L10.1865 21.4918C7.37833 21.5104 4.68855 20.3612 2.76075 18.319C0.832941 16.2768 -0.159364 13.5254 0.0209652 10.7228L0.0209652 10.7228C0.431061 4.74599 5.35675 0.0827983 11.347 0.000212485L77.1214 0.000212485C79.9174 -0.0184862 82.5955 1.12582 84.5145 3.15937C86.4335 5.19285 87.421 7.93256 87.2405 10.7228L87.2405 10.7228C86.8318 16.7078 81.9124 21.3853 75.9145 21.4918L75.9145 21.4918Z" transform="translate(545.1475 494.3096)" id="Shape" fill="#EEEEEE" stroke="none" />
        <path d="M157.468 21.4453L10.1836 21.4453C7.38385 21.4631 4.70187 20.3202 2.77562 18.2884C0.849373 16.2566 -0.149023 13.5175 0.0179904 10.7228L0.0179904 10.7228C0.428086 4.746 5.35377 0.0827984 11.344 0.000212485L158.721 0.000212485C161.521 -0.0175654 164.203 1.12532 166.129 3.15717C168.056 5.18896 169.054 7.92803 168.887 10.7228L168.887 10.7228C168.474 16.7348 163.494 21.4109 157.468 21.4453L157.468 21.4453Z" transform="translate(391.083 531.9063)" id="Shape" fill="#EEEEEE" stroke="none" />
        <path d="M264.906 30.0826L14.2488 30.0826C10.3061 30.1742 6.50941 28.5897 3.8015 25.7226C1.09359 22.8553 -0.271556 18.9743 0.0449052 15.0432L0.0449052 15.0432C0.623148 6.66579 7.52353 0.128624 15.9199 0.00382473L266.577 0.00382473C270.52 -0.087827 274.317 1.49674 277.025 4.36387C279.733 7.23114 281.098 11.1121 280.781 15.0432L280.781 15.0432C280.225 23.4308 273.312 29.98 264.906 30.0826L264.906 30.0826Z" transform="translate(99.23047 1017.576)" id="Shape" fill="#EEEEEE" stroke="none" />
        <path d="M168.078 30.0826L14.2488 30.0826C10.3061 30.1742 6.50941 28.5897 3.8015 25.7226C1.09359 22.8553 -0.271556 18.9743 0.0449052 15.0432L0.0449052 15.0432C0.623148 6.66579 7.52353 0.128624 15.9199 0.00382473L169.749 0.00382473C173.692 -0.087827 177.489 1.49674 180.197 4.36387C182.905 7.23114 184.27 11.1121 183.953 15.0432L183.953 15.0432C183.375 23.4205 176.475 29.9577 168.078 30.0826L168.078 30.0826Z" transform="translate(419.5127 1017.576)" id="Shape" fill="#EEEEEE" stroke="none" />
        <path d="M205.027 30.0827L14.2488 30.0827C10.3061 30.1744 6.50941 28.5898 3.8015 25.7227C1.09359 22.8554 -0.271556 18.9744 0.0449052 15.0433L0.0449052 15.0433C0.601474 6.65562 7.51446 0.106384 15.9199 0.00382474L206.652 0.00382474C210.594 -0.0878274 214.391 1.49675 217.099 4.36389C219.807 7.23117 221.172 11.1121 220.856 15.0433L220.856 15.0433C220.301 23.4132 213.415 29.9561 205.027 30.0827L205.027 30.0827Z" transform="translate(96.44336 1070.03)" id="Shape" fill="#EEEEEE" stroke="none" />
        <path d="M415.069 30.0827L14.2488 30.0827C10.3061 30.1744 6.50941 28.5898 3.8015 25.7227C1.09359 22.8554 -0.271556 18.9744 0.0449052 15.0433L0.0449052 15.0433C0.599916 6.67332 7.48599 0.130466 15.8733 0.00382474L416.693 0.00382474C420.636 -0.0878274 424.433 1.49675 427.141 4.36389C429.849 7.23117 431.214 11.1121 430.897 15.0433L430.897 15.0433C430.342 23.4132 423.456 29.9559 415.069 30.0827L415.069 30.0827Z" transform="translate(93.56543 1122.761)" id="Shape" fill="#EEEEEE" stroke="none" />
        <path d="M75.7723 0.000212485L11.344 0.000212485C5.35377 0.0827984 0.428086 4.746 0.0179904 10.7228L0.0179904 10.7228C-0.149023 13.5175 0.849373 16.2566 2.77562 18.2884C4.70187 20.3202 7.38385 21.4631 10.1836 21.4453L74.6118 21.4453C80.6021 21.3628 85.5278 16.6996 85.9379 10.7228L85.9379 10.7228C86.1049 7.92803 85.1065 5.18896 83.1802 3.15717C81.254 1.12532 78.572 -0.0175654 75.7723 0.000212485L75.7723 0.000212485Z" transform="translate(381.8018 703.6992)" id="Shape" fill="#EEEEEE" stroke="none" />
        <path d="M86.0308 0.000637457L11.344 0.000637457C5.35377 0.0832236 0.428086 4.74644 0.0179904 10.7232L0.0179904 10.7232C-0.149023 13.518 0.849373 16.2571 2.77562 18.2889C4.70187 20.3207 7.38385 21.4636 10.1836 21.4458L84.8702 21.4458C90.8604 21.3632 95.7861 16.7 96.1962 10.7232L96.1962 10.7232C96.3771 7.92487 95.3835 5.17771 93.4543 3.14266C91.5249 1.10762 88.8346 -0.0310229 86.0306 0.000637457L86.0308 0.000637457Z" transform="translate(486.4756 703.6992)" id="Shape" fill="#EEEEEE" stroke="none" />
        <path d="M158.492 0.000212485L11.347 0.000212485C5.34768 0.0604875 0.409246 4.73573 0.0209652 10.7228L0.0209652 10.7228C-0.158797 13.5172 0.827275 16.2614 2.74488 18.3021C4.66249 20.3428 7.3398 21.4976 10.1401 21.4918L157.332 21.4918C163.33 21.3853 168.249 16.7077 168.658 10.7228L168.658 10.7228C168.825 7.92804 167.826 5.18896 165.9 3.15718C163.974 1.12532 161.292 -0.0175654 158.492 0.000212485L158.492 0.000212485Z" transform="translate(383.8857 666.1025)" id="Shape" fill="#EEEEEE" stroke="none" />
      </g>
      <g id="Character--inject-107" transform="translate(251.5513 138.8154)">
        <path d="M127.903 34.8141C112.724 47.3935 97.0346 61.0868 82.5985 74.8265C75.3573 81.7428 68.3018 88.7519 61.7568 95.9931C55.4115 102.798 49.5925 110.076 44.3501 117.763L43.4681 119.063L43.0504 119.806C42.6686 120.393 42.3422 121.014 42.0757 121.662C41.4258 123.101 40.8223 124.911 40.1725 126.815C38.9358 131.034 37.9744 135.329 37.2945 139.673C35.8464 149.364 34.9167 159.126 34.5094 168.916C33.5346 188.969 33.5346 209.903 33.906 230.373L12.1823 233.623C6.74137 212.623 3.01573 191.215 1.04203 169.612C0.00552461 158.395 -0.258169 147.119 0.252928 135.866C0.622723 129.787 1.39801 123.739 2.57376 117.763C3.22333 114.394 4.10741 111.075 5.21963 107.83C5.91587 106.019 6.42647 104.348 7.35489 102.445L8.65459 99.66C9.1188 98.8245 9.44369 98.3139 9.81504 97.5712C15.498 87.3009 22.1341 77.5877 29.6356 68.5599C36.5879 59.8952 43.978 51.591 51.7771 43.6798C67.0541 28.0386 83.3687 13.4456 100.61 0L127.903 34.8141Z" transform="translate(186.3323 216.8851)" id="Shape" fill="#B55B52" stroke="none" />
        <path d="M59.6936 3.79286C35.9276 17.7183 0 53.9244 0 53.9244L44.0508 106.795C44.0508 106.795 106.576 69.2888 114.188 48.6327C126.907 13.8656 82.1599 -9.52911 59.6936 3.79286L59.6936 3.79286Z" transform="translate(246.4181 192.2511)" id="Shape" fill="#407BFF" stroke="none" />
        <path d="M24.9692 1.48534L30.3537 32.9104L1.15677 28.6863C1.15677 28.6863 -4.83113 7.33399 10.4404 0L24.9692 1.48534Z" transform="translate(194.2943 437.9286)" id="Shape" fill="#B55B52" stroke="none" />
        <path d="M26.2726 23.3484L0 15.1787L7.84466 0L37.0416 4.22406L26.2726 23.3484L26.2726 23.3484Z" transform="translate(187.6064 466.6148)" id="Polygon" fill="#B55B52" stroke="none" />
        <path d="M0.000991599 5.71004C0.000991599 8.9129 1.76491 11.5123 3.9001 11.5587C6.0353 11.6051 7.65996 9.00568 7.61357 5.84929C7.56718 2.69289 5.84966 0.04703 3.71446 0.000637455C1.57926 -0.0457551 -0.0454719 2.55357 0.000991599 5.71004L0.000991599 5.71004Z" transform="translate(482.8243 79.30187)" id="Shape" fill="#263238" stroke="none" />
        <path d="M0 2.8291L7.7518 0C7.7518 0 3.8527 8.17302 0 2.8291L0 2.8291Z" transform="translate(485.6104 77.2601)" id="Shape" fill="#263238" stroke="none" />
        <path d="M0 0C2.98676 7.35368 6.95266 14.2705 11.7901 20.5631C8.4356 22.8542 4.24801 23.5662 0.324819 22.5127L0 0Z" transform="translate(485.564 88.1683)" id="Shape" fill="#A02724" stroke="none" />
        <path d="M17.8749 4.6661C17.5719 4.75641 17.2493 4.75641 16.9465 4.6661C12.3091 2.9733 7.14417 3.57591 3.02104 6.29076C2.62412 6.60106 2.11819 6.73684 1.61921 6.66679C1.12029 6.59674 0.67124 6.32702 0.375178 5.91941C-0.244924 5.0842 -0.0795402 3.90576 0.746601 3.27354C5.84298 -0.118212 12.2343 -0.925655 18.0141 1.09189C18.9919 1.42308 19.5274 2.47333 19.221 3.45918C18.9906 4.05329 18.4905 4.50171 17.8749 4.6661L17.8749 4.6661Z" transform="translate(468.9888 59.13272)" id="Shape" fill="#263238" stroke="none" />
        <path d="M23.9981 0C26.1334 23.9981 18.103 63.3142 0 76.6827C0 76.6827 13.6469 101.934 57.3727 107.829C105.508 114.281 82.9027 87.2196 82.9027 87.2196C57.3264 77.4718 60.0186 58.2083 66.5171 40.8015L23.9981 0Z" transform="translate(364.2271 119.0828)" id="Shape" fill="#B55B52" stroke="none" />
        <path d="M12.2551 4.45624C35.1392 10.6762 59.1838 16.6642 82.7642 22.0023C94.6472 24.5553 106.53 26.6441 118.413 29.1971C130.296 31.7501 142.226 33.3747 154.062 34.9065L158.704 35.5099L161.768 35.8349C163.903 35.8349 166.409 35.8349 168.73 35.8349C174.126 35.459 179.491 34.7303 184.791 33.6532C196.285 31.2804 207.643 28.2898 218.816 24.6945C241.7 17.5461 264.909 8.91233 287.608 0L297.912 19.3563C276.517 33.3586 254.06 45.666 230.745 56.1659C218.686 61.6161 206.281 66.2679 193.611 70.0912C186.838 72.102 179.937 73.6528 172.955 74.7331C169.106 75.2577 165.232 75.5831 161.35 75.7079L155.037 75.7079L150.395 75.3365C124.833 73.5662 99.407 70.1864 74.2694 65.2174C49.2082 60.5486 24.416 54.5366 0 47.207L12.2551 4.45624Z" transform="translate(461.4259 220.5061)" id="Shape" fill="#B55B52" stroke="none" />
        <path d="M0 22.7913L6.73069 0L31.4715 9.28362C31.4715 9.28362 25.8085 43.5402 4.59535 34.0709L0 22.7913Z" transform="translate(742.9985 205.5597)" id="Shape" fill="#B55B52" stroke="none" />
        <path d="M14.3432 0L39.5946 2.8315L24.7408 24.4159L0 15.1323L14.3432 0L14.3432 0Z" transform="translate(749.7292 190.4273)" id="Polygon" fill="#B55B52" stroke="none" />
        <path d="M0 91.3508L39.7803 94.2751L51.6169 2.92436L11.8366 0L0 91.3508L0 91.3508Z" transform="translate(317.2056 1245.324)" id="Polygon" fill="#B55B52" stroke="none" />
        <path d="M0 52.1276L27.0153 82.1136L102.491 29.9397L75.4758 0L0 52.1276L0 52.1276Z" transform="translate(23.84344 1107.463)" id="Polygon" fill="#B55B52" stroke="none" />
        <path d="M9.69162 16.9223C10.1692 16.9856 10.653 16.9856 11.1306 16.9223C12.4138 16.9669 13.6742 16.5739 14.7048 15.8081C15.6312 15.1547 16.1432 14.0602 16.0509 12.9303C15.6331 7.82425 2.82169 0.861554 1.38275 0.11885C1.05417 -0.0655869 0.646698 -0.0331476 0.351486 0.20101C0.0562731 0.435168 -0.0681369 0.824582 0.0366537 1.18651C1.56846 6.38544 5.04981 15.3441 9.69162 16.9223ZM10.295 14.8799C7.69564 14.0444 4.86414 9.54183 2.54323 2.67192C7.60278 5.59628 13.9621 10.1453 14.1941 12.8373C14.2114 13.3399 13.965 13.8152 13.5443 14.0907C12.6754 14.9071 11.4415 15.2067 10.295 14.8799Z" transform="translate(59.73436 1189.643)" id="Shape" fill="#407BFF" fill-rule="evenodd" stroke="none" />
        <path d="M0.464351 5.81707C4.25827 7.71926 8.42907 8.74997 12.6723 8.83412L12.6723 8.83398C14.743 9.02833 16.819 8.52162 18.5674 7.39529C19.766 6.38994 20.0782 4.67332 19.3101 3.31042C18.7456 1.91452 17.5886 0.842586 16.1537 0.38602C10.7228 -1.4707 0.882167 3.96035 0.510814 4.19239C0.194778 4.32569 -0.00772029 4.63876 0.000212485 4.98157C0.00701201 5.31971 0.180825 5.63263 0.464351 5.81707ZM17.3605 6.0025C15.2717 7.76644 7.65909 6.88447 3.01729 4.98129C6.74746 2.79903 11.0562 1.81096 15.3644 2.14981C16.2793 2.45636 17.0107 3.15375 17.3605 4.05286C18.0567 5.21332 17.6854 5.67754 17.3605 6.0025Z" transform="translate(59.72448 1185.338)" id="Shape" fill="#407BFF" fill-rule="evenodd" stroke="none" />
        <path d="M62.9739 41.2374L40.6932 1.68926C39.9353 0.276231 38.2493 -0.358391 36.7477 0.203844L3.83727 12.8296C2.13445 13.5845 0.84091 15.0384 0.289369 16.8175C-0.262171 18.5967 -0.0179196 20.5273 0.95937 22.1132C8.98971 35.7601 13.4922 41.9336 23.2864 59.2476C29.3208 69.9237 38.6044 93.272 45.7528 108.637C52.9011 124.001 68.0335 117.92 66.4088 110.957C60.9501 90.5362 60.1884 69.1436 64.1807 48.3858C64.6285 45.9352 64.2014 43.4052 62.9739 41.2374L62.9739 41.2374Z" transform="translate(0 1143.929)" id="Shape" fill="#263238" stroke="none" />
        <path d="M0.753401 8.74104C4.88028 9.58333 9.07509 10.0494 13.2863 10.1335C16.6788 10.447 20.0784 9.61336 22.9412 7.76617C24.2844 6.61747 24.9783 4.88261 24.7979 3.12437C24.7651 2.07725 24.1831 1.12475 23.2662 0.617905C18.5414 -2.27203 2.71029 5.85363 0.591197 6.94131C0.565962 6.95426 0.542672 6.96621 0.521367 6.97714C0.156176 7.15534 -0.0507131 7.55028 0.0106951 7.95202C0.0757155 8.34115 0.368945 8.65265 0.753401 8.74104ZM21.8272 6.2809C19.3206 8.46255 12.7757 8.83383 4.00265 7.39488L3.9098 7.39488C10.5476 4.2385 19.692 0.803474 22.4306 2.24242C22.7858 2.45844 22.9982 2.848 22.9876 3.26376C23.1115 4.398 22.6792 5.52205 21.8272 6.2809Z" transform="translate(361.0135 1330.766)" id="Shape" fill="#407BFF" fill-rule="evenodd" stroke="none" />
        <path d="M0.38219 17.8245C0.563015 17.8847 0.75836 17.8847 0.939185 17.8245C1.01334 17.8531 1.09182 17.8688 1.17129 17.871C6.18445 15.7356 15.8394 7.2412 15.0967 2.5994C14.9111 1.53173 14.1684 0.232034 11.6154 0L10.8263 0C1.914 0 0.0108367 16.2463 0.0108367 16.989C-0.0422846 17.3165 0.10348 17.6445 0.38219 17.8245ZM2.14603 15.1786C2.84234 10.9546 5.11679 1.67098 10.8727 1.67098L11.4297 1.71744C13.24 1.90316 13.24 2.73865 13.24 2.73865C13.6577 5.47729 7.1128 12.2078 2.14603 15.1786Z" transform="translate(361.0134 1321.682)" id="Shape" fill="#407BFF" fill-rule="evenodd" stroke="none" />
        <path d="M54.04 0L9.29303 0C7.68749 -0.000424971 6.3152 1.1562 6.04385 2.7388L0.0559544 38.1094C-0.185287 39.9025 0.360304 41.7124 1.55242 43.0735C2.74446 44.4347 4.46665 45.2141 6.27596 45.2114C21.8724 44.9329 29.485 44.0045 49.0734 44.0045C61.1421 44.0045 86.2079 45.2577 102.872 45.2577C119.536 45.2577 120.882 28.7793 113.966 27.2474C82.9586 20.5632 70.8899 11.2796 60.6315 2.46016C58.793 0.888756 56.4585 0.0174238 54.04 0L54.04 0Z" transform="translate(305.4524 1333.937)" id="Shape" fill="#263238" stroke="none" />
        <path d="M45.9075 2.97068L39.3161 53.752L0 47.1607L6.08076 0L45.9075 2.97068L45.9075 2.97068Z" transform="translate(322.915 1245.324)" id="Polygon" fill="#000000" fill-opacity="0.2" stroke="none" />
        <path d="M32.1677 0L59.183 29.9862L27.99 51.524L0 22.2343L32.1677 0L32.1677 0Z" transform="translate(67.10508 1107.463)" id="Polygon" fill="#000000" fill-opacity="0.2" stroke="none" />
        <path d="M0.51903 243.509L161.497 265.14C223.929 39.1305 205.501 33.0498 205.501 33.0498C193.437 27.4004 181.035 22.5017 168.366 18.3815L166.185 17.6853C155.787 14.5289 153.605 14.1111 139.726 10.9547C115.914 6.73061 93.8189 3.48136 66.525 1.16045C64.8076 1.16045 63.0437 0.835491 61.3262 0.742706C56.4059 0.417746 51.532 0.185712 46.7974 0C43.641 0 40.4381 0 37.5137 0L21.8244 0C15.5465 0.141444 9.61828 2.92004 5.49324 7.65463C1.36812 12.3892 -0.572435 18.642 0.147181 24.8802C13.9339 143.571 9.57054 182.702 0.51903 243.509L0.51903 243.509Z" transform="translate(296.634 192.0054)" id="Shape" fill="#407BFF" stroke="none" />
        <path d="M0 12.2089C1.11406 22.6994 25.3443 41.87 33.746 36.7176C36.1597 24.1383 37.9236 13.5086 39.1769 4.96769C27.0154 4.03934 3.20286 -9.37548 0 12.2089L0 12.2089Z" transform="translate(462.7726 263.9526)" id="Shape" fill="#000000" fill-opacity="0.2" stroke="none" />
        <path d="M0.0111201 15.3153C-1.14933 -21.8191 88.8553 19.0752 109.511 28.3124L86.488 90.559C86.488 90.559 56.3627 89.5378 37.192 78.4439C15.0455 64.919 1.10053 41.2423 0.0111201 15.3153L0.0111201 15.3153Z" transform="translate(436.6281 207.9296)" id="Shape" fill="#407BFF" stroke="none" />
        <path d="M0.182029 57.0544C3.15278 96.3241 3.57053 112.988 23.9017 133.412C54.3984 164.094 102.441 153.233 111.353 114.195C119.384 79.0565 113.164 20.7555 74.2188 4.60197C57.2079 -3.01633 37.4377 -1.07939 22.2287 9.69559C7.0198 20.4706 -1.36387 38.4797 0.182029 57.0545L0.182029 57.0544Z" transform="translate(374.3963 17.65269)" id="Shape" fill="#B55B52" stroke="none" />
        <path d="M136.205 33.2558C96.7493 23.3687 95.496 56.4648 96.3316 73.918C97.1672 91.3712 68.1558 99.7264 68.1558 121.589C68.1558 150.09 89.6474 167.079 37.3806 175.713C-6.85583 183.001 -20.5028 238.284 44.9468 270.638C117.405 306.38 226.72 256.063 213.444 208.206C193.113 134.354 229.644 134.586 225.606 93.2743C222.589 63.2882 250.997 61.8029 240.785 36.7835C227.323 4.05878 132.77 -24.674 136.205 33.2558L136.205 33.2558Z" transform="translate(241.8086 0)" id="Shape" fill="#263238" stroke="none" />
        <path d="M2.63609 61.9033C-2.79481 33.3097 0.175938 14.3712 11.4555 5.50531C25.9844 -5.95996 48.3114 3.97351 49.2398 4.39129L47.3366 8.61535C47.3366 8.61535 26.5877 -0.668266 14.287 9.12595C4.49278 16.8778 2.12549 34.3309 7.18504 61.0213L2.63609 61.9033Z" transform="translate(329.7018 26.72924)" id="Shape" fill="#263238" stroke="none" />
        <path d="M29.754 43.308C19.5669 42.987 9.50729 40.9468 0 37.2737L1.71745 32.9569C2.04241 32.9569 33.3281 45.3969 47.8106 33.3746C54.8662 27.526 56.8621 16.5713 53.7985 0.881955L58.4403 0C61.8753 17.5924 59.3223 30.0789 50.8742 37.1345C44.7663 41.5859 37.2978 43.769 29.754 43.308L29.754 43.308Z" transform="translate(257.9761 124.2352)" id="Shape" fill="#263238" stroke="none" />
        <path d="M0.0466051 8.49721C-0.328573 15.8229 1.56814 23.0857 5.47751 29.2924C10.862 38.0654 18.1496 36.4408 20.517 29.0139C22.8844 21.5871 22.4666 9.65759 15.1789 3.29834C7.89134 -3.06092 0.789312 0.374045 0.0466051 8.49721L0.0466051 8.49721Z" transform="translate(456.6453 82.03846)" id="Shape" fill="#B55B52" stroke="none" />
        <path d="M345.443 15.9215C345.443 15.9215 282.872 280.504 253.628 432.245C222.807 592.527 40.1052 723.286 40.1052 723.286L0 682.021C0 682.021 117.623 579.066 147.842 429.414C209.16 125.654 167.662 64.4748 226.752 0L345.443 15.9215Z" transform="translate(70.30791 435.5147)" id="Shape" fill="#263238" stroke="none" />
        <path d="M50.0851 66.6563L0 15.1323L14.0647 0L72.2265 51.1991L50.0851 66.6563L50.0851 66.6563Z" transform="translate(63.76298 1098.086)" id="Polygon" fill="#407BFF" stroke="none" />
        <path d="M41.474 7.27535C-7.17207 49.5158 -1.92688 199.4 3.17913 266.938C23.5566 170.899 48.1118 63.9518 62.5014 2.07647C57.349 -1.7297 50.3863 -0.476462 41.474 7.27535L41.474 7.27535Z" transform="translate(341.0418 501.6264)" id="Shape" fill="#000000" fill-opacity="0.2" stroke="none" />
        <path d="M141.668 15.6429C141.668 15.6429 169.797 329.568 154.433 449.327C138.465 573.867 56.955 844.855 56.955 844.855L0 837.475C0 837.475 46.4181 568.9 54.9126 445.613C63.9177 311.001 23.8589 0 23.8589 0L141.668 15.6429Z" transform="translate(314.2348 441.6419)" id="Shape" fill="#263238" stroke="none" />
        <path d="M81.7886 34.7206L0 24.1373L1.25331 0L90.0046 8.58736L81.7886 34.7206L81.7886 34.7206Z" transform="translate(301.8412 1255.072)" id="Polygon" fill="#407BFF" stroke="none" />
        <path d="M8.99711 0.614082L0.177708 13.9361C-0.472142 15.0037 0.734703 16.3034 2.59147 16.5355L171.46 39.4196C172.899 39.4196 174.199 39.0483 174.385 38.1663L177.355 24.2409C177.588 23.2661 176.381 22.2449 174.802 22.0128L11.643 0.149873C10.7398 -0.15901 9.74124 0.0161489 8.99711 0.614082L8.99711 0.614082Z" transform="translate(286.6705 425.1993)" id="Shape" fill="#407BFF" stroke="none" />
        <path d="M8.99711 0.614082L0.177708 13.9361C-0.472142 15.0037 0.734703 16.3034 2.59147 16.5355L171.46 39.4196C172.899 39.4196 174.199 39.0483 174.385 38.1663L177.355 24.2409C177.588 23.2661 176.381 22.2449 174.802 22.0128L11.643 0.149873C10.7398 -0.15901 9.74124 0.0161489 8.99711 0.614082L8.99711 0.614082Z" transform="translate(286.6705 425.1993)" id="Shape" fill="#000000" fill-opacity="0.3" stroke="none" />
        <path d="M5.72938 20.8575L1.36607 20.3005C0.484112 20.3005 -0.119346 19.6506 0.0199736 19.0937L4.01193 0.758502C4.01193 0.2479 4.94028 -0.0769905 5.82224 0.0157947L10.1855 0.619253C11.0675 0.619253 11.671 1.2691 11.5781 1.77971L7.53975 20.1149C7.44683 20.6719 6.61126 20.9967 5.72938 20.8575L5.72938 20.8575Z" transform="translate(309.9909 425.9833)" id="Shape" fill="#263238" stroke="none" />
        <path d="M5.76528 20.8713L1.40197 20.2678C0.520021 20.2678 -0.0834357 19.618 0.00942016 19.1074L4.04776 0.772242C4.04776 0.26164 4.97611 -0.109713 5.85806 0.0295354L10.2214 0.58653C11.1033 0.58653 11.7068 1.23638 11.5675 1.79337L7.57551 20.1285C7.43633 20.6392 6.64716 21.0105 5.76528 20.8713L5.76528 20.8713Z" transform="translate(420.3372 441.0554)" id="Shape" fill="#263238" stroke="none" />
      </g>
    </g>
  </g>
</svg>