<?xml version="1.0" encoding="utf-8"?>
<svg width="2000px" height="2000px" viewBox="0 0 2000 2000" version="1.1" xmlns:xlink="http://www.w3.org/1999/xlink" xmlns="http://www.w3.org/2000/svg">
  <desc>Created with Lunacy</desc>
  <defs>
    <rect width="1999.99951" height="2000" id="artboard_1" />
    <clipPath id="clip_1">
      <use xlink:href="#artboard_1" clip-rule="evenodd" />
    </clipPath>
  </defs>
  <g id="Ultra-HD-Copy-11" clip-path="url(#clip_1)">
    <use xlink:href="#artboard_1" stroke="none" fill="#FFFFFF" />
    <g id="Group" transform="translate(100.999 195.0063)">
      <g id="building-1--inject-143" transform="translate(0 192.1694)">
        <path d="M0 0L784.008 0L784.008 1380.2L0 1380.2L0 0Z" transform="translate(0.0004882813 37.62012)" id="Rectangle" fill="#407BFF" stroke="none" />
        <path d="M0 0L784.008 0L784.008 1380.2L0 1380.2L0 0Z" transform="translate(0.0004882813 37.62012)" id="Rectangle" fill="#EEEEEE" fill-opacity="0.2" stroke="none" />
        <path d="M0 0L171.612 0L171.612 43.2L0 43.2L0 0Z" transform="translate(141.1206 127.4043)" id="Rectangle" fill="#407BFF" fill-opacity="0.6" stroke="none" />
        <path d="M0 0L171.612 0L171.612 43.2L0 43.2L0 0Z" transform="translate(55.33252 84.2041)" id="Rectangle" fill="#407BFF" fill-opacity="0.4" stroke="none" />
        <path d="M0 0L439.596 0L439.596 449.424L0 449.424L0 0Z" transform="translate(186.9844 140.0039)" id="Rectangle" fill="#EEEEEE" stroke="none" />
        <path d="M0 0L425.016 0L425.016 415.188L0 415.188L0 0Z" transform="matrix(-4.371139E-08 1 -1 -4.371139E-08 614.3765 152.2079)" id="Rectangle" fill="#407BFF" fill-opacity="0.4" stroke="none" />
        <path d="M0 0L343.512 0L343.512 415.188L0 415.188L0 0Z" transform="matrix(-4.371139E-08 1 -1 -4.371139E-08 614.3765 233.7118)" id="Rectangle" fill="#407BFF" fill-opacity="0.4" stroke="none" />
        <path d="M0 3.05176e-05L303.804 0L303.804 141.084L0 141.084L0 3.05176e-05Z" transform="matrix(-4.371139E-08 1 -1 -4.371139E-08 340.2725 273.4199)" id="Rectangle" fill="#EEEEEE" fill-opacity="0.1" stroke="none" />
        <path d="M0 0L19.008 0L19.008 415.188L0 415.188L0 0Z" transform="matrix(-4.371139E-08 1 -1 -4.371139E-08 614.3765 224.2079)" id="Rectangle" fill="#EEEEEE" stroke="none" />
        <path d="M11.772 0L0 72L71.316 72L83.052 0L11.772 0L11.772 0Z" transform="translate(356.2925 152.208)" id="Polygon" fill="#EEEEEE" fill-opacity="0.2" stroke="none" />
        <path d="M0 72L26.424 72L38.196 0L11.772 0L0 72L0 72Z" transform="translate(302.0767 152.208)" id="Polygon" fill="#EEEEEE" fill-opacity="0.2" stroke="none" />
        <path d="M0 4.95911e-05L813.6 0L813.6 37.584L0 37.584L0 4.95911e-05Z" transform="matrix(-1 8.742278E-08 -8.742278E-08 -1 813.6001 37.58394)" id="Rectangle" fill="#263238" stroke="none" />
        <path d="M0 6.10352e-05L171.612 0L171.612 43.2L0 43.2001L0 6.10352e-05Z" transform="matrix(-1 8.742278E-08 -8.742278E-08 -1 708.0127 733.8242)" id="Rectangle" fill="#407BFF" stroke="none" />
        <path d="M0 0L171.612 0L171.612 43.2L0 43.2L0 0Z" transform="matrix(-1 8.742278E-08 -8.742278E-08 -1 536.4009 733.8242)" id="Rectangle" fill="#407BFF" fill-opacity="0.6" stroke="none" />
        <path d="M0 6.10352e-05L171.612 0L171.612 43.2L0 43.2001L0 6.10352e-05Z" transform="matrix(-1 8.742278E-08 -8.742278E-08 -1 622.1885 777.0244)" id="Rectangle" fill="#407BFF" stroke="none" />
        <path d="M0 0L62.64 0L62.64 43.2L0 43.2L0 0Z" transform="matrix(-1 8.742278E-08 -8.742278E-08 -1 62.64063 940.4282)" id="Rectangle" fill="#407BFF" fill-opacity="0.6" stroke="none" />
        <path d="M0 0L148.428 0L148.428 43.2L1.52588e-05 43.2L0 0Z" transform="matrix(-1 8.742278E-08 -8.742278E-08 -1 148.4287 983.6284)" id="Rectangle" fill="#407BFF" stroke="none" />
        <path d="M0 0L439.596 0L439.596 449.424L0 449.424L0 0Z" transform="translate(186.9844 831.4199)" id="Rectangle" fill="#EEEEEE" stroke="none" />
        <path d="M0 0L425.016 0L425.016 415.188L0 415.188L0 0Z" transform="matrix(-4.371139E-08 1 -1 -4.371139E-08 614.4126 843.624)" id="Rectangle" fill="#407BFF" fill-opacity="0.4" stroke="none" />
        <path d="M0 0L343.512 0L343.512 415.188L0 415.188L0 0Z" transform="matrix(-4.371139E-08 1 -1 -4.371139E-08 614.4126 925.1279)" id="Rectangle" fill="#407BFF" fill-opacity="0.4" stroke="none" />
        <path d="M0 0L19.008 0L19.008 415.188L0 415.188L0 0Z" transform="matrix(-4.371139E-08 1 -1 -4.371139E-08 614.4126 906.1201)" id="Rectangle" fill="#EEEEEE" stroke="none" />
        <path d="M11.772 0L0 72L71.316 72L83.052 0L11.772 0L11.772 0Z" transform="translate(448.1646 843.624)" id="Polygon" fill="#EEEEEE" fill-opacity="0.2" stroke="none" />
        <path d="M0 72L26.424 72L38.196 0L11.772 0L0 72L0 72Z" transform="translate(393.9487 843.624)" id="Polygon" fill="#EEEEEE" fill-opacity="0.2" stroke="none" />
      </g>
      <g id="building-2--inject-143" transform="translate(1036.799 0)">
        <path d="M0 1539.61L730.8 1539.61L730.8 0L0 104.004L0 1539.61L0 1539.61Z" transform="translate(32.40039 70.37988)" id="Polygon" fill="#407BFF" stroke="none" />
        <path d="M0 1539.61L730.8 1539.61L730.8 0L0 104.004L0 1539.61L0 1539.61Z" transform="translate(32.40039 70.37988)" id="Polygon" fill="#EEEEEE" fill-opacity="0.7" stroke="none" />
        <path d="M0 0L25.56 0L25.56 3.60001L0 3.60001L0 0Z" transform="matrix(0.9861412 -0.1659082 0.1659082 0.9861412 301.96 64.81641)" id="Rectangle" fill="#407BFF" stroke="none" />
        <path d="M3.05176e-05 0L92.628 0L92.628 3.59999L0 3.59999L3.05176e-05 0Z" transform="matrix(0.9861412 -0.1659082 0.1659082 0.9861412 354.1973 56.06641)" id="Rectangle" fill="#407BFF" stroke="none" />
        <path d="M750.348 0L750.348 177.192L0 177.192L0 126.144L750.348 0L750.348 0Z" transform="translate(12.85254 0)" id="Polygon" fill="#407BFF" stroke="none" />
        <path d="M0 0L750.348 21.6L750.348 0L0 0L0 0Z" transform="translate(12.85254 177.1919)" id="Polygon" fill="#407BFF" fill-opacity="0.3" stroke="none" />
        <path d="M0 6.10352e-05L235.188 0L235.188 530.388L0 530.388L0 6.10352e-05Z" transform="matrix(-1 8.742278E-08 -8.742278E-08 -1 707.6172 807.1919)" id="Rectangle" fill="#EEEEEE" stroke="none" />
        <path d="M0 6.10352e-05L501.588 0L501.588 206.388L0 206.388L0 6.10352e-05Z" transform="matrix(-4.371139E-08 1 -1 -4.371139E-08 693.1807 291.168)" id="Rectangle" fill="#407BFF" fill-opacity="0.7" stroke="none" />
        <path d="M125.1 501.588L43.2 0L0 0L81.9 501.588L125.1 501.588L125.1 501.588Z" transform="translate(512.5332 291.2041)" id="Polygon" fill="#EEEEEE" fill-opacity="0.2" stroke="none" />
        <path d="M98.208 501.588L16.308 0L0 0L81.9 501.588L98.208 501.588L98.208 501.588Z" transform="translate(569.2686 291.2041)" id="Polygon" fill="#EEEEEE" fill-opacity="0.2" stroke="none" />
        <path d="M0 0L235.224 0L235.224 425.952L0 425.952L0 0Z" transform="translate(472.3926 1184.04)" id="Rectangle" fill="#EEEEEE" stroke="none" />
        <path d="M0 0L206.424 0L206.424 411.552L0 411.552L0 0Z" transform="translate(486.793 1198.44)" id="Rectangle" fill="#407BFF" fill-opacity="0.7" stroke="none" />
        <path d="M0 0L67.176 411.552L110.376 411.552L43.2 0L0 0L0 0Z" transform="translate(512.5332 1198.44)" id="Polygon" fill="#EEEEEE" fill-opacity="0.2" stroke="none" />
        <path d="M0 0L67.176 411.552L83.484 411.552L16.308 0L0 0L0 0Z" transform="translate(569.2686 1198.44)" id="Polygon" fill="#EEEEEE" fill-opacity="0.2" stroke="none" />
        <path d="M0 0L289.692 0L289.692 425.952L0 425.952L0 0Z" transform="translate(108.1084 1184.04)" id="Rectangle" fill="#EEEEEE" stroke="none" />
        <path d="M0 0L259.92 0L259.92 411.048L0 411.048L0 0Z" transform="translate(122.9766 1198.944)" id="Rectangle" fill="#407BFF" fill-opacity="0.7" stroke="none" />
        <path d="M0 0L59.184 362.52L61.128 374.328L67.1041 411.048L127.512 411.048L121.536 374.328L119.592 362.52L60.408 0L0 0L0 0Z" transform="translate(144.4326 1198.944)" id="Polygon" fill="#EEEEEE" fill-opacity="0.2" stroke="none" />
        <path d="M0 0L59.1839 362.52L61.1279 374.328L67.104 411.048L89.892 411.048L83.916 374.328L81.972 362.52L22.788 0L0 0L0 0Z" transform="translate(223.8125 1198.944)" id="Polygon" fill="#EEEEEE" fill-opacity="0.2" stroke="none" />
        <path d="M0 0.00012207L433.188 0L433.188 11.808L0 11.8081L0 0.00012207Z" transform="matrix(-1 8.742278E-08 -8.742278E-08 -1 433.1885 1539.18)" id="Rectangle" fill="#263238" stroke="none" />
        <path d="M0 0.00012207L433.188 0L433.188 5.90405L0 5.90417L0 0.00012207Z" transform="matrix(-1 8.742278E-08 -8.742278E-08 -1 433.1885 1609.992)" id="Rectangle" fill="#263238" stroke="none" />
        <path d="M0 0L7.20001 0L7.20001 70.776L0 70.776L0 0Z" transform="translate(414.2891 1539.216)" id="Rectangle" fill="#263238" stroke="none" />
        <path d="M0 0L7.20001 0L7.20001 70.776L0 70.776L0 0Z" transform="translate(347.1846 1539.216)" id="Rectangle" fill="#263238" stroke="none" />
        <path d="M0 0L7.20001 0L7.20001 70.776L0 70.776L0 0Z" transform="translate(280.0811 1539.216)" id="Rectangle" fill="#263238" stroke="none" />
        <path d="M0 0L7.2 0L7.2 70.776L0 70.776L0 0Z" transform="translate(213.0127 1539.216)" id="Rectangle" fill="#263238" stroke="none" />
        <path d="M0 0L7.2 0L7.2 70.776L0 70.776L0 0Z" transform="translate(145.9092 1539.216)" id="Rectangle" fill="#263238" stroke="none" />
        <path d="M0 0L7.2 0L7.2 70.776L0 70.776L0 0Z" transform="translate(78.80469 1539.216)" id="Rectangle" fill="#263238" stroke="none" />
        <path d="M0 0L7.2 0L7.2 70.776L0 70.776L0 0Z" transform="translate(11.70117 1539.216)" id="Rectangle" fill="#263238" stroke="none" />
        <path d="M0 6.10352e-05L289.692 0L289.692 731.196L6.10352e-05 731.196L0 6.10352e-05Z" transform="matrix(-1 8.742278E-08 -8.742278E-08 -1 397.8008 1007.964)" id="Rectangle" fill="#EEEEEE" stroke="none" />
        <path d="M0 0L701.424 0L701.424 259.92L3.05176e-05 259.92L0 0Z" transform="matrix(-4.371139E-08 1 -1 -4.371139E-08 382.9326 291.6719)" id="Rectangle" fill="#407BFF" fill-opacity="0.5" stroke="none" />
        <path d="M0 0L701.424 0L701.424 98.28L0 98.28L0 0Z" transform="matrix(-4.371139E-08 1 -1 -4.371139E-08 221.2568 291.6718)" id="Rectangle" fill="#407BFF" fill-opacity="0.3" stroke="none" />
        <path d="M48.132 431.892L48.132 0L0 102.384L0 431.892L48.132 431.892L48.132 431.892Z" transform="translate(334.8008 561.2041)" id="Polygon" fill="#407BFF" fill-opacity="0.3" stroke="none" />
      </g>
      <g id="character-1--inject-143" transform="translate(226.5703 466.5444)">
        <path d="M26.7163 11.5246C28.9123 24.8086 30.6403 38.0566 32.1163 51.4126C32.9443 58.0727 33.5923 64.7326 34.1683 71.4647C34.7443 78.1967 35.1763 85.0367 35.7163 91.3007C37.0123 103.757 38.9563 116.861 41.2243 129.677C43.4923 142.493 46.0123 155.597 48.7483 168.341L48.7483 168.521C49.4497 171.856 47.5332 175.187 44.2967 176.256C41.0602 177.326 37.5367 175.793 36.1123 172.697C30.5163 160.267 25.7068 147.497 21.7122 134.464C17.5733 121.315 14.2549 107.921 11.7762 94.3602L5.83618 54.7602C3.85617 41.6921 1.84018 28.5162 0.148178 15.4482L0.148178 15.4482C-0.945346 8.09171 4.13174 1.24168 11.4882 0.148151C18.8446 -0.945374 25.6947 4.13169 26.7882 11.4881L26.7163 11.5246Z" transform="translate(120.4292 120.7194)" id="Shape" fill="#B65B52" stroke="none" />
        <path d="M12.1087 0L24.3127 11.232L5.5927 19.044C5.5927 19.044 -4.0553 7.77602 1.9927 2.62804L12.1087 0Z" transform="translate(155.2328 283.0481)" id="Shape" fill="#B55B52" stroke="none" />
        <path d="M17.136 15.9841L11.124 17.4601C8.32626 18.1804 5.38962 16.9617 3.92399 14.4721L0 7.81205L18.72 0L21.6 7.2C22.314 8.95111 22.2319 10.926 21.3752 12.612C20.5184 14.2979 18.9714 15.5284 17.136 15.984L17.136 15.9841Z" transform="translate(160.8256 294.2439)" id="Shape" fill="#B55B52" stroke="none" />
        <path d="M2.28557 9.47621C-6.71443 23.8762 13.7696 75.6802 13.7696 75.6802L52.3976 63.7642C50.0263 48.4519 46.0194 33.4381 40.4456 18.9804C31.8416 -1.8278 12.1136 -6.3278 2.28557 9.47621L2.28557 9.47621Z" transform="translate(110.516 113.3358)" id="Shape" fill="#407BFF" stroke="none" />
        <path d="M15.0121 1.00465C20.9161 5.75667 26.2801 24.7286 28.0801 38.1927L11.7001 43.2327C6.85426 30.6868 2.94354 17.7995 0 4.67639C5.72415 1.07666 11.8801 -1.51535 15.0121 1.00465L15.0121 1.00465Z" transform="translate(112.5854 145.7834)" id="Shape" fill="#000000" fill-opacity="0.2" stroke="none" />
        <path d="M5.4 1.72793C14.472 71.244 0.936008 141.552 0 156.132L94.392 166.428C124.992 69.228 104.508 9.79196 104.508 9.79196C104.508 9.79196 98.676 7.73993 90.612 5.68795C88.056 5.03998 85.356 4.39195 82.476 3.81594L77.652 2.91594C64.2896 1.18883 50.8405 0.215222 37.3686 0C34.8486 0 32.2566 0 29.7366 0C27.2166 0 25.0926 0 22.9326 0.252027C13.068 0.755915 5.4 1.72793 5.4 1.72793L5.4 1.72793Z" transform="translate(27.84153 104.0201)" id="Shape" fill="#407BFF" stroke="none" />
        <path d="M14.076 0C14.796 6.696 11.088 32.4 0 37.116C0.46799 27.54 0.684009 17.496 0.576013 7.2L14.076 0Z" transform="translate(35.65352 142.36)" id="Shape" fill="#000000" fill-opacity="0.2" stroke="none" />
        <path d="M7.2 0C8.81999 13.14 9.648 37.044 0 45.036C6.51599 52.56 34.776 63.036 34.776 63.036C34.776 63.036 43.884 53.892 40.248 48.024C26.064 43.524 27.18 32.832 30.42 22.824L7.2 0Z" transform="translate(65.28154 58.98397)" id="Shape" fill="#B55B52" stroke="none" />
        <path d="M0.85361 0L14.5696 13.536C13.7888 15.8846 13.1988 18.2924 12.8056 20.736C7.36963 19.512 0.205637 12.924 0.0616333 7.09201C-0.133402 4.69908 0.135516 2.29098 0.853583 0L0.85361 0Z" transform="translate(81.09592 68.34399)" id="Shape" fill="#000000" fill-opacity="0.2" stroke="none" />
        <path d="M0.0194183 25.0127C0.559424 42.6167 0.0194183 52.9487 8.55143 62.2367C21.4754 76.2407 43.3994 68.8607 48.1514 51.4367C52.4354 35.7767 50.8514 9.60469 33.7514 2.04467C26.1576 -1.30419 17.3736 -0.500647 10.5135 4.17047C3.65326 8.84153 -0.313495 16.7199 0.0194183 25.0127L0.0194183 25.0127Z" transform="translate(69.90613 14.63929)" id="Shape" fill="#B55B52" stroke="none" />
        <path d="M20.8614 51.136C29.3934 47.86 29.2494 34.648 28.9614 31.948C34.2174 31.948 44.7294 25.648 52.8294 28.348C60.9294 31.048 72.3054 29.824 75.2934 17.872C78.2814 5.91993 64.4934 -1.64004 53.6934 0.303937C42.8934 2.24791 34.1814 10.276 20.8614 6.89195C7.54137 3.50794 2.2494 14.4159 6.46139 21.76C-7.14661 31.804 2.86139 56.392 16.9014 60.784C27.6294 64.204 20.8614 51.136 20.8614 51.136L20.8614 51.136Z" transform="translate(50.32412 0)" id="Shape" fill="#263238" stroke="none" />
        <path d="M10.556 15.228C0.90802 15.228 1.73603 3.52799 4.58001 0C0.00802002 3.31199 -1.03598 11.196 0.980008 14.112C2.996 17.028 10.556 15.228 10.556 15.228L10.556 15.228Z" transform="translate(49.86552 6.819985)" id="Shape" fill="#263238" stroke="none" />
        <path d="M1.17642 11.5605C3.33935 15.4305 6.93191 18.2993 11.1844 19.5525C16.8364 21.1365 17.9164 15.9525 16.3684 10.6246C14.8204 5.29657 11.9764 -0.751465 6.43241 0.0765198C3.90855 0.446594 1.74408 2.07026 0.682526 4.3897C-0.379056 6.70913 -0.19314 9.40853 1.17642 11.5605L1.17642 11.5605Z" transform="translate(60.25312 42.59945)" id="Shape" fill="#B55B52" stroke="none" />
        <path d="M62.4907 39.1678L2.62266 39.1678C0.687772 26.2048 -0.179132 13.1049 0.0306519 0L28.6147 3.096L62.0947 6.696C62.8388 17.5042 62.971 28.3454 62.4907 39.1681L62.4907 39.1678Z" transform="translate(60.1389 263.6802)" id="Shape" fill="#263238" stroke="none" />
        <path d="M66.528 6.69705C64.0639 18.8475 60.9758 30.8632 57.2762 42.6963L0 42.6963C0.983853 28.3613 2.85949 14.1016 5.61602 0L38.016 3.6L66.528 6.69705Z" transform="translate(22.22554 260.0791)" id="Shape" fill="#263238" stroke="none" />
        <path d="M0 2.55685C0 3.96085 0.727383 5.14885 1.72272 5.18483C2.71805 5.22081 3.56031 4.06884 3.59857 2.66484C3.63683 1.26085 2.90948 0.0368591 1.91411 0.000823975C0.918751 -0.0352112 0.038291 1.08084 0 2.55685L0 2.55685Z" transform="translate(96.42155 42.89114)" id="Shape" fill="#263238" stroke="none" />
        <path d="M0 2.55685C0 3.99683 0.688394 5.14885 1.68275 5.18483C2.6771 5.22081 3.51848 4.10482 3.59495 2.66484C3.67143 1.22487 2.8683 0.0368591 1.87398 0.000823975C0.879655 -0.0352112 0.0382522 1.11682 0 2.55685L0 2.55685Z" transform="translate(112.6216 43.35916)" id="Shape" fill="#263238" stroke="none" />
        <path d="M0.431983 0C1.99968 4.42744 4.16794 8.61862 6.87601 12.4561C4.85769 13.8182 2.33874 14.2138 0 13.5361L0.431983 0Z" transform="translate(107.0056 46.45598)" id="Shape" fill="#A02724" stroke="none" />
        <path d="M8.04422 5.64318C4.83162 5.15144 1.96526 3.35341 0.124228 0.675165C0.0449341 0.600348 0 0.496143 0 0.387158C0 0.278174 0.0449341 0.173969 0.124228 0.0991517C0.2935 -0.0330139 0.530969 -0.0330139 0.700241 0.0991517C2.81516 3.02822 6.19563 4.77862 9.80826 4.81514C10.0383 4.85091 10.207 5.05036 10.2043 5.28316C10.1855 5.50761 9.99747 5.67999 9.77225 5.67916L8.04422 5.64318Z" transform="translate(92.98533 57.98482)" id="Shape" fill="#263238" stroke="none" />
        <path d="M0.632565 4.61354C0.488672 4.58421 0.353293 4.52263 0.236563 4.43353C-0.0788544 4.10032 -0.0788544 3.57869 0.236563 3.24547C1.89849 1.11319 4.48283 -0.0919556 7.18457 0.00549316C7.64808 0.0619629 7.98289 0.476477 7.94056 0.941528C7.88415 1.4051 7.46961 1.73996 7.00458 1.69761L7.00458 1.69761C4.86288 1.63707 2.82423 2.61617 1.53257 4.32559C1.32218 4.60014 0.963254 4.71495 0.632565 4.61354L0.632565 4.61354Z" transform="translate(90.96497 35.39846)" id="Shape" fill="#263238" stroke="none" />
        <path d="M6.73657 5.00406C6.44892 5.02405 6.17314 4.88617 6.01658 4.64403C4.82097 2.85793 2.83686 1.75864 0.688568 1.69201C0.28754 1.60884 0 1.25557 0 0.846003C0 0.436432 0.28754 0.0831665 0.688568 0C3.39151 0.0444947 5.90886 1.38356 7.45656 3.6C7.5809 3.78133 7.628 4.00468 7.58746 4.22084C7.54695 4.43694 7.42214 4.62805 7.24057 4.75203C7.11131 4.89782 6.93075 4.98812 6.73657 5.00406L6.73657 5.00406Z" transform="translate(113.589 32.88391)" id="Shape" fill="#263238" stroke="none" />
        <path d="M49.2975 18.0685C46.9215 24.4045 44.3655 30.9925 42.0975 37.5085C39.8295 44.0245 37.2735 50.5765 35.1135 57.1285C32.9535 63.6805 30.7575 70.2325 28.8495 76.7485C26.9415 83.2645 25.2495 89.7445 24.0255 96.0085L24.0255 94.2805C24.0255 100.869 23.7375 107.457 24.0255 114.081C24.3135 120.705 24.6375 127.329 25.2495 133.953C25.8615 140.577 26.6175 147.237 27.6975 153.861C28.7775 160.485 29.9655 167.181 31.2975 173.373L31.2975 173.769C32.021 177.082 30.1532 180.413 26.9491 181.524C23.7449 182.635 20.2162 181.175 18.7335 178.125C15.7488 171.547 13.1758 164.79 11.0295 157.892C8.90555 151.052 6.96154 144.14 5.37753 137.156C3.79353 130.172 2.53353 123.044 1.77753 115.88C1.02154 108.716 0.301534 101.48 0.0135269 94.2804C-0.0045044 93.9687 -0.0045044 93.6562 0.0135269 93.3444L0.0135269 92.5524C0.854421 85.0335 2.12851 77.5692 3.82944 70.197C5.48545 62.9969 7.42942 55.7969 9.62543 48.9929C11.8214 42.1889 13.9814 35.0969 16.4294 28.2929C18.8774 21.4889 21.3614 14.757 24.2774 7.91692C27.2453 1.35731 34.8486 -1.70673 41.5354 0.962238C48.2222 3.6312 51.6261 11.0885 49.2614 17.8889L49.2975 18.0685Z" transform="translate(0 116.1555)" id="Shape" fill="#B65B52" stroke="none" />
        <path d="M28.8 0.472193C12.024 3.13621 0 52.8162 0 52.8162L40.464 68.4402C46.8639 57.6818 51.529 45.9825 54.288 33.7723C60.228 10.5882 49.104 -2.73181 28.8 0.472193L28.8 0.472193Z" transform="translate(4.441526 105.2758)" id="Shape" fill="#407BFF" stroke="none" />
        <path d="M13.2633 0L23.4873 13.032L3.7593 17.784C3.7593 17.784 -3.9807 5.11205 2.75131 0.971961L13.2633 0Z" transform="translate(16.34222 283.804)" id="Shape" fill="#B55B52" stroke="none" />
        <path d="M15.66 15.5161L9.46799 16.0202C6.60149 16.2861 3.90325 14.629 2.844 11.9521L0 4.75214L19.692 0L21.42 7.56003C21.8314 9.39331 21.436 11.315 20.3342 12.837C19.2323 14.3589 17.5301 15.3346 15.66 15.5161L15.66 15.5161Z" transform="translate(20.13753 296.836)" id="Shape" fill="#B55B52" stroke="none" />
      </g>
      <g id="character-2--inject-143" transform="translate(451.1079 499.9253)">
        <path d="M18.9973 23.5868C10.6453 21.8228 7.65731 33.4148 9.74526 39.7148C11.8332 46.0148 2.54526 47.5628 5.38923 57.2828C7.47724 64.7349 -6.31077 68.3349 3.66125 79.6028C13.6333 90.8708 30.3732 78.6668 46.8612 84.2468C63.3493 89.8268 85.0932 87.6308 91.1052 76.1108C95.8212 67.1468 84.5532 63.4028 87.5052 57.3188C92.0412 47.5628 91.1052 31.8668 79.6212 29.7428C87.8292 25.0268 90.8172 18.6908 86.4252 7.20681C82.0332 -4.27714 66.6252 0.870831 60.0012 3.06683C53.3772 5.26284 47.0052 8.03485 39.7692 6.01886C25.5493 2.13085 16.7293 10.7708 18.9973 23.5868L18.9973 23.5868Z" transform="translate(32.95948 0)" id="Shape" fill="#263238" stroke="none" />
        <path d="M15.1917 0C19.4396 7.704 23.7957 15.66 28.2957 23.256C30.5637 27.072 32.8677 30.852 35.2077 34.488C36.3597 36.324 37.5837 38.088 38.8077 39.744C39.4556 40.572 40.0317 41.472 40.6797 42.228L42.2997 44.172C42.2997 44.172 42.2997 44.172 41.9037 44.172C41.5077 44.172 41.5436 44.172 41.9037 44.172C43.1219 43.9405 44.2761 43.4493 45.2877 42.732C48.5617 40.4483 51.5473 37.7769 54.1797 34.776C60.1196 28.273 65.6503 21.4078 70.7399 14.2198L78.1919 18.3598C74.3523 27.0306 69.6486 35.2924 64.152 43.0197C61.1627 47.1915 57.6545 50.9659 53.712 54.2517C51.1487 56.3925 48.1519 57.9523 44.928 58.8238C40.263 59.937 35.3499 58.6548 31.824 55.4037C30.888 54.5397 30.672 54.2517 30.168 53.7477L28.836 52.3437C27.936 51.3717 27.216 50.4357 26.388 49.4997C24.804 47.5917 23.328 45.6837 21.888 43.7757C19.008 39.9598 16.38 36.0358 13.896 32.0757C8.85602 24.1917 4.28401 16.2358 0 7.84776L15.1917 0Z" transform="translate(113.3011 113.8748)" id="Shape" fill="#FFB573" stroke="none" />
        <path d="M17.8261 0.00181274C25.0261 -0.250214 37.6261 25.7778 37.6261 25.7778L19.0141 48.3498C19.0141 48.3498 -2.58591 21.0978 0.258069 12.3498C3.10205 3.60187 7.38606 0.36178 17.8261 0.00181274L17.8261 0.00181274Z" transform="translate(100.3347 97.81705)" id="Shape" fill="#263238" stroke="none" />
        <path d="M0 0L9.68394 30.348L0.935979 40.932L0 0L0 0Z" transform="translate(119.3488 104.0828)" id="Polygon" fill="#000000" fill-opacity="0.2" stroke="none" />
        <path d="M90.108 14.1907C90.504 24.9907 88.632 49.6867 77.472 107.503L9.07202 105.487C11.052 77.7306 11.592 60.5947 0 3.13863C9.62232 1.44113 19.3566 0.45445 29.1239 0.186603C39.4651 -0.243182 49.8238 0.0695984 60.1202 1.12258C68.0042 2.05856 76.5362 3.71459 82.1521 4.72258C86.6916 5.63038 89.9959 9.56272 90.108 14.1907L90.108 14.1907Z" transform="translate(34.78475 91.94421)" id="Shape" fill="#263238" stroke="none" />
        <path d="M4.104 0C5.76002 10.044 7.16402 28.404 0 34.848C5.37731 43.3481 13.8661 49.4078 23.652 51.732C39.42 43.776 30.852 35.784 30.852 35.784C19.8 32.796 20.34 24.516 22.5 16.848L4.104 0Z" transform="translate(64.01674 57.28283)" id="Shape" fill="#FFB573" stroke="none" />
        <path d="M12.96 3.95997L10.944 0L0 2.44797L12.96 3.95997L12.96 3.95997Z" transform="translate(74.70875 105.0548)" id="Polygon" fill="#E0E0E0" stroke="none" />
        <path d="M29.2536 15.48C25.6536 13.86 9.48955 3.27601 8.84158 0C6.0683 0.278174 3.33748 0.882312 0.705652 1.8C-1.92618 2.71769 2.75768 13.752 15.5376 27.504C17.59 21.3047 22.839 16.7033 29.2536 15.48L29.2536 15.48Z" transform="translate(56.3992 89.57484)" id="Shape" fill="#EEEEEE" stroke="none" />
        <path d="M0 3.95997L0.93598 0L7.63198 0.468018L0 3.95997L0 3.95997Z" transform="translate(87.66877 105.0548)" id="Polygon" fill="#E0E0E0" stroke="none" />
        <path d="M0 14.4C5.43598 10.8 4.104 3.27601 3.6 0C6.35427 0.38952 9.07438 0.991351 11.7359 1.8C17.001 9.08679 17.3284 18.8364 12.5639 26.46C10.4683 20.7121 5.8288 16.2587 -5.49317e-05 14.4L0 14.4Z" transform="translate(88.60474 90.65485)" id="Shape" fill="#EEEEEE" stroke="none" />
        <path d="M0.61507 0L11.4151 9.93598C10.8711 11.7329 10.4974 13.577 10.2991 15.444C5.26405 14.2888 1.30111 10.4093 0.0390564 5.4C-0.0909119 3.58006 0.10415 1.75155 0.61507 0L0.61507 0Z" transform="translate(75.0657 64.15884)" id="Shape" fill="#000000" fill-opacity="0.2" stroke="none" />
        <path d="M0.194074 25.7152C2.21007 42.2752 2.71406 49.3311 11.642 57.3591C25.07 69.4192 44.978 63.2991 47.9301 46.5591C50.5941 31.4031 46.8141 6.95913 30.146 1.23514C22.6966 -1.32457 14.4531 0.150897 8.35412 5.13567C2.25505 10.1205 -0.83172 17.9053 0.194074 25.7152L0.194074 25.7152Z" transform="translate(60.29468 12.45169)" id="Shape" fill="#FFB573" stroke="none" />
        <path d="M7.45197 0C17.532 3.38401 23.508 7.2 24.48 16.092C25.4519 24.984 20.5199 40.644 11.736 39.384C2.95203 38.124 0 32.94 0 27.252C0 21.564 7.45197 0 7.45197 0L7.45197 0Z" transform="translate(53.46876 13.65084)" id="Shape" fill="#263238" stroke="none" />
        <path d="M0 9.51339C13.392 21.9694 54 20.5654 52.956 10.8094C51.9121 1.05337 25.74 -1.35862 17.244 0.657367C11.0194 2.57097 5.1817 5.56902 0 9.51339L0 9.51339Z" transform="translate(57.96876 8.925459)" id="Shape" fill="#263238" stroke="none" />
        <path d="M50.1121 71.2801L7.63204 71.2801C7.45203 69.6601 7.27202 68.1121 7.12804 66.5281C6.76802 63.3601 6.48007 60.3001 6.15602 57.2761L5.83204 53.964C5.58001 51.48 5.29206 49.032 5.07601 46.764C5.07601 46.0081 4.896 45.252 4.82399 44.496C2.77196 24.804 1.22399 9.396 0.396002 3.06002C0.180011 1.36802 0.0359802 0.324042 0 0L0 0L11.988 0.396002L15.192 0.396002L27.396 0.756024L27.396 0.756024L39.42 1.15203L42.624 1.15203L46.44 1.15203L46.44 1.15203C46.44 1.15203 46.44 2.23204 46.62 4.21205C47.3041 13.1401 48.7081 40.1401 50.1121 71.2801L50.1121 71.2801Z" transform="translate(65.70869 198.1867)" id="Shape" fill="#EEEEEE" stroke="none" />
        <path d="M16.056 28.2027L2.80805 28.2027C2.62804 26.5826 2.44803 25.0347 2.30405 23.4506C1.94403 20.2826 1.65608 17.2226 1.33204 14.1986L1.00805 10.8866C0.756024 8.40256 0.468073 5.95459 0.252026 3.68657C0.252026 2.9306 0.0720154 2.17452 0 1.41855C2.44797 -1.60543 5.65203 -0.0574585 9.86402 8.61855C10.332 9.59051 10.8 10.5985 11.232 11.6425C12.5897 14.8804 13.7086 18.2134 14.58 21.6146C15.156 23.7387 15.66 25.9347 16.056 28.2027L16.056 28.2027Z" transform="translate(70.53273 241.2642)" id="Shape" fill="#000000" fill-opacity="0.2" stroke="none" />
        <path d="M0.0131387 2.5569C0.0131387 3.92492 0.978832 4.9689 1.94446 4.93292C2.9101 4.89694 3.67459 3.70893 3.59417 2.37689C3.51374 1.04485 2.62847 -0.0351013 1.62257 0.000878906C0.616658 0.0368591 -0.107565 1.11693 0.0131387 2.5569L0.0131387 2.5569Z" transform="translate(88.52097 39.74991)" id="Shape" fill="#263238" stroke="none" />
        <path d="M0.0131387 2.55954C0.0131387 3.89152 0.978832 4.97153 1.94446 4.89952C2.9101 4.8275 3.67459 3.71151 3.59417 2.34349C3.51374 0.975476 2.62847 -0.0684998 1.62257 0.00351563C0.616658 0.075531 -0.107565 1.33555 0.0131387 2.55954L0.0131387 2.55954Z" transform="translate(103.785 38.3073)" id="Shape" fill="#263238" stroke="none" />
        <path d="M0 2.58887L3.6 0C3.6 0 1.90113 5.90581 0 2.58887L0 2.58887Z" transform="translate(104.8407 37.41081)" id="Shape" fill="#263238" stroke="none" />
        <path d="M0 0C1.40015 3.01481 3.20476 5.82468 5.36396 8.35203C4.02824 9.44945 2.27444 9.8978 0.575903 9.57601L0 0Z" transform="translate(98.00076 42.73885)" id="Shape" fill="#ED893E" stroke="none" />
        <path d="M7.7202 4.4983C8.39108 4.55295 9.06531 4.55295 9.73619 4.4983C9.83825 4.49879 9.9357 4.45595 10.0044 4.38047C10.073 4.30494 10.1064 4.20381 10.0962 4.10229C10.0962 3.88361 9.91889 3.70629 9.70021 3.70629C6.28769 4.00726 2.93478 2.67144 0.664178 0.106293C0.512072 -0.0354309 0.276306 -0.0354309 0.1242 0.106293C0.0449341 0.18111 0 0.285315 0 0.394299C0 0.503284 0.0449341 0.607489 0.1242 0.682306C2.04368 2.91934 4.7796 4.29379 7.72014 4.4983L7.7202 4.4983Z" transform="translate(83.80054 53.54056)" id="Shape" fill="#263238" stroke="none" />
        <path d="M0.617432 8.0331C1.94656 10.9735 4.3769 13.2745 7.38545 14.4411C11.3815 15.9531 13.7575 12.4611 12.9655 8.46508C12.1735 4.46907 9.36546 -0.174902 5.11749 0.00505371C3.26854 0.13645 1.60972 1.18905 0.703345 2.80602C-0.203027 4.42293 -0.235272 6.38729 0.617432 8.0331L0.617432 8.0331Z" transform="translate(56.27132 45.64973)" id="Shape" fill="#FFB573" stroke="none" />
        <path d="M0.644843 6.43217C0.981683 6.46117 1.29979 6.27319 1.43685 5.96415C2.78317 3.70256 5.0163 2.10932 7.59287 1.57214C8.01996 1.48211 8.29363 1.06353 8.20492 0.636163C8.17119 0.425995 8.0504 0.239777 7.87225 0.123267C7.69406 0.00675659 7.47504 -0.0292236 7.26894 0.0241699C4.21089 0.674341 1.58467 2.61777 0.0689392 5.35216C-0.108545 5.74981 0.068335 6.21618 0.464941 6.39613L0.644843 6.43217Z" transform="translate(81.3719 31.87865)" id="Shape" fill="#263238" stroke="none" />
        <path d="M7.1744 3.59948C7.45147 3.60964 7.71707 3.46981 7.89439 3.22048C8.02051 3.02018 8.07242 2.76905 8.03858 2.52351C8.00475 2.27797 7.88791 2.05865 7.71438 1.91496C5.66839 0.066381 2.97543 -0.484909 0.51438 0.440955C0.109259 0.618571 -0.0991516 1.14351 0.0463623 1.62013C0.213299 2.09977 0.673242 2.34094 1.09039 2.16763L1.09039 2.16763C3.03838 1.49887 5.14248 1.9692 6.74242 3.43106L7.1744 3.59948Z" transform="translate(100.6543 29.72588)" id="Shape" fill="#263238" stroke="none" />
        <path d="M41.4808 10.8361C36.5488 17.2441 31.5448 24.3721 27.0808 31.4281C22.6135 38.444 18.7016 45.7984 15.3808 53.4242C15.7408 52.0922 15.3808 52.4882 15.3808 52.9922C15.4317 53.7575 15.5522 54.5167 15.7408 55.2602C16.1324 57.1726 16.6373 59.0599 17.2528 60.9123C18.4768 64.8363 20.0248 68.8323 21.6088 72.8283C24.7408 80.8563 28.2328 88.9203 31.5448 96.9843L24.1288 101.124C18.986 93.7872 14.2392 86.1804 9.9089 78.3363C7.78491 74.3403 5.73289 70.3083 3.8609 65.9883C2.86257 63.7449 1.98528 61.4496 1.23289 59.1122C0.771076 57.7536 0.433713 56.3559 0.22489 54.9362C-0.189899 52.6168 -0.0291962 50.231 0.69288 47.9882C3.7426 39.231 7.63693 30.7913 12.3209 22.7882C16.9125 14.7789 22.1499 7.15754 27.981 0L41.4808 10.8361Z" transform="translate(0 110.9587)" id="Shape" fill="#FFB573" stroke="none" />
        <path d="M19.836 0.0405945C12.636 0.724603 0 22.2166 0 22.2166L22.284 46.0846C22.284 46.0846 35.64 28.6966 34.596 19.4447C33.552 10.1927 27.972 -0.75141 19.836 0.0405945L19.836 0.0405945Z" transform="translate(15.05676 95.04224)" id="Shape" fill="#263238" stroke="none" />
        <path d="M66.852 5.49316e-05L66.564 1.40405L55.224 55.4041L51.6241 72L0 72C4.17601 37.008 8.96402 8.92799 17.424 0L66.852 5.49316e-05Z" transform="translate(26.54072 197.4308)" id="Shape" fill="#EEEEEE" stroke="none" />
        <path d="M0 2.53483L3.6 0C3.6 0 1.90113 5.96914 0 2.53483L0 2.53483Z" transform="translate(89.57676 38.74285)" id="Shape" fill="#263238" stroke="none" />
        <path d="M2.00649 0.512238L0.0625122 6.56022C-0.189514 7.02823 0.350519 7.53223 1.14252 7.53223L71.4505 9.65622C72.0625 9.65622 72.5665 9.36821 72.6385 8.97221L73.4305 2.8882C73.4305 2.45621 72.9625 2.09619 72.2785 2.06021L3.12253 0.00818482C2.68594 -0.0432862 2.25659 0.150623 2.00649 0.512238L2.00649 0.512238Z" transform="translate(41.05828 192.8866)" id="Shape" fill="#407BFF" stroke="none" />
        <path d="M2.45099 8.78401L0.615014 8.78401C0.254993 8.78401 -0.032959 8.56802 0.00302124 8.31599L1.11901 0.396002C1.11901 0.180011 1.47903 0 1.839 0L3.67498 0C4.07098 0 4.32295 0.215991 4.28697 0.431983L3.20696 8.35197C3.243 8.604 2.847 8.78401 2.45099 8.78401L2.45099 8.78401Z" transform="translate(49.64975 192.6068)" id="Shape" fill="#EEEEEE" stroke="none" />
        <path d="M2.48703 8.74797L0.615014 8.74797C0.254992 8.74797 -0.0329589 8.53198 0.00302124 8.31599L1.11901 0.396002C1.11901 0.180011 1.47903 0 1.839 0L3.71101 0C4.07103 0 4.32301 0.215991 4.32301 0.468017L3.20702 8.35202C3.17104 8.56796 2.84705 8.74797 2.48703 8.74797L2.48703 8.74797Z" transform="translate(104.8017 194.2989)" id="Shape" fill="#EEEEEE" stroke="none" />
        <path d="M2.451 8.74797L0.615015 8.74797C0.254993 8.74797 -0.032959 8.53198 0.00302124 8.31599L1.11901 0.396002C1.11901 0.180011 1.47904 0 1.839 0L3.67498 0C4.07099 0 4.32296 0.180011 4.28698 0.431982L3.20697 8.35197C3.17098 8.56796 2.847 8.74797 2.451 8.74797L2.451 8.74797Z" transform="translate(77.22577 193.4709)" id="Shape" fill="#EEEEEE" stroke="none" />
        <path d="M6.3 0L24.012 4.104L10.296 14.364C10.296 14.364 0.611993 10.008 0 2.95203L6.3 0Z" transform="translate(20.16876 202.4709)" id="Shape" fill="#FFB573" stroke="none" />
        <path d="M17.928 14.1119L13.824 16.8839C11.9475 18.1151 9.4918 17.9988 7.73998 16.596L0 10.26L13.716 0L19.08 6.66002C19.9772 7.77854 20.3634 9.22247 20.1443 10.6395C19.9252 12.0566 19.121 13.3165 17.928 14.1119L17.928 14.1119Z" transform="translate(30.46476 206.7549)" id="Shape" fill="#FFB573" stroke="none" />
        <path d="M0 18L2.16002 0L13.824 12.528C13.824 12.528 10.548 22.644 3.56402 23.976L0 18Z" transform="translate(180.6928 118.0868)" id="Shape" fill="#FFB573" stroke="none" />
        <path d="M13.608 1.82214L16.776 5.63813C18.2125 7.36957 18.3583 9.83337 17.136 11.7221L11.664 20.0742L0 7.54618L6.04797 1.49821C7.06685 0.484717 8.46304 -0.0567993 9.8989 0.00472412C11.3348 0.0662475 12.6795 0.725207 13.608 1.82219L13.608 1.82214Z" transform="translate(182.8528 110.5047)" id="Shape" fill="#FFB573" stroke="none" />
      </g>
      <g id="character-3--inject-143" transform="translate(299.8076 1228.175)">
        <path d="M192.744 29.1588C161.532 0.826831 104.184 -2.48522 65.8439 1.25881C28.7639 4.85881 -4.68012 16.2348 0.539868 35.5308C5.75986 54.8267 23.3279 182.663 8.53187 207.863L152.928 207.863C152.928 207.863 223.92 57.4548 192.744 29.1588L192.744 29.1588Z" transform="translate(73.26025 24.77197)" id="Shape" fill="#EEEEEE" stroke="none" />
        <path d="M37.008 12.2066C13.752 10.2625 23.112 46.5865 0 64.4066C4.28401 83.8465 40.5 93.4226 73.944 87.2306C107.388 81.0386 104.58 48.1705 92.988 18.8306C85.14 -0.717407 56.124 -8.38542 37.008 12.2066L37.008 12.2066Z" transform="translate(87.98389 0)" id="Shape" fill="#263238" stroke="none" />
        <path d="M65.2385 53.4376C63.2726 55.194 61.192 56.8177 59.0104 58.2976C56.9224 59.7017 54.8344 61.0337 52.6384 62.2576C48.2002 64.7054 43.5189 66.684 38.6706 68.1616C33.6202 69.7357 28.3717 70.5843 23.0826 70.6816C17.6356 70.7891 12.2089 69.986 7.02658 68.3055L6.37858 68.0895C2.15332 66.7352 -0.49856 62.5527 0.0785797 58.1535C0.902911 52.4172 2.43872 46.806 4.65054 41.4495C6.71177 36.4875 9.11764 31.6758 11.8505 27.0495C14.5505 22.4776 17.5025 18.1575 20.4905 13.9096C23.5752 9.69455 26.8798 5.64499 30.3905 1.77759C32.1964 -0.243018 35.2313 -0.586011 37.4427 0.98042C39.6541 2.54674 40.3374 5.5236 39.0305 7.89763L39.0305 8.07759C36.7985 12.2536 34.4586 16.6816 32.3345 21.0376C30.2105 25.3936 28.1226 29.7856 26.3945 34.2497C22.7385 42.3831 20.4051 51.0483 19.4825 59.9178L12.4985 49.7658C15.7157 50.4432 19.016 50.6373 22.2905 50.3417C25.7153 49.9786 29.086 49.2174 32.3345 48.0736C35.7681 46.8427 39.0818 45.3003 42.2344 43.4658C43.8544 42.5658 45.4384 41.5938 46.9504 40.5498C48.4624 39.5057 50.1544 38.2817 51.1264 37.5258L51.6304 37.1298C56.195 34.281 62.1604 35.2266 65.6201 39.3474C69.0799 43.4683 68.9785 49.5074 65.3824 53.5098L65.2385 53.4376Z" transform="translate(66.95361 70.00928)" id="Shape" fill="#FFC3BD" stroke="none" />
        <path d="M5.97717 17.028L15.3732 7.66802L1.54918 0C0.135352 5.07953 -0.316434 10.3786 0.2172 15.6241L5.97717 17.028Z" transform="translate(97.41504 62.39063)" id="Shape" fill="#FFC3BD" stroke="none" />
        <path d="M16.488 6.7634L11.088 1.18345C10.2727 0.334753 9.11421 -0.0947021 7.94271 0.0175781C6.77123 0.129858 5.71531 0.77146 5.07602 1.75946L0 9.6795L13.824 17.3475L17.1 11.2635C17.896 9.78981 17.6486 7.9708 16.488 6.76329L16.488 6.7634Z" transform="translate(99.10791 52.60303)" id="Shape" fill="#FFC3BD" stroke="none" />
        <path d="M1.60027 39.7894L18.7003 45.0094C19.274 45.1721 19.8894 45.0904 20.4007 44.7836C20.9121 44.4767 21.2738 43.9722 21.4003 43.3894L30.7963 8.21744C31.1535 6.99752 30.4872 5.71245 29.2843 5.30145L12.1843 0.0814087C11.6151 -0.0808594 11.004 0.00164795 10.4982 0.309265C9.99251 0.616772 9.63803 1.12137 9.52029 1.70145L0.0882752 36.8734C-0.249664 38.0915 0.410065 39.3638 1.60027 39.7894L1.60027 39.7894Z" transform="translate(101.7915 35.74121)" id="Shape" fill="#407BFF" stroke="none" />
        <path d="M1.59508 38.3433L18.0831 43.3833C18.6327 43.5352 19.2205 43.4558 19.71 43.1634C20.1996 42.8711 20.5483 42.3912 20.6751 41.8353L29.7471 7.8873C30.0812 6.72748 29.4483 5.50898 28.307 5.11545L11.819 0.0754761C11.2694 -0.0764648 10.6817 0.00296631 10.1921 0.295312C9.70258 0.587659 9.35387 1.06754 9.22703 1.62345L0.0830841 35.5712C-0.244528 36.7519 0.424979 37.9794 1.59508 38.3433L1.59508 38.3433Z" transform="translate(103.3091 36.82715)" id="Shape" fill="#EEEEEE" fill-opacity="0.7" stroke="none" />
        <path d="M24.804 0C19.8497 2.75163 16.5554 7.7536 15.984 13.3919C9 13.3919 0 23.2199 0 23.2199L102.168 23.2199L102.816 16.0199L24.804 0Z" transform="translate(63.79199 209.4146)" id="Shape" fill="#407BFF" stroke="none" />
        <path d="M105.276 0C113.883 -0.00769043 120.965 6.77274 121.332 15.3721C123.024 48.9241 110.244 85.428 89.9761 118.224C86.0521 124.56 83.2441 129.996 80.4721 133.812C77.7436 137.601 73.2506 139.712 68.5921 139.392C46.9921 137.88 24.5281 135.504 9.69607 131.184C5.86283 130.058 2.72508 127.292 1.12703 123.631C-0.471011 119.969 -0.365158 115.788 1.41606 112.212C10.0561 94.572 24.4921 69.8759 23.0161 63.972C17.9041 44.1359 31.2601 40.392 29.9641 24.084C29.3297 17.6629 33.2564 11.6679 39.3961 9.68401C42.9961 8.53198 47.4601 7.308 52.1041 6.08401C63.5267 3.47882 75.1264 1.722 86.8082 0.82804C93.1801 0.288062 99.7681 0.0360352 105.276 0L105.276 0Z" transform="translate(85.81201 93.99854)" id="Shape" fill="#263238" stroke="none" />
        <path d="M51.408 0.108215C18.396 2.91621 0 71.9283 0 71.9283L93.996 71.9283C86.4 49.8963 84.384 -2.69978 51.408 0.108215L51.408 0.108215Z" transform="translate(0 160.7065)" id="Shape" fill="#407BFF" stroke="none" />
        <path d="M15.2281 0C9.4388 10.9701 4.35256 22.297 0 33.912L9.43207 33.912C9.43207 33.912 8.71208 22.0679 15.2281 0L15.2281 0Z" transform="translate(36.35986 198.7227)" id="Shape" fill="#263238" fill-opacity="0.2" stroke="none" />
        <path d="M0 0L15.516 7.52399C14.4784 23.4264 11.0938 39.0879 5.47202 53.9999C2.03115 36.2006 0.199786 18.1277 0 0L0 0Z" transform="translate(191.52 115.4185)" id="Shape" fill="#000000" fill-opacity="0.15" stroke="none" />
        <path d="M52.958 5.55469C57.8485 17.9218 61.9605 30.5825 65.2701 43.463C67.0266 50.0231 68.3851 56.6832 69.3381 63.407C69.8764 66.9257 70.2249 70.4709 70.3821 74.0272C70.5836 78.0242 70.3543 82.0313 69.6981 85.9792C67.9965 93.8531 64.2744 101.148 58.8981 107.147C54.1881 112.505 48.8312 117.257 42.9501 121.295C31.8354 128.969 19.723 135.085 6.95006 139.475C4.37215 140.299 1.58637 139.059 0.472742 136.592C-0.64086 134.126 0.271472 131.216 2.59406 129.827L2.81006 129.827C8.06605 126.803 13.6101 123.455 18.6141 119.927C23.6671 116.519 28.4785 112.767 33.014 108.695C37.403 104.919 41.3737 100.683 44.8579 96.0592C47.846 92.1723 49.8694 87.632 50.762 82.8112C51.0511 77.4556 50.5784 72.086 49.358 66.8632C48.17 61.0313 46.622 55.0552 44.93 49.0792C41.33 37.1993 37.334 25.0672 33.122 13.4752L33.122 13.2592C31.8908 7.99058 34.7482 2.62397 39.8068 0.704333C44.8654 -1.21542 50.5638 0.904285 53.138 5.66323L52.958 5.55469Z" transform="translate(154.0781 97.47998)" id="Shape" fill="#FFC3BD" stroke="none" />
        <path d="M26.8018 0C26.2978 11.484 27.1978 32.4 36.1618 38.52C36.1618 38.52 23.7058 55.692 9.34178 57.852C-5.02221 60.0121 1.45778 43.776 1.45778 43.776C13.4458 38.916 11.7178 29.736 8.26177 21.42L26.8018 0Z" transform="translate(136.4224 56.41455)" id="Shape" fill="#FFC3BD" stroke="none" />
        <path d="M10.8 0L0 12.636C0.838092 14.5806 1.51241 16.5916 2.01596 18.6482C6.65997 17.2441 13.176 11.8802 12.816 6.8402C12.5461 4.46034 11.864 2.14563 10.8 -0.000109863L10.8 0Z" transform="translate(144.8638 65.01855)" id="Shape" fill="#000000" fill-opacity="0.2" stroke="none" />
        <path d="M54.2393 28.0282C52.7633 46.8562 52.5473 54.8483 42.8993 64.3882C28.4993 78.7882 5.53134 72.8122 1.35533 53.9122C-2.24467 36.9202 0.563324 8.98418 19.1393 1.78418C27.4462 -1.47821 36.8495 -0.211597 43.997 5.13259C51.1445 10.4768 55.019 19.1379 54.2393 28.0282L54.2393 28.0282Z" transform="translate(116.8325 7.43457)" id="Shape" fill="#FFC3BD" stroke="none" />
        <path d="M0 12.9445C5.86799 26.2646 30.456 32.0605 36.9 32.1685C30.168 39.3685 43.056 48.0445 43.056 48.0445C43.056 48.0445 55.5121 40.5925 54.6121 31.1245C53.7121 21.6565 47.4121 5.34847 32.6881 0.920434C21.888 -2.28351 5.904 3.15253 0 12.9445L0 12.9445Z" transform="translate(126.0361 3.041992)" id="Shape" fill="#263238" stroke="none" />
        <path d="M0.275235 18.8756C6.25125 10.5236 20.7952 6.27561 20.7952 6.27561C20.7952 6.27561 13.5952 -0.636438 10.8232 0.0475708C1.39123 6.16761 -0.876764 13.9076 0.275235 18.8756L0.275235 18.8756Z" transform="translate(116.8687 11.51123)" id="Shape" fill="#263238" stroke="none" />
        <path d="M13.8547 8.6046C12.6652 12.0553 10.1527 14.8916 6.87066 16.4886C2.51463 18.5766 -0.329343 14.8686 0.0306518 10.2966C0.390646 5.72465 3.34267 0.180615 8.05866 0.00065918C10.1512 -0.0308716 12.1182 0.99679 13.2874 2.73252C14.4567 4.46825 14.6701 6.67716 13.8546 8.6046L13.8547 8.6046Z" transform="translate(160.9253 43.23779)" id="Shape" fill="#FFC3BD" stroke="none" />
        <path d="M3.63716 2.80876C3.63716 4.32081 2.77316 5.5448 1.76517 5.5448C0.757176 5.5448 -0.0348266 4.28478 0.00118103 2.7368C0.0371887 1.18883 0.865172 -0.0351563 1.87317 0.000769043C2.88116 0.0366943 3.67314 1.26079 3.63716 2.80876L3.63716 2.80876Z" transform="translate(138.6348 40.17773)" id="Shape" fill="#263238" stroke="none" />
        <path d="M3.63598 2.808C3.63598 4.35597 2.77199 5.57996 1.76399 5.54403C0.755996 5.50811 0 4.28401 0 2.73604C0 1.18806 0.863992 0 1.87199 0C2.87998 0 3.63598 1.26002 3.63598 2.808L3.63598 2.808Z" transform="translate(121.356 39.89063)" id="Shape" fill="#263238" stroke="none" />
        <path d="M3.6 2.41273L0 0C0 0 1.8 6.1073 3.6 2.41273L3.6 2.41273Z" transform="translate(119.9878 38.84668)" id="Shape" fill="#263238" stroke="none" />
        <path d="M7.56003 0C5.454 3.30315 2.91094 6.30637 0 8.92804C1.27376 10.4013 3.12852 11.2432 5.07602 11.2321L7.56003 0Z" transform="translate(123.3359 44.49854)" id="Shape" fill="#B67979" stroke="none" />
        <path d="M0.324042 5.50613C0.133841 5.47108 -0.0031311 5.30365 5.49316e-05 5.11018C0.0168091 4.91869 0.168613 4.76697 0.360077 4.75016C4.26022 4.90814 7.99813 3.17988 10.4041 0.106238C10.5562 -0.0354858 10.792 -0.0354858 10.9441 0.106238C11.0813 0.246204 11.0813 0.470325 10.9441 0.610291C8.37235 3.93179 4.33965 5.78683 0.144086 5.57831L0.324042 5.50613Z" transform="translate(134.2441 56.77637)" id="Shape" fill="#263238" stroke="none" />
        <path d="M7.4607 4.3886C7.27445 4.38025 7.10216 4.28753 6.99271 4.13657C5.47945 2.3469 3.21246 1.3734 0.872698 1.50853C0.466067 1.57401 0.081903 1.30188 0.00870666 0.896595C-0.022055 0.695764 0.029306 0.491089 0.151199 0.328491C0.27312 0.166003 0.455301 0.0593262 0.656707 0.0326294C3.50502 -0.215003 6.2925 0.95647 8.1087 3.16461C8.2518 3.30051 8.33279 3.48926 8.33279 3.68657C8.33279 3.88389 8.2518 4.07263 8.1087 4.20864C7.93569 4.37201 7.69314 4.43936 7.46067 4.3886L7.4607 4.3886Z" transform="translate(139.9233 31.83008)" id="Shape" fill="#263238" stroke="none" />
        <path d="M0.67717 3.59966C0.4862 3.57688 0.314758 3.4669 0.20918 3.29958C-0.0697082 2.99527 -0.0697082 2.51643 0.20918 2.212C2.3725 0.286228 5.29236 -0.439242 8.05718 0.261851C8.45324 0.388199 8.67796 0.822978 8.56118 1.23693C8.42506 1.63657 8.02037 1.86352 7.6252 1.762C5.33611 1.17364 2.91555 1.79004 1.14519 3.41208C1.01967 3.53751 0.851028 3.60515 0.67717 3.59977L0.67717 3.59966Z" transform="translate(115.9629 31.75488)" id="Shape" fill="#263238" stroke="none" />
        <path d="M3.60001 2.35943L0 0C0 0 1.764 6.16499 3.60001 2.35943L3.60001 2.35943Z" transform="translate(137.3398 39.13477)" id="Shape" fill="#263238" stroke="none" />
        <path d="M18.144 10.44L2.052 15.696L0 0C0 0 12.852 0.936036 18.972 4.57196L18.144 10.44Z" transform="translate(146.4482 225.3989)" id="Shape" fill="#7F3E3B" stroke="none" />
        <path d="M0.275949 14.2919L0.0239502 10.9439C-0.287375 6.33032 2.46313 2.05818 6.79194 0.431982L8.05193 0L10.1039 15.6959L2.90393 16.524C2.25574 16.5942 1.60719 16.3948 1.11025 15.9728C0.613311 15.5507 0.311654 14.9429 0.275949 14.2919L0.275949 14.2919Z" transform="translate(138.3242 225.3989)" id="Shape" fill="#7F3E3B" stroke="none" />
      </g>
      <g id="character-4--inject-143" transform="translate(1036.799 365.5669)">
        <path d="M15.012 38.6279L0 35.1359L5.86802 0L20.8801 3.492L15.012 38.6279L15.012 38.6279Z" transform="translate(116.749 588.3623)" id="Polygon" fill="#CE7A63" stroke="none" />
        <path d="M35.3086 3.78842L51.8686 8.90047C52.4417 9.08921 52.7823 9.67753 52.6605 10.2685L49.4925 23.5525C49.0589 24.9889 47.5492 25.808 46.1085 25.3885C40.3845 23.4805 37.7565 22.2926 30.4485 20.0605C20.8248 16.8511 11.5109 12.7785 2.62035 7.89247C-2.56366 4.29247 1.1083 -0.963501 3.7003 0.15249C15.2203 5.12051 27.3523 5.87648 32.5003 3.75249C33.4125 3.43982 34.4048 3.45246 35.3086 3.78831L35.3086 3.78842Z" transform="translate(81.15234 616.9736)" id="Shape" fill="#263238" stroke="none" />
        <path d="M18.072 3.492L3.02399 0L0 18.108L15.048 21.6L18.072 3.492L18.072 3.492Z" transform="translate(119.5928 588.3979)" id="Polygon" fill="#000000" fill-opacity="0.2" stroke="none" />
        <path d="M54.432 0.000164795C54.432 0.000164795 34.632 125.28 28.8 168.984C22.428 216.828 0 363.672 0 363.672L27.252 371.196C27.252 371.196 61.884 228.672 72.504 182.16C84.0241 131.76 109.26 0 109.26 0L54.432 0.000164795Z" transform="translate(114.7686 236.0298)" id="Shape" fill="#407BFF" stroke="none" />
        <path d="M54.432 0.000164795C54.432 0.000164795 34.632 125.28 28.8 168.984C22.428 216.828 0 363.672 0 363.672L27.252 371.196C27.252 371.196 61.884 228.672 72.504 182.16C84.0241 131.76 109.26 0 109.26 0L54.432 0.000164795Z" transform="translate(114.7686 236.0298)" id="Shape" fill="#000000" fill-opacity="0.3" stroke="none" />
        <path d="M8.38356 8.19163C-2.0205 34.7236 -1.40845 87.3916 3.05552 105.716C9.31948 75.3677 16.5195 39.0436 22.0275 10.7836C19.9396 3.54765 14.7196 -7.97234 8.38356 8.19163L8.38356 8.19163Z" transform="translate(192.9648 271.8667)" id="Shape" fill="#000000" fill-opacity="0.3" stroke="none" />
        <path d="M29.16 19.8719L0 11.844L0.468017 0L33.3 11.3039L29.16 19.8719L29.16 19.8719Z" transform="translate(113.5449 587.894)" id="Polygon" fill="#407BFF" stroke="none" />
        <path d="M6.72088 4.86351C5.33111 4.79485 3.95387 4.56535 2.61683 4.17951L2.61683 4.1794C1.69563 3.97978 0.870227 3.47177 0.276965 2.73954C-0.0922851 2.13123 -0.0922851 1.3679 0.276965 0.759591C0.46593 0.324315 0.883301 0.0321898 1.35692 0.00362547C3.44487 -0.140405 6.68485 3.99955 7.04487 4.46757C7.13485 4.58424 7.13485 4.74684 7.04487 4.86351C6.94709 4.93009 6.81855 4.93009 6.72088 4.86351ZM5.92878 4.2497L5.92888 4.24971L5.92888 4.24982L5.92878 4.2497ZM0.708838 2.34047C1.21288 3.25838 3.12084 3.95601 5.92878 4.2497C4.52473 2.59741 2.47288 0.578129 1.24871 0.651633C1.02173 0.679646 0.821338 0.8159 0.708838 1.01871C0.484497 1.4296 0.484497 1.92958 0.708838 2.34047Z" transform="translate(107.832 617.4468)" id="Shape" fill="#407BFF" fill-rule="evenodd" stroke="none" />
        <path d="M2.56845 7.17317C2.49169 7.38916 2.26128 7.38916 2.26128 7.38916L1.91579 7.28117C0.327209 5.44722 -0.319005 3.05045 0.149189 0.72916C0.478859 0.165344 1.175 -0.116455 1.83891 0.0451537C2.37568 0.134141 2.84611 0.42824 3.14036 0.853163C2.96422 0.785549 2.76912 0.731436 2.56044 0.693235L2.2218 0.6572C1.65982 0.54503 1.02779 0.667198 0.732337 0.945151C0.149899 2.78008 0.926345 4.66379 2.89887 6.2011C2.91143 6.18561 2.9239 6.17009 2.93627 6.15457C2.78662 6.60912 2.65483 6.94923 2.59696 7.09856C2.58266 7.13547 2.57287 7.16072 2.56845 7.17317ZM2.93627 6.15457C3.39113 4.77296 4.01095 2.33408 3.22134 0.981186C3.19609 0.937312 3.16906 0.894615 3.14036 0.853163C3.40036 0.952972 3.61903 1.0822 3.77903 1.2331C4.46924 2.88062 4.17408 4.60115 2.93627 6.15457Z" transform="translate(112.3252 614.9932)" id="Shape" fill="#407BFF" fill-rule="evenodd" stroke="none" />
        <path d="M85.3201 7.16396C82.4003 16.3354 78.9136 25.3167 74.8802 34.0558C70.8701 43.0659 66.0503 51.6934 60.4802 59.8319C59.7601 60.8759 59.0041 61.9199 58.1761 62.9639C57.3481 64.0078 56.7721 64.9078 55.6201 66.2038C53.4087 68.8173 50.7666 71.0332 47.808 72.7559C42.1018 76.0173 35.5191 77.4144 28.9801 76.7519C23.4572 76.1981 18.0729 74.6875 13.068 72.2878C8.39333 70.0663 4.00528 67.286 0 64.0078L6.22804 54.2878C13.5272 57.3527 21.3893 58.8491 29.304 58.6798C32.0573 58.5061 34.6932 57.502 36.8641 55.7998C37.793 55.0163 38.5945 54.0933 39.2402 53.0638C39.6002 52.5958 40.2842 51.4798 40.7522 50.7238C41.3301 49.8788 41.859 49.0014 42.3362 48.0958C46.5589 40.572 50.3101 32.793 53.5681 24.804C56.8802 16.668 60.1201 8.1 63.0001 0L85.3201 7.16396Z" transform="translate(100.4766 118.7783)" id="Shape" fill="#CE7A63" stroke="none" />
        <path d="M27.5761 0.734546C42.8401 -2.86546 52.1281 6.96253 47.5201 25.9346C44.7054 36.9336 41.2311 47.7532 37.1161 58.3346C36.2161 60.6746 35.3881 62.7987 34.704 64.4907L0 45.1587C3.8161 29.8226 17.3521 3.14654 27.5761 0.734546L27.5761 0.734546Z" transform="translate(146.4482 102.2036)" id="Shape" fill="#EEEEEE" stroke="none" />
        <path d="M14.292 1.28958C23.508 -6.9544 14.076 26.4896 10.1879 40.3136L0 34.6256C1.008 24.8696 7.2 7.4456 14.292 1.28958L14.292 1.28958Z" transform="translate(159.085 119.9365)" id="Shape" fill="#000000" fill-opacity="0.2" stroke="none" />
        <path d="M17.676 35.64L2.26802 35.64L0 0L15.408 0L17.676 35.64L17.676 35.64Z" transform="translate(228.3486 591.0625)" id="Polygon" fill="#CE7A63" stroke="none" />
        <path d="M35.8424 0.000659179L53.1224 0.000659179C53.7256 -0.020105 54.2359 0.442419 54.2744 1.04469L55.2105 14.7246C55.2105 16.209 54.0283 17.4222 52.5455 17.4607C42.0335 17.4607 43.6535 16.9927 36.0215 16.9927C31.3775 16.9927 12.4775 17.4967 5.99755 17.4967C-0.48241 17.4967 -1.20245 11.0887 1.42559 10.5127C13.6656 7.9207 28.8576 4.35674 33.1776 0.936694C33.9372 0.33739 34.8749 0.00802001 35.8424 0.000659179L35.8424 0.000659179Z" transform="translate(193.9824 624.9375)" id="Shape" fill="#263238" stroke="none" />
        <path d="M15.408 0L0 0L1.18806 18.36L16.5961 18.36L15.408 0L15.408 0Z" transform="translate(228.3486 591.0981)" id="Polygon" fill="#000000" fill-opacity="0.2" stroke="none" />
        <path d="M0.0408691 5.49317e-05C0.0408691 5.49317e-05 -0.499109 116.82 2.34492 160.884C5.4769 209.16 23.9449 369 23.9449 369L52.1329 369C52.1329 369 46.6249 213.048 47.9208 165.276C49.3608 113.436 52.3848 0 52.3848 0L0.0408691 5.49317e-05Z" transform="translate(199.04 236.0303)" id="Shape" fill="#407BFF" stroke="none" />
        <path d="M0.0408691 5.49317e-05C0.0408691 5.49317e-05 -0.499109 116.82 2.34492 160.884C5.4769 209.16 23.9449 369 23.9449 369L52.1329 369C52.1329 369 46.6249 213.048 47.9208 165.276C49.3608 113.436 52.3848 0 52.3848 0L0.0408691 5.49317e-05Z" transform="translate(199.04 236.0303)" id="Shape" fill="#000000" fill-opacity="0.3" stroke="none" />
        <path d="M32.22 10.692L1.76407 10.692L0 0L33.6241 1.65597L32.22 10.692L32.22 10.692Z" transform="translate(219.9971 594.3384)" id="Polygon" fill="#407BFF" stroke="none" />
        <path d="M3.31589 3.89148C4.27582 3.86771 5.23199 3.77187 6.17643 3.60509C6.25605 3.67779 6.33458 3.75032 6.41184 3.82246C3.67581 4.61023 1.62389 4.45268 0.903845 3.45479C0.869096 3.39773 0.837009 3.33812 0.807635 3.27634C1.55644 3.73756 2.43345 3.95426 3.31589 3.89148L3.31589 3.89148ZM0.807635 3.27634C0.717781 3.22099 0.629773 3.16213 0.543823 3.0998C0.0613037 2.57685 -0.115796 1.84109 0.0758057 1.15577C0.152161 0.687746 0.465491 0.292677 0.903845 0.111621C2.67537 -0.569754 6.70334 2.06939 7.558 2.62937C7.60651 2.66115 7.64479 2.68623 7.67186 2.70363C7.73613 2.81503 7.73613 2.95236 7.67186 3.06366C7.63627 3.20538 7.52563 3.31601 7.3838 3.35161C6.98391 3.44908 6.58125 3.5336 6.17643 3.60509C4.40117 1.98402 2.08147 0.275939 1.04777 0.828787C0.825842 0.93425 0.669507 1.22467 0.651819 1.56414C0.510623 2.14234 0.571399 2.77949 0.807635 3.27634ZM3.31589 3.89148L3.31578 3.89148L3.31589 3.89148Z" transform="translate(221.0732 623.7109)" id="Shape" fill="#407BFF" fill-rule="evenodd" stroke="none" />
        <path d="M3.91872 6.92371L3.63076 6.92371C2.01072 5.98778 -0.293225 2.78372 0.0307617 1.12775C0.181275 0.517896 0.701258 0.0700929 1.32671 0.0117554C1.89108 -0.049878 2.45479 0.133704 2.87468 0.515809C3.51481 1.14108 3.83482 2.26498 3.99001 3.38093C3.75755 2.55547 3.35273 1.75792 2.78437 1.01975C2.51343 0.803541 2.13344 0.685658 1.74057 0.695656L1.55087 0.695765C0.649276 0.767726 0.649276 1.01975 0.649276 1.23574C0.366558 2.30819 2.37668 4.72968 4.12396 5.89147C4.11881 6.19348 4.10809 6.42253 4.1024 6.54404C4.10014 6.59242 4.09867 6.62376 4.09867 6.63586C4.10768 6.76078 4.03484 6.87712 3.91872 6.92371ZM4.12397 5.89147C4.13465 5.2655 4.12145 4.32607 3.99001 3.38093C4.22303 4.20837 4.28288 5.06385 4.16065 5.91571C4.14844 5.90769 4.13621 5.89961 4.12396 5.89147L4.12397 5.89147Z" transform="translate(224.6455 620.1387)" id="Shape" fill="#407BFF" fill-rule="evenodd" stroke="none" />
        <path d="M5.62049 137.769L87.9164 137.769C88.4564 130.569 86.5484 106.521 87.5564 76.0648C88.1867 53.5058 90.7522 31.0433 95.2246 8.92387C95.5847 7.26784 95.9447 5.64785 96.3406 3.99188C96.3406 3.99188 92.1286 3.12786 86.1527 2.2639C81.1847 1.54391 74.9567 0.787885 68.8727 0.499878C57.2185 -0.166608 45.5357 -0.166608 33.8814 0.499878C28.5174 1.00388 23.2613 1.8679 19.0854 2.69588C13.7215 3.77589 10.5895 4.67589 10.5895 4.67589C10.5895 4.67589 -9.46351 51.2608 5.62049 137.769L5.62049 137.769Z" transform="translate(163.5801 98.26123)" id="Shape" fill="#EEEEEE" stroke="none" />
        <path d="M9.19875 67.2389C9.82914 44.692 12.3946 22.2414 16.8669 0.134143C11.3589 -0.369855 1.96282 0.134143 0.486914 9.06213C-1.13324 18.6029 1.1707 41.0669 9.19875 67.2389L9.19875 67.2389Z" transform="translate(241.7939 107.0874)" id="Shape" fill="#000000" fill-opacity="0.2" stroke="none" />
        <path d="M25.5239 0C28.9439 11.34 31.8599 22.608 34.5238 34.092C37.1878 45.576 39.4919 57.132 41.3279 69.048L41.6879 71.388C41.8506 72.5812 41.9349 73.7838 41.9399 74.988C41.929 76.0714 41.8569 77.1531 41.7239 78.2282C41.7239 79.2721 41.436 80.2082 41.2559 81.1442C40.533 84.5205 39.5337 87.8317 38.268 91.0442C35.9315 96.8346 33.1888 102.453 30.06 107.856C24.0266 118.21 17.215 128.091 9.684 137.412L0 131.076C2.48401 125.964 5.00405 120.78 7.37995 115.596C9.75585 110.412 12.132 105.228 14.184 100.044C16.2859 95.0518 18.1008 89.9435 19.62 84.7442C20.2635 82.4812 20.721 80.1695 20.988 77.8321C21.0375 77.3655 21.0375 76.8948 20.988 76.4282C21.025 76.0571 21.025 75.6832 20.988 75.3122C21.0064 75.0966 21.0064 74.8798 20.988 74.6642L20.5561 72.7562C18.18 61.9562 15.012 50.7242 12.1681 39.6002L3.13209 6.33615L25.5239 0Z" transform="translate(240.4805 115.106)" id="Shape" fill="#CE7A63" stroke="none" />
        <path d="M20.7549 0.690326C30.9789 3.06634 39.583 27.2583 42.3549 46.9863L12.259 58.9743C8.02331 48.3968 4.41705 37.5779 1.45909 26.5744C-3.72513 7.60232 5.4189 -2.87364 20.7549 0.690326L20.7549 0.690326Z" transform="translate(239.0215 101.564)" id="Shape" fill="#EEEEEE" stroke="none" />
        <path d="M0 10.8L18.576 0C21.528 12.636 12.96 22.032 0 10.8L0 10.8Z" transform="translate(218.7012 60.99805)" id="Shape" fill="#263238" stroke="none" />
        <path d="M0.659399 39.0959C10.8114 36.6839 12.5394 30.4199 11.8194 23.5079C11.6368 21.776 11.3482 20.0568 10.9555 18.36L23.6274 7.77601L32.9154 0C30.4314 11.268 27.6594 31.788 35.3274 39.312C29.4143 49.1776 19.0469 55.5244 7.57145 56.304C-3.15659 47.5559 0.659399 39.0959 0.659399 39.0959L0.659399 39.0959Z" transform="translate(198.3135 59.52197)" id="Shape" fill="#CE7A63" stroke="none" />
        <path d="M0 10.5841C0.392761 12.2809 0.681372 14.0001 0.863964 15.7321C5.61599 14.7601 12.7439 10.5121 13.392 5.18412C13.3699 3.43268 13.128 1.69102 12.672 0L0 10.5841Z" transform="translate(209.2686 67.44189)" id="Shape" fill="#000000" fill-opacity="0.2" stroke="none" />
        <path d="M10.8928 0L6.28484 23.256C-3.79512 15.336 -1.38318 0.93598 10.8928 0L10.8928 0Z" transform="translate(191.7158 23.08984)" id="Shape" fill="#263238" stroke="none" />
        <path d="M44.8259 23.8261C42.3779 38.9821 41.7299 47.9461 33.3058 55.1821C27.7261 60.0482 19.9069 61.4158 13.0066 58.7329C6.10631 56.0498 1.26497 49.7593 0.437805 42.4021C-1.50623 28.5061 2.77778 6.07813 18.2578 1.11011C25.0522 -1.23574 32.5807 0.192426 38.0439 4.86354C43.5071 9.53465 46.0876 16.7499 44.8259 23.8261L44.8259 23.8261Z" transform="translate(192.3066 18.52393)" id="Shape" fill="#CE7A63" stroke="none" />
        <path d="M44.7047 55.5261C36.4967 51.0261 39.9887 41.7381 42.0047 39.2181C37.7926 40.2261 31.2047 33.3141 33.2207 28.4181C28.7926 31.4421 16.7327 30.866 17.4887 26.7261C10.5766 33.4941 1.36066 25.3941 5.21268 19.5261C-1.98732 17.2221 -1.48326 7.32206 5.21268 6.53006C11.9086 5.73805 12.7006 8.94205 12.7006 8.94205C12.7006 8.94205 11.2966 -0.777942 21.0886 0.0500427C30.8806 0.878028 29.1886 7.53805 29.1886 7.53805C32.2185 3.72827 37.4226 2.41617 41.8966 4.33411C49.8886 7.53811 47.4046 13.2261 47.4046 13.2261C47.4046 13.2261 56.6925 7.17814 61.0845 12.5781C63.7418 15.4978 64.6712 19.5981 63.5325 23.3781C62.3937 27.1582 75.2685 26.9781 68.5365 39.0382C63.6406 47.6782 58.6365 51.0982 56.0085 57.9022C61.9846 69.1341 41.3926 70.4301 44.7047 55.5261L44.7047 55.5261Z" transform="translate(186.5957 0)" id="Shape" fill="#263238" stroke="none" />
        <path d="M13.0005 9.52355C11.2017 12.8185 8.29358 15.3694 4.79246 16.7236C0.328491 18.4156 -0.895496 12.6555 0.616443 8.04754C2.12838 3.43955 5.33243 -0.304486 9.6884 0.0195557C14.0444 0.343597 15.3045 5.34754 13.0005 9.52355L13.0005 9.52355Z" transform="translate(228.5967 48.09033)" id="Shape" fill="#CE7A63" stroke="none" />
        <path d="M3.57174 2.34388C3.57174 3.56787 2.51821 4.53988 1.55243 4.5039C0.586649 4.46792 -0.115749 3.38791 0.0159423 2.12789C0.147633 0.867865 1.06947 -0.0681153 2.07919 0.00390015C3.08892 0.0759156 3.74737 1.11984 3.57174 2.34388L3.57174 2.34388Z" transform="translate(210.7314 42.63428)" id="Shape" fill="#263238" stroke="none" />
        <path d="M3.57175 2.34371C3.57175 3.5677 2.51873 4.53972 1.5095 4.4677C0.500265 4.39568 -0.113952 3.35171 0.0176753 2.12772C0.149303 0.903735 1.0707 -0.06828 2.07993 0.00373535C3.08916 0.0757507 3.7473 1.08369 3.57175 2.34371L3.57175 2.34371Z" transform="translate(196.7627 41.6626)" id="Shape" fill="#263238" stroke="none" />
        <path d="M6.94797 0C5.08623 3.6735 2.75021 7.08673 0 10.1521C1.6207 11.474 3.73612 12.0258 5.79594 11.6641L6.94797 0Z" transform="translate(197.1367 44.94189)" id="Shape" fill="#BA4D3C" stroke="none" />
        <path d="M1.69398 4.20694C4.59558 4.07241 7.32063 2.77476 9.254 0.60694C9.37474 0.460657 9.37474 0.24928 9.254 0.102942C9.11403 -0.0342773 8.88991 -0.0342773 8.74995 0.102942C6.61772 2.44308 3.51584 3.65455 0.361999 3.37896C0.266528 3.37896 0.175012 3.41691 0.107446 3.48442C0.0398804 3.55193 0.00197754 3.64351 0.00197754 3.73898C-0.00834961 3.83099 0.0212036 3.92294 0.0831665 3.99172C0.145019 4.06055 0.233459 4.0996 0.325964 4.099C0.77893 4.167 1.23607 4.20309 1.69398 4.20688L1.69398 4.20694Z" transform="translate(205.9551 56.10693)" id="Shape" fill="#263238" stroke="none" />
        <path d="M5.79211 4.608L6.11609 4.608C6.28627 4.5106 6.40943 4.34801 6.457 4.15772C6.50457 3.96749 6.47249 3.76606 6.36812 3.6C5.19137 1.54298 3.07771 0.19671 0.716089 0C0.320032 0.00219727 0 0.323877 0 0.719989C0 1.1161 0.320032 1.43778 0.716089 1.43998C2.55125 1.57247 4.19898 2.61244 5.10821 4.212C5.263 4.44238 5.51536 4.5885 5.79211 4.608L5.79211 4.608Z" transform="translate(212.6563 36.1582)" id="Shape" fill="#263238" stroke="none" />
        <path d="M0.722241 4.82399C0.968335 4.82761 1.19905 4.70545 1.3344 4.5C2.24989 2.84925 3.89158 1.7281 5.76244 1.47601C5.95349 1.46668 6.13301 1.38175 6.26133 1.23992C6.38965 1.09808 6.45622 0.910987 6.44644 0.719989C6.42711 0.316626 6.09422 -0.000439453 5.69037 0L5.69037 0C3.37665 0.280426 1.31968 1.60752 0.110413 3.6C0.00604248 3.76606 -0.0260376 3.96749 0.0215332 4.15772C0.069104 4.34801 0.192261 4.5106 0.362439 4.608C0.44154 4.73275 0.574914 4.81284 0.722241 4.82399L0.722241 4.82399Z" transform="translate(193.4268 33.92627)" id="Shape" fill="#263238" stroke="none" />
        <path d="M18.468 0L0 1.36802L12.528 16.2C12.528 16.2 25.992 12.276 23.328 5.4L18.468 0Z" transform="translate(227.4482 243.1582)" id="Shape" fill="#CE7A63" stroke="none" />
        <path d="M1.80725 13.32L4.47121 16.2001C6.35603 18.2616 9.29641 18.986 11.9232 18.036L20.7792 14.832L8.25117 0L3.53518 2.66402C1.69552 3.68663 0.42561 5.49553 0.0886596 7.57321C-0.248181 9.65089 0.384961 11.7684 1.80725 13.32L1.80725 13.32Z" transform="translate(219.1973 244.7061)" id="Shape" fill="#CE7A63" stroke="none" />
        <path d="M15.6961 10.8L3.38401 0L0 16.74C0 16.74 11.268 24.372 14.6879 17.964L15.6961 10.8Z" transform="translate(94.75293 165.3979)" id="Shape" fill="#CE7A63" stroke="none" />
        <path d="M0.806286 4.30768L0.0503174 9.70768C-0.266968 11.9347 0.940649 14.0997 3.00234 14.9997L9.4823 17.8077L12.8663 1.06771L6.56631 0.0597107C5.23839 -0.146558 3.88301 0.186108 2.8014 0.98377C1.7198 1.78143 1.00162 2.97801 0.806396 4.30768L0.806286 4.30768Z" transform="translate(85.27051 164.4746)" id="Shape" fill="#CE7A63" stroke="none" />
        <path d="M0 0L22.392 0L22.392 31.176L7.62939e-06 31.176L0 0Z" transform="matrix(-1 8.742278E-08 -8.742278E-08 -1 86.72461 187.646)" id="Rectangle" fill="#407BFF" stroke="none" />
        <path d="M1.6196 17.6397C4.12141 21.8861 9.01615 24.1094 13.86 23.1994C19.6149 22.5392 23.8241 17.4565 23.4001 11.6795C23.3912 6.75082 20.2946 2.35624 15.6562 0.689722C11.0179 -0.976794 5.83242 0.442145 2.6889 4.2382C-0.454724 8.03419 -0.882312 13.3932 1.6196 17.6397ZM4.58976 6.94611C6.62871 3.93904 10.3599 2.56948 13.86 3.54342L13.8599 3.54342C17.7725 4.15492 20.5051 7.74542 20.052 11.6795C20.0582 15.3126 17.7439 18.5439 14.3023 19.7079C10.8608 20.8718 7.06025 19.7084 4.85991 16.8173C2.65968 13.9263 2.55092 9.95317 4.58976 6.94611Z" transform="translate(73.04492 160.3066)" id="Shape" fill="#407BFF" fill-rule="evenodd" stroke="none" />
        <path d="M0 0L433.188 0L433.188 23.616L0 23.616L0 0Z" transform="matrix(-1 8.742278E-08 -8.742278E-08 -1 433.1885 666.0142)" id="Rectangle" fill="#263238" stroke="none" />
        <path d="M0 3.05176e-05L433.188 0L433.188 11.808L0 11.808L0 3.05176e-05Z" transform="matrix(-1 8.742278E-08 -8.742278E-08 -1 433.1885 266.1621)" id="Rectangle" fill="#263238" stroke="none" />
        <path d="M0 3.05176e-05L433.188 0L433.188 5.90399L0 5.90402L0 3.05176e-05Z" transform="matrix(-1 8.742278E-08 -8.742278E-08 -1 433.1885 336.938)" id="Rectangle" fill="#263238" stroke="none" />
        <path d="M0 0L7.20001 0L7.20001 376.308L0 376.308L0 0Z" transform="translate(414.2891 266.126)" id="Rectangle" fill="#263238" stroke="none" />
        <path d="M0 0L7.20001 0L7.20001 376.308L0 376.308L0 0Z" transform="translate(347.1846 266.126)" id="Rectangle" fill="#263238" stroke="none" />
        <path d="M0 0L7.20001 0L7.20001 376.308L0 376.308L0 0Z" transform="translate(280.0811 266.126)" id="Rectangle" fill="#263238" stroke="none" />
        <path d="M0 0L7.2 0L7.2 376.308L0 376.308L0 0Z" transform="translate(213.0127 266.126)" id="Rectangle" fill="#263238" stroke="none" />
        <path d="M0 0L7.2 0L7.2 376.308L0 376.308L0 0Z" transform="translate(145.9092 266.126)" id="Rectangle" fill="#263238" stroke="none" />
        <path d="M0 0L7.2 0L7.2 376.308L0 376.308L0 0Z" transform="translate(78.80469 266.126)" id="Rectangle" fill="#263238" stroke="none" />
        <path d="M0 0L7.2 0L7.2 376.308L0 376.308L0 0Z" transform="translate(11.70117 266.126)" id="Rectangle" fill="#263238" stroke="none" />
      </g>
    </g>
    <path d="M26.4116 37.1845L10.7453 37.1845C9.55686 37.1244 8.54248 36.3056 8.23292 35.1566L0.08568 2.02938C-0.0816274 1.5515 -0.000876241 1.0217 0.301181 0.615396C0.603265 0.209039 1.08725 -0.020975 1.59309 0.00153342L17.2774 0.00153342C18.4658 0.0616655 19.4802 0.880459 19.7897 2.02938L27.937 35.1387C28.1037 35.6215 28.0208 36.1556 27.7155 36.5652C27.4101 36.9746 26.922 37.2066 26.4116 37.1845L26.4116 37.1845Z" transform="matrix(-1 0 0 1 767.0215 783.8145)" id="Shape" fill="#263238" stroke="none" />
  </g>
</svg>