<?xml version="1.0" encoding="utf-8"?>
<svg width="2000px" height="2000px" viewBox="0 0 2000 2000" version="1.1" xmlns:xlink="http://www.w3.org/1999/xlink" xmlns="http://www.w3.org/2000/svg">
  <desc>Created with Lunacy</desc>
  <defs>
    <rect width="2000" height="2000" id="artboard_1" />
    <clipPath id="clip_1">
      <use xlink:href="#artboard_1" clip-rule="evenodd" />
    </clipPath>
  </defs>
  <g id="Ultra-HD-Copy-4" clip-path="url(#clip_1)">
    <use xlink:href="#artboard_1" stroke="none" fill="#FFFFFF" />
    <g id="Group" transform="translate(100.11 155.3301)">
      <g id="Shadow--inject-135" transform="translate(0 1585.594)">
        <path d="M0 52.5453C0 23.5253 402.944 0 900 0C1397.06 0 1800 23.5253 1800 52.5453C1800 81.5652 1397.06 105.091 900 105.091C402.944 105.091 0 81.5652 0 52.5453Z" id="path--inject-135" fill="#E9E9E9" stroke="none" />
      </g>
      <g id="Login--inject-135" transform="translate(204.6109 288.999)">
        <path d="M695.203 1060.05L36.0668 1060.05L0 0L659.137 0L695.203 1060.05L695.203 1060.05Z" transform="translate(0 32.9104)" id="Polygon" fill="#407BFF" stroke="none" />
        <path d="M695.25 1060.05L36.1133 1060.05L0 0L659.137 0L695.25 1060.05L695.25 1060.05Z" transform="translate(32.86398 0)" id="Polygon" fill="#407BFF" stroke="none" />
        <path d="M695.25 1060.05L36.1133 1060.05L0 0L659.137 0L695.25 1060.05L695.25 1060.05Z" transform="translate(32.86398 0)" id="Polygon" fill="#EEEEEE" fill-opacity="0.3" stroke="none" />
        <path d="M0 188.596C0 84.4374 81.6111 0 182.283 0C282.956 0 364.567 84.4374 364.567 188.596C364.567 292.755 282.956 377.193 182.284 377.193C81.6111 377.193 1.52588e-05 292.755 0 188.596Z" transform="matrix(0.7010337 -0.7131281 0.7131281 0.7010337 110.4945 301.7747)" id="Ellipse" fill="#407BFF" stroke="none" />
        <path d="M306.171 153.183C307.12 178.442 301.608 203.526 290.156 226.06C264.947 275.59 213.903 306.611 158.329 306.177C101.572 305.871 49.28 275.338 21.1171 226.06C8.21446 203.872 1.00633 178.835 0.136061 153.184C-1.59435 112.988 13.2403 73.8434 41.1754 44.8906C69.1105 15.9377 107.7 -0.287634 147.931 0.00389556C233.123 0.606645 302.801 68.0561 306.171 153.183L306.171 153.183Z" transform="translate(219.6534 150.855)" id="Shape" fill="#EEEEEE" stroke="none" />
        <path d="M269.039 40.8033C243.83 90.3332 192.786 121.355 137.212 120.921C80.4545 120.614 28.1629 90.0814 0 40.8033C39.2565 14.039 85.7082 -0.187766 133.22 0.00184154C181.497 0.106101 228.697 14.2853 269.039 40.8032L269.039 40.8033Z" transform="translate(240.6777 336.1113)" id="Shape" fill="#407BFF" fill-opacity="0.6" stroke="none" />
        <path d="M0 69.3485C3.05176e-05 31.0484 30.0093 0 67.0276 0C104.046 0 134.055 31.0484 134.055 69.3485C134.055 107.649 104.046 138.697 67.0276 138.697C30.0093 138.697 0 107.649 0 69.3485Z" transform="matrix(0.7010337 -0.7131281 0.7131281 0.7010337 274.5656 250.7888)" id="Ellipse" fill="#407BFF" fill-opacity="0.6" stroke="none" />
        <path d="M423.286 83.5526L2.83151 83.5526L0 0L420.455 0L423.286 83.5526L423.286 83.5526Z" transform="translate(172.3967 592.6196)" id="Polygon" fill="#EEEEEE" stroke="none" />
        <path d="M423.333 83.5526L2.83151 83.5526L0 0L420.501 0L423.333 83.5526L423.333 83.5526Z" transform="translate(177.4562 741.9463)" id="Polygon" fill="#EEEEEE" stroke="none" />
        <path d="M6.25662 13.997L107.587 0.0715366C111.774 -0.484891 115.688 2.25914 116.592 6.38433L129.868 74.294C130.243 76.2232 129.802 78.2215 128.65 79.8138C127.497 81.4059 125.737 82.4492 123.787 82.6956L22.4565 96.6211C18.2614 97.1511 14.355 94.3925 13.4514 90.2618L0.129403 22.3522C-0.245633 20.4211 0.20264 18.421 1.366 16.8348C2.52928 15.2484 4.30211 14.2196 6.25662 13.997ZM59.9159 71.3233L78.4831 68.8631L71.6133 47.3714C74.6714 44.6758 76.0527 40.5495 75.2339 36.5562C73.7723 29.8217 67.4007 25.3252 60.5658 26.2049C57.315 26.5649 54.3689 28.2852 52.4578 30.9394C50.5468 33.5936 49.8497 36.9333 50.5394 40.1303C51.4005 44.2717 54.2231 47.7349 58.1056 49.414L59.9159 71.3233Z" transform="translate(330.9243 753.3867)" id="Shape" fill="#407BFF" fill-rule="evenodd" stroke="none" />
        <path d="M93.4533 56.009L93.4533 56.009C89.7403 56.4815 86.2791 54.0466 85.4694 50.3924L84.1697 43.7547C80.3333 25.0208 63.2362 12.0095 44.1574 13.3044C34.7379 13.8411 26.0168 18.4458 20.2609 25.9213C14.5049 33.397 12.2826 43.0054 14.1713 52.2493L15.6568 59.9082C16.0066 61.6242 15.6167 63.4083 14.5829 64.822C13.5491 66.2357 11.9672 67.1481 10.2258 67.335L10.2258 67.335C6.50155 67.8542 3.01169 65.3992 2.24193 61.7184L0.988622 55.2663C-1.58691 43.0816 0.919494 30.3735 7.92846 20.0791C14.9374 9.78466 25.8424 2.79489 38.1231 0.724999C65.4958 -3.87162 91.6517 13.845 97.5383 40.9695L99.0237 48.5822C99.3741 50.3202 98.9661 52.1252 97.9023 53.5436C96.8384 54.9618 95.2199 55.8588 93.4533 56.009L93.4533 56.009Z" transform="translate(335.0319 693.7822)" id="Shape" fill="#407BFF" stroke="none" />
        <path d="M275.538 54.402L1.8103 54.402L0 0L273.681 0L275.538 54.402L275.538 54.402Z" transform="translate(255.8564 888.1172)" id="Polygon" fill="#407BFF" stroke="none" />
        <path d="M30.6019 15.2717C30.7672 19.2816 29.2822 23.1841 26.4931 26.0697C23.7039 28.9554 19.8542 30.5721 15.841 30.5433C7.34107 30.4773 0.382827 23.7639 0.0124658 15.2719C-0.152777 11.2621 1.33221 7.35964 4.12136 4.47409C6.91051 1.5884 10.7602 -0.0283314 14.7734 0.00042497C23.2828 0.042922 30.2546 6.76936 30.6019 15.2717L30.6019 15.2717Z" transform="translate(368.7327 619.124)" id="Shape" fill="#263238" stroke="none" />
        <path d="M30.5555 15.2717C30.7343 19.2853 29.2537 23.1956 26.4617 26.0844C23.6696 28.9731 19.8118 30.5857 15.7946 30.5435C7.30304 30.4762 0.358746 23.7565 0.0124658 15.2719C-0.152777 11.2621 1.33221 7.35964 4.12136 4.47409C6.91051 1.5884 10.7602 -0.0283314 14.7734 0.00042497C23.2745 0.0441969 30.2324 6.77686 30.5555 15.2719L30.5555 15.2717Z" transform="translate(302.7726 619.124)" id="Shape" fill="#263238" stroke="none" />
        <path d="M30.5555 15.272C30.7207 19.2819 29.2358 23.1844 26.4466 26.0699C23.6575 28.9556 19.8078 30.5723 15.7946 30.5436C7.29341 30.5 0.335443 23.7672 0.0124658 15.272C-0.152777 11.2621 1.33221 7.35963 4.12136 4.47408C6.91051 1.5884 10.7602 -0.0283313 14.7734 0.00042497C23.2746 0.0440552 30.2325 6.77685 30.5555 15.272L30.5555 15.272Z" transform="translate(237.1839 619.1238)" id="Shape" fill="#263238" stroke="none" />
        <path d="M30.552 15.1336C30.7173 19.1435 29.2323 23.046 26.4431 25.9316C23.654 28.8172 19.8043 30.434 15.7911 30.4052C7.28994 30.3616 0.331972 23.6288 0.0089952 15.1336C-0.131103 11.1355 1.37301 7.25467 4.17094 4.39547C6.96887 1.53613 10.8161 -0.051988 14.8162 0.00127491C23.2478 0.0660121 30.1578 6.71099 30.552 15.1336L30.552 15.1336Z" transform="translate(434.5571 619.2622)" id="Shape" fill="#263238" stroke="none" />
        <path d="M30.5555 15.2717C30.7343 19.2853 29.2537 23.1956 26.4617 26.0844C23.6696 28.9731 19.8118 30.5857 15.7946 30.5435C7.30304 30.4762 0.358746 23.7565 0.0124658 15.2719C-0.152777 11.2621 1.33221 7.35964 4.12136 4.47409C6.91051 1.5884 10.7602 -0.0283314 14.7734 0.00042497C23.2745 0.0441969 30.2324 6.77686 30.5555 15.2719L30.5555 15.2717Z" transform="translate(500.3279 619.124)" id="Shape" fill="#263238" stroke="none" />
      </g>
      <g id="Character--inject-135" transform="translate(1022.176 298.0967)">
        <path d="M42.3787 0C48.5523 9.93347 53.7047 19.4027 58.9963 29.2898C64.2879 39.1769 69.0691 49.1103 73.7572 59.2759C83.3229 79.8598 91.2388 101.171 97.4303 123.008C98.2658 125.747 98.8693 128.671 99.5655 131.502L100.587 135.819L101.097 137.955L101.701 141.482C102.748 149.485 102.259 157.614 100.262 165.434C97.0572 177.576 92.1832 189.214 85.7794 200.015C74.3243 219.645 60.4789 237.778 44.5604 254L25.0184 239.239C34.8276 221.207 43.5542 202.607 51.1519 183.537C54.5368 175.135 56.9206 166.363 58.254 157.404C58.6811 154.668 58.5548 151.874 57.8829 149.188L56.0262 143.525C55.2835 141.204 54.5873 138.883 53.7053 136.516C46.6453 117.366 38.4775 98.6437 29.2433 80.4428C19.9597 61.8756 9.97986 43.3084 0 25.5767L42.3787 0Z" transform="translate(224.9398 216.9117)" id="Shape" fill="#FF8B7B" stroke="none" />
        <path d="M21.3523 0L0 11.2796L24.5087 39.9659C24.5087 39.9659 39.8266 29.6147 40.523 13.8325L21.3523 0Z" transform="translate(233.5725 449.6982)" id="Shape" fill="#FF8B7B" stroke="none" />
        <path d="M0 17.6853L26.2262 38.527L53.1487 28.6863L28.64 0L0 17.6853L0 17.6853Z" transform="translate(204.9326 460.9779)" id="Polygon" fill="#FF8B7B" stroke="none" />
        <path d="M6.26307 5.38232C5.75254 7.98172 3.94217 9.79202 2.27118 9.46713C0.6002 9.14224 -0.374682 6.72848 0.13599 4.17547C0.646663 1.62247 2.45689 -0.466334 4.17434 0.0906603C5.89179 0.647655 6.77374 2.78292 6.26307 5.38232L6.26307 5.38232Z" transform="translate(108.9898 59.64938)" id="Shape" fill="#263238" stroke="none" />
        <path d="M16.8033 0C12.1289 7.27067 6.4747 13.8622 0 19.5884C3.09407 22.7953 7.43443 24.4907 11.883 24.2302L16.8033 0Z" transform="translate(96.36083 69.48786)" id="Shape" fill="#FF5652" stroke="none" />
        <path d="M0 30.4503L0 0L40.2909 4.64181C40.2909 4.64181 39.6409 30.8216 17.0818 38.527L0 30.4503Z" transform="translate(104.8088 130.1099)" id="Shape" fill="#FF8B7B" stroke="none" />
        <path d="M11.4188 0L39.7803 8.16956L40.2908 26.7833L0 21.9093L11.4188 0L11.4188 0Z" transform="translate(104.9945 108.2005)" id="Polygon" fill="#FF8B7B" stroke="none" />
        <path d="M33.8851 8.16956L5.52376 0L0 10.5833C0.61479 27.5883 10.735 42.8043 26.1799 49.9459C31.0529 43.1394 33.9011 35.0933 34.396 26.7369L33.8851 8.16956Z" transform="translate(110.8897 108.2005)" id="Shape" fill="#000000" fill-opacity="0.2" stroke="none" />
        <path d="M13.2969 7.7936C13.904 7.77731 14.448 7.41396 14.6956 6.8593C14.9432 6.30464 14.8506 5.65713 14.4573 5.1942C11.1491 1.45821 6.23643 -0.44459 1.27463 0.0881813C0.44211 0.230051 -0.118567 1.01915 0.0213902 1.85209C0.163755 2.68935 0.943292 3.26377 1.7853 3.15179L1.7853 3.15179C5.71528 2.76606 9.58916 4.30523 12.1829 7.28293C12.4703 7.59627 12.8721 7.78042 13.2969 7.7936L13.2969 7.7936Z" transform="translate(114.3032 44.84449)" id="Shape" fill="#263238" stroke="none" />
        <path d="M71.7983 0C67.1565 23.9053 64.2786 57.0014 81.0819 72.9228C81.0819 72.9228 74.5834 97.1531 30.022 97.1531C-18.7634 97.1531 6.58094 75.8936 6.58094 75.8936C26.8656 69.5807 26.6799 46.5109 22.0381 27.9437L71.7983 0Z" transform="translate(115.1241 112.0068)" id="Shape" fill="#FF8B7B" stroke="none" />
        <path d="M88.4728 33.2728C92.8361 27.1456 92.6504 7.69649 88.0086 4.26153C80.5354 -1.26223 48.4605 -2.56193 5.33805 7.37153C9.97986 26.2173 0 36.0579 0 36.0579L88.4728 33.2728Z" transform="translate(116.7848 167.6246)" id="Shape" fill="#407BFF" stroke="none" />
        <path d="M1.00661 6.4598C3.55884 7.69844 6.5002 7.86559 9.17623 6.92387L9.17637 6.92387C11.9623 6.28301 14.682 5.38166 17.2994 4.23183C17.5569 4.07247 17.7146 3.79199 17.7171 3.48899C17.7202 3.18344 17.5361 2.90721 17.2529 2.79275C17.2457 2.78987 17.2362 2.78603 17.2244 2.78128C16.4758 2.48022 6.60113 -1.49091 2.25985 0.611104C1.29063 1.03636 0.559685 1.86929 0.263906 2.88553C-0.272406 4.11383 0.0253565 5.54683 1.00661 6.4598ZM2.95637 2.03536C3.23615 1.87914 3.53235 1.76023 3.83833 1.68158L3.83819 1.68158C7.61631 1.47091 11.3902 2.17879 14.8857 3.75371C10.2904 5.6235 3.79186 7.24068 2.02796 5.6235C1.74946 5.4719 1.33171 4.96651 1.74946 3.45051C1.92001 2.79537 2.36892 2.26901 2.95637 2.03536Z" transform="translate(341.1841 1295.985)" id="Shape" fill="#407BFF" fill-rule="evenodd" stroke="none" />
        <path d="M11.6973 13.111L12.0686 13.111C12.2731 13.1413 12.48 13.0723 12.6256 12.9252C12.7583 12.6953 12.7583 12.4123 12.6256 12.1825C12.5328 11.7648 9.74768 2.75963 5.38437 0.531498C4.35283 -0.0617626 3.11036 -0.163898 1.99594 0.253C0.823875 0.515066 -0.00708283 1.55866 0 2.75963C0.0927851 6.42671 7.98391 12.0433 11.6973 13.111ZM2.41369 1.55285L2.78497 1.55285L2.83115 1.55271C3.48376 1.32648 4.19842 1.35977 4.82738 1.64563C7.65881 3.17738 9.79414 8.32988 10.7689 10.9293C6.777 9.16552 1.48527 4.75572 1.48527 2.57406C1.48527 2.34202 1.48527 1.87781 2.41369 1.55285Z" transform="translate(346.2294 1287.152)" id="Shape" fill="#407BFF" fill-rule="evenodd" stroke="none" />
        <path d="M0.540845 5.41924C1.88701 7.27594 5.92536 7.87939 10.103 7.87939L10.1031 7.87939C13.4506 7.86565 16.7903 7.555 20.0828 6.95126C20.4055 6.89162 20.6507 6.62743 20.6863 6.30133C20.7629 5.98374 20.6085 5.65552 20.315 5.51216C19.8508 5.23352 8.43197 -1.265 3.001 0.220418C1.96662 0.459111 1.07645 1.11413 0.540845 2.0308C-0.180187 3.0452 -0.180187 4.40483 0.540845 5.41924ZM3.46535 1.52012C3.95732 1.44037 4.45879 1.44037 4.95076 1.52012L4.95048 1.51998C9.44326 2.04879 13.7925 3.43561 17.7622 5.60509C11.6814 6.48705 3.46535 6.44058 1.93361 4.30539C1.60865 4.02689 1.37662 3.56268 1.93361 2.58793C2.27628 2.03717 2.83002 1.6513 3.46535 1.52012Z" transform="translate(99.16196 1300.507)" id="Shape" fill="#407BFF" fill-rule="evenodd" stroke="none" />
        <path d="M11.1735 14.7061L11.4984 14.7061L11.4983 14.7062C11.6586 14.7181 11.8191 14.6861 11.9626 14.6133C12.1665 14.4391 12.2849 14.1852 12.2876 13.9169C11.9417 9.29339 10.1561 4.89438 7.18157 1.33781C6.00143 0.328077 4.45354 -0.143073 2.91104 0.037964C0.775854 0.223534 0.0331477 1.2912 0.0331477 2.17316C-0.57031 5.88668 7.22789 12.9422 11.1735 14.7061ZM3.05015 1.47705L3.46804 1.47705C4.46955 1.45524 5.44415 1.8023 6.20655 2.45194C8.65961 5.27799 10.1688 8.79943 10.5234 12.5246C6.48504 10.1107 1.19346 4.54066 1.56474 2.31255C1.56474 2.12698 1.65767 1.47705 3.05015 1.47705Z" transform="translate(107.7 1292.752)" id="Shape" fill="#407BFF" fill-rule="evenodd" stroke="none" />
        <path d="M35.8812 75.6151L3.24932 75.6151L0 0L32.6319 0L35.8812 75.6151L35.8812 75.6151Z" transform="translate(119.152 1231.1)" id="Polygon" fill="#FF8B7B" stroke="none" />
        <path d="M63.9641 70.4161L32.0749 77.3325L0 6.91625L31.9356 0L63.9641 70.4161L63.9641 70.4161Z" transform="translate(330.7256 1221.167)" id="Polygon" fill="#FF8B7B" stroke="none" />
        <path d="M46.3995 7.81393L82.2807 0.0620457C83.5722 -0.212202 84.8815 0.442536 85.4371 1.6401L97.8771 28.6555C98.5489 29.9824 98.5442 31.5508 97.8644 32.8736C97.1846 34.1964 95.9122 35.1133 94.4422 35.3397C81.9093 37.7999 75.643 38.4033 59.9072 41.7919C50.2058 43.9271 28.2965 49.2651 14.8816 52.1432C1.46671 55.0212 -3.12863 42.1633 2.11663 39.7959C25.5577 29.0734 35.3055 19.6505 41.6648 10.8774C42.8149 9.31111 44.4996 8.22106 46.3995 7.81393L46.3995 7.81393Z" transform="translate(313.2909 1287.483)" id="Shape" fill="#263238" stroke="none" />
        <path d="M78.7906 0L114.44 0C115.772 0.00849942 116.924 0.930261 117.225 2.22798L123.677 31.2393C124.061 32.6613 123.747 34.181 122.831 35.3346C121.916 36.4883 120.507 37.1391 119.035 37.0881C106.177 36.856 87.6101 36.1133 71.4566 36.1133C52.5181 36.1133 36.2253 37.1345 14.0375 37.1345C0.622581 37.1345 -3.09081 23.5804 2.52574 22.3271C28.0557 16.7569 48.9438 16.1536 70.9924 2.55294C73.3082 1.00222 76.0062 0.118992 78.7906 0L78.7906 0Z" transform="translate(43.84275 1302.909)" id="Shape" fill="#263238" stroke="none" />
        <path d="M41.1363 0.895625C71.7258 7.90473 96.838 86.0264 96.838 86.0264L35.7053 132.769C19.8375 115.804 8.64191 95.0121 3.21263 72.4259C-7.60272 31.4851 9.85038 -6.34558 41.1363 0.895625L41.1363 0.895625Z" transform="translate(213.4637 191.5073)" id="Shape" fill="#407BFF" stroke="none" />
        <path d="M41.1363 0.895625C71.7258 7.90473 96.838 86.0264 96.838 86.0264L35.7053 132.769C19.8375 115.804 8.64191 95.0121 3.21263 72.4259C-7.60272 31.4851 9.85038 -6.34558 41.1363 0.895625L41.1363 0.895625Z" transform="translate(213.4637 191.5073)" id="Shape" fill="#000000" fill-opacity="0.4" stroke="none" />
        <path d="M93.6685 138.883C86.0559 147.099 78.4434 154.433 70.4595 162.092C66.5139 165.805 62.522 169.519 58.4372 173.093L52.2637 178.524L50.7319 179.87L48.0861 182.005C45.363 184.181 42.3473 185.962 39.1274 187.297C35.5445 188.818 31.6937 189.607 27.8014 189.618C24.4756 189.632 21.1743 189.05 18.0536 187.9C14.5929 186.582 11.435 184.577 8.76997 182.005C5.3695 178.682 2.87662 174.543 1.52876 169.983C0.823592 167.735 0.372132 165.415 0.182454 163.067C-0.0607707 160.318 -0.0607707 157.553 0.182454 154.804C0.414487 152.576 0.692985 150.627 1.06441 148.816C2.33464 142.487 4.13581 136.276 6.44892 130.249C8.53708 124.52 10.939 118.911 13.6437 113.446C16.6145 107.55 19.4459 103.234 22.2774 98.3133C33.7778 79.4734 46.9021 61.674 61.5005 45.1183C75.9521 28.6604 91.8778 13.5582 109.079 0L126.161 17.5924C114.185 33.6531 102.395 50.8742 91.4866 67.8168C80.6303 84.6634 70.7128 102.097 61.7792 120.037C59.7832 124.4 57.1374 129.321 55.8841 132.848C54.2238 136.946 52.7827 141.13 51.5673 145.381C50.3975 149.209 49.5131 153.119 48.9214 157.078C48.89 157.697 48.89 158.317 48.9214 158.935C48.9214 159.306 48.9214 159.492 48.9214 158.517C48.8451 157.475 48.6424 156.447 48.318 155.454C47.3143 152.163 45.4752 149.188 42.9799 146.82C40.7599 144.78 38.1564 143.203 35.321 142.178C32.8291 141.234 30.1875 140.747 27.5228 140.739C24.9599 140.708 22.4175 141.198 20.0495 142.178C19.2476 142.506 18.4718 142.894 17.7286 143.339L19.4925 141.714L25.1091 136.608L36.2031 126.21C43.5371 119.294 50.9176 111.913 57.8804 105.044L93.6685 138.883Z" transform="translate(0 146.6811)" id="Shape" fill="#FF8B7B" stroke="none" />
        <path d="M13.554 0C30.1716 16.432 35.6026 46.4181 36.763 72.4122L34.0708 74.501C18.203 57.5354 7.00747 36.7438 1.5782 14.1575C0.97474 11.7438 0.417746 9.51572 0 6.86985L13.554 0Z" transform="translate(214.8197 249.7757)" id="Shape" fill="#000000" fill-opacity="0.2" stroke="none" />
        <path d="M5.58666 41.1692C-1.09756 76.4469 -5.27515 148.905 14.0811 292.337L188.892 292.337C190.098 265.554 173.249 134.748 199.104 8.44444C179.786 4.73502 160.25 2.26984 140.617 1.06391C115.88 -0.354638 91.0834 -0.354638 66.3473 1.06391C58.1777 1.80662 50.101 3.01346 43.1383 4.26677C24.1808 7.59273 9.24253 22.2728 5.58652 41.1692L5.58666 41.1692Z" transform="translate(55.63567 183.7264)" id="Shape" fill="#407BFF" stroke="none" />
        <path d="M5.58666 41.1692C-1.09756 76.4469 -5.27515 148.905 14.0811 292.337L188.892 292.337C190.098 265.554 173.249 134.748 199.104 8.44444C179.786 4.73502 160.25 2.26984 140.617 1.06391C115.88 -0.354638 91.0834 -0.354638 66.3473 1.06391C58.1777 1.80662 50.101 3.01346 43.1383 4.26677C24.1808 7.59273 9.24253 22.2728 5.58652 41.1692L5.58666 41.1692Z" transform="translate(55.63567 183.7264)" id="Shape" fill="#000000" fill-opacity="0.4" stroke="none" />
        <path d="M32.2916 7.56617L0.727407 0C-0.247333 19.1242 -0.340259 42.7975 1.05237 72.0873C15.5812 55.5625 34.1485 29.754 32.2916 7.56617L32.2916 7.56617Z" transform="translate(55.6674 269.6426)" id="Shape" fill="#000000" fill-opacity="0.2" stroke="none" />
        <path d="M0 0L1.67112 38.9913L34.3495 38.9913L32.6784 0L0 0L0 0Z" transform="translate(119.152 1231.1)" id="Polygon" fill="#000000" fill-opacity="0.2" stroke="none" />
        <path d="M31.9357 0L0 6.91625L16.5248 43.2152L48.4605 36.299L31.9357 0L31.9357 0Z" transform="translate(330.7256 1221.167)" id="Polygon" fill="#000000" fill-opacity="0.2" stroke="none" />
        <path d="M97.2053 55.9967C88.8501 87.2825 85.508 106.035 66.198 119.032C37.1867 138.807 0.980689 116.154 0.0522713 83.1048C-0.968932 53.258 12.91 7.072 46.4703 0.759138C61.4634 -2.05473 76.8475 3.06347 87.1667 14.2985C97.4859 25.5334 101.281 41.2963 97.2053 55.9967L97.2053 55.9967Z" transform="translate(105.2207 21.10374)" id="Shape" fill="#FF8B7B" stroke="none" />
        <path d="M4.85415 48.8555C3.27595 44.6779 -3.91893 12.3245 2.85821 3.92283C9.63535 -4.47883 86.9214 1.60193 98.3402 12.8351C117.325 31.4023 104.142 48.1129 83.3936 69.6044C67.7972 85.7579 67.1937 103.954 59.3026 106.739C45.3772 111.381 24.1178 107.017 19.8472 92.3028C15.5767 77.5883 4.85415 48.8555 4.85415 48.8555L4.85415 48.8555Z" transform="translate(124.3242 29.40539)" id="Shape" fill="#263238" stroke="none" />
        <path d="M106.183 5.43091C78.8896 -6.17361 27.6905 6.68421 0.0253565 0C-0.703325 21.2722 14.3763 39.8196 35.3494 43.4474C58.2987 47.821 81.6146 49.9815 104.977 49.8995C135.334 48.5069 129.392 15.318 106.183 5.43091L106.183 5.43091Z" transform="translate(107.1044 0)" id="Shape" fill="#263238" stroke="none" />
        <path d="M0 5.52376C9.97008 6.50481 20.0117 4.58677 28.9184 0C34.0244 12.3472 5.94151 15.7357 0 5.52376L0 5.52376Z" transform="translate(217.5583 37.69146)" id="Shape" fill="#263238" stroke="none" />
        <path d="M25.3717 13.5582C24.7447 21.6081 21.482 29.227 16.0881 35.2353C8.93967 43.08 1.51275 38.1597 0.259515 28.644C-0.854473 20.0102 1.46643 5.43494 10.193 1.25735C18.9197 -2.92025 25.9752 3.85682 25.3717 13.5582L25.3717 13.5582Z" transform="translate(118.6604 66.0024)" id="Shape" fill="#FF8B7B" stroke="none" />
        <path d="M0 0.0929268C0 0.0929268 37.1345 249.59 57.4191 343.076C79.6534 445.428 199.133 784.048 199.133 784.048L257.574 771.376C257.574 771.376 174.021 495.374 155.454 352.267C141.064 242.349 112.796 0 112.796 0L0 0.0929268Z" transform="translate(131.6849 476.1101)" id="Shape" fill="#407BFF" stroke="none" />
        <path d="M0.00354142 12.8579C-0.228492 12.8579 10.9118 34.0245 10.9118 34.0245L76.6398 19.7742L71.1161 0L0.00354142 12.8579Z" transform="translate(316.7966 1227.851)" id="Shape" fill="#263238" stroke="none" />
        <path d="M9.6549 0.350459C52.4988 8.75212 47.9498 168.523 42.7975 250.729C30.4502 192.614 12.3472 80.8393 0 1.51084C2.99179 0.0337851 6.39849 -0.375674 9.65504 0.350388L9.6549 0.350459Z" transform="translate(145.4711 564.7432)" id="Shape" fill="#000000" fill-opacity="0.3" stroke="none" />
        <path d="M2.36836 0.185641C2.36836 0.185641 -2.27345 244.298 1.43994 343.679C5.15333 447.238 41.313 786.322 41.313 786.322L96.6434 786.322C96.6434 786.322 98.6394 453.272 101.285 351.57C103.977 240.724 117.346 0 117.346 0L2.36836 0.185641Z" transform="translate(67.34841 476.0174)" id="Shape" fill="#407BFF" stroke="none" />
        <path d="M0.0162905 0C-0.262207 0 3.12636 22.9305 3.12636 22.9305L70.3861 22.9305L72.2428 2.46015L0.0162905 0Z" transform="translate(98.01553 1240.523)" id="Shape" fill="#263238" stroke="none" />
        <path d="M116.138 47.3926C131.781 89.5866 39.8266 139.3 39.8266 139.3L0 88.2405C0 88.2405 26.7832 35.2311 59.2758 11.3722C99.4274 -18.0568 104.208 15.2713 116.138 47.3926L116.138 47.3926Z" transform="translate(13.50456 188.3648)" id="Shape" fill="#407BFF" stroke="none" />
        <path d="M116.138 47.3926C131.781 89.5866 39.8266 139.3 39.8266 139.3L0 88.2405C0 88.2405 26.7832 35.2311 59.2758 11.3722C99.4274 -18.0568 104.208 15.2713 116.138 47.3926L116.138 47.3926Z" transform="translate(13.50456 188.3648)" id="Shape" fill="#000000" fill-opacity="0.4" stroke="none" />
      </g>
      <g id="Thinking--inject-135" transform="translate(1265.589 0)">
        <path d="M0 106.762C0 47.7988 75.0025 0 167.523 0C260.043 0 335.046 47.7988 335.046 106.762C335.046 165.724 260.043 213.523 167.523 213.523C75.0025 213.523 0 165.724 0 106.762Z" transform="translate(79.00349 0)" id="Ellipse" fill="#407BFF" stroke="none" />
        <path d="M46.6706 94.0171C23.8904 93.9436 4.45298 77.5207 0.577534 55.0724C-3.2513 30.645 12.324 7.37305 36.366 1.59874C55.8739 -2.89649 76.077 5.5432 86.5904 22.5797L194.141 0.391822C202.713 -1.48555 211.286 3.54917 213.822 11.9499C214.96 16.2538 214.276 20.8363 211.932 24.6206C209.587 28.405 205.789 31.0579 201.429 31.9561L198.644 32.5131C197.805 32.6635 197.085 33.1953 196.694 33.952C196.346 34.7191 196.346 35.5987 196.694 36.3658L198.597 41.2861C199.912 44.5759 198.704 48.3364 195.719 50.2448C193.407 51.6734 191.883 54.0881 191.588 56.7897C191.308 59.9286 189.041 62.5317 185.971 63.2418L183.79 63.706C180.686 64.2795 177.569 62.7772 176.084 59.9925C174.109 56.6737 170.246 54.9736 166.464 55.7592C162.683 56.5448 159.817 59.643 159.327 63.4739C159.062 66.5937 156.81 69.1839 153.757 69.8796L151.575 70.3438C148.474 70.9019 145.366 69.4038 143.87 66.6303C142.463 64.3003 140.104 62.7052 137.418 62.267C133.725 61.8225 130.94 58.6991 130.919 54.9795L130.919 49.6879C130.881 48.8502 130.48 48.0707 129.82 47.5535C129.16 47.0362 128.307 46.8325 127.485 46.9956L93.1815 54.0511C90.3149 73.5205 75.5614 89.1093 56.2791 93.0424C53.1172 93.6889 49.8982 94.0155 46.6706 94.0171ZM4.89438 54.1905C1.35948 32.0404 15.5447 10.9249 37.387 5.82284L37.6191 5.91559C55.7535 1.62243 74.5386 9.8598 83.6659 26.1075L84.5013 27.5464L195.068 4.56956C201.25 3.14241 207.486 6.72597 209.365 12.7855C210.141 15.8548 209.635 19.1077 207.962 21.7958C206.29 24.4839 203.596 26.3757 200.5 27.0359L197.668 27.6393C195.51 28.0784 193.656 29.447 192.6 31.3797C191.544 33.3125 191.394 35.6124 192.191 37.6656L194.094 42.5859C194.573 43.7917 194.172 45.1689 193.119 45.928C189.573 48.0946 187.226 51.778 186.76 55.9079C186.72 57.0416 185.95 58.0185 184.857 58.3216L182.629 58.7858C181.506 58.9164 180.425 58.3197 179.937 57.3004C176.993 52.1183 171.036 49.4351 165.204 50.665C159.373 51.8949 155.006 56.7554 154.407 62.6849C154.361 63.8316 153.568 64.8127 152.457 65.0987L150.322 65.5628C149.186 65.6998 148.088 65.1041 147.583 64.0775C145.513 60.4767 141.901 58.0287 137.789 57.4397C136.513 57.1977 135.582 56.0926 135.561 54.7938L135.561 49.5022C135.485 47.2424 134.396 45.1367 132.596 43.7686C130.796 42.4004 128.475 41.915 126.278 42.4467L88.4469 50.1057L88.4469 51.7767C85.8661 72.4845 68.565 88.2135 47.7057 88.8161C26.8465 89.4187 8.66627 74.7147 4.89438 54.1905ZM30.6099 72.2006C35.4321 75.2658 41.0338 76.8771 46.7454 76.8437C48.8165 76.9369 50.8918 76.812 52.937 76.471C66.8445 73.6088 76.7918 61.3184 76.6925 47.1198C76.5932 32.9211 66.4751 20.7711 52.5289 18.1036C38.5826 15.4362 24.695 22.9946 19.3629 36.1545C14.0308 49.3143 18.7403 64.408 30.6099 72.2006ZM41.5645 22.5333C43.2624 22.2035 44.9872 22.0325 46.7168 22.0227L46.8564 22.0227C51.7944 21.9796 56.6318 23.418 60.7441 26.1521C69.2036 31.7422 73.4712 41.8712 71.5628 51.8296C69.6543 61.788 61.9444 69.6216 52.0175 71.6882C38.4438 74.5747 25.1002 65.9109 22.2136 52.3372C19.3271 38.7634 27.9908 25.4198 41.5645 22.5333Z" transform="translate(139.4194 66.49657)" id="Shape" fill="#EEEEEE" fill-rule="evenodd" stroke="none" />
        <path d="M0 35.0921C0 15.7112 24.6475 0 55.0518 0C85.4561 0 110.104 15.7112 110.104 35.0921C110.104 54.4729 85.4561 70.1841 55.0518 70.1841C24.6475 70.1841 0 54.4729 0 35.0921Z" transform="translate(55.14468 205.957)" id="Ellipse" fill="#407BFF" fill-opacity="0.6" stroke="none" />
        <path d="M0 14.3896C0 6.44244 10.1209 0 22.6056 0C35.0903 0 45.2112 6.44244 45.2112 14.3896C45.2112 22.3368 35.0903 28.7792 22.6056 28.7792C10.1209 28.7792 0 22.3368 0 14.3896Z" transform="translate(0 261.7515)" id="Ellipse" fill="#407BFF" fill-opacity="0.3" stroke="none" />
      </g>
    </g>
  </g>
</svg>