<svg xmlns="http://www.w3.org/2000/svg" viewBox="0 0 1950 991.39"><defs><style>.cls-1{fill:#407bff;}.cls-2,.cls-3,.cls-5{fill:none;stroke-width:3px;}.cls-2{stroke:#4b33ff;}.cls-2,.cls-3{stroke-opacity:0.8;}.cls-3{stroke:#1e00ff;}.cls-4{fill:#fff;}.cls-5{stroke:#5a44ff;}</style></defs><title>beh-stat</title><g id="Layer_2" data-name="Layer 2"><g id="Layer_1-2" data-name="Layer 1"><g id="Group"><g id="undraw_connected_world_wuay" data-name="undraw connected world wuay"><path id="Shape" class="cls-1" d="M453.4,90.29a64.52,64.52,0,0,0-4.22-16.15,7.29,7.29,0,0,0-3.71-4.57,7.56,7.56,0,0,0-3.69,0l-18.93,2.89a7.25,7.25,0,0,0-4.31,1.68c-2.47,2.59,0,6.77-.12,10.34-.08,4-3.66,7.29-7.53,8.37a28.41,28.41,0,0,1-12-.15l-26.47-4.11a43.64,43.64,0,0,0,20-13.36c3.49-4.13,5.34-11.83.31-13.78a12.32,12.32,0,0,0-4.6-.37c-12,.09-21.43-9.92-32.65-14.14A36.1,36.1,0,0,0,314.89,59l14.1.67a6.26,6.26,0,0,1,3.76,1c3.09,2.54-.75,7.41-.32,11.39.57,5.16,7.42,6.26,12.59,6.79s11.73,4.72,9.25,9.28c-26,9-52.43-17.49-79.71-14.24-6.91.83-13.43,3.54-20.17,5.24C213.2,89.59,170.62,61.78,128.55,67.67a160,160,0,0,0-27.48,7.24c-5.72,1.88-11.69,3.92-15.86,8.28S79.47,95,83.41,99.57a92.18,92.18,0,0,1-32.3-3.08,18.11,18.11,0,0,1,9.3,16,191.84,191.84,0,0,0-49.1,15A82.68,82.68,0,0,0,21.48,141L0,154.75c7.26,1.83,11,11.72,6.79,17.9,7.52-3.35,12.18-12,20.23-13.76,5.27-1.15,10.63,1,15.63,3s10.5,4,15.67,2.47,9-8.23,5.71-12.51a267.89,267.89,0,0,1,68-10.62,8.46,8.46,0,0,1,5.15,1c3,2.08,2.21,6.58,2.05,10.22s2.68,8.44,5.94,6.8c-3.84,3.32-.56,9.58,3.12,13.08s8.11,8.32,5.86,12.87c-.59,1.18-1.58,2.13-2.15,3.33-1.67,3.54,1,7.66,4.11,10s7,4,9.12,7.24,1.19,8.94-2.69,9.39l-11-14a28.75,28.75,0,0,0-7.46,14.13c11.71,9.57,13.47,29,3.67,40.55-5,5.88-12.13,9.46-18.34,14s-12,11.12-11.95,18.85c0,13.34-1.07,25.74,3.93,38.12a590.7,590.7,0,0,0,31.88,66.51c5.55-6.86,7.23,11.82,13.62,12.79,0,0-15.34-39.62-21.8-59.88,4.21,0,9.07.35,11.54,3.76,2,2.82,1.6,6.66,2.24,10.09a31.42,31.42,0,0,0,4,9.37l38.56,68.68c3.2,5.7,6.87,11.81,13,14.11,3.91,1.48,8.43,1.2,12,3.32,2.82,1.67,4.72,4.62,7.59,6.19,8.13,4.43,19.42-4.07,27,1.22,2.17,1.51,3.55,3.92,5.55,5.65,7,6.07,18.51,2,26.61,6.54,5.21,2.92,7.92,8.75,10.7,14,7,13.25,18.24,26.24,33.18,27.29,4.69.33,9.48-.56,14.07.49s9.1,5,8.36,9.69c-1.26,8,2.67,16.68,1.62,24.67-1.93,14.56-22.58,21-24.36,35.54-.38,3.19.22,6.49-.54,9.61-.93,3.83-3.8,7-4.83,10.76-1.93,7.21,3.24,14.39,8.91,19.24s12.45,9,15.56,15.83c3.28,7.18,1.67,15.55,2.73,23.37,2.33,17.08,17.08,29.74,32.26,37.9,4.62,2.49,9.59,4.9,12.58,9.21,3.91,5.63,3.52,13,4.82,19.78,3.2,16.48,17.07,30.06,17.46,46.84.28,11.92-6.35,22.74-10.31,34a79.28,79.28,0,0,0,6.48,65.76c3,5,6.5,9.72,8.6,15.14,3.74,9.68,2.53,20.68,6,30.47,4.56,12.93,17.09,23.62,15.89,37.28,5.69,11.81,18.25,17.62,30.87,21.13l22.64,6.3c4.33,1.21,8.86,2.42,13.27,1.55s8.62-4.54,8.51-9c-11.1-2.51-22.55-5.17-31.7-11.93s-15.42-18.81-11.95-29.64c1.61-5,5-10.83,1.78-15-1.86-2.38-5.27-3-7.37-5.17-3.28-3.38-2.16-9.06.2-13.14s5.77-7.72,6.72-12.34a12.87,12.87,0,0,0-6-13.39,32,32,0,0,0,11.21-7.19c2.94-3.36,4.3-8.55,2-12.37,6.88.87,15,1.3,19.52-4,3.61-4.2,3.36-10.49,1.93-15.84S510,831.55,510,826a294.1,294.1,0,0,0,47.57-1.61,30.85,30.85,0,0,0-14.46-18.12c7.15-1.21,13.66-9.77,15.92-16.66s1.69-14.39.29-21.51a11.43,11.43,0,0,1-.21-5.63c.8-2.57,3.32-4.14,5.65-5.48l35.5-20.38a20.81,20.81,0,0,0,5.67-4.19c3.72-4.37,3.17-11,1.26-16.37s-4.95-10.5-5.68-16.19c-2.2-17,16-29.22,22.16-45.24,2.42-6.28,2.91-13.11,3.37-19.83.5-7.21.54-15.59-5-20.24-5.3-4.45-13.6-3.46-19.16-7.61-5.09-3.8-6.85-11.17-12.41-14.24-5-2.79-11.39-1-17-2.33-9.89-2.31-16.12-13.71-26.23-14.77-5.7-.59-12.15,2.19-16.83-1.13-4.11-2.92-4.28-8.81-5.06-13.8a38.56,38.56,0,0,0-31.1-31.2c-5.88-.94-12.28-.58-17.28-3.81s-7.39-9.4-11.37-13.93c-6.41-7.3-16.51-9.89-26-12.12l-38.47-9c-6.83-1.61-15.64-2.46-19.3,3.52a27.56,27.56,0,0,0-2.28,7.18A22.24,22.24,0,0,1,358.61,517,24.69,24.69,0,0,0,344,505.74c-3.9-1.09-8.08-1.21-11.8-2.81a16.58,16.58,0,0,1-7.19-23,20.62,20.62,0,0,0-3.52-24.81c-6.55-5.88-16-7.3-24.78-6.71-2.3-5,1.54-10.67,5.68-14.32s9.17-7.22,10.07-12.66c1.42-8.56-9.5-15.06-17.8-12.51s-13.58,10.61-17.08,18.54c-2,4.56-3.71,9.36-6.88,13.2s-8.26,6.59-13.09,5.36c-6.82-1.75-9.46-9.86-11-16.74-2-9.24-4.07-18.6-3.64-28.05s3.61-19.14,10.57-25.54c11.35-10.41,28.76-9.39,44.08-7.73-3.62-4.08-2.73-11,1.15-14.79a16.8,16.8,0,0,1,15.23-3.74,21,21,0,0,1,11.81,7.06c4.35,5.3,5.59,12.47,8.88,18.49s10.69,11.16,16.74,7.93c5.23-2.79,6.06-10,4.76-15.83s-4.06-11.4-3.59-17.31c.9-11.28,12.59-18.07,22.9-22.71s22.13-10.89,23.76-22.08a20.14,20.14,0,0,1,1.23-6.42,12.55,12.55,0,0,1,4.61-4.34c30.11-19.9,60.71-40,95.12-50.91,1.79-.56,2,.07,3.83-.38,2.55-1.47.86-5.56-1.59-7.2s-5.72-2.91-6.34-5.79c-.46-2.12.79-4.2,1.11-6.34.8-5.27-5.5-10.13-10.39-8-2.77-3.66,2.7-7.91,7.13-9.13a193.67,193.67,0,0,1,40.66-6.64,7.28,7.28,0,0,1,4.62.79c2.31,1.6,2,5.27.38,7.55s-4.18,3.72-6.22,5.65a17,17,0,0,0-4.41,17.08c7.18,3.66,15,7.42,22.94,6.13s15-10.22,11.27-17.36c-3.48-6.64-13.94-8.14-15.73-15.42-2.11-8.53,10-16.11,7.24-24.46-1.19-3.66-4.83-5.81-7.63-8.45a22.93,22.93,0,0,1-5-25.43A28.91,28.91,0,0,1,516.76,138c-6.07-6.12-10.91-15.79-19.53-15.51-7.91.25-14.72,9.48-22.12,6.66-1.82-.69-3.74-2.1-5.5-1.27a4.52,4.52,0,0,0-2.05,3.4c-1.88,9,1.35,19.22-3.54,27-5.33,8.45-17.66,9.62-24.12,17.24-3.5,4.13-4.86,9.7-8.09,14.06s-10.06,7.14-13.93,3.34a19.19,19.19,0,0,0-5.22-23.35,51,51,0,0,0-11.52-5.61,68.66,68.66,0,0,1-12.87-7.17,12.73,12.73,0,0,1-4.73-5.06,11.54,11.54,0,0,1,.32-8,32.7,32.7,0,0,1,26-21.56c5.15-.7,11.15-.46,14.56-4.38,1.8-2.08,2.75-5.22,5.37-6.06a7.89,7.89,0,0,1,4.95.61L454,119.05a13.61,13.61,0,0,0,6.84,1.13,4.65,4.65,0,0,0,4-4.88c-.62-3.19-5.53-4.73-5.08-8a5.3,5.3,0,0,1,1.61-2.7,68.73,68.73,0,0,1,54.51-21.53c2.42,4-1.41,8.71-4.61,12.11s-5.76,9.48-1.89,12.1a10.56,10.56,0,0,0,5.12,1.15c20.26,7,9.33,2,13.62,4.13,0,0,13.16,6.06,19.54,9.49-.56-4.21-1.1-8.65.5-12.58s6.13-7,10.1-5.5,5.77,6.54,9.84,7c5.43.62,7.57-7.4,5.31-12.37s-6.76-9.13-7.14-14.58c-.25-3.68,1.15-8.24-1.79-10.47A8.06,8.06,0,0,0,561,72.39l-73.34-13.5c-4.35-.8-10.64-.18-10.84,4.24-.1,2.47,2.1,4.91,1.12,7.18-1,2.43-4.46,2.2-7,3.06-3.87,1.33-5.81,5.93-5.44,10a28,28,0,0,0,4.59,11.28c-4.77-2-12-2.37-16.76-4.36Z"/><path id="Shape-2" data-name="Shape" class="cls-1" d="M394.89,28a23.73,23.73,0,0,0-26.09,7.81c-1.21,1.59-2.22,3.78-1.21,5.5,1.45,2.47,5.14,1.5,7.86.61a19.8,19.8,0,0,1,12.43-.29c2.55.87,4.84,2.42,7.41,3.27a7.47,7.47,0,0,0,7.61-1.11c1.76-1.8,1.87-4.59,1.87-7.11a5.7,5.7,0,0,0-1.45-4.7A7.46,7.46,0,0,0,400,31a11.58,11.58,0,0,1-6.79-4"/><path id="Shape-3" data-name="Shape" class="cls-1" d="M421.33,20.67a6,6,0,0,0-5.84,8.51,24.54,24.54,0,0,0,9.76.64,8.37,8.37,0,0,0,6.83-6.26A15.75,15.75,0,0,1,421,21.44"/><path id="Shape-4" data-name="Shape" class="cls-1" d="M510.05,8.38a112.33,112.33,0,0,0-25,8.5,18.81,18.81,0,0,1,12,18.89,9.88,9.88,0,0,0,.11,4.68c.92,2.22,3.59,3.06,5.93,3.63a39.16,39.16,0,0,0,13,1.66,13.24,13.24,0,0,0,10.76-6.57,45.52,45.52,0,0,1,2.23-5.29c5.62-8.55,22.3,1.79,28.32-6.48,2.13-2.91,1.93-7.29,4.7-9.6A10.54,10.54,0,0,1,566.91,16a338.33,338.33,0,0,1,36.68-5.22c5.83-.51,13.44-2.61,13.49-8.46A101.6,101.6,0,0,0,552.26,11c-7.22,3.61-16.78,11.23-23.73,6.43-2.61-1.8-2.48-6.63-6.07-8.65s-8.52-1.23-12.41-.4Z"/><path id="Shape-5" data-name="Shape" class="cls-1" d="M802.82,0c-85,2.29-34.32-.48-51.46.46L650.83,6c-6.75.37-14.54-.2-20.73,2.1-5.23,1.95-9,5.53-15,6.79-11.06,2.32-23.23.75-33.24,7h0l10.32,2a13.36,13.36,0,0,0-13.91,14.48c9.66,3.23,20.19.09,30.36.52s22,7.7,20.28,17.73c-.52,3-2.28,6.07-1.36,9,.63,2.06,2.45,3.52,3.48,5.42,2.14,4,.43,9-2.27,12.56s-6.33,6.47-8.7,10.29c-5.9,9.51-2.55,21.8,1,32.42a28.54,28.54,0,0,0,5.5,11c5.2,5.53,13.68,6,21.27,6.13,5.53.08,11.86-.2,15.36-4.48,4.56-5.59,1.37-14.31,4.37-20.87,2.73-6,9.68-8.52,16-10.33,11.54-3.32,23.3-6.15,34.21-11.16,13.54-6.23,26.2-15.94,41.09-16.74,4.17-.23,8.45.26,12.48-.88s7.84-4.62,7.54-8.79c-.26-3.57-3.28-6.19-5.64-8.87s-4.2-6.82-2-9.67l39-7.28c-2.77-7.54-4.93-17.47,1.43-22.38,2.29-1.77,5.37-2.47,7.32-4.61,3.33-3.65,1.65-9.94-2.19-13s-9-3.82-14-4.23"/><path id="Shape-6" data-name="Shape" class="cls-1" d="M766.71,103.35a4.17,4.17,0,0,0-3,.68,3.76,3.76,0,0,0-1,2.32A15.24,15.24,0,0,0,765,117.29a10.73,10.73,0,0,0,9.81,4.7c4.64-.59,8.07-4.55,12.34-6.49,6.58-3,34.53-7.62,15.19-18.06-6.66-3.6-11-.42-16.22,2a37,37,0,0,1-19.36,4Z"/><path id="Shape-7" data-name="Shape" class="cls-1" d="M936.05,15.92a11,11,0,0,0-5.37,4.67,4.71,4.71,0,0,0,1.77,6.26,6.91,6.91,0,0,0,2.63.42l9.18.27c3.9.12,8.77.95,9.82,4.71.78,2.79-1,6.38,1.14,8.37a5.91,5.91,0,0,0,3.12,1.22,21.39,21.39,0,0,0,9.25.3c6.68-1.8,3.17-5.87,5.27-9.5,3.22-5.56,2.66-2.19,8.33-5.38,4.19-2.35,9.6-6.61,6.11-12.6-6.08-10.42-42.28-3.22-51.25,1.26Z"/><path id="Shape-8" data-name="Shape" class="cls-1" d="M1117.23,10.68l-5.33.71c-12,1.61-24.11,3.23-35.69,6.84a59.39,59.39,0,0,0,15.63,3.83,48,48,0,0,1,8.76,1.25c5.11,1.52,10.26,5.45,15.2,3.43,3.06-1.24,4.06-4.43,6.6-6.12,1.75-1.17,8.4-3.06,9.14-4.24,6-9.52-9.69-6.31-14.31-5.7Z"/><path id="Shape-9" data-name="Shape" class="cls-1" d="M1140.63,34.91A100.31,100.31,0,0,0,1121,49.31c-2.5,2.36-5.06,5.28-4.83,8.71.3,4.56,5.16,7.21,9.36,9l17,7.21c2.07-2.91.18-6.93-2-9.8s-4.67-6.17-3.73-9.62c1.08-3.93,5.87-5.27,9.89-5.95,6.55-1.1,24.22-1,22.1-11.57-2.5-12.44-21.62-6.05-28.2-2.37Z"/><path id="Shape-10" data-name="Shape" class="cls-1" d="M1137.21,738.78c-1.62,4.7-1.78,10.23,1,14.33,3.15,4.6,9.45,6.32,14.9,5.15a26.82,26.82,0,0,0,13.84-8.89,47.79,47.79,0,0,0,8-12.21,94.92,94.92,0,0,0,5.9-21.58l5.29-27.78c1.18-6.21,1.14-25.24-10.27-19-3.12,1.7-10.34,15.07-13.6,18.86-5.89,6.84-6.67,13.47-9.77,21.76-3.88,10.37-11.68,19-15.27,29.4Z"/><path id="Shape-11" data-name="Shape" class="cls-1" d="M1739.86,880.93a84,84,0,0,1-10.84-5.16,91.68,91.68,0,0,0-5.5,30l25.55-14.46c3.85-2.18,8.2-5.2,8.12-9.61a3.06,3.06,0,0,0-1.41-2.77,3.43,3.43,0,0,0-1.79-.21c-3.79.32-7.25,2.18-10.82,3.48s-7.75,2-11,.06"/><path id="Shape-12" data-name="Shape" class="cls-1" d="M1874.64,889.51a56.37,56.37,0,0,0-8.2,2.94c-5.86,3-9.85,8.65-15.12,12.58-5,3.76-11.13,5.83-17.1,7.83-1.75,1.55-1,4.68,1,6a11.8,11.8,0,0,0,6.75,1.52c6.2.14,12.73.2,18.16-2.8a56.4,56.4,0,0,0,8.54-6.78c6.35-5.3,14-8.79,21.52-12.17a24.66,24.66,0,0,0,7.5-4.49c4.74-4.67,5.08-11.87-1.76-13.46-5.53-1.29-16,7.09-21.25,8.79Z"/><path id="Shape-13" data-name="Shape" class="cls-1" d="M1934.19,850.62a21.34,21.34,0,0,0-6.53-17.47c-.07,6.44-.26,13.29-3.88,18.61-2.57,3.79-6.62,6.35-9.44,10s-4.08,9.34-.76,12.5a12.43,12.43,0,0,0,7.35,2.54c6.59.77,14.23,1.21,18.85-3.56,2.52-2.6,3.75-6.45,6.83-8.36a8.3,8.3,0,0,0,3-2.14c1.27-2-.75-4.69-3-5.42s-4.77-.38-7.06-1.07-4.38-3.26-3.21-5.34"/><path id="Shape-14" data-name="Shape" class="cls-1" d="M1828.35,614.81a29.9,29.9,0,0,1-10.58.63c-5.87-1.08-10.44-5.51-15.18-9.13a66.86,66.86,0,0,0-39.11-13.67c-12.88-.24-25.87,3.25-38.52.81.83,4.6,4.76,8,9,10.09s8.82,3.08,13,5.09A31.14,31.14,0,0,1,1762,624.32c1.36,3.17,2.22,6.62,4.27,9.39,4.21,5.66,12.18,6.9,19.21,6.43,9.17-.6,18.74-3.24,27.27.18,6.53,2.61,11.2,8.33,16.65,12.77s13.12,7.73,19.38,4.53a32,32,0,0,1-22.17-30.83c6.14.57,23.81.35,22.86-10.08-.8-8.84-15.89-2.85-21.16-1.9Z"/><path id="Shape-15" data-name="Shape" class="cls-1" d="M1748.07,686.71c1.09-6,7-11.25,5.19-17-1.28-4-5.92-6-10.12-6.07s-8.32,1.15-12.52,1.27a59,59,0,0,0-8.2.12c-8.34,1.37-13.48,10.1-21.33,13.21-4.78,1.89-10.15,1.53-15.11,2.83-11.28,3-18.42,13.62-26.3,22.21A93.85,93.85,0,0,1,1612.05,731c-6.41,1.49-13.3,2.44-18.4,6.6-6.75,5.51-8.41,15-9.91,23.55a389,389,0,0,1-18.94,69.52l26.78,3.42c5.09.65,10.36,1.29,15.27-.22a44,44,0,0,0,10-5.35,100.41,100.41,0,0,1,39.18-14.14c7-1,14.36-1.14,20.94,1.47s12.23,8.51,12.78,15.57a16.44,16.44,0,0,1,16.44,4,28.51,28.51,0,0,1,7.85,15.67c.71,3.66,1.41,8,4.81,9.59,2.78,1.25,6-.1,9-.34,10.3-.83,18.84,11.18,29,9.11,10.85-2.22,13.51-18.47,24.1-21.72,6.08-1.87,14.61.4,17.52-5.26,2.57-5-2.55-10.73-2-16.32.65-6.87,8.75-9.79,15-12.72,21.55-10.11,31.78-39.11,21.34-60.5-6.19-12.68-18.36-22.65-20.61-36.57-1.73-10.72,2.49-23.21-4.34-31.64-3.47-4.29-9.36-6.66-11.42-11.77-1.3-3.23-.78-6.88-1.48-10.28s-3.67-7-7-6.08c-9.76,2.56-12.87,32.69-18.09,40-7.94,11.13-24.24,3.8-21.74-9.91Z"/><path id="Shape-16" data-name="Shape" class="cls-1" d="M1567.76,626.2c-3.33-.94-7-1.86-10.17-.52s-5.06,6-2.49,8.35c20.05-.78,40.23-1.56,60.12,1.17,22.91,3.14,45.58,10.91,68.59,8.62a346.82,346.82,0,0,0-40-9.28l-22.53-4.31a173.71,173.71,0,0,0-18.29-2.82c-12.85-1.07-22.58,2.33-35.22-1.21Z"/><path id="Shape-17" data-name="Shape" class="cls-1" d="M1587.84,556.35c-1.67-.14-3.73-.26-4.59,1.17s.12,3.18-.32,4.71c-.61,2.1-3.35,2.63-5.51,2.35s-4.5-1-6.42.07a5.45,5.45,0,0,0-2.1,6.18,15.84,15.84,0,0,0,3.71,5.91,60.14,60.14,0,0,0,9.62,9.65c6.89,5.09,16.23,7.54,20.57,14.93a9.81,9.81,0,0,0,2.75,3.69c2.08,1.32,4.8.32,7-.71l7.87-3.59a9,9,0,0,0,3.68-2.5c1.79-2.44.69-5.91-.82-8.53s-3.44-5.35-3.11-8.36c.57-5.37,7.48-7.42,10.32-12s1-10.59,1.33-16c.38-6.35,4.37-14.62-2-19.37-5.46-4-10.68-.3-14.6,4.15-8.27,9.4-12.17,19.57-27.37,18.3Z"/><path id="Shape-18" data-name="Shape" class="cls-1" d="M1635.59,461.4c2.68,5.14,8.28,8.21,11.21,13.22,3.17,5.42,2.81,12.44,6.25,17.7s10.65,8.26,12.63,14.4c2.16,6.7-2.75,14.85,1.16,20.7a8.68,8.68,0,0,0,12.75,1.17,9.35,9.35,0,0,0-.38-13c-2.32-2.12-5.64-3-7.58-5.49a11.47,11.47,0,0,1-2-4.78,31.29,31.29,0,0,1,.49-15,6.67,6.67,0,0,0,.38-3.92c-.87-2.53-4.3-2.71-6.7-3.89-5.47-2.66-5.33-10.37-4.38-16.38-.63,4-14.87-2.8-16.36-5.06-3-4.5-1.35-13.17-1.94-18.14-6.39,3.08-8.86,12.21-5.57,18.5Z"/><path id="Shape-19" data-name="Shape" class="cls-1" d="M1492.16,540.51c-2.62-2.94-6.58-6-10.1-4.24-2.69,1.35-3.43,5.07-2.38,7.89a17.42,17.42,0,0,0,5.73,6.83c7.35,6.06,15.25,11.52,21.66,18.56,11.46,12.59,17.53,29.59,30,41.19a16.89,16.89,0,0,0,9.45,5.12c3.63.33,7.71-2,8.13-5.61.34-3-1.74-5.66-3.77-7.87-4.85-5.27-10.15-10.12-14.72-15.62a13.12,13.12,0,0,1-3.76-7.86c0-3,2.68-6.06,5.55-5.33-3.49-.89-6.08-6.71-11.21-7.8-4.28-.91-5.31,1.74-10.41-.45-9.72-4.17-17.35-17.19-24.16-24.81Z"/><path id="Shape-20" data-name="Shape" class="cls-1" d="M1720.58,254.09a80.41,80.41,0,0,1-8.22-2.94c-7.21-2.16-16.76,3.14-15.8,10.62.64,5,5.26,8.31,7.81,12.62,3.79,6.39,2.78,14.49.79,21.64a17,17,0,0,1-2.73,6.16,20.85,20.85,0,0,1-6.47,4.65,86.49,86.49,0,0,0-25.31,21.51,6.11,6.11,0,0,0-1.53,2.88c-.34,2.52,2.19,4.36,3.63,6.46,3.18,4.68.88,11,1.2,16.62a4.71,4.71,0,0,0,2,4.12c1.92,1,4.2-.68,5.24-2.57,3.45-6.25.85-16.3,7.33-19.31,1.23-.57,2.71-.81,3.53-1.89,1.3-1.71,0-4.24.7-6.28,1-3.06,5.18-3.2,8.4-3.07a47.32,47.32,0,0,0,16.37-2.18,10.91,10.91,0,0,0,5.42-3.13c1.94-2.42,1.76-5.86,1.38-8.93a121,121,0,0,0-14.3-43.63c5.69.73,11.88,1.36,16.79-1.6,2.75-1.67,6-6.63,4.69-10-2.16-5.35-6.06-.85-10.89-1.74Z"/><path id="Shape-21" data-name="Shape" class="cls-1" d="M991,338.35c.68,3.65,1.35,7.5.16,11s-5,6.45-8.52,5.37c-2.76-.83-4.36-3.61-6.32-5.72-10.89-11.77-35.48-5-42.22-19.51-2.74-5.94-.87-13.06-2.75-19.33a17.21,17.21,0,0,0-17.42-11.84,35.61,35.61,0,0,0-10,3A252.92,252.92,0,0,1,837.43,318a54.41,54.41,0,0,0-12.77,2.32c-9.36,3.4-15.75,12.07-20.3,20.93s-7.91,18.44-14,26.3c-6.42,8.27-15.4,14.06-23.78,20.32a24.31,24.31,0,0,0-7.85,8.22c-1.81,3.73-1.71,8.07-1.57,12.22l1.71,50.37c.22,6.47.5,13.18,3.4,19,3.62,7.24,10.77,12,15.74,18.38a36,36,0,0,1,7.46,23c-.1,3.33-.43,7.28,2.16,9.37a9.53,9.53,0,0,0,5.31,1.53l68.14,5.57c12,1,25.27,2.6,33.09,11.73,3.69,4.31,6.66,10.51,12.32,11,2.42.2,4.78-.8,7.21-1,6.12-.49,11.5,4.16,14.9,9.28a41.2,41.2,0,0,1,6.61,26.42c-.56,5.84-2.37,11.51-2.76,17.37-1.48,22.26,17.39,41.61,17.76,63.93.22,13.12-6,25.39-12.09,37,9.8,14.86,1.78,34.63,5.68,52,3.7,16.47,17.44,29.37,20.86,45.9,1.57,7.57,1.66,16.89,8.33,20.79a19.08,19.08,0,0,0,9.43,1.88,124.2,124.2,0,0,0,56.6-12.88c8.26-4.1,16.81-10.21,18.25-19.31,1.16-7.34-2.56-15.55,1.23-21.94,4.46-7.54,15.9-6.94,22.47-12.73,10.65-9.4,2.34-27.32,6.66-40.86,3.88-12.16,17.24-18.63,23.86-29.55a52.36,52.36,0,0,0,5.55-15,214.72,214.72,0,0,0,5.64-38.33,227.64,227.64,0,0,1,1.73-23.48c7.14-44.35,51-74,65.22-116.66,1.36-4.07,2-9.49-1.62-11.79a10.37,10.37,0,0,0-6.89-.72l-31.41,4c-3.9.49-8,.95-11.62-.67s-6.15-6.15-4.25-9.59c5.33-9.67-5.64-21.88-10.51-31.78a468.87,468.87,0,0,0-46.7-75.72,7.73,7.73,0,0,1-2-4.45l8.91.3c-3-10.8-8-22.61-18.46-26.56-5.92-2.23-12.46-1.46-18.77-1.12-18.06,1-37.43-1.74-55.31-4.5Z"/><path id="Shape-22" data-name="Shape" class="cls-1" d="M1046.28,95c4.72,5,10,10.34,16.86,11.22,12.08,1.54,20.76-11,26.29-21.8a10.66,10.66,0,0,0,11.12,9.85,22,22,0,0,0,8.36-3.26,164.67,164.67,0,0,1,78-20.17,8.43,8.43,0,0,1,6.44-9.26c5.54-1.1,10.54,3.69,13.21,8.67s4.35,10.75,8.6,14.48,12.48,3.57,14.16-1.83c1.61-5.18-3.79-9.6-8.28-12.66s-9.21-8.71-6.19-13.22c22.92-5.07,46-10.16,69.42-11.17a29,29,0,0,0,11.69-2c3.58-1.75,6.42-5.73,5.46-9.6a26.47,26.47,0,0,1-27.62-10.42c32.54-2.68,67.15-5,96,10.34,3.46,7.43-14.17,13.61-9.46,20.31,1.51,2.14,4.53,2.39,7.14,2.44,20,.37,40.19.73,60-2.29,7.24-1.11,14.56-2.67,21.83-1.77,12.1,1.49,22.46,9.57,34.37,12.2,4.85,1.08,10.29,1.11,14.37-1.71s5.85-9.24,2.5-12.9c11.21-11,29.83-8.27,44.62-3S1574,61.2,1589.64,62.37c11.22.84,22.61-2.18,33.71-.26,7,1.21,13.46,4.31,20.27,6.22,12.89,3.6,26.53,2.84,39.91,3a279.62,279.62,0,0,1,99.65,19.8,29.64,29.64,0,0,1,11.07,6.55c3,3.16,4.46,8.07,2.48,11.92l-32.79-4.79c3.09,6.08,11.08,7.11,17.57,9.21s13.22,9.27,9.32,14.86c-7-2.24-13.4,4.79-16.95,11.26s-7.89,14.22-15.25,14.61c-6.6.35-14.58-5.27-18.89-.25a128.34,128.34,0,0,1,15.18,24.26c4.25,8.85,7.27,20,1.53,28a7.35,7.35,0,0,1-3.88,3c-4.69,1.18-7.74-4.55-11.1-8-4.24-4.39-10.65-5.63-16.39-7.68s-11.79-6.1-12.24-12.18c-.28-3.79,1.72-7.3,3.19-10.8a41.42,41.42,0,0,0,3.16-18.66c-.32-5.13-1.76-10.47-5.44-14.06s-10-4.72-14-1.43c-1.85,1.53-3.33,4-5.72,4.07-4.24.16-7.49-7.22-10.9-4.7a11.54,11.54,0,0,1-1.58,7.74c-10.17,8.85-25.79,5.11-38.9,8.23a73,73,0,0,0-17.76,7.76,11.35,11.35,0,0,0-5.07,4.25c-1.64,3.19.17,7.26,3,9.37a24.26,24.26,0,0,0,10.07,3.44c16,3,32.2,7.71,44.82,18s20.9,27.24,16.91,43l-31.53-30.12q1.8,19,2,38.05a17.06,17.06,0,0,1-1,7.32c-2.24,5-8.34,6.63-13.67,7.73a10.72,10.72,0,0,0-8.23,13.72c1.9,6.18,6.63,11,11,15.81s8.59,10.26,9.15,16.7-4.29,13.7-10.74,13.25c-4.89-.34-8.52-4.72-10.6-9.15s-3.33-9.38-6.46-13.15c-9.49-11.41-30.79-6.52-39.29-18.68a19.21,19.21,0,0,0-4,18.29c4-2.48,9.36-.18,12.33,3.42s4.37,8.2,6.71,12.24c3.14,5.45,8.15,10.28,8.59,16.56a52.89,52.89,0,0,0,.12,7.12c.78,3.8,4,6.54,6.23,9.72,5.18,7.39,4.93,17.56,1.58,25.95s-9.35,15.41-15.3,22.21c-10.39,11.88-21,23.68-33.31,33.55-3.51,2.81-7.26,5.58-9.45,9.51s-2.31,9.46,1.06,12.45c-2.41.13-6.72,1.31-9.13,1.43a211.66,211.66,0,0,1-.55-29c-9.5-4.56-19.73,7.65-18.5,18.12s8.79,18.86,14.18,27.92c3.94,6.62,6.87,14.34,5.56,21.94s-8.1,14.59-15.78,13.92c-12.21-1.06-17.31-18.59-29.41-20.6a4.91,4.91,0,0,0-3.18.32c-1.79,1-2.1,3.38-2.2,5.43-.5,10-.93,20.47,3,29.73,5.73,13.53,20.54,24.9,17.43,39.27-16.73-7.78-25.43-26.54-29.38-44.57s-4.61-36.94-11.69-54c-5.38,6.89-16.68,1.19-21.59-6-4.66-6.85-7.52-14.78-12-21.73s-11.44-13.16-19.72-13.54c-8.68-.41-16.21,5.55-22.83,11.18-5.44,4.63-11,9.43-14.21,15.83-4.63,9.31-3.42,20.28-3.64,30.68-.24,11.23-2.63,23.09-10.28,31.32s-21.8,11.09-30.25,3.67c-4.41-3.87-6.54-9.65-8.44-15.2A743.17,743.17,0,0,1,1324.35,415c-1.42,6.3-7,14.43-12.25,10.72a10.9,10.9,0,0,1-2.82-3.64c-9.87-16.72-28.14-26.75-46.6-32.77s-37.88-8.82-56.14-15.43a142.41,142.41,0,0,1-29.13-14.5,22.91,22.91,0,0,0-1.39,23.43c4,7.17,13.21,11.32,21,8.81,4.06-1.29,7.48-4.11,11.5-5.5s9.42-.71,11.18,3.17c1.69,3.71-.86,8.2.4,12.07,1.93,5.9,10.82,6.35,13.94,11.72,2.31,4,.4,9.3-2.9,12.52s-7.71,5-11.75,7.23c-13.09,7.28-22.4,19.71-33.84,29.37s-27.58,16.73-41.21,10.53c3.25-16.46-16.35-28.54-20-44.92-1.19-5.39-.57-11.12-2.27-16.37-2.45-7.61-9.2-12.84-14.73-18.61a73,73,0,0,1-20-53.12c.3-6.77,1.54-13.65,0-20.25s-7-13-13.78-12.68c-15.46.68-34.94,1.83-43-11.35-2.9-4.71-4.16-11.6,0-15.2,3-2.55,7.31-2.31,11.19-1.92l34.84,3.42c8.15.8,17,1.47,23.95-2.79s10-15.57,3.55-20.58c-4.73-3.67-13.21-3.47-14.59-9.29-1.14-4.85,4.23-10.35,1.33-14.4-2.08-2.91-6.75-2.1-9.59.07s-4.88,5.37-8,7c-5.56,2.89-12.2.14-18.19-1.73s-14-2-16.9,3.52c-3.24,6.21,2.88,14.36-.34,20.58-4.26,8.23-18.67,3.55-24.65,10.63-6.86,8.12,4.67,20.24,2.35,30.61a19.05,19.05,0,0,1-18.78-1.05,18.24,18.24,0,0,1-7.88-17c.58-4.67,3-9.44,1.38-13.85-1.32-3.57-4.9-5.69-8.23-7.53l-33.86-18.71c-3.14,5.83.83,13.06,5.8,17.44s11.2,7.68,14.46,13.44a17.65,17.65,0,0,1-6.64,23.27,4.06,4.06,0,0,1-3.35.58,4.69,4.69,0,0,1-2.18-2.93c-6-15.28-14.94-30.36-29.28-38.34s-35-6.35-44.35,7.11c-2.23,3.19-3.73,6.83-5.68,10.21-10.33,17.95-32.49,26.45-53.2,25.89a10.5,10.5,0,0,1-5.8-1.36c-3.35-2.31-3.2-7.21-2.69-11.25l2.18-17.12c.43-3.44,1.07-7.24,3.79-9.38,3.83-3,9.37-1.12,14.25-1.19A18.07,18.07,0,0,0,851.84,251a20.36,20.36,0,0,0-5.67-20.25c-2.24-2.1-5.24-4.74-4.06-7.58a6.28,6.28,0,0,1,4.39-3c8.78-2.54,18-3.21,26.67-6.22s17-9.15,19-18.06c.63-2.73.91-6,3.37-7.39a10,10,0,0,1,3.88-.79A18.91,18.91,0,0,0,915.68,168c4.14-2.89,9.93-.77,13.93,2.3s7.53,7.14,12.4,8.46c9.07,2.47,17.83-5.56,27.23-5.6,4,0,8,1.38,11.77,0s6-5.11,8.91-7.88,8-4.46,10.65-1.48L998.29,147a33.19,33.19,0,0,0,27-4.87l-29.41-9.94a6.45,6.45,0,0,1-2.75-1.47c-2.14-2.3,0-5.89,1.72-8.51,4.16-6.26,4.86-16.57-2-19.69-4.67-2.12-10,.43-14.5,2.93l-21.47,12c-.68,4.08,4.31,6.4,7.4,9.14a12.41,12.41,0,0,1-8.09,21.68,15.45,15.45,0,0,1,2.76,13.1l-14.44,1a6.24,6.24,0,0,1-4.68-.91c-1.55-1.37-1.34-3.78-1.7-5.81-.86-4.91-5.67-8.35-10.57-9.23s-9.93.24-14.79,1.36a8.83,8.83,0,0,1-6.36-.15,6.34,6.34,0,0,1-2.51-3.17c-2.13-5.16-.14-11.24,3.28-15.65s8.11-7.65,12.31-11.33a71.76,71.76,0,0,0,21.34-33.09C948.77,81,957,76.51,965,73.18a73.88,73.88,0,0,1,39.69-7.69l26.92.52c8,.15,16.16.34,23.53,3.38S1068.93,79,1069.44,87a5.41,5.41,0,0,1-1.72,4.93,6.41,6.41,0,0,1-3.41.77c-7.43.26-10.6,2.11-18,2.37Z"/><path id="Shape-23" data-name="Shape" class="cls-1" d="M831.69,179.41a7.91,7.91,0,0,0,2.15-7.93,14.75,14.75,0,0,0-15.26,2.88,25.67,25.67,0,0,0-4.09,5.41c-3.54,5.77-6.67,12.66-4.62,19.12a5.43,5.43,0,0,0,2.49,3.39,6.53,6.53,0,0,0,2.9.46,98.9,98.9,0,0,0,11.66-.72c2.37-.29,5.13-1,6.05-3.17,1.21-2.91-1.72-6.19-.86-9.22a10.21,10.21,0,0,1,2.48-3.57,4.68,4.68,0,0,0,1.47-3.95c-.34-1.42-2.52-2.23-3.3-1"/><path id="Shape-24" data-name="Shape" class="cls-1" d="M851.9,153.21a32.65,32.65,0,0,0-10.57-.67,4.64,4.64,0,0,0-2.25.51,3.84,3.84,0,0,0-1.39,2,10,10,0,0,0,5.82,12.23,12.77,12.77,0,0,1,3.6,1.45c3,2.32,1.08,7.06,1.65,10.8.63,4.2,4.7,7.72,4,11.9-.58,3.3-4.1,5.91-3.54,9.2.6,3.46,5,4.49,8.47,4.77a10.54,10.54,0,0,0,6-.69,9.26,9.26,0,0,0,3.79-5.48A35.17,35.17,0,0,0,869.2,186a12.66,12.66,0,0,0-1.49-5.84,32.28,32.28,0,0,0-3.49-4c-6.69-7.79.35-19.4-12.32-23Z"/><path id="Shape-25" data-name="Shape" class="cls-2" d="M1732,763.09S1219.4,468.83,998.71,524.59c0,0-467.71,50.33-521.92,161.07,0,0-148.67-464.62-202.88-480.11"/><path id="Shape-26" data-name="Shape" class="cls-3" d="M476.79,685.65c86-229.21,860.32-483.2,860.32-483.2-110,27.88-338.4,322.14-338.4,322.14s-120-87.29-270.25-170.86C577.15,269.6,395.12,189.23,273.91,205.55c0,0,1064,34.85,1458.12,557.54"/><path id="Circle" class="cls-4" d="M251.45,205.55A22.46,22.46,0,1,1,273.91,228,22.46,22.46,0,0,1,251.45,205.55Z"/><path id="Circle-2" data-name="Circle" class="cls-4" d="M454.34,685.66a22.46,22.46,0,1,1,22.45,22.45A22.45,22.45,0,0,1,454.34,685.66Z"/><path id="Circle-3" data-name="Circle" class="cls-4" d="M1314.65,202.46a22.46,22.46,0,1,1,22.46,22.45A22.46,22.46,0,0,1,1314.65,202.46Z"/><path id="Circle-4" data-name="Circle" class="cls-4" d="M1709.57,763.09A22.46,22.46,0,1,1,1732,785.55,22.46,22.46,0,0,1,1709.57,763.09Z"/><path id="Circle-5" data-name="Circle" class="cls-4" d="M976.26,524.59a22.46,22.46,0,1,1,22.45,22.46A22.46,22.46,0,0,1,976.26,524.59Z"/></g><path id="Line" class="cls-5" d="M1353,214.45s445.44,105.41,386.1,542.64"/></g></g></g></svg>