<?xml version="1.0" encoding="utf-8"?>
<svg width="2000px" height="2000px" viewBox="0 0 2000 2000" version="1.1" xmlns:xlink="http://www.w3.org/1999/xlink" xmlns="http://www.w3.org/2000/svg">
  <desc>Created with Lunacy</desc>
  <defs>
    <path d="M0 443.014C0 198.344 198.344 0 443.014 0C687.684 0 886.028 198.344 886.028 443.014C886.028 687.684 687.684 886.028 443.014 886.028C198.344 886.028 0 687.684 0 443.014Z" id="path_1" />
    <rect width="2000" height="2000" id="artboard_1" />
    <clipPath id="clip_1">
      <use xlink:href="#artboard_1" clip-rule="evenodd" />
    </clipPath>
    <clipPath id="mask_1">
      <use xlink:href="#path_1" />
    </clipPath>
  </defs>
  <g id="Ultra-HD-Copy-6" clip-path="url(#clip_1)">
    <use xlink:href="#artboard_1" stroke="none" fill="#FFFFFF" />
    <g id="Group-2" transform="translate(100.1099 292.8201)">
      <g id="Shadow--inject-195" transform="translate(0 1309.452)">
        <path d="M0 52.5452C0 23.5253 402.944 0 900 0C1397.06 0 1800 23.5253 1800 52.5452C1800 81.5651 1397.06 105.09 900 105.09C402.944 105.09 0 81.5651 0 52.5452Z" id="path--inject-195" fill="#E9E9E9" stroke="none" />
      </g>
      <g id="Character--inject-195" transform="translate(1050.163 0)">
        <path d="M150.07 2.45937C149.328 15.3172 147.842 27.1074 146.171 39.5938C144.5 52.0803 142.179 63.7312 139.533 75.7071C136.888 87.6829 134.01 99.7052 130.25 111.542C126.626 123.487 122.333 135.218 117.392 146.681L113.493 155.361C112.936 156.661 111.868 158.564 111.033 160.003C110.197 161.442 109.222 163.159 108.294 164.645C104.679 170.307 100.644 175.691 96.2251 180.752C88.0202 190.194 79.1801 199.065 69.7668 207.303C51.5462 223.345 32.1683 238.022 11.7902 251.215L0 235.989C8.30887 227.959 16.7569 219.65 24.9265 211.388C33.0961 203.125 41.1728 194.677 48.8318 186.136C56.4019 177.841 63.5441 169.165 70.2304 160.142C73.2651 155.979 76.025 151.622 78.4928 147.099C78.957 146.078 79.5605 145.01 79.9782 144.035C80.4818 142.992 80.9312 141.923 81.3244 140.833L84.2952 133.081C91.8267 111.766 97.693 89.8996 101.841 67.6775C104.07 56.4908 105.694 45.1184 107.365 33.7923C109.036 22.4663 110.29 10.5833 111.311 0L150.07 2.45937Z" transform="translate(59.693 282.1298)" id="Shape" fill="#FFB573" stroke="none" />
        <path d="M26.5976 2.61824C10.9547 6.5638 0 71.0385 0 71.0385L43.1688 100.375C43.1688 100.375 84.5273 35.3895 72.505 18.1683C59.833 0.204481 49.4817 -3.23048 26.5976 2.61824L26.5976 2.61824Z" transform="translate(156.7073 235.6921)" id="Shape" fill="#407BFF" stroke="none" />
        <path d="M12.0223 0L0 64.9389L24.2302 81.4173L12.0223 0L12.0223 0Z" transform="translate(172.7216 252.6999)" id="Polygon" fill="#000000" fill-opacity="0.2" stroke="none" />
        <path d="M43.076 0L0 3.11L25.7156 31.9356C25.7156 31.9356 49.5281 26.5047 53.5665 11.2796L43.076 0Z" transform="translate(23.76603 512.6411)" id="Shape" fill="#FFB573" stroke="none" />
        <path d="M0 15.2716L17.6388 42.4262L49.4817 28.8257L23.766 0L0 15.2716L0 15.2716Z" transform="translate(0 515.7511)" id="Polygon" fill="#FFB573" stroke="none" />
        <path d="M40.523 88.0085L2.50662 88.0085L0 0L37.9699 0L40.523 88.0085L40.523 88.0085Z" transform="translate(227.5413 1235.185)" id="Polygon" fill="#FFB573" stroke="none" />
        <path d="M79.7462 76.8683L44.5614 91.2114L0 14.3896L35.1848 0L79.7462 76.8683L79.7462 76.8683Z" transform="translate(451.1372 1134.318)" id="Polygon" fill="#FFB573" stroke="none" />
        <path d="M41.2945 22.2639L78.0112 0.447352C79.3127 -0.353292 81.0077 -0.0542545 81.9566 1.14359L103.402 27.6947C104.431 29.0892 104.822 30.8545 104.476 32.553C104.131 34.2516 103.083 35.7245 101.591 36.6071C88.6871 43.9875 82.0494 46.9119 65.8959 56.474C55.9623 62.369 32.614 82.6074 18.9208 90.777C5.22756 98.9466 -3.59199 85.7639 1.42124 81.1684C17.5915 66.5425 29.8329 48.0927 37.024 27.5092C37.7936 25.3169 39.3039 23.4619 41.2946 22.2639L41.2945 22.2639Z" transform="translate(447.7662 1198.021)" id="Shape" fill="#263238" stroke="none" />
        <path d="M62.0262 0.00212485L104.731 0.00212485C106.262 -0.0559543 107.579 1.07829 107.748 2.60152L112.39 36.3938C112.575 38.1159 112.017 39.8351 110.856 41.1202C109.695 42.4054 108.041 43.1344 106.309 43.1245C91.4091 42.8924 84.2607 42.0105 65.4614 42.0105C53.9034 42.0105 30.0444 43.2174 14.0766 43.2174C-1.89126 43.2174 -2.72675 27.4353 3.911 25.9964C33.7115 19.5907 45.4088 10.7713 55.4351 2.32317C57.287 0.791293 59.6233 -0.0314477 62.0264 0.00212485L62.0262 0.00212485Z" transform="translate(166.722 1318.781)" id="Shape" fill="#263238" stroke="none" />
        <g id="Group" transform="translate(227.5413 1134.318)" opacity="0.2">
          <path d="M0 0L1.2997 45.3968L39.3161 45.3968L38.0164 0L0 0L0 0Z" transform="translate(0 100.8665)" id="Polygon" fill="#000000" fill-opacity="0.2" stroke="none" />
          <path d="M35.1848 0L0 14.3896L22.9769 53.9842L58.1618 39.6411L35.1848 0L35.1848 0Z" transform="translate(223.5959 0)" id="Polygon" fill="#000000" fill-opacity="0.2" stroke="none" />
        </g>
        <path d="M4.51417 11.0024C4.51417 11.0024 -13.5888 17.3617 22.7101 240.354L177.004 240.354C174.404 177.55 174.312 138.791 204.344 9.88842C182.737 5.41178 160.831 2.52616 138.802 1.25465C115.468 -0.418241 92.0444 -0.418241 68.7106 1.25465C38.6779 3.99323 4.51417 11.0024 4.51417 11.0024L4.51417 11.0024Z" transform="translate(178.7907 227.308)" id="Shape" fill="#407BFF" stroke="none" />
        <path d="M97.2647 1.25472C73.9309 -0.418241 50.5073 -0.418241 27.1734 1.25465C18.7718 1.99736 10.0452 3.11135 1.82921 4.2718L1.82921 4.2718C-1.74493 17.8259 -1.04868 36.7644 12.7838 61.5517L12.7838 61.5517C17.3619 69.7282 27.3151 73.2119 35.9928 69.6748L35.9928 69.6748C47.2261 65.033 104.088 41.1278 122.377 11.513L127.019 3.85405C117.828 2.74014 107.57 1.76533 97.2647 1.25472L97.2647 1.25472Z" transform="translate(220.374 227.3078)" id="Shape" fill="#EEEEEE" stroke="none" />
        <path d="M195.327 86.0591C195.327 141.761 149.466 178.524 100.867 201.779C50.5958 225.824 0 156.615 0 100.913C-0.00920768 74.1418 10.6153 48.4753 29.535 29.5513C48.4547 10.6273 74.1186 -0.00311645 100.878 0C156.568 -3.54142e-05 195.327 30.3574 195.327 86.0591L195.327 86.0591Z" transform="translate(187.8538 10.9547)" id="Shape" fill="#263238" stroke="none" />
        <path d="M74.0554 32.6319C74.0554 53.7522 59.3873 76.497 38.2207 76.497C17.1072 76.4816 -0.00042497 59.3613 0 38.2478C0.000283313 17.1344 17.1084 0.0146969 38.2218 0C59.3873 0 74.0554 11.5117 74.0554 32.6319L74.0554 32.6319Z" transform="translate(321.9371 0)" id="Shape" fill="#263238" stroke="none" />
        <path d="M69.4436 0C64.8018 22.5128 60.5778 63.8712 76.3599 78.9107C76.3599 78.9107 70.1863 101.795 28.3172 101.795C-17.7759 101.795 6.26859 78.9107 6.26859 78.9107C31.4272 72.8763 30.7773 54.2163 26.414 36.7167L69.4436 0Z" transform="translate(241.2789 149.6518)" id="Shape" fill="#FFB573" stroke="none" />
        <path d="M78.9102 1.25472C55.5763 -0.418241 32.1527 -0.418241 8.81884 1.25465L4.17703 1.71886C-0.567477 11.4134 -1.30126 22.587 2.13462 32.8189C3.5774 38.1403 7.31076 42.5452 12.3237 44.8409C17.3367 47.1366 23.1106 47.0857 28.0822 44.7019C47.4849 35.4183 77.5639 18.847 88.0544 1.85804C85.0837 1.62608 81.9738 1.39397 78.9102 1.25472L78.9102 1.25472Z" transform="translate(238.7286 227.3078)" id="Shape" fill="#FFB573" stroke="none" />
        <path d="M25.5764 0L0 21.8629C1.08212 25.9395 1.81193 30.1014 2.18151 34.3029C11.7901 32.9103 24.9728 22.3734 25.994 12.3007C26.5965 8.20879 26.4549 4.04168 25.5764 7.08283e-05L25.5764 0Z" transform="translate(267.6001 164.6448)" id="Shape" fill="#000000" fill-opacity="0.2" stroke="none" />
        <path d="M103.012 42.5025C110.021 79.6369 113.781 95.0941 100.088 118.489C79.478 153.674 32.4102 154.184 14.4928 119.928C-1.66078 89.1526 -10.3873 33.683 21.6875 10.1491C36.0016 -0.486803 54.8036 -2.94873 71.3734 3.64327C87.9434 10.2353 99.916 24.9403 103.012 42.5025L103.012 42.5025Z" transform="translate(211.3774 48.66265)" id="Shape" fill="#FFB573" stroke="none" />
        <path d="M27.6284 0.0927851C27.6284 0.0927851 -2.35759 292.852 0.148881 408.572C2.70182 529.259 46.8919 804.007 46.8919 804.007L98.3695 804.007C98.3695 804.007 90.2464 536.129 94.7954 417.763C99.7157 288.674 140.749 0 140.749 0L27.6284 0.0927851Z" transform="translate(173.8724 467.5692)" id="Shape" fill="#263238" stroke="none" />
        <path d="M64.7068 21.5845L4.40977 21.5845L0 2.36736L67.4919 0L64.7068 21.5845L64.7068 21.5845Z" transform="translate(211.8984 1252.034)" id="Polygon" fill="#407BFF" stroke="none" />
        <path d="M18.4004 18.0925C-19.5233 94.3574 10.7877 233.472 24.2026 285.228C31.0725 207.525 42.7698 112.46 51.6822 42.6941C45.787 3.2387 35.8999 -17.046 18.4004 18.0925L18.4004 18.0925Z" transform="translate(249.664 522.3995)" id="Shape" fill="#000000" fill-opacity="0.2" stroke="none" />
        <path d="M0 0C0 0 34.9528 304.363 61.3647 402.073C92.6969 518.118 220.068 715.999 220.068 715.999L268.018 696.41C268.018 696.41 185.812 471.051 161.813 409.918C110.753 279.483 154.479 84.9915 113.585 0L0 0Z" transform="translate(242.2559 467.662)" id="Shape" fill="#263238" stroke="none" />
        <path d="M73.4799 23.534L13.9719 47.8572L0 31.7036L68.7453 0L73.4799 23.534L73.4799 23.534Z" transform="translate(443.3388 1140.77)" id="Polygon" fill="#407BFF" stroke="none" />
        <path d="M7.32336 4.71618C8.06606 7.68693 7.09132 10.472 5.18817 10.9826C3.28501 11.4932 1.0569 9.45084 0.267872 6.34084C-0.521154 3.23084 0.499906 0.584971 2.44952 0.0743698C4.39914 -0.436232 6.58065 1.74542 7.32336 4.71618L7.32336 4.71618Z" transform="translate(251.3181 110.8648)" id="Shape" fill="#263238" stroke="none" />
        <path d="M7.28894 4.71618C8.07811 7.68693 7.28894 10.5184 5.15375 10.9826C3.01856 11.4469 1.02248 9.45084 0.279914 6.34084C-0.462651 3.23084 0.279914 0.584971 2.4151 0.0743698C4.55029 -0.436232 6.54638 1.74542 7.28894 4.71618L7.28894 4.71618Z" transform="translate(217.7457 119.3593)" id="Shape" fill="#263238" stroke="none" />
        <path d="M7.65895 0L0 0C0 0 4.96677 10.4439 7.65895 0L7.65895 0Z" transform="translate(213.5231 119.5266)" id="Shape" fill="#263238" stroke="none" />
        <path d="M5.80225 0C4.86973 7.44229 2.91742 14.7209 0 21.6308C3.61777 23.0583 7.68303 22.8032 11.094 20.9345L5.80225 0Z" transform="translate(230.9762 126.8142)" id="Shape" fill="#ED893E" stroke="none" />
        <path d="M5.45761 14.8372C4.05025 15.407 2.60847 15.8876 1.14076 16.2762C0.658704 16.3712 0.181179 16.0927 0.0267731 15.6263C-0.0920769 15.1405 0.195345 14.6479 0.676694 14.5122C8.1845 12.784 14.4426 7.62622 17.5729 0.586812C17.7395 0.125366 18.2488 -0.113609 18.7102 0.0530504C19.1715 0.219709 19.4105 0.728823 19.2439 1.19027C16.6576 7.39929 11.6925 12.3141 5.45761 14.8372L5.45761 14.8372Z" transform="translate(255.7833 140.4776)" id="Shape" fill="#263238" stroke="none" />
        <path d="M5.70367 25.2497C5.70367 25.2497 55.3711 76.3095 104.899 76.3095C145.654 76.3095 144.308 7.98214 90.4166 5.15064C36.5253 2.31913 -18.0159 -12.2561 5.70367 25.2497L5.70367 25.2497Z" transform="translate(214.6892 38.25024)" id="Shape" fill="#263238" stroke="none" />
        <path d="M26.5174 14.5471C25.5747 21.7774 21.8018 28.3381 16.0269 32.7895C8.32147 38.6381 0.941024 32.7895 0.105534 23.5059C-0.637171 15.2899 2.4729 2.33925 11.6173 0.296842C15.66 -0.603882 19.8853 0.574418 22.8785 3.43709C25.8717 6.29969 27.2372 10.4684 26.5175 14.5471L26.5174 14.5471Z" transform="translate(306.3 107.8108)" id="Shape" fill="#FFB573" stroke="none" />
        <path d="M21.7462 4.72723C21.1991 5.28698 20.3486 5.41936 19.6573 5.05219C12.2768 1.24587 2.71471 6.11978 2.62178 6.16624C1.75017 6.62783 0.66947 6.29544 0.207952 5.42389C-0.253566 4.55235 0.0787612 3.47165 0.950234 3.01013C1.41444 2.73164 12.2763 -2.79212 21.3278 1.84968C21.7507 2.06684 22.068 2.44556 22.2078 2.9C22.3476 3.35443 22.2982 3.84605 22.0704 4.26344C21.9895 4.43534 21.8797 4.59223 21.7462 4.72723L21.7462 4.72723Z" transform="translate(243.5331 92.70428)" id="Shape" fill="#263238" stroke="none" />
        <path d="M2.51129 10.3975C1.92455 10.644 1.2504 10.5553 0.747381 10.1654C-0.0535463 9.5845 -0.239542 8.46824 0.329494 7.65896C3.6631 2.89865 9.09352 0.0450468 14.9048 0C15.8867 0.074299 16.6291 0.919848 16.5758 1.90316C16.5641 2.37941 16.3601 2.83059 16.0103 3.15406C15.6607 3.47753 15.195 3.64582 14.7193 3.6206C10.1296 3.72515 5.86742 6.02013 3.25386 9.79422C3.06319 10.0567 2.80721 10.2647 2.51129 10.3975L2.51129 10.3975Z" transform="translate(205.1166 94.73946)" id="Shape" fill="#263238" stroke="none" />
        <path d="M4.01979 9.91167L4.484 9.91167C9.17213 10.4687 15.7636 4.99139 19.1987 1.60284C19.4839 1.36542 19.5784 0.968502 19.4308 0.628103C19.3125 0.293795 18.9962 0.070403 18.6416 0.0711113C17.0633 -0.0216734 3.32355 -0.532202 0.584901 3.45966C-0.0789028 4.364 -0.186137 5.56184 0.306403 6.56958C0.892721 8.24438 2.29286 9.50441 4.01979 9.91167ZM2.02385 4.43426C3.50926 2.34554 10.8897 1.74209 16.367 1.74209C11.3538 6.15184 6.99048 8.65844 4.4374 8.10116C3.29593 7.80737 2.38479 6.94879 2.02385 5.82674C1.7751 5.39596 1.7751 4.86503 2.02385 4.43426Z" transform="translate(470.0015 1224.762)" id="Shape" fill="#407BFF" fill-rule="evenodd" stroke="none" />
        <path d="M0.177071 4.72962C1.47677 8.44301 9.87842 11.6459 14.5202 12.2029L15.8664 12.2958C16.1857 12.2674 16.4755 12.097 16.6554 11.8316C16.8213 11.5443 16.8213 11.1904 16.6554 10.9032C16.4234 10.5319 10.8068 1.15549 5.37587 0.087827C4.00307 -0.176221 2.58311 0.161913 1.47663 1.01624C0.230617 1.79974 -0.308528 3.34026 0.177071 4.72962ZM3.93706 2.54797C4.55128 2.05728 5.3396 1.83927 6.11857 1.94452L6.25796 1.94452C9.64653 2.5943 13.4992 7.4218 15.5416 10.4389C10.9462 9.83549 4.12277 6.72556 3.24082 4.21895C3.05511 3.80121 3.00864 3.24422 3.93706 2.54797Z" transform="translate(472.6837 1214.302)" id="Shape" fill="#407BFF" fill-rule="evenodd" stroke="none" />
        <path d="M1.66206 7.30746C4.40581 9.1072 7.67794 9.92526 10.9457 9.62835L10.9458 9.62835C14.9554 9.55115 18.9493 9.10054 22.8753 8.28234C23.2412 8.20712 23.5201 7.90964 23.5714 7.53949C23.6344 7.16212 23.4469 6.78702 23.1072 6.61108C21.3896 5.68267 6.21094 -2.06903 1.56913 0.53036C0.680519 0.998107 0.10001 1.89536 0.037539 2.89771C-0.161914 4.54347 0.442677 6.18456 1.66206 7.30746ZM2.49783 2.10869C3.01884 1.86193 3.5934 1.75016 4.16881 1.78373L4.16867 1.78387C9.67388 2.59939 14.9972 4.35804 19.9046 6.9825C11.5029 8.37498 5.23648 8.05016 2.91558 5.96131C2.13122 5.22271 1.75102 4.15123 1.89437 3.08342C1.90018 2.67206 2.13222 2.29723 2.49783 2.10869Z" transform="translate(203.5522 1315.793)" id="Shape" fill="#407BFF" fill-rule="evenodd" stroke="none" />
        <path d="M12.8501 17.1611L13.3143 17.1611L13.3143 17.1613C13.459 17.1632 13.6022 17.1314 13.7322 17.068C14.0108 16.888 14.1566 16.5601 14.1035 16.2326C14.057 15.8148 13.0823 5.6028 8.44048 1.61092C7.05508 0.42242 5.24385 -0.147748 3.42724 0.0328643C0.920628 0.311361 0.0386723 1.5646 0.0386723 2.5858C-0.657571 6.90278 8.2083 15.0722 12.8501 17.1611ZM3.56649 1.75045L4.0307 1.75045L4.26273 1.75031C5.4229 1.72892 6.54908 2.14298 7.41913 2.91076C10.1217 6.24606 11.7412 10.3272 12.0609 14.6082C7.46559 11.8232 1.33837 5.37105 1.80258 2.77165C1.80258 2.58594 1.94183 1.75045 3.56649 1.75045Z" transform="translate(212.9738 1306.914)" id="Shape" fill="#407BFF" fill-rule="evenodd" stroke="none" />
        <path d="M7.65895 0.50497L0 0C0 0 5.10601 10.0988 7.65895 0.50497L7.65895 0.50497Z" transform="translate(246.9905 110.7999)" id="Shape" fill="#263238" stroke="none" />
        <path d="M161.442 1.11555L165.388 15.041C165.898 16.155 164.645 17.2226 162.835 17.2226L3.99189 17.2226C2.5994 17.2226 1.43895 16.5264 1.39249 15.6908L0 1.7654C0 0.790586 1.06767 0.0014874 2.5994 0.0014874L159.075 0.0014874C159.997 -0.028048 160.877 0.386227 161.442 1.11562L161.442 1.11555Z" transform="translate(196.7198 457.4949)" id="Shape" fill="#407BFF" stroke="none" />
        <path d="M161.442 1.11555L165.388 15.041C165.898 16.155 164.645 17.2226 162.835 17.2226L3.99189 17.2226C2.5994 17.2226 1.43895 16.5264 1.39249 15.6908L0 1.7654C0 0.790586 1.06767 0.0014874 2.5994 0.0014874L159.075 0.0014874C159.997 -0.028048 160.877 0.386227 161.442 1.11562L161.442 1.11555Z" transform="translate(196.7198 457.4949)" id="Shape" fill="#FAFAFA" fill-opacity="0.2" stroke="none" />
        <path d="M3.57668 19.8753L7.80074 19.8753C8.63623 19.8753 9.23968 19.4576 9.19322 18.947L7.2436 0.983238C6.97899 0.333247 6.31703 -0.0639579 5.61895 0.00849939L1.44135 0.00849939C0.605865 0.00849939 -0.0440552 0.472708 0.00240816 0.983309L1.95203 18.9471C1.95203 19.4575 2.64827 19.8753 3.57668 19.8753L3.57668 19.8753Z" transform="translate(333.6505 456.1883)" id="Shape" fill="#263238" stroke="none" />
        <path d="M3.62315 19.8669L7.80075 19.8669C8.63624 19.8669 9.2397 19.4492 9.19324 18.9386L7.24361 0.97481C7.24361 0.464209 6.45445 0 5.61895 0L1.44136 0C0.605866 0 -0.0440552 0.464209 0.00240816 0.97481L1.99835 18.9386C2.04496 19.4491 3.0197 19.8669 3.62315 19.8669L3.62315 19.8669Z" transform="translate(208.8787 456.1967)" id="Shape" fill="#263238" stroke="none" />
        <path d="M3.62315 19.8669L7.80074 19.8669C8.63623 19.8669 9.23968 19.4492 9.19322 18.9386L7.2436 0.97481C7.2436 0.464209 6.45443 0 5.61895 0L1.44135 0C0.605865 0 -0.0440552 0.464209 0.00240816 0.97481L1.99835 18.9386C2.04495 19.4491 2.78766 19.8669 3.62315 19.8669L3.62315 19.8669Z" transform="translate(271.2182 456.1967)" id="Shape" fill="#263238" stroke="none" />
        <path d="M33.4211 23.8589L0 0L3.11007 38.527C3.11007 38.527 25.3907 48.5069 37.8772 38.8984L33.4211 23.8589Z" transform="translate(259.5697 442.3177)" id="Shape" fill="#FFB573" stroke="none" />
        <path d="M114.699 0C117.577 22.6984 120.037 45.4897 122.312 68.281C124.586 91.0723 126.721 113.864 128.624 136.655L128.949 140.925L128.949 143.2C128.949 144.407 128.949 145.614 128.949 146.82C128.985 151.885 128.056 156.911 126.211 161.628C122.754 169.935 116.925 177.039 109.454 182.052C103.601 186.09 97.2306 189.322 90.5152 191.66C84.4502 193.809 78.2471 195.546 71.948 196.859C48.3263 201.369 24.213 202.742 0.232034 200.944L0 181.727C10.8153 180.288 22.0486 178.57 32.8176 176.389C43.6096 174.371 54.2491 171.611 64.6603 168.126C73.7415 165.484 82.2775 161.239 89.8653 155.593C91.9407 154.113 93.4736 151.994 94.2286 149.559C94.3475 148.883 94.3475 148.192 94.2286 147.517L93.2074 140.6C89.8653 117.902 86.7552 95.2498 83.9238 72.505C81.0924 49.7602 78.2143 27.0153 75.8934 4.22399L114.699 0Z" transform="translate(286.4923 282.9645)" id="Shape" fill="#FFB573" stroke="none" />
        <path d="M42.519 0.855465C57.9761 5.49727 76.5898 58.7852 76.5898 58.7852L16.5713 101.675C16.5713 101.675 -5.29158 57.2534 1.20691 37.2472C7.93759 16.4519 24.8801 -4.52905 42.519 0.855465L42.519 0.855465Z" transform="translate(340.6621 236.3408)" id="Shape" fill="#407BFF" stroke="none" />
        <path d="M34.4404 19.6343C70.7809 -9.15215 122.967 -5.95468 155.522 27.0529C188.462 59.6376 191.6 111.792 162.803 148.091C134.008 184.389 82.507 193.199 43.2829 168.535L9.90832 172.527L13.9467 139.199C-10.7328 99.9535 -1.8999 48.4206 34.4404 19.6343ZM64.4961 64.466C49.7042 79.2579 49.7042 103.24 64.496 118.032C71.5933 125.147 81.2298 129.146 91.2793 129.146C101.329 129.146 110.965 125.147 118.063 118.032C132.854 103.24 132.854 79.2579 118.062 64.466C103.271 49.6741 79.2881 49.6741 64.4961 64.466Z" transform="translate(67.98119 351.6257)" id="Shape" fill="#407BFF" fill-rule="evenodd" stroke="none" />
        <path d="M34.4404 19.6343C70.7809 -9.15215 122.967 -5.95468 155.522 27.0529C188.462 59.6376 191.6 111.792 162.803 148.091C134.008 184.389 82.507 193.199 43.2829 168.535L9.90832 172.527L13.9467 139.199C-10.7328 99.9535 -1.8999 48.4206 34.4404 19.6343ZM64.4961 64.466C49.7042 79.2579 49.7042 103.24 64.496 118.032C71.5933 125.147 81.2298 129.146 91.2793 129.146C101.329 129.146 110.965 125.147 118.063 118.032C132.854 103.24 132.854 79.2579 118.062 64.466C103.271 49.6741 79.2881 49.6741 64.4961 64.466Z" transform="translate(67.98119 351.6257)" id="Shape" fill="#000000" fill-opacity="0.4" fill-rule="evenodd" stroke="none" />
        <path d="M0 1.43895L4.36317 33.5603L35.0456 38.527L31.9355 0L0 1.43895L0 1.43895Z" transform="translate(227.6342 442.3177)" id="Polygon" fill="#FFB573" stroke="none" />
      </g>
      <path d="M520.85 890.441L520.85 890.441C310.194 890.451 120.277 763.56 39.661 568.94C-40.9549 374.32 3.60824 150.301 152.569 1.34985C154.38 -0.449902 157.304 -0.449902 159.114 1.34985L214.259 56.4481C216.079 58.2682 216.079 61.2192 214.259 63.0393C212.439 64.8596 209.488 64.8596 207.668 63.0393L155.865 11.2367C-40.8315 211.509 -39.3837 532.88 159.109 731.373C357.602 929.865 678.973 931.312 879.246 734.615L827.35 682.719C825.53 680.899 825.53 677.949 827.349 676.128C829.169 674.308 832.12 674.307 833.94 676.127L889.131 731.318C890.01 732.189 890.505 733.376 890.505 734.614C890.505 735.851 890.01 737.038 889.131 737.909C791.663 835.889 659.053 890.812 520.85 890.441L520.85 890.441Z" transform="translate(211.8628 400.4868)" id="Shape" fill="#407BFF" stroke="none" />
      <path d="M0 443.014C0 198.344 198.344 0 443.014 0C687.684 0 886.028 198.344 886.028 443.014C886.028 687.684 687.684 886.028 443.014 886.028C198.344 886.028 0 687.684 0 443.014Z" transform="translate(289.6992 327.1035)" id="Circle" fill="none" stroke="#407AFF" stroke-width="5" />
      <g id="Group" transform="translate(286.8906 324.1802)">
        <path d="M0 443.014C0 198.344 198.344 0 443.014 0C687.684 0 886.028 198.344 886.028 443.014C886.028 687.684 687.684 886.028 443.014 886.028C198.344 886.028 0 687.684 0 443.014Z" id="Circle" fill="none" stroke="none" />
        <g clip-path="url(#mask_1)">
          <path d="M438.493 0L478.226 7.61256C474.745 10.2584 472.331 14.3432 468.711 16.8962C497.119 17.2211 527.151 13.9718 554.538 21.538C580.114 28.6863 602.07 19.542 628.203 22.3271C643.521 23.9981 812.622 35.3705 807.748 58.3011C795.819 56.4444 780.222 50.5029 768.989 57.0478L789.135 65.6815C778.458 71.5766 749.679 76.5898 749.818 86.7553C749.818 94.043 759.845 97.2922 762.537 103.791C765.229 110.289 764.022 120.594 764.626 127.417C756.317 119.898 733.665 106.483 730.509 96.4102C727.352 86.3375 745.78 67.6775 718.718 71.6694C708.831 73.1084 709.852 81.9742 707.3 82.949C700.987 85.4091 689.243 83.5988 682.373 83.8309C659.582 84.62 661.114 88.9369 650.994 108.618C664.688 111.078 682.605 110.893 691.564 119.898C700.522 128.903 707.439 158.703 697.412 167.848C692.492 172.489 685.437 168.869 682.327 171.329C679.216 173.789 673.693 186.833 674.714 190.407C677.592 200.479 709.156 211.759 680.934 219.186C677.36 213.291 669.469 192.449 663.249 189.989C654.476 186.508 644.032 200.294 643.753 182.098L631.128 192.867C637.249 200.291 647.079 203.556 656.426 201.269C638.555 205.91 650.763 219.836 656.147 226.195C664.456 235.943 664.92 236.221 665.431 247.13C666.405 267.182 652.666 283.243 632.056 287.792C621.705 290.066 614.185 286.632 607.501 293.919C597.335 304.92 607.222 305.802 612.932 314.947C616.924 321.399 625.047 334.396 623.701 342.194C622.54 348.832 609.775 357.001 604.252 362.2C597.242 351.942 591.997 338.295 578.443 334.999C577.236 351.942 575.705 358.44 587.727 371.577C591.44 375.615 596.036 377.657 598.589 382.021C601.142 386.384 600.492 395.621 603.23 401.331C567.767 382.299 573.291 346 561.129 312.347C553.053 332.957 545.208 304.781 541.68 298.422C533.696 284.496 525.387 279.855 509.652 289.138C502.039 293.548 481.522 313.043 478.505 321.027C471.542 339.316 484.215 346.697 469.222 362.804C457.988 354.866 455.296 337.459 451.118 325.669C446.477 312.765 438.261 298.422 439.514 284.357C431.252 302.042 419.554 280.133 411.942 273.681C400.708 264.397 393.374 268.482 378.381 267.09C372.529 265.993 366.794 264.346 361.253 262.169C364.177 262.958 354.569 256.506 355.915 257.063C353.919 256.181 350.763 259.988 347.978 258.92C339.204 255.485 322.819 237.753 315.067 242.163C318.409 248.755 325.047 267.6 331.824 271.36C342.361 277.209 350.391 265.279 358.514 266.718C364.78 270.952 370.275 276.227 374.761 282.315C376.153 288.395 374.761 286.214 370.119 294.151C364.796 304.41 356.181 312.584 345.657 317.36C337.441 322.002 318.363 334.071 308.522 334.303C295.711 334.581 295.943 329.104 290.466 318.799C284.988 308.494 259.69 246.155 247.343 253.21C256.998 274.099 265.214 296.611 277.144 316.432C281.414 323.534 293.529 346.65 301.281 349.806C310.565 353.566 328.296 345.165 336.419 342.704C332.474 379.839 301.977 393.764 284.153 422.358C267.999 448.074 297.382 478.06 277.933 500.619C272.734 506.699 258.298 509.531 254.724 516.447C251.753 522.157 257.416 530.883 255.652 537.243C253.331 545.551 248.318 542.534 243.212 549.868C239.034 555.81 240.381 564.351 235.599 571.128C227.855 583.82 215.111 592.653 200.507 595.451C178.273 600.464 176.37 599.768 169.082 580.318L146.569 520.625C140.906 505.539 143.274 499.551 147.823 483.49C152.372 467.43 154.043 463.763 147.312 449.187C142.315 440.096 137.927 430.684 134.176 421.011C131.715 412.749 134.176 406.622 133.108 398.034C132.18 391.257 132.458 387.59 126.145 382.067C124.428 380.535 118.486 383.691 116.351 382.577C114.216 381.463 112.22 374.686 109.574 374.176C98.4801 372.087 83.255 379.514 70.4435 380.024C50.948 380.767 37.9509 380.442 25.1395 368.466C12.3282 356.49 1.1414 342.89 0.120196 324.88C-2.10785 285.517 27.1819 271.128 43.4283 239.377C48.8128 228.841 43.4283 224.988 57.1216 216.911C64.0379 212.78 65.941 213.151 74.6212 211.527C95.2309 207.674 116.908 206.885 137.75 204.378C135.94 220.068 134.64 217.7 147.405 225.406C157.57 231.533 169.361 236.035 179.897 241.234C183.472 218.907 213.365 235.2 229.797 236.592C254.955 238.821 250.546 226.845 254.77 205.817C244.929 206.328 231.979 209.252 222.602 206.142C208.677 201.5 210.812 195.605 208.677 182.655L193.173 185.486C196.509 191.774 196.9 199.214 194.241 205.817C188.956 201.014 184.096 195.765 179.712 190.128C177.669 186.786 177.484 180.287 175.627 177.827C168.943 168.961 156.178 161.674 147.498 154.618C137.1 169.426 161.423 180.937 172.006 186.647C161.934 198.53 159.102 210.413 144.666 197.601C160.912 198.623 162.723 194.445 154.739 183.258C146.244 171.282 135.011 164.691 122.942 165.387C121.086 165.387 119.647 170.447 117.79 170.632C115.933 170.818 110.27 166.873 108.506 167.755C106.743 168.637 103.54 166.641 101.961 167.337C100.383 168.033 102.751 173.696 101.961 174.439C94.8595 180.752 89.6607 190.407 83.3942 196.859C75.0854 205.539 66.1731 213.337 53.4546 206.142C44.171 200.711 40.736 182.237 46.8632 172.536C54.3365 160.699 70.815 175.46 81.5375 167.476C92.2601 159.492 77.8705 147.238 72.2539 141.064C81.0461 138.454 89.6273 135.18 97.9232 131.27C107.207 125.932 104.561 121.708 112.127 116.138C117.976 111.774 121.921 114.467 125.728 109.5C131.344 102.212 119.043 94.5069 135.522 93.7642C126.517 116.973 167.133 114.095 178.876 105.787C181.383 104.023 179.201 98.1275 180.965 95.6209C183.205 93.3954 185.627 91.3614 188.206 89.5403L188.206 83.3666L196.097 83.3666C201.389 79.4675 205.01 86.5695 207.609 77.0074C196.19 78.9569 189.645 83.1346 182.358 75.7077C172.053 65.2172 180.872 62.7106 190.017 55.3766C173.26 43.4007 148.612 77.2859 169.128 80.303C165.276 84.9448 154.924 103.744 149.215 104.951C137.843 107.411 139.931 91.5826 138.4 83.8772C130.787 86.8944 125.635 90.6543 120.482 87.405C114.541 83.6915 114.726 73.7581 116.444 70.6945C119.972 64.428 136.125 62.2928 142.252 57.4189C148.38 52.545 151.536 42.4723 158.592 37.9697C182.126 22.5589 228.683 28.2219 250.174 44.7003C240.38 50.6418 228.172 46.7427 217.403 45.4894C223.716 53.8447 232.536 64.0566 244.001 60.4824C245.44 60.0182 248.132 52.6842 250.824 50.9667C256.998 46.9284 267.628 45.0716 274.683 42.5651C298.31 34.2563 316.459 34.0706 341.339 38.6195C329.224 6.12686 348.813 24.6941 371.326 20.6557C382.095 18.7526 391.982 10.2581 402.379 6.96242C414.269 3.93352 426.328 1.60872 438.492 7.08283e-05L438.493 0Z" transform="translate(-40.66895 139.074)" id="Shape" fill="#407BFF" stroke="none" />
          <path d="M27.1081 44.0972L0 50.0387C2.97075 45.6754 11.0475 37.9235 11.5116 33.0961C12.44 22.8377 6.86984 28.1758 5.19879 24.3695C-2.50661 8.49451 1.67105 7.98391 16.0142 0C17.9637 7.84466 18.5207 18.8922 22.4663 26.1798C26.4119 33.4674 38.2949 36.856 27.1081 44.0972L27.1081 44.0972Z" transform="translate(25.1792 221.5588)" id="Shape" fill="#000000" fill-opacity="0.2" stroke="none" />
          <path d="M19.8669 2.03929C11.9759 15.5934 18.428 15.4541 0 18.4249C4.73467 7.4702 2.04241 -4.96981 19.8669 2.03929L19.8669 2.03929Z" transform="translate(7.911621 244.6782)" id="Shape" fill="#000000" fill-opacity="0.2" stroke="none" />
          <path d="M21.4951 25.6971C-10.5798 15.9957 39.7374 1.8846 46.0503 0.306403C32.9604 0.306403 14.7181 -2.33946 4.27406 7.91896C-7.1912 19.2914 6.40925 32.1028 21.4951 25.6971L21.4951 25.6971Z" transform="translate(240.7412 141.3206)" id="Shape" fill="#407BFF" stroke="none" />
          <path d="M20.8881 13.7263L32.4926 4.44271C22.2171 0.204694 10.951 -1.03459 0 0.868426L20.8881 13.7263Z" transform="translate(93.646 127.9006)" id="Shape" fill="#000000" fill-opacity="0.2" stroke="none" />
          <path d="M0 0C8.5409 9.28362 20.1454 4.64181 31.5178 3.20286C20.981 1.71745 10.6297 0.696243 0 0L0 0Z" transform="translate(120.9863 125.3342)" id="Shape" fill="#000000" fill-opacity="0.2" stroke="none" />
          <path d="M0 41.7356C2.59019 47.1239 5.98684 52.0859 10.0728 56.4502C14.7146 36.2583 27.3403 46.5631 40.5695 34.3088C47.7179 27.7175 47.2073 13.792 37.6916 4.36919C24.3232 -8.95277 34.9994 11.564 29.6612 20.9869C23.7196 31.1987 7.65896 31.6629 0 41.7356L0 41.7356Z" transform="translate(658.2754 319.7737)" id="Shape" fill="#407BFF" stroke="none" />
          <path d="M5.663 22.1878L9.79427 20.656C9.14435 19.1242 8.4481 17.5924 7.75186 16.0142C15.3645 18.7993 22.977 18.7528 25.2978 10.4441L0 0C7.05562 9.70135 -3.80617 14.9001 5.663 22.1878L5.663 22.1878Z" transform="translate(679.5347 295.8276)" id="Shape" fill="#407BFF" stroke="none" />
          <path d="M26.0605 42.7046L32.5127 42.7046C23.0357 27.6086 12.3228 13.3247 0.484182 0C-3.64694 9.51571 19.8405 33.1425 26.0605 42.7046L26.0605 42.7046Z" transform="translate(651.6641 249.4097)" id="Shape" fill="#407BFF" stroke="none" />
          <path d="M5.67004 0C-1.71035 3.29564 -1.38539 10.7226 3.7669 16.9426L5.67004 0Z" transform="translate(628.9321 408.2522)" id="Shape" fill="#407BFF" stroke="none" />
          <path d="M1.06752 0L8.95862 0C6.54494 7.38044 7.56614 6.40571 0 7.28766L1.06752 0Z" transform="translate(577.6006 437.7278)" id="Shape" fill="#407BFF" stroke="none" />
          <path d="M0 0C27.2473 11.4653 53.8912 35.7419 53.8912 64.5675C39.7338 63.4535 29.5218 45.3504 23.6731 34.7671C17.8244 24.1838 2.83157 10.0726 0 0L0 0Z" transform="translate(515.6323 515.1995)" id="Shape" fill="#407BFF" stroke="none" />
          <path d="M9.43235 31.0074L1.44844 29.2435C-6.30344 50.6421 18.8087 71.0197 35.2872 55.1447C42.8999 47.8107 41.3215 34.2101 42.8999 25.5299C45.128 13.4149 49.7698 9.23715 37.8403 0L9.43235 31.0074Z" transform="translate(586.689 508.4224)" id="Shape" fill="#407BFF" stroke="none" />
          <path d="M0 22.8841C5.80231 15.8749 13.9255 9.46918 13.9255 0C9.33016 7.7982 4.64185 15.2714 0 22.8841L0 22.8841Z" transform="translate(623.7402 481.9641)" id="Shape" fill="#407BFF" stroke="none" />
          <path d="M8.16198 32.9104C-1.12164 19.9597 -0.51818 15.7357 0.642272 0C11.9218 1.2997 6.2125 17.0818 13.036 25.1122C22.8766 36.6702 34.8988 36.5775 35.688 55.0519C36.1522 66.1922 30.025 75.9865 17.585 63.9642C9.36875 56.0265 14.8462 42.8438 8.16198 32.9104L8.16198 32.9104Z" transform="translate(635.4917 445.0154)" id="Shape" fill="#407BFF" stroke="none" />
          <path d="M28.1293 0C17.2675 5.75579 6.77698 -3.15639 0 9.70135C9.28359 2.92436 16.5712 5.89504 26.8296 7.7982C27.5587 5.25688 27.9947 2.64034 28.1293 0L28.1293 0Z" transform="translate(637.7124 539.6616)" id="Shape" fill="#407BFF" stroke="none" />
          <path d="M20.9695 0C10.3861 7.65896 4.76959 -2.50662 0.499057 11.5117C-1.21839 17.1283 1.56673 29.1042 7.78674 28.9185C7.5547 22.2343 5.09455 14.9931 10.4789 10.6762C9.13276 18.753 11.9643 23.859 20.9695 20.6098L13.4498 6.68436C16.8846 7.05564 20.5982 5.24541 24.0331 5.66316L20.9695 0Z" transform="translate(634.5669 550.8486)" id="Shape" fill="#407BFF" stroke="none" />
          <path d="M43.1224 9.37315C32.8641 6.68097 8.40166 -5.06282 0 2.50322C10.5833 7.1915 34.3958 19.2602 43.1224 9.37315L43.1224 9.37315Z" transform="translate(569.5239 581.9055)" id="Shape" fill="#407BFF" stroke="none" />
          <path d="M4.90343 0C-0.483332 5.30391 -1.5561 13.5989 2.30404 20.0988C5.83369 14.0199 6.77032 6.77685 4.90343 0L4.90343 0Z" transform="translate(676.9521 533.5811)" id="Shape" fill="#407BFF" stroke="none" />
          <path d="M0 0.798375C1.25324 6.87912 7.89115 5.44017 14.8539 6.13641C13.4613 -0.501322 7.19477 -0.779818 0 0.798375L0 0.798375Z" transform="translate(679.9058 563.2329)" id="Shape" fill="#407BFF" stroke="none" />
          <path d="M2.55308 0L5.38452 3.90865C3.65277 4.88638 1.73161 4.88638 0 3.90865L2.55308 0Z" transform="translate(670.251 564.0313)" id="Shape" fill="#407BFF" stroke="none" />
          <path d="M0 2.62547C0 16.5509 13.4612 20.7749 23.209 25.1846C32.9568 29.5942 44.1899 34.0504 28.872 44.0303C36.2525 42.9626 42.5654 47.8366 48.3676 47.3259C51.458 47.5513 54.5609 47.5513 57.6512 47.3259C60.0649 46.769 61.3183 38.6923 63.732 38.6458C70.834 38.6458 69.9055 41.2917 76.2185 45.8405C81.9149 50.8216 88.7565 54.3142 96.1318 56.0061C87.5445 45.6085 78.0752 28.898 67.5848 20.9141C62.943 17.3862 43.2618 8.38112 36.9488 8.24187C29.4292 8.24187 27.201 11.1198 19.9598 16.5971C17.1747 7.26727 12.9042 -5.59048 0 2.62547L0 2.62547Z" transform="translate(695.7808 551.0544)" id="Shape" fill="#407BFF" stroke="none" />
          <path d="M0 8.86584C8.16964 14.9466 32.4927 13.0899 24.7873 0C17.7318 9.88704 11.5582 8.86584 0 8.86584L0 8.86584Z" transform="translate(778.1733 567.6519)" id="Shape" fill="#407BFF" stroke="none" />
          <path d="M110.992 0.185712C107.511 4.54902 99.2017 19.6813 94.1887 21.3059C86.3904 23.766 83.3733 16.2463 77.2924 17.3603C63.9705 19.8669 49.7665 43.4007 38.2084 50.1779C18.1557 61.8752 7.52609 58.6723 4.64805 84.5737C3.62685 94.0893 8.54715 105.137 6.31903 114.42C4.27663 123.008 -7.60638 126.907 7.71152 131.688C22.2404 136.33 51.5766 119.619 66.941 116.741C75.2034 115.163 78.9168 112.1 87.1329 116.741C93.7243 120.594 93.9563 127.789 98.4124 134.287C125.846 174.439 172.681 134.566 188.696 105.183C199.511 85.5021 194.173 69.4878 182.058 51.8953C176.859 44.3756 173.842 42.6117 170.407 34.1173C166.136 23.534 164.697 10.9083 161.912 0L143.67 37.1344C126.449 24.3695 120.461 25.4835 130.627 6.9627L110.992 0.185712Z" transform="translate(588.1777 609.3816)" id="Shape" fill="#407BFF" stroke="none" />
          <path d="M1.53173 0L23.209 1.34616C16.8497 9.70134 12.7649 21.2131 0 17.6389L1.53173 0Z" transform="translate(704.1831 771.2415)" id="Shape" fill="#407BFF" stroke="none" />
          <path d="M0 28.5935C16.6176 37.3666 16.8033 34.2566 32.4926 23.9517C40.9407 18.3815 62.7571 11.326 51.0598 0L0 28.5935Z" transform="translate(786.6211 771.1484)" id="Shape" fill="#000000" fill-opacity="0.2" stroke="none" />
          <path d="M0 33.5603C1.58882 36.0138 3.44112 38.2862 5.52389 40.3373C10.1657 36.6239 30.0326 25.205 30.7753 20.0526C31.518 14.9003 19.6813 4.73473 15.8287 0L0 33.5603Z" transform="translate(842.0444 737.6812)" id="Shape" fill="#000000" fill-opacity="0.2" stroke="none" />
          <path d="M0 0.0274814C0 0.0274814 21.6308 16.6451 19.9133 11.4928C17.7315 5.04057 6.40569 -0.436728 0 0.0274814L0 0.0274814Z" transform="translate(840.6519 660.6462)" id="Shape" fill="#000000" fill-opacity="0.2" stroke="none" />
          <path d="M0 0C2.97082 10.7225 40.2445 2.41367 51.3384 0L0 0Z" transform="translate(618.9126 593.321)" id="Shape" fill="#407BFF" stroke="none" />
          <path d="M0 0C2.3209 5.19882 14.7145 10.8154 18.0566 4.08483L0 0Z" transform="translate(637.7124 601.4441)" id="Shape" fill="#407BFF" stroke="none" />
          <path d="M30.6215 0C20.0382 9.56212 6.71623 17.546 3.55983 31.0537C1.88885 38.1092 -3.21724 67.6312 3.00284 72.1801C17.3925 82.7634 22.22 50.0387 25.005 42.3333C31.2713 24.8337 34.6599 17.9638 30.6215 0L30.6215 0Z" transform="translate(256.9126 615.6946)" id="Shape" fill="#407BFF" stroke="none" />
          <path d="M3.27014 8.39968C13.9463 11.2776 19.0523 7.93547 28.7072 3.75787C23.4156 -0.930331 -10.516 -3.01913 3.27014 8.39968L3.27014 8.39968Z" transform="translate(-6.173828 178.1135)" id="Shape" fill="#000000" fill-opacity="0.2" stroke="none" />
          <path d="M0 15.8245C24.1838 8.35123 44.19 2.50258 69.6271 0.831525C94.4188 -0.917439 119.328 0.094485 143.896 3.84867C132.431 15.4996 119.62 34.5774 104.859 41.633C94.1824 46.739 79.5608 44.5109 68.8846 49.6169C60.6222 53.6088 53.1025 62.9388 46.1862 68.8803C28.733 84.0591 20.4241 67.1629 23.4414 49.1527C24.6482 41.7257 33.9318 28.868 25.6694 21.3018C19.7741 16.5208 6.59136 21.4411 0 15.8245L0 15.8245Z" transform="translate(-108.5513 125.1062)" id="Shape" fill="#000000" fill-opacity="0.2" stroke="none" />
        </g>
      </g>
      <path d="M4.64182 71.5765C2.07818 71.5765 0 69.4983 0 66.9347L0 4.6418C0 2.07824 2.07818 0 4.64182 0C7.20545 0 9.28363 2.07824 9.28363 4.6418L9.28363 66.9349C9.28363 69.4983 7.20552 71.5764 4.64196 71.5765L4.64182 71.5765Z" transform="translate(728.0713 1281.645)" id="Shape" fill="#407BFF" stroke="none" />
      <path d="M266.115 26.2726C266.115 33.7923 206.56 39.873 133.081 39.873C59.6008 39.873 0 33.7923 0 26.2726C0 18.7529 59.6008 0 133.081 0C206.56 0 266.115 18.7529 266.115 26.2726L266.115 26.2726Z" transform="translate(599.6323 1322.307)" id="Shape" fill="#407BFF" stroke="none" />
    </g>
  </g>
</svg>