<?xml version="1.0" encoding="utf-8"?>
<svg width="2000px" height="2000px" viewBox="0 0 2000 2000" version="1.1" xmlns:xlink="http://www.w3.org/1999/xlink" xmlns="http://www.w3.org/2000/svg">
  <desc>Created with Lunacy</desc>
  <defs>
    <rect width="2000" height="2000" id="artboard_1" />
    <clipPath id="clip_1">
      <use xlink:href="#artboard_1" clip-rule="evenodd" />
    </clipPath>
  </defs>
  <g id="Ultra-HD-Copy-2" clip-path="url(#clip_1)">
    <use xlink:href="#artboard_1" stroke="none" fill="#FFFFFF" />
    <g id="Group-2" transform="translate(100.1099 342.62)">
      <path d="M0 52.5453C0 23.5253 402.944 0 900 0C1397.06 0 1800 23.5253 1800 52.5453C1800 81.5652 1397.06 105.091 900 105.091C402.944 105.091 0 81.5652 0 52.5453Z" transform="translate(0 1208.262)" id="path--inject-229" fill="#E9E9E9" stroke="none" />
      <path d="M0 0L423.286 0L423.286 42.7975L0 42.7975L0 0Z" transform="translate(790.0366 713.6315)" id="Rectangle" fill="#263238" stroke="none" />
      <path d="M26.6441 476.528L44.0044 476.528L24.0447 0L0 0L26.6441 476.528L26.6441 476.528Z" transform="translate(1169.318 756.4288)" id="Polygon" fill="#407BFF" stroke="none" />
      <path d="M26.6441 476.528L44.0044 476.528L24.0447 0L0 0L26.6441 476.528L26.6441 476.528Z" transform="translate(1169.318 756.4288)" id="Polygon" fill="#EEEEEE" fill-opacity="0.6" stroke="none" />
      <path d="M17.3603 476.528L0 476.528L19.9599 0L44.0044 0L17.3603 476.528L17.3603 476.528Z" transform="translate(1018.784 756.4288)" id="Polygon" fill="#407BFF" stroke="none" />
      <path d="M17.3603 476.528L0 476.528L19.9599 0L44.0044 0L17.3603 476.528L17.3603 476.528Z" transform="translate(1018.784 756.4288)" id="Polygon" fill="#EEEEEE" fill-opacity="0.6" stroke="none" />
      <path d="M26.6439 476.528L44.0044 476.528L23.9982 0L0 0L26.6439 476.528L26.6439 476.528Z" transform="translate(940.6162 756.4288)" id="Polygon" fill="#407BFF" stroke="none" />
      <path d="M26.6439 476.528L44.0044 476.528L23.9982 0L0 0L26.6439 476.528L26.6439 476.528Z" transform="translate(940.6162 756.4288)" id="Polygon" fill="#EEEEEE" fill-opacity="0.6" stroke="none" />
      <path d="M17.3604 476.528L0 476.528L20.0062 0L44.0043 0L17.3604 476.528L17.3604 476.528Z" transform="translate(790.0366 756.4288)" id="Polygon" fill="#407BFF" stroke="none" />
      <path d="M17.3604 476.528L0 476.528L20.0062 0L44.0043 0L17.3604 476.528L17.3604 476.528Z" transform="translate(790.0366 756.4288)" id="Polygon" fill="#EEEEEE" fill-opacity="0.6" stroke="none" />
      <g id="Group" transform="translate(809.1611 756.3826)" opacity="0.3">
        <path d="M24.0447 0L0 0L1.11413 20.2847L24.8802 20.2847L24.0447 0L24.0447 0Z" transform="translate(360.1571 0)" id="Polygon" fill="#407BFF" fill-opacity="0.3" stroke="none" />
        <path d="M0 20.2847L23.7197 20.2847L24.8802 0L0.835633 0L0 20.2847L0 20.2847Z" transform="translate(228.7473 0)" id="Polygon" fill="#407BFF" fill-opacity="0.3" stroke="none" />
        <path d="M0 0L1.11399 20.2847L24.88 20.2847L23.9982 0L0 0L0 0Z" transform="translate(131.4552 0)" id="Polygon" fill="#407BFF" fill-opacity="0.3" stroke="none" />
        <path d="M0 20.2847L23.8125 20.2847L24.9266 0L0.881955 0L0 20.2847L0 20.2847Z" id="Polygon" fill="#407BFF" fill-opacity="0.3" stroke="none" />
      </g>
      <path d="M101.191 83.5988L61.9217 104.487L0 20.8881L39.3161 0L101.191 83.5988L101.191 83.5988Z" transform="translate(854.8833 1079.313)" id="Polygon" fill="#FFB573" stroke="none" />
      <path d="M48.0058 29.2552L89.0394 0.754464C89.7181 0.175796 90.6098 -0.0886772 91.4943 0.0263482C92.3787 0.141232 93.1731 0.62499 93.6812 1.35792L118.236 32.4116C120.693 35.9718 119.846 40.8431 116.333 43.3662C101.897 53.0211 95.3986 56.4097 76.5066 67.643C64.8557 74.5129 37.0048 90.852 19.8766 98.3253C2.74828 105.799 -4.12157 88.6239 2.46978 83.9356C18.1127 72.8881 38.8151 51.1645 43.5033 35.8929C44.227 33.2423 45.8108 30.9075 48.0058 29.2552L48.0058 29.2552Z" transform="translate(854.5933 1141.641)" id="Shape" fill="#263238" stroke="none" />
      <path d="M39.3625 0L0 20.8418L29.8469 61.1327L68.281 39.0376L39.3625 0L39.3625 0Z" transform="translate(854.8833 1079.36)" id="Polygon" fill="#000000" fill-opacity="0.2" stroke="none" />
      <path d="M306.369 0.160497C306.369 0.160497 1.21641 -9.35515 0.009491 118.155C-1.47592 301.414 172.453 542.092 172.453 542.092L240.502 496.834C240.502 496.834 121.3 321.884 120.279 178.824C210.191 153.433 421.996 169.54 449.429 94.8069C471.896 33.8135 460.152 0.160355 460.152 0.160355L306.369 0.160497Z" transform="translate(682.708 584.011)" id="Shape" fill="#407BFF" stroke="none" />
      <path d="M306.369 0.160497C306.369 0.160497 1.21641 -9.35515 0.009491 118.155C-1.47592 301.414 172.453 542.092 172.453 542.092L240.502 496.834C240.502 496.834 121.3 321.884 120.279 178.824C210.191 153.433 421.996 169.54 449.429 94.8069C471.896 33.8135 460.152 0.160355 460.152 0.160355L306.369 0.160497Z" transform="translate(682.708 584.011)" id="Shape" fill="#000000" fill-opacity="0.2" stroke="none" />
      <path d="M106.344 32.2141L25.3906 81.7886L0 56.0265L88.937 0L106.344 32.2141L106.344 32.2141Z" transform="translate(835.3394 1060.282)" id="Polygon" fill="#263238" stroke="none" />
      <path d="M21.6492 1.71829C19.0299 4.74082 16.0705 7.45099 12.8299 9.79499C10.5334 11.7185 7.60775 12.7267 4.61376 12.6264C2.60011 12.2054 0.968721 10.7336 0.343235 8.77393C-0.210856 7.53372 -0.0881106 6.09591 0.668196 4.96761C3.91752 0.00084994 19.1427 0.00084994 20.8601 0.00084994C21.2743 -0.0165738 21.6579 0.218151 21.831 0.594816C22.0041 0.971481 21.9322 1.41543 21.6492 1.71829ZM4.98484 10.5843C7.86274 11.0948 12.8294 7.9849 18.4461 2.13618C12.3653 2.36821 4.14927 3.52867 2.29258 6.12821C1.94049 6.6971 1.94049 7.41615 2.29258 7.9849C2.62837 9.28956 3.66927 10.2945 4.98484 10.5843Z" transform="translate(881.2749 1176.465)" id="Shape" fill="#407BFF" fill-rule="evenodd" stroke="none" />
      <path d="M19.1335 13.6515C19.0509 13.7956 18.9404 13.9218 18.8086 14.023L18.1123 14.1619C12.9599 14.4869 2.23739 10.7271 0.287846 6.08527C-0.384314 4.42251 0.14966 2.51553 1.58754 1.44348C2.82761 0.273113 4.5556 -0.228066 6.22935 0.0973178C12.3565 1.11852 18.855 12.166 19.1335 12.6302C19.316 12.9462 19.316 13.3355 19.1335 13.6515ZM5.90396 1.95429C5.0718 1.80541 4.21513 2.00698 3.53667 2.51128C3.39742 2.74331 3.30456 2.88256 3.21171 2.78978C2.05126 3.81098 2.19051 4.60014 2.42261 5.15714C3.67592 8.17441 11.2885 11.4236 16.348 11.8878C14.0271 8.35998 9.57095 2.55774 5.90396 1.95429Z" transform="translate(883.9312 1164.346)" id="Shape" fill="#407BFF" fill-rule="evenodd" stroke="none" />
      <path d="M51.3384 106.205L7.24121 104.116L0 0L44.0972 2.08887L51.3384 106.205L51.3384 106.205Z" transform="translate(832.0913 1107.953)" id="Polygon" fill="#FFB573" stroke="none" />
      <path d="M70.6856 1.58755L120.585 0.00934935C122.339 -0.124233 123.872 1.18128 124.02 2.93371L127.687 42.3427C127.844 46.6843 124.462 50.3362 120.121 50.5123C102.761 50.5123 94.4054 50.0018 72.4496 50.5123C58.9419 50.93 32.3908 52.926 13.87 50.5123C-4.65073 48.0986 -1.8193 29.9491 6.21108 29.2529C25.2889 27.7211 50.8652 14.5382 63.1196 4.27988C65.2763 2.57376 67.936 1.62735 70.6856 1.58755L70.6856 1.58755Z" transform="translate(767.625 1202.961)" id="Shape" fill="#263238" stroke="none" />
      <path d="M21.8922 9.16248C18.0457 10.2436 14.0918 10.8975 10.1021 11.1121C7.12327 11.5092 4.10457 10.7628 1.65391 9.02323C0.205544 7.56148 -0.344226 5.43337 0.214964 3.45302C0.420224 2.11592 1.29616 0.977146 2.53587 0.435877C7.82455 -1.95549 20.4946 6.22377 22.1278 7.27814L22.1707 7.30579C22.5183 7.52068 22.7044 7.92199 22.6437 8.326C22.5832 8.73014 22.2875 9.05921 21.8922 9.16248ZM3.093 7.53796C5.04255 9.5339 11.0769 9.58036 18.968 7.76999C13.7227 4.61346 6.203 1.13212 3.32518 2.38549C2.71513 2.64614 2.29045 3.21234 2.21105 3.8709C1.83615 5.16323 2.17153 6.55742 3.093 7.53796Z" transform="translate(812.7061 1201.653)" id="Shape" fill="#407BFF" fill-rule="evenodd" stroke="none" />
      <path d="M11.867 19.8027C11.7151 19.8443 11.5547 19.8443 11.4028 19.8027C11.1466 19.8877 10.8699 19.8877 10.6137 19.8029C6.11114 17.2963 -0.805177 8.01267 0.0767779 3.37086C0.397135 1.568 1.91555 0.222543 3.74384 0.121541C5.41107 -0.248891 7.1531 0.238975 8.38565 1.42124C12.7718 5.36875 12.4331 17.0252 12.3825 18.7672C12.3796 18.8687 12.3776 18.9366 12.3776 18.9673C12.3698 19.3173 12.1749 19.6362 11.867 19.8027ZM6.99331 2.81358C6.40267 2.2318 5.59282 1.92809 4.76526 1.97809L4.25466 1.93163C2.76925 2.16366 2.3515 2.90637 2.3515 3.50983C1.74804 6.71268 6.38985 13.5826 10.3818 16.739C10.3354 12.6077 9.77842 5.3202 6.99331 2.81358Z" transform="translate(822.9619 1191.059)" id="Shape" fill="#407BFF" fill-rule="evenodd" stroke="none" />
      <path d="M44.1436 2.08887L0 0L4.1312 59.5544L48.1356 59.508L44.1436 2.08887L44.1436 2.08887Z" transform="translate(832.0913 1107.953)" id="Polygon" fill="#000000" fill-opacity="0.2" stroke="none" />
      <path d="M307.968 0C307.968 0 -11.2956 30.1717 0.308882 126.304C17.1122 264.908 25.3746 563.655 25.3746 563.655L106.745 566.857C106.745 566.857 141.234 297.633 123.41 155.454C206.034 155.454 408.324 161.396 426.752 111.635C443.044 67.631 437.242 0.232034 437.242 0.232034L307.968 0Z" transform="translate(789.6353 584.1715)" id="Shape" fill="#407BFF" stroke="none" />
      <path d="M101.191 47.3464L3.52775 42.5189L0 0L107.133 7.38045L101.191 47.3464L101.191 47.3464Z" transform="translate(804.1929 1108.696)" id="Polygon" fill="#263238" stroke="none" />
      <path d="M220.811 5.66294C220.207 13.4611 219.604 20.2382 218.722 27.3866C217.84 34.5349 216.911 41.312 215.797 48.5532C213.616 62.4786 210.831 76.404 207.581 90.6544C201.254 120.099 190.964 148.549 176.992 175.228C172.822 182.723 168.023 189.85 162.649 196.534C156.641 204.078 149.537 210.68 141.575 216.122C126.256 226.296 108.54 232.281 90.1902 233.483C74.1224 234.535 57.9906 232.967 42.426 228.841C35.0809 226.962 27.8574 224.636 20.7953 221.878C17.2675 220.532 13.8326 219.047 10.4441 217.236C7.05557 215.426 3.8991 213.941 0 211.852L12.208 180.798L21.0738 181.912L30.3575 182.841C36.5775 183.351 42.7047 183.676 48.9247 183.676C60.2013 183.867 71.4538 182.572 82.3921 179.823C91.1566 177.721 99.27 173.497 106.019 167.523C108.913 164.815 111.497 161.795 113.724 158.518C116.467 154.296 118.917 149.891 121.058 145.335C125.968 134.684 129.989 123.645 133.081 112.332C136.608 100.588 139.44 88.2873 141.993 75.7543C144.546 63.2214 146.635 50.5494 148.724 37.7843L151.462 18.5672C152.298 12.2544 153.226 5.4773 153.83 0L220.811 5.66294Z" transform="translate(805.9585 296.9366)" id="Shape" fill="#FFB573" stroke="none" />
      <path d="M107.504 15.168C75.0117 -16.3498 34.628 2.26382 18.5674 61.5861C9.47726 93.2535 3.26306 125.676 0 158.461L103.373 179.813C122.173 123.229 140.925 47.475 107.504 15.168L107.504 15.168Z" transform="translate(919.5425 249.6007)" id="Shape" fill="#263238" stroke="none" />
      <path d="M33.0032 0.929268C40.3837 -5.70848 61.3646 24.1383 74.176 60.9478C70.5554 74.8732 66.4241 88.288 62.2002 100.867L0 88.0095C4.96663 51.2464 16.4319 15.8759 33.0032 0.929268L33.0032 0.929268Z" transform="translate(960.7612 328.3606)" id="Shape" fill="#000000" fill-opacity="0.3" stroke="none" />
      <path d="M24.2302 8.86587L1.0212 0L0 49.2496C0 49.2496 38.9911 66.0994 46.9286 46.743L44.1435 34.4423C41.4269 23.4816 34.1902 14.1869 24.2302 8.8658L24.2302 8.86587Z" transform="translate(786.9268 454.9436)" id="Shape" fill="#FFB573" stroke="none" />
      <path d="M13.6934 1.2997L0 42.6118L40.2445 49.2496L41.2657 0L13.6934 1.2997L13.6934 1.2997Z" transform="translate(746.8687 454.9436)" id="Polygon" fill="#FFB573" stroke="none" />
      <path d="M44.1256 85.1338C43.1255 85.1496 42.2048 84.5901 41.7584 83.6949L0.307041 3.90222C-0.37709 2.59402 0.119912 0.978919 1.4211 0.281613C2.74361 -0.368803 4.34369 0.144065 5.0417 1.44207L46.3537 81.0955C47.0378 82.4037 46.5408 84.0188 45.2396 84.7161C44.8991 84.9268 44.5207 85.0687 44.1256 85.1338L44.1256 85.1338Z" transform="translate(751.5264 404.0199)" id="Shape" fill="#263238" stroke="none" />
      <path d="M67.2629 16.9473L116.837 3.02189L180.523 0.0511381C200.406 -0.902424 218.468 11.5697 224.62 30.5014C236.735 67.6358 247.829 121.109 256.045 167.388C265.329 219.33 269.971 297.359 270.945 368.193L33.1456 368.193C27.7146 220.351 8.91531 132.946 0.652896 84.5785C-2.73327 65.0959 7.29235 45.7473 25.1618 37.2785L67.2629 16.9473Z" transform="translate(955.9312 216.2107)" id="Shape" fill="#263238" stroke="none" />
      <path d="M77.843 111.793C71.4373 75.3551 63.1749 34.3215 53.9841 0.38991C11.6044 -6.75844 -8.91233 86.1705 3.66692 132.264C16.2462 178.357 83.3203 150.413 83.3203 150.413C81.7421 136.534 79.8854 123.491 77.843 111.793L77.843 111.793Z" transform="translate(1134.133 271.62)" id="Shape" fill="#000000" fill-opacity="0.3" stroke="none" />
      <path d="M22.9269 2.44804C33.1389 27.5138 27.0117 73.4677 6.86625 60.4706C-13.2792 47.4736 16.7069 -12.7771 22.9269 2.44804L22.9269 2.44804Z" transform="translate(1041.395 120.0028)" id="Shape" fill="#263238" stroke="none" />
      <path d="M55.0945 0L35.8311 29.429L9.65121 69.4879C13.0337 72.9153 15.7698 76.9251 17.7279 81.3246C22.3697 90.9795 26.501 98.1744 6.21618 112.007C1.76603 114.861 -0.610257 120.049 0.135424 125.282C1.34234 131.549 7.56234 137.63 29.4252 133.777C50.4952 129.743 69.7216 119.073 84.2914 103.327C91.579 96.0391 89.9079 90.5618 82.8989 82.9956C62.8464 61.6432 56.9049 27.5259 55.0945 0L55.0945 0Z" transform="translate(998.0859 138.5117)" id="Shape" fill="#FFB573" stroke="none" />
      <path d="M6.45217 28.5471L22.5128 0C22.8532 0.742706 23.2244 1.5318 23.6267 2.3673C25.0534 5.89278 26.2018 9.52443 27.0618 13.229C29.9861 25.9011 20.1455 44.0042 9.33006 52.638L8.07683 50.1778C6.12849 46.0676 3.62995 42.2417 0.64992 38.8054C0.4601 38.6163 0.240533 38.4594 0 38.3412L6.45217 28.5471Z" transform="translate(1007.551 169.5654)" id="Shape" fill="#000000" fill-opacity="0.2" stroke="none" />
      <path d="M1.0234 6.8904C-4.9645 20.3981 16.2486 58.6465 40.5252 43.1894C64.8017 27.7322 11.6068 -17.0149 1.0234 6.8904L1.0234 6.8904Z" transform="translate(916.5688 96.99323)" id="Shape" fill="#263238" stroke="none" />
      <path d="M46.114 75.8216C45.4524 75.8315 44.8818 75.3592 44.7677 74.7075C43.0038 63.2422 35.4841 56.1403 26.9897 47.5065C16.2207 36.9696 4.01271 24.9937 0.0208235 1.55263C-0.107376 0.834854 0.370574 0.149023 1.08849 0.0208235C1.80626 -0.107376 2.49202 0.370645 2.62022 1.08842C6.51932 23.694 18.4023 35.345 28.8464 45.6033C37.4337 54.005 45.5104 61.9425 47.4136 74.2897C47.4805 74.6421 47.3987 75.0064 47.1878 75.2965C46.9769 75.5866 46.6554 75.7766 46.2996 75.8215L46.114 75.8216Z" transform="translate(988.4985 204.6829)" id="Shape" fill="#EEEEEE" stroke="none" />
      <path d="M117.606 47.8194C126.89 89.8742 134.131 114.058 119.138 140.656C96.4856 180.9 39.8556 175.423 18.3175 136.71C-1.08523 101.896 -12.6434 38.9535 23.4235 11.7989C39.8238 -0.394514 61.3194 -3.35826 80.4075 3.94209C99.4958 11.2425 113.528 27.7938 117.606 47.8194L117.606 47.8194Z" transform="translate(926.895 42.46387)" id="Shape" fill="#FFB573" stroke="none" />
      <path d="M170.419 109.296C155.937 129.859 117.967 92.1209 121.077 66.7766C83.3851 88.2217 42.4444 116.862 17.6107 92.7243C-11.0756 64.8734 -3.23105 24.9538 30.3757 21.3797C24.4341 32.9842 58.2265 38.1366 76.1903 20.2192C106.594 -9.85966 154.637 -3.59326 153.755 20.7762C176.917 11.5855 202.215 64.1308 170.419 109.296L170.419 109.296Z" transform="translate(886.5669 9.859589)" id="Shape" fill="#263238" stroke="none" />
      <path d="M17.7781 37.4594C26.7367 30.7752 20.7952 6.96271 0 0C19.7741 2.55301 40.2444 17.2675 17.7781 37.4594L17.7781 37.4594Z" transform="translate(1018.088 0)" id="Shape" fill="#263238" stroke="none" />
      <path d="M32.8508 17.1264C33.2501 26.7425 30.1126 36.1716 24.0314 43.6312C16.0475 53.1469 3.74668 45.5808 0.822318 33.6977C-1.73062 23.068 1.56502 6.58959 12.0556 1.48357C22.5461 -3.62245 32.2938 5.1505 32.8508 17.1264L32.8508 17.1264Z" transform="translate(1037.55 100.1721)" id="Shape" fill="#FFB573" stroke="none" />
      <path d="M8.53126 4.87214C9.64524 8.26064 8.80975 11.6956 6.58164 12.4847C4.35353 13.2738 1.93984 11.185 0.593682 7.84289C-0.752479 4.50079 0.315186 1.01943 2.5433 0.183941C4.77141 -0.65155 7.41727 1.43718 8.53126 4.87214L8.53126 4.87214Z" transform="translate(975.625 119.5283)" id="Shape" fill="#263238" stroke="none" />
      <path d="M8.42038 4.76732C9.58084 8.20228 8.69888 11.6372 6.47076 12.4263C4.24263 13.2154 1.5969 11.1266 0.482767 7.78446C-0.631366 4.44236 0.250733 0.960999 2.43239 0.1719C4.61406 -0.617198 7.30639 1.37882 8.42038 4.76732L8.42038 4.76732Z" transform="translate(937.6743 133.5585)" id="Shape" fill="#263238" stroke="none" />
      <path d="M3.52795 0C3.68038 10.154 2.49414 20.2829 0 30.1261C6.82345 32.6326 14.3431 26.7376 14.3431 26.7376L3.52795 0Z" transform="translate(955.6094 136.3763)" id="Shape" fill="#ED893E" stroke="none" />
      <path d="M5.38692 17.4709C13.3757 14.8455 19.9368 9.05639 23.5366 1.45673C23.7631 0.91836 23.5149 0.297833 22.9796 0.0641705C22.4291 -0.13082 21.8214 0.13252 21.5871 0.667628C17.5465 8.88471 9.91116 14.7527 0.930969 16.5427C0.535179 16.5938 0.201011 16.8613 0.0644538 17.2362C-0.0719617 17.6111 0.0118992 18.0309 0.28218 18.3245C0.55232 18.6181 0.963691 18.7364 1.34857 18.6315C2.71882 18.3341 4.06782 17.9465 5.38692 17.471L5.38692 17.4709Z" transform="translate(974.1289 164.5343)" id="Shape" fill="#263238" stroke="none" />
      <path d="M19.9899 7.06796C20.3132 6.91462 20.5867 6.67331 20.7791 6.37172C21.3974 5.38303 21.108 4.08113 20.1292 3.44736C14.5524 -0.316532 7.46489 -1.04791 1.23695 1.49774C0.718484 1.72935 0.316603 2.16211 0.12395 2.6963C-0.0687036 3.23041 -0.0355559 3.82006 0.215743 4.32924C0.735341 5.37247 1.99552 5.80637 3.04718 5.30413C7.95942 3.4072 13.4886 4.0312 17.8546 6.97518C18.4885 7.41665 19.3202 7.45285 19.9899 7.06796L19.9899 7.06796Z" transform="translate(967.6489 102.5717)" id="Shape" fill="#263238" stroke="none" />
      <path d="M15.1616 2.34923C15.25 1.99892 15.25 1.63203 15.1616 1.28171C14.6943 0.210998 13.4534 -0.285438 12.3765 0.167651C6.09798 2.60138 1.46013 8.02379 0.0292522 14.6037C-0.0952643 15.3418 0.183375 16.0902 0.760343 16.567C1.33724 17.0439 2.12478 17.1767 2.8262 16.9154C3.52761 16.654 4.03623 16.0383 4.16046 15.3001C5.38714 10.1617 9.06895 5.959 14.0012 4.06689C14.6586 3.73315 15.0973 3.0838 15.1616 2.34923L15.1616 2.34923Z" transform="translate(923.4136 113.9745)" id="Shape" fill="#263238" stroke="none" />
      <path d="M111.404 0C116.046 7.51971 119.759 14.2968 123.612 21.538C127.465 28.7792 131.178 35.8348 134.799 43.076C142.133 57.512 148.724 72.3658 155.13 87.4981C161.535 102.63 167.152 118.227 171.98 134.473C177.261 151.525 180.807 169.068 182.563 186.833C183.5 197.203 183.141 207.651 181.495 217.933C180.435 224.715 178.37 231.301 175.368 237.475C171.89 244.451 167.062 250.667 161.164 255.763C155.854 260.379 149.794 264.052 143.247 266.625C137.753 268.784 132.041 270.34 126.211 271.267C116.368 272.806 106.368 273.071 96.4569 272.056C87.6065 271.304 78.8248 269.892 70.1847 267.832C61.9356 265.954 53.7864 263.661 45.7683 260.962C30.0118 255.745 14.7052 249.256 0 241.559L11.7438 210.32C40.6158 215.797 71.6231 220.857 97.6637 219.279C103.358 218.981 108.998 218.015 114.467 216.401C119.109 215.008 121.476 212.919 121.29 212.27C121.105 211.62 121.012 212.27 120.919 211.805C120.826 211.341 120.919 211.295 120.919 208.928C121.207 203.71 120.896 198.477 119.991 193.331C117.77 180.084 114.304 167.076 109.639 154.479C104.998 141.018 99.3811 127.418 93.3004 113.957C70.6948 66.7803 80.6747 86.9876 74.0369 73.5264C74.0369 73.5264 67.2445 60.1115 63.6856 53.5202C63.6856 53.5202 53.1951 34.071 53.1951 34.071L111.404 0Z" transform="translate(1060.932 247.7797)" id="Shape" fill="#FFB573" stroke="none" />
      <path d="M53.8456 0.782441C9.00569 -6.04102 -13.0429 32.4396 8.07741 89.9051C18.9829 120.991 32.686 151.022 49.0183 179.632L145.707 137.252C128.115 80.3895 99.7067 7.79162 53.8456 0.782441L53.8456 0.782441Z" transform="translate(1096.813 215.9435)" id="Shape" fill="#263238" stroke="none" />
      <path d="M20.7024 1.24785L0 7.46786L29.3826 49.2441C29.3826 49.2441 72.9228 33.6476 64.0104 14.7091L53.0558 8.48906C43.6794 3.05816 31.7964 -2.55839 20.7024 1.24785L20.7024 1.24785Z" transform="translate(1027.093 452.5817)" id="Shape" fill="#FFB573" stroke="none" />
      <path d="M0 28.7792L20.7489 49.4817L47.7178 41.7299L18.3352 0L0 28.7792L0 28.7792Z" transform="translate(1008.759 460.0494)" id="Polygon" fill="#FFB573" stroke="none" />
      <path d="M0 8.07675C0 3.61608 2.99262 0 6.6842 0C10.3758 0 13.3684 3.61608 13.3684 8.07675C13.3684 12.5374 10.3758 16.1535 6.6842 16.1535C2.99262 16.1535 0 12.5374 0 8.07675Z" transform="translate(1047.333 114.4205)" id="Ellipse" fill="#EEEEEE" stroke="none" />
      <path d="M6.22 20.3775L2.36736 20.2383L0 1.62466L7.33398 0L6.22 20.3775L6.22 20.3775Z" transform="translate(1053.321 123.4721)" id="Polygon" fill="#EEEEEE" stroke="none" />
      <path d="M52.8217 355.246C38.8963 355.246 26.549 353.157 19.0758 346.38C13.4343 340.947 10.4642 333.31 10.9526 325.492C11.3773 306.351 14.359 287.352 19.8185 269.001C26.2707 243.703 31.3766 223.744 15.8729 199.096C-8.82153 159.965 -1.44107 105.238 15.8729 70.9352C29.1021 44.7093 24.4603 15.4659 22.7893 4.69684C22.5573 3.30428 22.3716 2.1903 22.2788 1.44759C22.24 1.09508 22.3469 0.742069 22.5748 0.470371C22.8028 0.198674 23.1318 0.0318728 23.4857 0.00864106C24.2142 -0.0736615 24.8746 0.442252 24.9711 1.16909C24.9711 1.86534 25.2031 2.933 25.3889 4.2791C27.1528 15.4659 31.7481 45.127 18.1012 72.1423C1.15861 105.795 -6.0826 159.408 18.1012 197.471C34.2083 223.047 28.731 244.539 22.3717 269.419C17.0237 287.52 14.1049 306.251 13.6916 325.121C13.1834 332.185 15.8158 339.114 20.8863 344.059C33.4192 355.339 61.0844 352.461 87.8213 349.676C99.7971 348.469 112.191 347.17 123.099 347.17C123.842 347.17 124.445 347.772 124.445 348.516C124.445 349.259 123.842 349.862 123.099 349.862C112.33 349.862 99.89 351.115 88.0997 352.368C76.3962 353.92 64.6218 354.88 52.8215 355.246L52.8217 355.246Z" transform="translate(1033.362 139.4778)" id="Shape" fill="#EEEEEE" stroke="none" />
      <path d="M0 0L58.3939 0L58.3939 9.28363L0 9.28363L0 0Z" transform="translate(1156.415 484.7904)" id="Rectangle" fill="#EEEEEE" stroke="none" />
      <path d="M1302.54 30.9145L15.4572 30.9145C6.93102 30.8891 0.0254982 23.9834 0 15.4572L0 15.4572C0.0253566 6.93127 6.93073 0.0256399 15.4569 0L1302.54 0C1311.06 0.0254982 1317.97 6.93106 1317.99 15.4572L1317.99 15.4572C1317.97 23.983 1311.06 30.8888 1302.54 30.9145L1302.54 30.9145Z" transform="translate(241.0024 494.0739)" id="Shape" fill="#407BFF" stroke="none" />
      <path d="M316.757 30.9145L15.4573 30.9145C6.93098 30.8889 0.0254982 23.9834 0 15.4572L0 15.4572C0.0254982 6.93099 6.93098 0.0254982 15.4573 0L316.757 0C325.283 0.0254982 332.189 6.93106 332.214 15.4572L332.214 15.4572C332.189 23.983 325.284 30.8888 316.758 30.9145L316.757 30.9145Z" transform="translate(1226.783 494.0739)" id="Shape" fill="#263238" fill-opacity="0.3" stroke="none" />
      <path d="M45.4897 728.299L75.1509 728.299L41.0336 0L0 0L45.4897 728.299L45.4897 728.299Z" transform="translate(1483.846 524.9883)" id="Polygon" fill="#263238" stroke="none" />
      <path d="M45.4897 728.299L75.1509 728.299L41.0336 0L0 0L45.4897 728.299L45.4897 728.299Z" transform="translate(1483.846 524.9883)" id="Polygon" fill="#EEEEEE" fill-opacity="0.1" stroke="none" />
      <path d="M29.6612 728.299L0 728.299L34.1173 0L75.1509 0L29.6612 728.299L29.6612 728.299Z" transform="translate(1226.783 524.9883)" id="Polygon" fill="#263238" stroke="none" />
      <path d="M29.6612 728.299L0 728.299L34.1173 0L75.1509 0L29.6612 728.299L29.6612 728.299Z" transform="translate(1226.783 524.9883)" id="Polygon" fill="#EEEEEE" fill-opacity="0.2" stroke="none" />
      <path d="M45.5361 728.299L75.1509 728.299L41.0336 0L0 0L45.5361 728.299L45.5361 728.299Z" transform="translate(498.0649 524.9883)" id="Polygon" fill="#263238" stroke="none" />
      <path d="M45.5361 728.299L75.1509 728.299L41.0336 0L0 0L45.5361 728.299L45.5361 728.299Z" transform="translate(498.0649 524.9883)" id="Polygon" fill="#EEEEEE" fill-opacity="0.1" stroke="none" />
      <path d="M29.6611 728.299L0 728.299L34.1173 0L75.1509 0L29.6611 728.299L29.6611 728.299Z" transform="translate(241.0024 524.9883)" id="Polygon" fill="#263238" stroke="none" />
      <path d="M29.6611 728.299L0 728.299L34.1173 0L75.1509 0L29.6611 728.299L29.6611 728.299Z" transform="translate(241.0024 524.9883)" id="Polygon" fill="#EEEEEE" fill-opacity="0.2" stroke="none" />
      <path d="M0 0L989.865 0L989.865 61.0398L0 61.0398L0 0Z" transform="translate(283.7529 563.7476)" id="Rectangle" fill="#263238" stroke="none" />
      <path d="M0 0L989.865 0L989.865 61.0398L0 61.0398L0 0Z" transform="translate(283.7529 563.7476)" id="Rectangle" fill="#EEEEEE" fill-opacity="0.2" stroke="none" />
      <path d="M6.4985 0.232034C2.92755 0.232034 0.0254982 3.11333 0 6.68422L0 34.5351C0 38.1241 2.90942 41.0336 6.49843 41.0336L217.004 41.0336C218.166 41.0339 219.114 40.1059 219.14 38.9448L219.14 2.0888C219.114 0.92771 218.166 -0.000283314 217.004 0L6.4985 0.232034Z" transform="translate(440.1353 452.8082)" id="Shape" fill="#407BFF" stroke="none" />
      <path d="M3.75985 0L91.9542 0L91.9542 33.2354L3.75985 33.2354C1.68331 33.2354 0 31.552 0 29.4755L0 3.71346C0.0254274 1.65505 1.7013 -0.000141657 3.75985 0L3.75985 0Z" transform="translate(567.4609 456.9396)" id="Shape" fill="#EEEEEE" fill-opacity="0.9" stroke="none" />
      <path d="M0 0L225.638 0L225.638 41.08L0 41.08L0 0Z" transform="translate(337.5986 453.0403)" id="Rectangle" fill="#407BFF" stroke="none" />
      <path d="M0 0L225.638 0L225.638 41.08L0 41.08L0 0Z" transform="translate(337.5986 453.0403)" id="Rectangle" fill="#000000" fill-opacity="0.2" stroke="none" />
      <path d="M0 0L37.5522 0L37.5522 41.08L0 41.08L0 0Z" transform="translate(417.2529 453.0403)" id="Rectangle" fill="#407BFF" fill-opacity="0.5" stroke="none" />
      <path d="M0 0L37.5058 0L37.5058 41.08L0 41.08L0 0Z" transform="translate(463.8545 453.0403)" id="Rectangle" fill="#407BFF" fill-opacity="0.5" stroke="none" />
      <path d="M6.4985 0.0929976C2.90949 0.0929976 0 3.00248 0 6.5915L0 44.1902C0 47.7792 2.90942 50.6887 6.49843 50.6887L234.55 50.6887C235.712 50.6634 236.64 49.7147 236.639 48.5533L236.639 2.13526C236.64 0.974031 235.712 0.0253565 234.551 0L6.4985 0.0929976Z" transform="translate(402.0737 402.3517)" id="Shape" fill="#407BFF" stroke="none" />
      <path d="M3.76099 0L109.316 0L109.316 42.7511L3.76099 42.7511C1.68444 42.7511 0.00113325 41.0678 0.00113325 38.9912L0.00113325 3.85271C-0.0238692 2.83951 0.361154 1.85917 1.06901 1.13382C1.77687 0.408538 2.7475 -0.000283313 3.76099 0L3.76099 0Z" transform="translate(529.5356 406.3902)" id="Shape" fill="#EEEEEE" fill-opacity="0.9" stroke="none" />
      <path d="M0 0L191.799 0L191.799 50.5493L0 50.5493L0 0Z" transform="translate(333.3286 402.4448)" id="Rectangle" fill="#407BFF" stroke="none" />
      <path d="M0 0L191.799 0L191.799 50.5493L0 50.5493L0 0Z" transform="translate(333.3286 402.4448)" id="Rectangle" fill="#EEEEEE" fill-opacity="0.2" stroke="none" />
      <path d="M0 0L138.836 0L138.836 30.4967L0 30.4967L0 0Z" transform="translate(366.9814 412.4709)" id="Rectangle" fill="#407BFF" fill-opacity="0.6" stroke="none" />
      <path d="M6.4985 0C2.92429 0 0 1.71745 0 3.80632L0 20.3776C0 22.4664 2.92436 24.1839 6.4985 24.1839L217.051 24.1839C218.211 24.1839 219.14 23.6269 219.14 22.9771L219.14 1.25345C219.14 0.557207 218.211 0.000141657 217.051 0.000141657L6.4985 0Z" transform="translate(468.9609 378.2609)" id="Shape" fill="#407BFF" stroke="none" />
      <path d="M2.8779 0L91.7685 0L91.7685 19.5884L2.8779 19.5884C1.28844 19.5884 0 18.3 0 16.7105L0 2.78511C0.0500757 1.23206 1.32399 -0.000849941 2.8779 0L2.8779 0Z" transform="translate(596.3315 380.5353)" id="Shape" fill="#EEEEEE" fill-opacity="0.9" stroke="none" />
      <path d="M0 0L225.638 0L225.638 24.2302L0 24.2302L0 0Z" transform="translate(366.4238 378.2609)" id="Rectangle" fill="#407BFF" stroke="none" />
      <path d="M0 0L225.638 0L225.638 24.2302L0 24.2302L0 0Z" transform="translate(366.4238 378.2609)" id="Rectangle" fill="#000000" fill-opacity="0.2" stroke="none" />
      <path d="M0 0L8.68018 0L8.68018 24.2302L0 24.2302L0 0Z" transform="translate(390.7935 378.2609)" id="Rectangle" fill="#407BFF" fill-opacity="0.5" stroke="none" />
      <path d="M0 0L8.54095 0L8.54095 24.2302L0 24.2302L0 0Z" transform="translate(566.0215 378.2609)" id="Rectangle" fill="#407BFF" fill-opacity="0.5" stroke="none" />
      <path d="M6.4985 0C2.92429 0 0 1.71745 0 3.80632L0 31.1466C0 33.2818 2.92436 34.9993 6.4985 34.9993L234.551 34.9993C235.711 34.9993 236.686 34.4423 236.686 33.746L236.686 1.25331C236.686 0.557065 235.711 0 234.551 0L6.4985 0Z" transform="translate(430.8994 343.2617)" id="Shape" fill="#407BFF" stroke="none" />
      <path d="M2.8779 0L109.315 0L109.315 30.4038L2.8779 30.4038C1.28844 30.4038 0 29.1154 0 27.5259L0 2.87797C0 1.28844 1.28851 -7.08283e-05 2.8779 0L2.8779 0Z" transform="translate(558.27 345.5361)" id="Shape" fill="#EEEEEE" fill-opacity="0.9" stroke="none" />
      <path d="M0 0L191.799 0L191.799 34.9992L0 34.9992L0 0Z" transform="translate(362.1538 343.2617)" id="Rectangle" fill="#407BFF" stroke="none" />
      <path d="M0 0L191.799 0L191.799 34.9992L0 34.9992L0 0Z" transform="translate(362.1538 343.2617)" id="Rectangle" fill="#000000" fill-opacity="0.1" stroke="none" />
      <path d="M195.467 0L3.8991 0C1.76363 -7.08282e-05 0.0254274 1.71751 0 3.85277L0 3.85277C0.0253565 5.98803 1.76363 7.70562 3.8991 7.70547L195.466 7.70547C197.594 7.70547 199.319 5.98059 199.319 3.85284L199.319 3.85284C199.319 1.72495 197.594 7.08282e-05 195.466 -7.08282e-05L195.467 0Z" transform="translate(750.5791 486.3684)" id="Shape" fill="#EEEEEE" stroke="none" />
      <path d="M11.3725 0L137.258 0L148.631 16.4784L0 16.4784L11.3725 0L11.3725 0Z" transform="translate(1309.454 477.1777)" id="Polygon" fill="#263238" stroke="none" />
      <path d="M33.8857 16.9426C33.8857 23.7953 29.7579 29.9731 23.4268 32.5956C17.0957 35.218 9.80846 33.7684 4.96295 28.9228C0.117292 24.0773 -1.33214 16.7899 1.29021 10.4589C3.9127 4.12795 10.0905 0 16.9432 7.08284e-05C21.4403 -0.0123241 25.757 1.76873 28.9371 4.94878C32.117 8.12883 33.8981 12.4454 33.8857 16.9426L33.8857 16.9426Z" transform="translate(1481.339 178.9881)" id="Shape" fill="#000000" stroke="none" />
      <path d="M5.36921 297.37C3.57712 297.365 1.90486 296.469 0.908586 294.979C-0.0875439 293.489 -0.277364 291.601 0.402447 289.943L121.693 2.89391C122.99 0.407901 125.979 -0.665928 128.562 0.425537C131.145 1.517 132.458 4.40829 131.58 7.0715L10.2895 294.074C9.45502 296.057 7.52041 297.353 5.36921 297.37L5.36921 297.37Z" transform="translate(1382.576 190.9479)" id="Shape" fill="#263238" stroke="none" />
      <path d="M225.591 175.878C224.439 175.865 223.319 175.492 222.388 174.81L2.13477 9.60829C-0.223393 7.83893 -0.700776 4.49293 1.06866 2.13477C2.83795 -0.223393 6.18388 -0.700776 8.54218 1.06852L228.842 166.178C230.667 167.579 231.4 169.985 230.666 172.166C229.932 174.346 227.894 175.82 225.593 175.833L225.591 175.878Z" transform="translate(1283.598 25.48376)" id="Shape" fill="#263238" stroke="none" />
      <path d="M33.8859 16.9426C33.8857 23.7953 29.7578 29.9731 23.4268 32.5956C17.0957 35.218 9.80846 33.7684 4.96295 28.9228C0.117292 24.0773 -1.33214 16.7899 1.29021 10.4589C3.9127 4.12795 10.0905 0 16.9431 7.08284e-05C21.4405 -0.0123241 25.757 1.76865 28.9371 4.94871C32.1171 8.12876 33.8982 12.4454 33.8859 16.9426L33.8859 16.9426Z" transform="translate(1492.248 178.9881)" id="Shape" fill="#263238" stroke="none" />
      <path d="M0 16.8962C0 7.56468 7.56468 0 16.8962 0C26.2277 0 33.7924 7.56468 33.7924 16.8962C33.7924 26.2277 26.2277 33.7924 16.8962 33.7924C7.56468 33.7924 0 26.2277 0 16.8962Z" transform="translate(1272.041 13.92542)" id="Circle" fill="#263238" stroke="none" />
      <path d="M64.6604 64.6603C49.8684 79.4523 25.8859 79.4523 11.094 64.6603C-3.69795 49.8684 -3.69795 25.8859 11.094 11.094C25.8859 -3.69795 49.8684 -3.69795 64.6604 11.0939C79.4268 25.8965 79.4268 49.8579 64.6604 64.6604L64.6604 64.6603Z" transform="translate(1200.603 43.40079)" id="Shape" fill="#407BFF" stroke="none" />
      <path d="M64.6604 64.6603C49.8684 79.4523 25.8859 79.4523 11.094 64.6603C-3.69795 49.8684 -3.69795 25.8859 11.094 11.094C25.8859 -3.69795 49.8684 -3.69795 64.6604 11.0939C79.4268 25.8965 79.4268 49.8579 64.6604 64.6604L64.6604 64.6603Z" transform="translate(1200.603 43.40079)" id="Shape" fill="#EEEEEE" fill-opacity="0.7" stroke="none" />
      <path d="M114.746 23.7832C99.5351 8.55599 78.8953 0 57.3727 0C35.8501 0 15.2103 8.55599 0 23.7832L114.746 138.622C129.99 123.401 138.556 102.744 138.556 81.2024C138.556 59.6608 129.99 39.0033 114.746 23.7832L114.746 23.7832Z" transform="translate(1174.191 7.038361)" id="Shape" fill="#263238" stroke="none" />
      <g id="Group" transform="translate(692.2319 30.82153)" opacity="0.2">
        <path d="M481.912 0L0 463.252L494.399 463.252L596.704 114.792L481.912 0L481.912 0Z" id="Polygon" fill="#407BFF" fill-opacity="0.2" stroke="none" />
        <path d="M481.912 0L0 463.252L494.399 463.252L596.704 114.792L481.912 0L481.912 0Z" id="Polygon" fill="#EEEEEE" fill-opacity="0.7" stroke="none" />
      </g>
    </g>
  </g>
</svg>