<?xml version="1.0" encoding="utf-8"?>
<svg width="2000px" height="2000px" viewBox="0 0 2000 2000" version="1.1" xmlns:xlink="http://www.w3.org/1999/xlink" xmlns="http://www.w3.org/2000/svg">
  <desc>Created with Lunacy</desc>
  <defs>
    <rect width="2000" height="2000" id="artboard_1" />
    <clipPath id="clip_1">
      <use xlink:href="#artboard_1" clip-rule="evenodd" />
    </clipPath>
  </defs>
  <g id="Ultra-HD-Copy" clip-path="url(#clip_1)">
    <use xlink:href="#artboard_1" stroke="none" fill="#FFFFFF" />
    <g id="Group-2" transform="translate(100.1101 209.6946)">
      <g id="Shadow--inject-235" transform="translate(0 1477.141)">
        <path d="M0 52.5453C0 23.5253 402.944 0 900 0C1397.06 0 1800 23.5253 1800 52.5453C1800 81.5653 1397.06 105.091 900 105.091C402.944 105.091 0 81.5653 0 52.5453Z" id="path--inject-235" fill="#E9E9E9" stroke="none" />
      </g>
      <g id="Smartphone--inject-177" transform="translate(404.78 163.1548)">
        <path d="M549.136 0.00352865L56.7939 0.00352865C41.0314 -0.186357 25.9249 7.3579 15.1576 20.7969C4.39026 34.2359 -1.04838 52.3347 0.167708 70.6804L70.744 1296.33C73.5027 1335.89 101.544 1366.53 135.542 1367.15L627.884 1367.15C643.671 1367.36 658.803 1359.8 669.571 1346.32C680.339 1332.84 685.747 1314.69 684.469 1296.33L613.893 70.6804C611.076 31.1958 583.074 0.634569 549.136 0.00360216L549.136 0.00352865Z" transform="translate(4.456543 0)" id="Shape" fill="#407BFF" stroke="none" />
        <path d="M549.136 0.00352865L56.7939 0.00352865C41.0314 -0.186357 25.9249 7.3579 15.1576 20.7969C4.39026 34.2359 -1.04838 52.3347 0.167708 70.6804L70.744 1296.33C73.5027 1335.89 101.544 1366.53 135.542 1367.15L627.884 1367.15C643.671 1367.36 658.803 1359.8 669.571 1346.32C680.339 1332.84 685.747 1314.69 684.469 1296.33L613.893 70.6804C611.076 31.1958 583.074 0.634569 549.136 0.00360216L549.136 0.00352865Z" transform="translate(4.456543 0)" id="Shape" fill="#EEEEEE" fill-opacity="0.3" stroke="none" />
        <path d="M1.10949 0.0461121L5.24007 0L4.13057 115.796L0 115.842L1.10949 0.0461121Z" transform="matrix(0.9977549 -0.06697048 0.06697048 0.9977549 0 262.971)" id="Rectangle" fill="#407BFF" stroke="none" />
        <path d="M0.4986 0.0462036L4.62919 0L4.13059 51.9032L0 51.9494L0.4986 0.0462036Z" transform="matrix(0.9977432 -0.06714462 0.06714462 0.9977432 10.91357 439.3234)" id="Rectangle" fill="#407BFF" stroke="none" />
        <path d="M106.466 1274.04C107.161 1283.7 101.593 1292.46 93.4679 1294.49C85.3425 1296.52 77.1915 1291.19 74.4381 1282.03C72.3855 1275.51 71.1349 1268.68 70.7235 1261.75L0.147209 35.8662C-0.270644 28.9654 0.202377 22.0306 1.55047 15.2941C3.267 5.79574 10.7679 -0.729549 19.0561 0.0655006C27.3443 0.860476 33.832 8.7276 34.1972 18.4257L106.466 1274.04Z" transform="translate(4.477295 34.81424)" id="Shape" fill="#407BFF" stroke="none" />
        <path d="M115.666 1320.95L573.091 1320.95C583.375 1321.13 593.244 1316.22 600.253 1307.43C607.261 1298.64 610.754 1286.8 609.865 1274.84L539.289 49.1962C537.144 21.877 517.836 0.74631 494.343 0.00661622L36.9177 0.00661622C26.6256 -0.205029 16.741 4.69708 9.7267 13.4914C2.71236 22.2858 -0.771281 34.1444 0.143745 46.1127L70.7201 1271.71C72.8455 1299.05 92.1586 1320.2 115.666 1320.95ZM12.9697 17.0347C19.1443 9.28461 27.8522 4.96738 36.9174 5.16161L494.343 4.96878C515.551 5.62732 532.974 24.7231 534.873 49.3888L605.449 1274.98C606.272 1285.52 603.213 1295.98 597.039 1303.73C590.864 1311.48 582.156 1315.79 573.091 1315.6L115.666 1315.6C94.4577 1314.94 77.0343 1295.84 75.1359 1271.18L4.55958 45.7755C3.737 35.2355 6.79511 24.7847 12.9697 17.0347Z" transform="translate(59.24951 23.21869)" id="Shape" fill="#EEEEEE" fill-rule="evenodd" stroke="none" />
        <path d="M265.012 24.908L1.44457 24.908L0 0L263.609 0L265.012 24.908L265.012 24.908Z" transform="translate(325.5605 1017.712)" id="Polygon" fill="#EEEEEE" stroke="none" />
        <path d="M181.641 24.9081L1.44451 24.9081L0 0L180.197 0L181.641 24.9081L181.641 24.9081Z" transform="translate(328.574 1069.455)" id="Polygon" fill="#EEEEEE" stroke="none" />
        <path d="M265.053 24.908L1.44457 24.908L0 0L263.609 0L265.053 24.908L265.053 24.908Z" transform="translate(322.5479 965.9692)" id="Polygon" fill="#EEEEEE" stroke="none" />
      </g>
      <g id="Group" transform="matrix(0.9993908 0.0348995 -0.0348995 0.9993908 649.7292 369.6072)">
        <path d="M250 144.559L0 0L38.0435 329.797L250 144.559L250 144.559Z" transform="translate(24.99976 3.051758E-05)" id="Polygon" fill="#EEEEEE" stroke="none" />
        <path d="M37.9515 329L63.1444 329L25.1928 0L0 0L37.9515 329L37.9515 329Z" transform="translate(0 0.7969971)" id="Polygon" fill="#AFAFAF" stroke="none" />
      </g>
      <path d="M0.102382 11.6538C0.942761 17.9298 6.21271 22.6688 12.5424 22.8406L12.5424 22.8405C15.5479 22.8975 18.4272 21.6334 20.4193 19.3822C22.4114 17.131 23.3159 14.1194 22.8937 11.1432C22.0507 4.87586 16.7757 0.151891 10.4536 0.00286855C7.45235 -0.0681369 4.57183 1.1851 2.57787 3.4294C0.583909 5.67374 -0.32149 8.68175 0.102382 11.6538ZM5.81143 6.22287C7.00075 4.92778 8.69581 4.21588 10.4532 4.27332L10.4532 4.36632C14.5694 4.46346 18.0087 7.52934 18.5764 11.6074C18.7251 13.2836 18.2082 14.951 17.1375 16.2492C15.9481 17.5443 14.2531 18.2562 12.4956 18.1987C8.3564 18.0754 4.91673 14.9699 4.37248 10.8647C4.2082 9.18683 4.72691 7.51358 5.81143 6.22287Z" transform="translate(230.1309 166.524)" id="Shape" fill="#FAFAFA" fill-rule="evenodd" stroke="none" />
      <path d="M0.102382 11.6538C0.945665 17.9468 6.2414 22.6913 12.5889 22.8406L12.5889 22.8406C15.577 22.8817 18.4371 21.6293 20.4335 19.4056C22.4004 17.1301 23.3111 14.1279 22.9401 11.1432C22.0579 4.87827 16.7782 0.167792 10.4536 0.00286855C7.45235 -0.0681369 4.57183 1.1851 2.57787 3.4294C0.583909 5.67374 -0.32149 8.68175 0.102382 11.6538ZM5.81143 6.22294C7.00436 4.93298 8.69698 4.22211 10.4532 4.27339L10.4532 4.36618C14.4768 4.46636 17.8642 7.40592 18.53 11.3754C18.8072 13.1086 18.2975 14.8751 17.1398 16.1944C15.982 17.5137 14.2966 18.2485 12.5421 18.1988C8.38502 18.0979 4.9196 14.9869 4.37248 10.8648C4.2082 9.1869 4.72691 7.51365 5.81143 6.22294Z" transform="translate(261.5562 166.524)" id="Shape" fill="#FAFAFA" fill-rule="evenodd" stroke="none" />
      <path d="M0.0880042 11.6526C0.931287 17.9456 6.22702 22.6901 12.5745 22.8393L12.5745 22.8392C15.58 22.8963 18.4593 21.6321 20.4514 19.381C22.4435 17.1298 23.348 14.1181 22.9258 11.1419C22.0435 4.87703 16.7639 0.166553 10.4393 0.00162905C7.45844 -0.0512443 4.59952 1.18368 2.59462 3.39016C0.611886 5.65685 -0.301127 8.66634 0.0880042 11.6526ZM5.862 6.26158C7.01789 4.95334 8.69415 4.22473 10.4393 4.27198L10.4393 4.36494C14.5478 4.43934 17.9923 7.49013 18.5624 11.5596C18.8395 13.2928 18.3299 15.0594 17.1722 16.3787C16.0144 17.698 14.329 18.4327 12.5744 18.3831C8.42744 18.279 4.97711 15.1639 4.45128 11.049C4.18946 9.32303 4.70612 7.56978 5.862 6.26158Z" transform="translate(292.9958 166.5251)" id="Shape" fill="#FAFAFA" fill-rule="evenodd" stroke="none" />
      <g id="Character--inject-235" transform="translate(793.749 0)">
        <path d="M40.0125 0C42.5654 6.17361 44.4223 11.3724 46.3253 17.0818C48.2283 22.7912 49.8994 28.1757 51.617 33.7459C54.8199 44.9327 57.605 56.2122 60.1579 67.4919C62.7108 78.7715 64.7997 90.0974 66.7493 101.47C67.6313 107.179 68.5597 112.889 69.2095 118.598L70.3235 127.186L70.602 129.46L70.8805 132.57C70.8805 134.705 70.8805 136.376 70.8805 138.326C70.7268 144.917 70.028 151.485 68.7916 157.961C67.6311 164.042 66.3314 169.937 64.846 175.646C61.8289 187.111 58.3475 198.112 54.5412 208.974C46.8947 230.549 38.0303 251.672 27.9902 272.241L7.8448 264.629C13.3221 243.184 18.6601 221.46 23.4412 200.061C25.8086 189.385 28.083 178.709 29.6612 168.219C30.5432 162.973 31.1929 157.774 31.6571 152.761C32.1342 148.136 32.2739 143.482 32.075 138.836C32.0429 137.949 31.9498 137.065 31.7964 136.19L31.7964 135.122L31.4251 133.219L29.8005 125.189L26.3191 109.221C23.8589 98.5915 21.306 88.0081 18.5672 77.4712C15.8284 66.9344 12.8114 56.5367 9.65489 46.2319C8.0767 41.0795 6.4985 35.927 5.01309 30.8675C3.52768 25.8079 1.53173 20.5163 0 16.2458L40.0125 0Z" transform="translate(461.1176 316.55)" id="Shape" fill="#FFC3BD" stroke="none" />
        <path d="M22.4826 16.9708L29.5846 47.0962L10.7389 69.3769C10.7389 69.3769 -14.3269 -3.36024 12.1313 0.121117L22.4826 16.9708Z" transform="translate(467.6462 568.5718)" id="Shape" fill="#FFC3BD" stroke="none" />
        <path d="M21.0845 9.27588C17.4062 10.1901 13.6398 10.7036 9.85123 10.8078C6.97957 11.0493 4.11598 10.2593 1.77439 8.57963C0.308528 7.2047 -0.311078 5.15138 0.149731 3.19509C0.283172 1.95686 1.05931 0.880685 2.19214 0.363635C7.15891 -1.81803 19.9703 6.49089 21.4093 7.46564C21.7565 7.65787 21.9431 8.04969 21.8736 8.44038C21.7957 8.84878 21.4878 9.17473 21.0845 9.27588ZM3.11999 7.09435C5.25532 9.04398 10.8254 9.32248 18.2523 7.83706C13.0071 4.63418 5.62661 1.06002 2.9806 2.22062C2.46525 2.44543 2.13562 2.95809 2.14511 3.52019C1.82921 4.79992 2.19795 6.15205 3.11999 7.09435Z" transform="translate(379.1323 1477.938)" id="Shape" fill="#407BFF" fill-rule="evenodd" stroke="none" />
        <path d="M11.8832 19.1235C11.7163 19.1712 11.5395 19.1712 11.3726 19.1235L10.7226 19.1699C6.73055 16.8026 -0.928419 7.51898 0.0927853 2.87718C0.419021 1.25578 1.8278 0.0786193 3.48136 0.045755C5.03392 -0.159647 6.59781 0.333317 7.75189 1.39177C12.3937 5.52304 12.3937 17.731 12.3937 18.288C12.3963 18.641 12.1984 18.9647 11.8832 19.1235ZM5.89562 2.83086C5.2923 2.26381 4.49534 1.94834 3.66736 1.94891L3.20329 1.94891C1.90359 2.13462 1.5323 2.69161 1.5323 3.15582C0.928844 6.08017 5.66358 12.9964 9.70194 16.1993C9.51623 12.1145 8.63427 5.29101 5.89562 2.83086Z" transform="translate(388.612 1468.09)" id="Shape" fill="#407BFF" fill-rule="evenodd" stroke="none" />
        <path d="M84.2226 0C79.0238 25.205 68.1155 76.3577 85.6151 93.2075C85.6151 93.2075 78.4666 118.83 31.538 118.83C-20.0324 118.83 7.16854 93.2075 7.16854 93.2075C35.3443 86.4769 35.0194 65.5888 30.1455 46.0003L84.2226 0Z" transform="translate(324.9991 167.6408)" id="Shape" fill="#FFC3BD" stroke="none" />
        <path d="M17.4709 10.1816C16.8416 10.2492 16.2184 10.0069 15.8 9.5318C12.4382 5.67512 7.43584 3.65694 2.33875 4.10089C1.80839 4.19446 1.26273 4.06973 0.825717 3.75507C0.388706 3.44038 0.0973181 2.96247 0.0178487 2.42984C-0.125083 1.33642 0.606574 0.320215 1.68883 0.108934C8.1301 -0.566273 14.4984 1.92572 18.7706 6.79315C19.5612 7.58954 19.5612 8.87465 18.7706 9.67105C18.405 9.97904 17.9483 10.1585 17.4709 10.1816L17.4709 10.1816Z" transform="translate(284.1067 115.8221)" id="Shape" fill="#263238" stroke="none" />
        <path d="M8.86586 0C6.99571 8.22643 4.01299 16.1596 0 23.5804C3.89924 25.5042 8.44557 25.6229 12.44 23.9053L8.86586 0Z" transform="translate(284.1713 151.4408)" id="Shape" fill="#ED847E" stroke="none" />
        <path d="M8.026 5.56265C8.53653 8.95118 7.19051 11.9683 4.96238 12.3397C2.73426 12.711 0.32057 10.2045 0.0420721 6.81592C-0.236425 3.42738 0.877565 0.410238 3.10569 0.0388848C5.33381 -0.332468 7.56179 1.98847 8.026 5.56265L8.026 5.56265Z" transform="translate(287.1461 139.751)" id="Shape" fill="#263238" stroke="none" />
        <path d="M8.49445 1.71709L0 0C0 0 5.10602 9.18261 8.49445 1.71709L8.49445 1.71709Z" transform="translate(282.7786 138.5831)" id="Shape" fill="#263238" stroke="none" />
        <path d="M42.519 98.5454L0 98.5454L4.27052 0L46.8358 0L42.519 98.5454L42.519 98.5454Z" transform="translate(406.9469 1391.082)" id="Polygon" fill="#FFC3BD" stroke="none" />
        <path d="M61.6496 0.000141657L109.46 0.000141657C111.139 -0.0161489 112.569 1.21556 112.802 2.87804L117.908 40.7088C118.077 42.6495 117.425 44.5722 116.111 46.01C114.796 47.4478 112.94 48.2693 110.992 48.2749C94.3278 47.9964 86.2974 47.0217 65.3165 47.0217C52.3658 47.0217 33.4738 48.3214 15.6028 48.3214C-2.26821 48.3214 -2.96445 30.6826 4.41601 29.1042C37.8371 21.9095 43.1751 12.0224 54.5012 2.59954C56.5032 0.917653 59.0349 -0.00297479 61.6496 0.000141657L61.6496 0.000141657Z" transform="translate(341.9559 1481.318)" id="Shape" fill="#263238" stroke="none" />
        <g id="Group" transform="translate(409.0366 1391.129)" opacity="0.2">
          <path d="M44.7469 0L2.18166 0L0 50.7812L42.5653 50.7812L44.7469 0L44.7469 0Z" id="Polygon" fill="#000000" fill-opacity="0.2" stroke="none" />
        </g>
        <path d="M21.1202 1.04783L0 7.82491L13.4148 38.9715C13.4148 38.9715 42.1012 25.8351 44.19 7.63926L39.9196 4.2043C34.5686 0.0898812 27.5215 -1.09338 21.1202 1.04783L21.1202 1.04783Z" transform="translate(25.48348 490.2661)" id="Shape" fill="#FFC3BD" stroke="none" />
        <path d="M0 7.61256L14.2039 35.4634L38.8984 31.1466L25.4835 0L0 7.61256L0 7.61256Z" transform="translate(0 498.2767)" id="Polygon" fill="#FFC3BD" stroke="none" />
        <path d="M117.306 52.8107C121.019 94.8654 123.433 112.597 105.608 137.338C78.7787 174.472 26.3727 170.388 10.2193 130.375C-4.30962 94.3548 -7.88376 31.5976 30.4112 8.52777C47.3639 -1.95564 68.559 -2.83062 86.3183 6.21976C104.077 15.2701 115.825 32.9333 117.306 52.8107L117.306 52.8107Z" transform="translate(290.1062 62.47048)" id="Shape" fill="#FFC3BD" stroke="none" />
        <path d="M14.6853 93.7524C6.00511 84.8866 6.88707 59.9137 10.2755 52.9045C6.46875 51.9664 3.2574 49.4205 1.47564 45.9281C-0.306262 42.4357 -0.482766 38.3414 0.99188 34.7086C3.68407 27.1425 16.8669 11.2211 43.9751 2.95864C75.3537 -6.60347 127.017 6.53282 139.225 49.3767C151.433 92.2206 123.35 153.075 103.019 158.181C82.6879 163.287 60.4071 153.864 14.6853 93.7524L14.6853 93.7524Z" transform="translate(295.4801 55.73881)" id="Shape" fill="#263238" stroke="none" />
        <path d="M29.0439 6.41737C23.8066 -0.515135 14.0237 -2.06309 6.90208 2.91374C-0.21971 7.8906 -2.1291 17.6092 2.58042 24.9106C7.29008 32.2118 16.9312 34.48 24.4021 30.0442C32.2035 24.7985 34.2809 14.2246 29.0439 6.41737L29.0439 6.41737Z" transform="translate(360.3577 31.4849)" id="Shape" fill="#263238" stroke="none" />
        <path d="M33.3888 19.524C34.8507 10.6046 28.9951 2.12683 20.1361 0.336045C11.2769 -1.45474 2.58835 4.08308 0.471009 12.8699C-1.64633 21.6567 3.56621 30.5442 12.2686 32.9852C21.8109 35.0602 31.2405 29.05 33.3888 19.524L33.3888 19.524Z" transform="translate(378.7572 10.11585)" id="Shape" fill="#263238" stroke="none" />
        <path d="M26.1787 3.04888C32.9842 8.43396 34.3186 18.234 29.2008 25.2427C24.0828 32.2513 14.3417 33.9636 7.14049 29.1204C-0.0607707 24.2773 -2.14837 14.6096 2.4127 7.22655C7.85727 -0.434072 18.4481 -2.29572 26.1787 3.04888L26.1787 3.04888Z" transform="translate(423.7984 90.23009)" id="Shape" fill="#263238" stroke="none" />
        <path d="M14.2417 0.163295C23.1733 -1.08555 31.4913 4.95834 33.0628 13.8387C34.6342 22.7192 28.8957 31.2505 20.078 33.1427C11.2604 35.0349 2.52673 29.6091 0.316319 20.8657C-1.50312 11.3141 4.70895 2.07878 14.2417 0.163295L14.2417 0.163295Z" transform="translate(444.1833 71.39201)" id="Shape" fill="#263238" stroke="none" />
        <path d="M32.709 27.2261C37.8178 19.1662 35.6318 8.50865 27.7626 3.11075C19.8934 -2.28715 9.16363 -0.489282 3.48376 7.17888C-2.1961 14.8471 -0.788603 25.6351 6.66849 31.5894C10.6911 34.4913 15.7076 35.663 20.5994 34.8433C25.4914 34.0236 29.8519 31.2807 32.709 27.2261L32.709 27.2261Z" transform="translate(410.537 0)" id="Shape" fill="#263238" stroke="none" />
        <path d="M30.1839 36.0693C39.0502 30.3701 41.8173 18.677 36.4459 9.60851C31.0742 0.540031 19.49 -2.65235 10.2314 2.3844C0.972757 7.42115 -2.64062 18.8811 2.05459 28.3175C7.69054 38.2145 20.2738 41.6821 30.1839 36.0693L30.1839 36.0693Z" transform="translate(435.761 15.4335)" id="Shape" fill="#263238" stroke="none" />
        <path d="M19.8318 29.1879C27.4541 26.5905 31.6633 18.4358 29.3654 10.7179C27.0676 3.00001 19.0834 -1.52433 11.2817 0.470477C3.47994 2.46529 -1.35254 10.2668 0.336152 18.1404C2.70479 26.5468 11.4032 31.4758 19.8318 29.1879L19.8318 29.1879Z" transform="translate(450.6157 47.75191)" id="Shape" fill="#263238" stroke="none" />
        <path d="M73.1549 89.0834C98.5456 75.3901 109.222 45.9146 97.0139 23.2161C84.8061 0.517684 54.3557 -6.76995 28.9185 6.87697C3.48136 20.5239 -7.14828 50.0458 5.05955 72.7442C17.2674 95.4427 47.7642 102.73 73.1549 89.0834L73.1549 89.0834Z" transform="translate(361.8751 20.72041)" id="Shape" fill="#263238" stroke="none" />
        <path d="M25.8849 11.2439C26.9656 20.5138 25.1839 29.8924 20.7788 38.12C14.7908 49.3996 5.60011 47.1715 2.21154 37.4237C-0.991313 28.6971 -1.68756 12.2651 6.85335 4.14197C15.3943 -3.98119 24.353 0.614153 25.8849 11.2439L25.8849 11.2439Z" transform="translate(303.6372 129.4279)" id="Shape" fill="#FFC3BD" stroke="none" />
        <path d="M7.28457 4.71997C8.12006 7.82997 7.28457 10.7543 5.28862 11.2649C3.29268 11.7755 1.15734 9.68674 0.321845 6.62313C-0.513648 3.55951 0.321845 0.588761 2.31779 0.0781591C4.31374 -0.432443 6.63465 1.60996 7.28457 4.71997L7.28457 4.71997Z" transform="translate(307.8473 165.2882)" id="Shape" fill="#EEEEEE" stroke="none" />
        <path d="M0 0.32489C0 0.32489 21.8166 292.341 45.7682 456.893C65.1709 589.834 78.2608 900.511 78.2608 900.511L136.283 900.511C136.283 900.511 166.873 600.464 157.636 468.823C134.427 136.144 181.541 77.2861 126.953 0L0 0.32489Z" transform="translate(323.5802 528.1699)" id="Shape" fill="#407BFF" stroke="none" />
        <path d="M45.4896 55.045C46.6501 124.672 28.2686 187.383 16.6176 208.642C10.3511 151.641 4.68813 92.1796 0 39.7271C18.428 -19.688 44.3757 -10.7294 45.4896 55.045L45.4896 55.045Z" transform="translate(336.8098 648.0747)" id="Shape" fill="#000000" fill-opacity="0.2" stroke="none" />
        <path d="M0.139249 28.5935L74.0369 28.5935L78.168 2.64586L0 0L0.139249 28.5935L0.139249 28.5935Z" transform="translate(393.9043 1401.248)" id="Polygon" fill="#263238" stroke="none" />
        <path d="M26.8617 2.52774C26.8994 2.87962 26.7604 3.22725 26.4904 3.45616L26.3975 3.54923C20.0847 6.8449 8.80497 11.9509 3.18841 9.30507C1.5136 8.52595 0.344226 6.95525 0.0783362 5.1273C-0.165172 4.02265 0.16673 2.86984 0.960292 2.06353C5.18436 -2.1141 23.9373 1.27449 26.0725 1.69224C26.4971 1.75486 26.8234 2.10022 26.8617 2.52774ZM22.638 3.54923C15.1648 2.20306 5.092 1.46035 2.49259 3.54923L2.39981 3.92052C2.0842 4.23627 1.96053 4.69595 2.07485 5.12744C2.22274 6.33507 2.97479 7.38447 4.07079 7.91257C7.1344 9.35153 13.9579 7.77332 22.638 3.54923Z" transform="translate(305.2136 1470.204)" id="Shape" fill="#407BFF" fill-rule="evenodd" stroke="none" />
        <path d="M19.4279 14.5337C19.5849 14.8395 19.5849 15.2024 19.4279 15.5084C19.2361 15.7696 18.9105 15.8963 18.5925 15.8334C12.8367 15.1371 0.582209 9.05638 0.0252149 4.41458C-0.114175 3.25413 0.257249 1.67594 2.85665 0.608273C4.72185 -0.20271 6.84018 -0.20271 8.70538 0.608273C15.1111 3.4397 19.4279 14.0695 19.4279 14.5337ZM3.92389 2.32543C3.53292 2.45703 3.17056 2.66187 2.85623 2.92889C2.25277 3.3931 2.29923 3.81084 2.34569 4.04288C2.67065 6.82798 11.2579 11.7947 17.1066 13.3265C15.3885 8.81443 12.2845 4.96308 8.24074 2.32543C6.86979 1.69988 5.29485 1.69988 3.92389 2.32543Z" transform="translate(312.276 1458.151)" id="Shape" fill="#407BFF" fill-rule="evenodd" stroke="none" />
        <path d="M58.4868 98.9634L17.7317 107.968L10.4904 67.8169L1.11399 15.1788L0 9.05158L40.7551 0L42.0083 6.91639L51.1527 57.8834L58.4868 98.9634L58.4868 98.9634Z" transform="translate(320.2383 1367.223)" id="Polygon" fill="#FFC3BD" stroke="none" />
        <path d="M50.0387 50.967L9.3764 60.9005L0 8.26241L40.8943 0L50.0387 50.967L50.0387 50.967Z" transform="translate(321.3522 1374.139)" id="Polygon" fill="#000000" fill-opacity="0.2" stroke="none" />
        <path d="M68.0024 0.0927851C68.0024 0.0927851 0 341.451 0 439.672C0 526.845 107.644 888.767 107.644 888.767L165.48 879.483C165.48 879.483 132.199 632.585 108.804 460.467C126.953 275.166 216.03 99.5667 187.715 0L68.0024 0.0927851Z" transform="translate(209.9953 528.4021)" id="Shape" fill="#407BFF" stroke="none" />
        <path d="M57.2256 13.8179L103.226 0.17098C104.838 -0.364483 106.595 0.394372 107.311 1.93489L123.139 36.5164C123.885 38.3573 123.804 40.43 122.915 42.2066C122.027 43.9832 120.418 45.2922 118.498 45.8C102.344 50.4419 94.3601 51.6488 74.1219 57.6831C61.6819 61.3965 36.2912 70.3552 19.1164 75.4611C1.94169 80.567 -4.0926 63.9494 2.77732 60.3288C32.8563 43.8967 42.7432 30.714 50.9128 18.5525C52.3937 16.2799 54.6293 14.6031 57.2256 13.8179L57.2256 13.8179Z" transform="translate(275.1744 1453.529)" id="Shape" fill="#263238" stroke="none" />
        <path d="M8.12316 45.9076L80.1641 28.4543L77.1469 0L0 18.6137L8.12316 45.9076L8.12316 45.9076Z" transform="translate(303.7596 1382.588)" id="Polygon" fill="#263238" stroke="none" />
        <path d="M0.0313061 48.9573C-0.804185 24.4949 15.0707 -6.74442 52.5301 1.28589C70.2154 4.99935 88.4577 68.7314 88.4577 68.7314L40.8792 124.758C24.4473 117.145 0.774012 64.4609 0.0313061 48.9573L0.0313061 48.9573Z" transform="translate(431.1464 269.2173)" id="Shape" fill="#263238" stroke="none" />
        <path d="M22.6975 0C22.8617 23.2226 25.5705 46.3531 30.7752 68.9814L30.4967 69.2599C20.7489 64.618 8.49459 44.2405 0 25.2091L22.6975 0Z" transform="translate(441.4828 324.7194)" id="Shape" fill="#000000" fill-opacity="0.2" stroke="none" />
        <path d="M5.41129 12.3027C5.41129 12.3027 -14.9199 19.4046 23.2358 269.041L196.004 269.041C193.776 198.718 194.147 155.363 229.146 11.0494C205 6.04364 180.518 2.81656 155.899 1.3944C129.783 -0.464776 103.568 -0.464776 77.4519 1.39433C43.7062 4.45801 5.41129 12.3027 5.41129 12.3027L5.41129 12.3027Z" transform="translate(254.7158 259.4539)" id="Shape" fill="#263238" stroke="none" />
        <path d="M0 23.4613C0 23.4613 13.9254 8.0041 26.5047 5.9153C39.0839 3.8265 93.161 -3.36831 129.785 1.87695C128.665 10.4433 127.116 18.9483 125.143 27.3597L0 23.4613Z" transform="translate(308.0309 242.8642)" id="Shape" fill="#263238" stroke="none" />
        <path d="M3.57414 0L30.2645 3.43496C28.5935 23.6732 15.5499 47.9035 5.05955 60.7613C2.83143 42.1941 1.20692 25.9941 0 11.8367C1.90302 4.54895 3.57414 0 3.57414 0L3.57414 0Z" transform="translate(257.7597 357.1658)" id="Shape" fill="#000000" fill-opacity="0.2" stroke="none" />
        <path d="M47.8106 1.53003C26.5975 6.68245 0 64.705 0 64.705L42.3797 131.547C42.3797 131.547 96.2247 91.349 95.714 33.1407C95.482 8.72478 73.5262 -4.73644 47.8106 1.53003L47.8106 1.53003Z" transform="translate(212.3162 270.2265)" id="Shape" fill="#263238" stroke="none" />
        <path d="M180.566 1.30175L188.179 16.759C188.782 17.9658 187.343 19.1727 185.347 19.1727L4.31685 19.1727C2.78511 19.1727 1.48541 18.43 1.39249 17.4553L0 1.99807C0 0.884008 1.25324 0.00212485 2.97082 0.00212485L177.921 0.00212485C178.965 -0.0366182 179.959 0.451601 180.566 1.30175L180.566 1.30175Z" transform="translate(272.8456 517.074)" id="Shape" fill="#407BFF" stroke="none" />
        <path d="M180.566 1.30175L188.179 16.759C188.782 17.9658 187.343 19.1727 185.347 19.1727L4.31685 19.1727C2.78511 19.1727 1.48541 18.43 1.39249 17.4553L0 1.99807C0 0.884008 1.25324 0.00212485 2.97082 0.00212485L177.921 0.00212485C178.965 -0.0366182 179.959 0.451601 180.566 1.30175L180.566 1.30175Z" transform="translate(272.8456 517.074)" id="Shape" fill="#000000" fill-opacity="0.2" stroke="none" />
        <path d="M3.76198 22.3271L8.40379 22.3271C9.33221 22.3271 10.0748 21.8629 10.0285 21.2595L8.03251 1.0676C8.03251 0.510602 7.19702 0 6.2686 0L1.62679 0C0.698368 0 -0.0441969 0.510602 0.00212485 1.0676L2.04453 21.1666C2.04453 21.8629 2.8337 22.3271 3.76198 22.3271L3.76198 22.3271Z" transform="translate(425.9301 515.5907)" id="Shape" fill="#407BFF" stroke="none" />
        <path d="M3.80844 22.2343L8.45024 22.2343C9.37866 22.2343 10.1212 21.77 10.0749 21.1667L8.0325 1.0676C8.0325 0.510602 7.19701 0 6.26859 0L1.62678 0C0.698367 0 -0.0441969 0.510602 0.00212485 1.0676L1.99807 21.1667C2.09099 21.77 2.8337 22.2343 3.80844 22.2343L3.80844 22.2343Z" transform="translate(312.2987 515.6835)" id="Shape" fill="#407BFF" stroke="none" />
        <path d="M235.293 21.4918C223.18 42.9922 209.932 63.8328 195.605 83.9255C188.503 94.0446 181.169 104.025 173.139 113.726C165.121 123.753 156.47 133.258 147.238 142.18L145.427 143.944L143.292 145.847C141.853 147.147 140.414 148.307 138.975 149.421C136.202 151.642 133.304 153.704 130.295 155.595C124.639 159.22 118.764 162.491 112.703 165.389C101.242 170.946 89.4263 175.738 77.3321 179.732C53.793 187.491 29.6501 193.282 5.15241 197.045L0 176.157C22.0022 167.941 44.19 158.982 64.9853 149.142C75.3044 144.377 85.3605 139.062 95.1104 133.22C99.7055 130.494 104.138 127.502 108.386 124.262C110.382 122.683 112.378 121.152 114.049 119.62C114.928 118.878 115.765 118.087 116.556 117.252L117.67 116.092L119.016 114.606C133.941 97.252 147.652 78.8887 160.05 59.6473C166.595 49.9459 172.768 39.9196 179.035 29.9861C185.301 20.0526 191.475 9.74783 197.602 0L235.293 21.4918Z" transform="translate(38.29491 319.6133)" id="Shape" fill="#FFC3BD" stroke="none" />
      </g>
    </g>
    <path d="M9.95133 4.99966C10.1427 6.27394 9.76411 7.56821 8.9177 8.53336C8.07129 9.49851 6.84425 10.035 5.56759 9.99825C2.76046 9.92563 0.42054 7.80785 0.0446314 4.99966C-0.137673 3.72705 0.244131 2.43797 1.08858 1.47511C1.93298 0.512246 3.15451 -0.0269242 4.42837 0.00106781C7.23958 0.0633061 9.58524 2.1862 9.95133 4.99966L9.95133 4.99966Z" transform="translate(701 1063)" id="Shape" fill="#FFFFFF" stroke="none" />
    <path d="M373 4L0.440309 4L0 0L372.58 0L373 4L373 4Z" transform="matrix(0.9993908 -0.0348995 0.0348995 0.9993908 704.6819 1065.97)" id="Polygon" fill="#FFFFFF" fill-opacity="0.5" stroke="none" />
  </g>
</svg>