<?xml version="1.0" encoding="utf-8"?>
<svg width="2000px" height="2000px" viewBox="0 0 2000 2000" version="1.1" xmlns:xlink="http://www.w3.org/1999/xlink" xmlns="http://www.w3.org/2000/svg">
  <desc>Created with Lunacy</desc>
  <defs>
    <rect width="2000" height="1999.99976" id="artboard_1" />
    <clipPath id="clip_1">
      <use xlink:href="#artboard_1" clip-rule="evenodd" />
    </clipPath>
  </defs>
  <g id="Ultra-HD-Copy-7" clip-path="url(#clip_1)">
    <use xlink:href="#artboard_1" stroke="none" fill="#FFFFFF" />
    <g id="Group" transform="translate(100.9956 183.8469)">
      <g id="Shadow--inject-177" transform="translate(0 1527.754)">
        <path d="M0 52.5453C0 23.5253 402.944 0 900 0C1397.06 0 1800 23.5253 1800 52.5453C1800 81.5652 1397.06 105.091 900 105.091C402.944 105.091 0 81.5652 0 52.5453Z" id="path--inject-177" fill="#E9E9E9" stroke="none" />
      </g>
      <g id="Smartphone--inject-177" transform="translate(197.4556 248.5156)">
        <path d="M617.595 0.00339976L63.8742 0.00339976C46.1467 -0.17955 29.1569 7.08914 17.0472 20.0373C4.93759 32.9854 -1.17908 50.4231 0.188616 68.0987L79.5635 1248.97C82.666 1287.09 114.204 1316.62 152.44 1317.21L706.161 1317.21C723.916 1317.41 740.935 1310.13 753.045 1297.14C765.155 1284.16 771.237 1266.67 769.8 1248.97L690.425 68.0987C687.257 30.0563 655.765 0.61139 617.595 0.00347059L617.595 0.00339976Z" transform="translate(3.763672 0)" id="Shape" fill="#407BFF" stroke="none" />
        <path d="M617.595 0.00339976L63.8742 0.00339976C46.1467 -0.17955 29.1569 7.08914 17.0472 20.0373C4.93759 32.9854 -1.17908 50.4231 0.188616 68.0987L79.5635 1248.97C82.666 1287.09 114.204 1316.62 152.44 1317.21L706.161 1317.21C723.916 1317.41 740.935 1310.13 753.045 1297.14C765.155 1284.16 771.237 1266.67 769.8 1248.97L690.425 68.0987C687.257 30.0563 655.765 0.61139 617.595 0.00347059L617.595 0.00339976Z" transform="translate(3.763672 0)" id="Shape" fill="#EEEEEE" fill-opacity="0.3" stroke="none" />
        <path d="M0 0L4.64184 1.52588e-05L4.64184 111.636L0 111.636L0 0Z" transform="matrix(0.9977549 -0.06697048 0.06697048 0.9977549 2.145767E-06 253.3354)" id="Rectangle" fill="#407BFF" stroke="none" />
        <path d="M0 0L4.64184 0L4.64184 50.0391L3.8147e-06 50.0391L0 0Z" transform="matrix(0.9977432 -0.06714462 0.06714462 0.9977432 11.58838 423.2837)" id="Rectangle" fill="#407BFF" stroke="none" />
        <path d="M119.738 1227.5C120.52 1236.81 114.259 1245.26 105.12 1247.21C95.9819 1249.17 86.8147 1244.02 83.7181 1235.21C81.4096 1228.92 80.0031 1222.34 79.5404 1215.66L0.165561 34.5561C-0.304385 27.9074 0.227607 21.2259 1.74376 14.7355C3.67429 5.58404 12.1103 -0.702901 21.4318 0.0631081C30.7532 0.829046 38.0498 8.40881 38.4605 17.7526L119.738 1227.5Z" transform="translate(3.787109 33.54272)" id="Shape" fill="#407BFF" stroke="none" />
        <path d="M130.086 1272.7L644.537 1272.7C656.103 1272.87 667.202 1268.14 675.084 1259.67C682.967 1251.21 686.895 1239.8 685.896 1228.28L606.521 47.3992C604.108 21.078 582.393 0.71905 555.971 0.00637455L41.5201 0.00637455C29.9449 -0.19754 18.828 4.52551 10.9393 12.9986C3.05051 21.4718 -0.867435 32.8972 0.161666 44.4284L79.5365 1225.26C81.9269 1251.6 103.648 1271.98 130.086 1272.7ZM14.587 16.4125C21.5314 8.94548 31.3248 4.78594 41.5202 4.97307L555.971 4.78729C579.823 5.42177 599.419 23.8201 601.554 47.5848L680.929 1228.41C681.854 1238.57 678.415 1248.64 671.47 1256.11C664.526 1263.57 654.733 1267.73 644.537 1267.54L130.086 1267.54C106.234 1266.91 86.6383 1248.51 84.5033 1224.75L5.1284 44.1035C4.20327 33.9485 7.64263 23.8794 14.587 16.4125Z" transform="translate(65.3877 22.37036)" id="Shape" fill="#EEEEEE" fill-rule="evenodd" stroke="none" />
        <g id="Group" transform="translate(103.8979 90.48438)" opacity="0.5">
          <path d="M0 231.117C0 103.475 92.564 1.52588e-05 206.748 0C320.931 0 413.495 103.475 413.495 231.117C413.495 358.76 320.931 462.234 206.748 462.234C92.5641 462.234 1.52588e-05 358.76 0 231.117Z" transform="matrix(0.6870875 -0.7265747 0.7265747 0.6870875 -3.814697E-05 300.4351)" id="Ellipse" fill="#407BFF" fill-opacity="0.5" stroke="none" />
          <path d="M0 184.884C0 82.7756 74.0471 0 165.389 0C256.73 0 330.777 82.7756 330.777 184.884C330.778 286.993 256.73 369.769 165.389 369.769C74.0471 369.769 -1.52588e-05 286.993 0 184.884Z" transform="matrix(0.6870875 -0.7265747 0.7265747 0.6870875 62.0083 302.1975)" id="Ellipse" fill="#EEEEEE" fill-opacity="0.5" stroke="none" />
          <path d="M0 138.652C1.52588e-05 62.0765 55.5301 0 124.03 0C192.53 0 248.06 62.0765 248.06 138.652C248.06 215.227 192.53 277.303 124.03 277.303C55.5301 277.303 3.05176e-05 215.227 0 138.652Z" transform="matrix(0.6872143 -0.7264547 0.7264547 0.6872143 124.0093 304.0654)" id="Ellipse" fill="#407BFF" fill-opacity="0.5" stroke="none" />
          <path d="M0 92.4655C3.05176e-05 41.3982 37.0339 6.10352e-05 82.7176 0C128.401 0 165.435 41.3982 165.435 92.4655C165.435 143.533 128.401 184.931 82.7176 184.931C37.0339 184.931 3.05176e-05 143.533 0 92.4655Z" transform="matrix(0.6870875 -0.7265747 0.7265747 0.6870875 185.9604 305.6309)" id="Ellipse" fill="#EEEEEE" fill-opacity="0.5" stroke="none" />
          <path d="M0 46.2327C0 20.6991 18.5169 0 41.3588 0C64.2006 0 82.7175 20.6991 82.7176 46.2327C82.7175 71.7664 64.2006 92.4655 41.3588 92.4655C18.517 92.4655 0 71.7664 0 46.2327Z" transform="matrix(0.6872143 -0.7264547 0.7264547 0.6872143 247.96 307.4744)" id="Ellipse" fill="#407BFF" fill-opacity="0.5" stroke="none" />
        </g>
        <path d="M274.75 78.9643C273.915 78.9643 273.125 78.9643 272.29 78.9643C259.309 53.8988 233.58 38.0188 205.355 37.6522C198.251 37.6457 191.189 38.7418 184.421 40.9015C170.828 15.9867 144.844 0.350317 116.465 0.0072245C98.7705 -0.252999 81.7012 6.54298 69.0282 18.8938C56.3552 31.2445 49.1218 48.1331 48.9262 65.828C34.9286 66.6539 21.8582 73.099 12.6811 83.7007C3.50402 94.3025 -1.00137 108.162 0.18727 122.133C2.67979 153.729 28.8397 178.218 60.5307 178.624L281.573 178.624C294.548 178.774 306.984 173.443 315.821 163.943C324.659 154.443 329.078 141.654 327.991 128.725C325.721 100.895 302.67 79.3504 274.75 78.9643L274.75 78.9643Z" transform="translate(181.2676 618.146)" id="Shape" fill="#EEEEEE" stroke="none" />
        <path d="M214.178 61.5095L212.275 61.5095C202.152 41.9807 182.095 29.615 160.101 29.3418C154.558 29.3298 149.046 30.1753 143.761 31.8483C133.152 12.4493 112.907 0.277718 90.7985 0.00552461C62.172 -0.40783 38.6184 22.4396 38.1604 51.0654C27.2454 51.7147 17.0546 56.7424 9.89777 65.0092C2.74084 73.2758 -0.776066 84.0814 0.143994 94.977C2.10707 119.585 22.4818 138.652 47.1654 138.981L219.469 138.981C229.596 139.122 239.311 134.976 246.217 127.567C253.122 120.158 256.574 110.175 255.722 100.083C253.819 78.472 235.87 61.8069 214.178 61.5094L214.178 61.5095Z" transform="translate(382.626 95.52637)" id="Shape" fill="#EEEEEE" stroke="none" />
        <path d="M334.961 0.00113325L16.7192 0.00113325C12.0688 -0.0535462 7.61072 1.85386 4.4391 5.25518C1.26747 8.65664 -0.32411 13.237 0.0551045 17.8721L12.9593 207.676C13.7282 217.675 22.0083 225.432 32.0371 225.547L74.7417 225.547L78.3159 278.045L127.194 225.547L350.001 225.547C354.656 225.616 359.123 223.713 362.297 220.308C365.472 216.903 367.059 212.314 366.665 207.676L353.807 17.872C353.005 7.97896 344.883 0.276656 334.961 0.00113325L334.961 0.00113325Z" transform="translate(330.4487 879.7639)" id="Shape" fill="#EEEEEE" fill-opacity="0.3" stroke="none" />
        <path d="M298.05 23.998L1.62466 23.998L0 0L296.472 0L298.05 23.998L298.05 23.998Z" transform="translate(364.8989 980.5388)" id="Polygon" fill="#EEEEEE" stroke="none" />
        <path d="M204.286 23.9982L1.62459 23.9982L0 0L202.661 0L204.286 23.9982L204.286 23.9982Z" transform="translate(368.2881 1030.392)" id="Polygon" fill="#EEEEEE" stroke="none" />
        <path d="M298.097 23.9982L1.62466 23.9982L0 0L296.472 0L298.097 23.9982L298.097 23.9982Z" transform="translate(361.5103 930.6858)" id="Polygon" fill="#EEEEEE" stroke="none" />
      </g>
      <g id="Character--inject-177" transform="translate(415.1265 71.66577)">
        <path d="M49.0883 36.3554L61.2963 45.1284C65.5358 48.223 69.8063 51.1473 74.1077 53.9015C82.6951 59.6109 91.3288 65.3203 100.055 70.5191C108.782 75.7179 117.601 80.6382 126.328 85.0016C134.509 89.1257 142.979 92.6474 151.673 95.5386C149.745 95.061 147.742 94.9664 145.778 95.2601C144.604 95.4039 143.46 95.733 142.389 96.2349C141.043 96.9312 141.461 96.9776 142.157 96.5599C144.843 94.6988 147.263 92.4814 149.352 89.9685C155.46 82.6777 160.986 74.9175 165.877 66.7596C171.308 58.2187 176.506 49.1671 181.473 39.8835C186.44 30.5999 191.407 21.0842 196.002 12.0327L196.327 11.4292C201.2 1.83948 212.559 -2.48154 222.573 1.44504C232.588 5.37169 237.983 16.2618 235.039 26.608C228.729 48.7238 220.737 70.3247 211.134 91.2221C205.929 102.466 199.796 113.257 192.799 123.483C188.423 129.819 183.295 135.602 177.527 140.704C173.308 144.379 168.528 147.356 163.37 149.523C159.74 151.012 155.933 152.026 152.044 152.54C147.391 153.069 142.682 152.803 138.118 151.751C125.719 148.873 113.578 144.977 101.819 140.1C59.3002 119.444 80.063 130.555 69.605 124.921C69.605 124.921 49.2584 113.673 39.4797 107.608C34.6059 104.544 29.7784 101.434 24.9973 98.3239C20.2163 95.2139 15.7137 91.9647 10.4684 88.1584C-1.66333 76.9732 -3.48504 58.4709 6.23247 45.1345C15.95 31.798 34.1206 27.8631 48.4849 35.9844L49.0883 36.3554Z" transform="translate(647.6384 217.8765)" id="Shape" fill="#407BFF" stroke="none" />
        <path d="M49.0883 36.3554L61.2963 45.1284C65.5358 48.223 69.8063 51.1473 74.1077 53.9015C82.6951 59.6109 91.3288 65.3203 100.055 70.5191C108.782 75.7179 117.601 80.6382 126.328 85.0016C134.509 89.1257 142.979 92.6474 151.673 95.5386C149.745 95.061 147.742 94.9664 145.778 95.2601C144.604 95.4039 143.46 95.733 142.389 96.2349C141.043 96.9312 141.461 96.9776 142.157 96.5599C144.843 94.6988 147.263 92.4814 149.352 89.9685C155.46 82.6777 160.986 74.9175 165.877 66.7596C171.308 58.2187 176.506 49.1671 181.473 39.8835C186.44 30.5999 191.407 21.0842 196.002 12.0327L196.327 11.4292C201.2 1.83948 212.559 -2.48154 222.573 1.44504C232.588 5.37169 237.983 16.2618 235.039 26.608C228.729 48.7238 220.737 70.3247 211.134 91.2221C205.929 102.466 199.796 113.257 192.799 123.483C188.423 129.819 183.295 135.602 177.527 140.704C173.308 144.379 168.528 147.356 163.37 149.523C159.74 151.012 155.933 152.026 152.044 152.54C147.391 153.069 142.682 152.803 138.118 151.751C125.719 148.873 113.578 144.977 101.819 140.1C59.3002 119.444 80.063 130.555 69.605 124.921C69.605 124.921 49.2584 113.673 39.4797 107.608C34.6059 104.544 29.7784 101.434 24.9973 98.3239C20.2163 95.2139 15.7137 91.9647 10.4684 88.1584C-1.66333 76.9732 -3.48504 58.4709 6.23247 45.1345C15.95 31.798 34.1206 27.8631 48.4849 35.9844L49.0883 36.3554Z" transform="translate(647.6384 217.8765)" id="Shape" fill="#000000" fill-opacity="0.2" stroke="none" />
        <path d="M1.72467 21.2595L14.3039 0L38.4414 26.0406C34.9538 33.603 28.6616 39.5123 20.8955 42.5191C17.3583 43.7242 13.4614 43.2091 10.3587 41.1264L5.71684 38.1557C0.0898104 34.4917 -1.66744 27.0544 1.72467 21.2595L1.72467 21.2595Z" transform="translate(853.6125 199.9692)" id="Shape" fill="#FFB573" stroke="none" />
        <path d="M34.2103 1.8885L39.5483 5.18421C42.943 7.28626 45.1434 10.8701 45.4816 14.8485C45.82 18.8269 44.2567 22.7309 41.2658 25.3761L24.1375 40.6012L0 14.5607L21.0274 1.8421C25.0786 -0.630585 30.1766 -0.612665 34.2103 1.8885L34.2103 1.8885Z" transform="translate(867.9164 185.4086)" id="Shape" fill="#FFB573" stroke="none" />
        <path d="M0 85.1308L36.7631 86.1985L50.5957 1.06767L13.879 0L0 85.1308L0 85.1308Z" transform="translate(401.4149 1385.812)" id="Polygon" fill="#FFB573" stroke="none" />
        <path d="M50.2342 5.23067L9.15421 0.0318728C7.72043 -0.191378 6.37441 0.781945 6.13707 2.21339L0.0563086 34.4275C-0.410734 37.9762 2.07959 41.2344 5.62646 41.7152C19.9696 43.2934 26.886 43.2934 44.9426 45.5678C56.0365 47.0068 84.9549 53.9695 100.319 52.0663C115.684 50.1632 113.363 35.0773 106.679 34.5203C76.739 31.9209 65.5058 17.6705 56.2222 8.24768C54.6121 6.61112 52.5076 5.55082 50.2342 5.23067L50.2342 5.23067Z" transform="translate(393.7461 1456.428)" id="Shape" fill="#263238" stroke="none" />
        <path d="M7.14835 0L43.9114 1.06752L36.7631 44.9326L0 43.865L7.14835 0L7.14835 0Z" transform="translate(408.0991 1385.858)" id="Polygon" fill="#000000" fill-opacity="0.2" stroke="none" />
        <path d="M218.954 44.2829C218.954 44.2829 186.879 348.739 165.527 452.158C142.318 565.419 67.2598 896.751 67.2598 896.751L0 891.784C0 891.784 36.856 549.033 67.0277 438.094C67.0277 322.884 94.8786 0 94.8786 0L218.954 44.2829Z" transform="translate(397.2373 525.592)" id="Shape" fill="#263238" stroke="none" />
        <path d="M39.5946 31.2002C38.9911 7.38775 26.0869 -0.271202 13.3684 0.00729532C8.72662 57.2872 3.75985 127.518 0 190.878C22.5592 154.301 41.2657 97.346 39.5946 31.2002L39.5946 31.2002Z" transform="translate(469.4174 641.5834)" id="Shape" fill="#000000" fill-opacity="0.3" stroke="none" />
        <path d="M2.64586 22.6521L74.6867 27.9901L82.9492 0.835634L0 0L2.64586 22.6521L2.64586 22.6521Z" transform="translate(392.5955 1395.188)" id="Polygon" fill="#EEEEEE" stroke="none" />
        <path d="M0 49.9458L23.1626 78.5858L92.4648 28.5934L69.2557 0L0 49.9458L0 49.9458Z" transform="translate(28.63144 1135.665)" id="Polygon" fill="#FFB573" stroke="none" />
        <path d="M56.8072 37.2805L36.1975 1.39928C35.5197 0.130891 33.953 -0.363774 32.6697 0.285296L3.28714 14.8606C0.183658 16.6255 -0.914819 20.5636 0.826992 23.68C8.20745 36.0737 12.3851 41.5973 21.4366 57.3796C27.0068 67.0809 41.6749 94.9782 49.2875 108.439C56.9 121.901 70.0363 113.87 67.8547 107.511C58.5711 78.9175 55.9252 57.0546 57.8284 44.0112C58.2529 41.7166 57.8932 39.3458 56.8072 37.2805L56.8072 37.2805Z" transform="translate(0 1177.016)" id="Shape" fill="#263238" stroke="none" />
        <path d="M35.742 0L58.951 28.6398L23.209 54.3555L0 25.7619L35.742 0L35.742 0Z" transform="translate(62.14522 1135.665)" id="Polygon" fill="#000000" fill-opacity="0.2" stroke="none" />
        <path d="M488.04 42.7511C488.04 42.7511 397.571 301.671 356.444 398.963C311.465 505.493 42.4725 694.693 42.4725 694.693L0 642.287C0 642.287 182.794 459.075 250.658 372.18C288.256 253.86 368.513 0 368.513 0L488.04 42.7511Z" transform="translate(61.07763 500.944)" id="Shape" fill="#263238" stroke="none" />
        <path d="M0 16.2928L45.9075 72.9229L68.3274 59.9722L14.5753 0L0 16.2928L0 16.2928Z" transform="translate(59.36018 1124.803)" id="Polygon" fill="#EEEEEE" stroke="none" />
        <path d="M186.415 375.424L0 304.729C4.64181 287.694 29.0113 237.655 50.6885 167.981C67.0825 116.496 79.0095 63.6935 86.3375 10.1603L86.3375 10.1603C86.7218 7.00655 88.3873 4.14997 90.9426 2.26205C93.4979 0.374115 96.7178 -0.378719 99.8453 0.180471C103.327 0.783928 107.458 1.57303 112.007 2.45498C123.751 4.82228 138.419 8.16438 152.391 12.4348C179.209 20.2968 205.556 29.6885 231.3 40.5639C239.922 44.4451 248.307 48.8314 256.412 53.7001C261.236 56.4459 265.709 59.7657 269.734 63.5871C272.675 65.9457 274.534 69.3959 274.886 73.1493C274.888 99.7932 248.197 203.027 186.415 375.424L186.415 375.424Z" transform="translate(429.4049 196.215)" id="Shape" fill="#F0F0F0" stroke="none" />
        <path d="M78.3072 114.235C57.3263 100.588 58.3475 84.9914 65.4495 69.952C67.2325 66.233 69.232 62.6216 71.4374 59.1366L51.2456 25.0193L36.3917 0C33.1424 27.4795 23.209 76.1256 0 86.8946C12.6838 104.804 30.7997 118.151 51.6633 124.957C85.9198 135.633 78.3072 114.235 78.3072 114.235L78.3072 114.235Z" transform="translate(578.6855 120.8265)" id="Shape" fill="#FFB573" stroke="none" />
        <path d="M23.534 8.72664L23.209 0L0 4.54903L23.534 8.72664L23.534 8.72664Z" transform="translate(605.5151 236.5002)" id="Polygon" fill="#E0E0E0" stroke="none" />
        <path d="M0 7.10196L4.31685 0L19.3099 18.2423L0 7.10196L0 7.10196Z" transform="translate(629.0491 238.1249)" id="Polygon" fill="#E0E0E0" stroke="none" />
        <path d="M16.3392 2.1818C30.4569 15.1717 46.219 26.252 63.2214 35.1385C53.9378 40.8479 45.1184 55.8874 41.7763 68.3274C34.2565 63.0821 4.1776 13.6005 0 0L16.3392 2.1818Z" transform="translate(565.5027 201.3616)" id="Shape" fill="#EEEEEE" stroke="none" />
        <path d="M19.3101 0C13.8135 4.58855 7.10763 7.4901 0 8.35534C4.96677 15.643 9.28362 34.5351 9.28362 45.4898C17.9638 39.8268 31.3787 20.0527 33.5139 11.094L19.3101 0Z" transform="translate(633.3195 229.7696)" id="Shape" fill="#EEEEEE" stroke="none" />
        <path d="M71.8086 0C71.8086 0 92.0933 9.74782 110.011 20.7953C125.092 30.0917 132.208 48.2409 127.464 65.3102C105.323 143.571 75.4294 219.557 63.0357 261.844C49.8994 306.916 31.6107 363.453 31.6107 363.453L0 370.927C0 370.927 79.2355 67.8633 71.8086 0L71.8086 0Z" transform="translate(581.5635 229.1198)" id="Shape" fill="#000000" fill-opacity="0.3" stroke="none" />
        <path d="M156.847 4.67899C156.847 4.67899 129.599 1.10478 105.787 0.0371849C88.5739 -0.737677 73.1825 10.68 68.9308 27.3774C56.8621 75.0952 47.9499 166.353 35.742 201.863C20.5632 246.239 0 332.762 0 332.762L107.968 395.148C107.968 395.148 217.051 60.0557 156.847 4.67899L156.847 4.67899Z" transform="translate(424.5311 195.3367)" id="Shape" fill="#000000" fill-opacity="0.3" stroke="none" />
        <path d="M176.342 4.67899C176.342 4.67899 149.095 1.10478 125.282 0.0371849C108.07 -0.737677 92.6781 10.68 88.4265 27.3774C76.3577 75.0952 59.9258 164.218 47.6714 199.774C32.3999 244.15 0 319.579 0 319.579L136.191 383.45C136.191 383.45 236.547 60.0557 176.342 4.67899L176.342 4.67899Z" transform="translate(405.0355 195.3367)" id="Shape" fill="#407BFF" stroke="none" />
        <path d="M176.342 4.67899C176.342 4.67899 149.095 1.10478 125.282 0.0371849C108.07 -0.737677 92.6781 10.68 88.4265 27.3774C76.3577 75.0952 59.9258 164.218 47.6714 199.774C32.3999 244.15 0 319.579 0 319.579L136.191 383.45C136.191 383.45 236.547 60.0557 176.342 4.67899L176.342 4.67899Z" transform="translate(405.0355 195.3367)" id="Shape" fill="#000000" fill-opacity="0.2" stroke="none" />
        <path d="M62.85 0C62.85 0 83.1346 9.74782 101.052 20.7953C116.133 30.0917 123.249 48.2409 118.505 65.3102C96.3639 143.571 78.8643 225.592 70.0448 268.761C60.7612 314.714 51.0599 356.537 51.0599 356.537L0 363.453C0 363.453 70.2769 67.8633 62.85 0L62.85 0Z" transform="translate(590.5222 229.1198)" id="Shape" fill="#407BFF" stroke="none" />
        <path d="M62.85 0C62.85 0 83.1346 9.74782 101.052 20.7953C116.133 30.0917 123.249 48.2409 118.505 65.3102C96.3639 143.571 78.8643 225.592 70.0448 268.761C60.7612 314.714 51.0599 356.537 51.0599 356.537L0 363.453C0 363.453 70.2769 67.8633 62.85 0L62.85 0Z" transform="translate(590.5222 229.1198)" id="Shape" fill="#000000" fill-opacity="0.2" stroke="none" />
        <path d="M24.0779 34.1172C21.8677 37.6475 19.8682 41.3055 18.09 45.072C8.15645 39.0841 -2.05544 22.5592 0.35825 11.094C1.11668 7.27591 2.29994 3.5548 3.88607 0L24.0779 34.1172Z" transform="translate(626.045 145.8458)" id="Shape" fill="#000000" fill-opacity="0.2" stroke="none" />
        <path d="M0.0648788 0C24.7593 3.20286 33.8108 36.531 20.1639 58.5332C-2.20956 26.087 0.0648788 0 0.0648788 0L0.0648788 0Z" transform="translate(678.6979 39.22343)" id="Shape" fill="#263238" stroke="none" />
        <path d="M1.47748 60.019C9.83268 95.7145 12.85 116.974 34.2486 132.988C48.3034 143.763 67.1763 145.849 83.2452 138.404C99.314 130.96 109.925 115.213 110.792 97.5248C113.113 64.1502 99.0949 11.3729 61.264 1.81073C44.7006 -2.86157 26.9029 1.65533 14.5721 13.6606C2.24129 25.6659 -2.75012 43.3366 1.47748 60.019L1.47748 60.019Z" transform="translate(600.417 40.66196)" id="Shape" fill="#FFB573" stroke="none" />
        <path d="M52.6195 132.477C74.1111 133.081 70.769 97.4781 61.3926 84.0169C91.193 88.6587 140.582 62.3396 145.549 34.7673C152.743 -5.1987 91.7965 -5.1987 72.0688 7.51985C80.5633 8.12327 84.8802 15.3181 82.8379 19.0315C82.8379 19.0315 53.4088 10.1193 34.3774 20.4705C42.6863 23.5341 51.5057 35.5099 19.895 39.3162C-10.184 42.9368 -1.08594 73.2014 14.0927 72.6444C6.01602 85.038 -3.68534 113.214 14.5105 125.19C32.7063 137.166 45.1464 152.762 41.2008 159.168C47.56 158.936 61.0676 151.277 52.6195 132.477L52.6195 132.477Z" transform="translate(560.276 0)" id="Shape" fill="#263238" stroke="none" />
        <path d="M23.209 3.54142e-05C8.81941 1.39259 0.556994 12.6258 0 27.8509C6.16363 17.3623 14.0039 7.95409 23.209 0L23.209 3.54142e-05Z" transform="translate(555.4764 69.85932)" id="Shape" fill="#263238" stroke="none" />
        <path d="M1.80598 20.3551C5.4739 27.6813 11.7741 33.3515 19.4448 36.2301C29.5176 39.8971 34.8092 30.9849 32.2098 21.0514C29.8424 12.0463 21.7657 -0.625839 11.5537 0.0240108C1.34163 0.673861 -2.65012 11.2572 1.80598 20.3551L1.80598 20.3551Z" transform="translate(591.5012 112.5864)" id="Shape" fill="#FFB573" stroke="none" />
        <path d="M0.123524 5.81827C0.587731 8.74259 2.58366 10.8778 4.48681 10.4601C6.38996 10.0423 7.55041 7.62857 7.0862 4.70424C6.62199 1.77992 4.62606 -0.401738 2.67645 0.0624352C0.726837 0.526609 -0.387004 2.8939 0.123524 5.81827L0.123524 5.81827Z" transform="translate(658.3546 97.60137)" id="Shape" fill="#263238" stroke="none" />
        <path d="M0.123666 5.85545C0.587875 8.77978 2.53736 10.915 4.48698 10.4973C6.4366 10.0795 7.55059 7.66575 7.08638 4.695C6.62217 1.72425 4.62623 -0.364554 2.6766 0.0531921C0.726982 0.470938 -0.387006 2.8847 0.123666 5.85545L0.123666 5.85545Z" transform="translate(691.6362 93.10806)" id="Shape" fill="#263238" stroke="none" />
        <path d="M0 0C5.04822 8.50762 11.1975 16.3114 18.2889 23.2091C13.9256 28.7328 4.68841 27.8509 4.68841 27.8509L0 0Z" transform="translate(681.4086 101.8414)" id="Shape" fill="#ED893E" stroke="none" />
        <path d="M18.806 8.84865C11.8674 9.03482 5.15615 6.36708 0.238832 1.4682C-0.0796108 1.1289 -0.0796108 0.600659 0.238832 0.261321C0.40457 0.0940954 0.630087 0 0.86552 0C1.10095 0 1.32647 0.0940954 1.49207 0.261321C6.943 5.54331 14.554 7.96581 22.0552 6.80628C22.3917 6.6942 22.7627 6.7947 22.9968 7.06133C23.2306 7.32797 23.2822 7.70885 23.1274 8.028C22.9724 8.34719 22.6415 8.5425 22.2872 8.52376C21.1371 8.7229 19.9731 8.83155 18.806 8.84865L18.806 8.84865Z" transform="translate(656.6146 130.1736)" id="Shape" fill="#263238" stroke="none" />
        <path d="M10.1206 18.2476C4.51063 14.113 0.850647 7.85079 0.00155822 0.93366C-0.0256398 0.46304 0.321844 0.0541129 0.790868 0.00531213C1.02021 -0.0206465 1.24998 0.0494382 1.42591 0.198886C1.60171 0.348334 1.70795 0.5639 1.71928 0.794411C2.81868 8.30098 7.3014 14.8881 13.8808 18.6654C14.0812 18.7729 14.2291 18.9574 14.2905 19.1764C14.3518 19.3954 14.3212 19.6299 14.2057 19.8259C14.0892 20.0294 13.8962 20.1781 13.6699 20.239C13.4433 20.3 13.2018 20.2683 12.9988 20.1508C12.0081 19.5651 11.0475 18.9298 10.1206 18.2476L10.1206 18.2476Z" transform="translate(656.0164 130.4296)" id="Shape" fill="#263238" stroke="none" />
        <path d="M1.79096 11.6568C1.51671 11.7256 1.22972 11.7256 0.955472 11.6568C0.535744 11.449 0.219001 11.0787 0.0787609 10.6317C-0.0614789 10.1847 -0.0130324 9.69987 0.212768 9.28946C2.69898 4.23833 7.53768 0.757297 13.1171 0.00584334C13.5806 -0.0324394 14.0397 0.118779 14.3896 0.42497C14.7395 0.731126 14.9503 1.16612 14.9739 1.63047C15.0123 2.09386 14.8612 2.55301 14.5549 2.90294C14.2488 3.25283 13.8138 3.46368 13.3494 3.4872C9.0228 4.10794 5.26693 6.79067 3.27665 10.682C3.01884 11.273 2.43578 11.6555 1.79096 11.6568L1.79096 11.6568Z" transform="translate(644.5721 82.43277)" id="Shape" fill="#263238" stroke="none" />
        <path d="M14.058 10.7226C13.4824 10.7395 12.9387 10.4589 12.619 9.97992C10.1182 6.19921 6.0007 3.79735 1.47875 3.48135C0.625978 3.34164 0 2.60478 0 1.74068C0 0.876571 0.625978 0.139709 1.47875 0L1.47875 0C7.11964 0.316886 12.2807 3.27592 15.4041 7.98391C15.6727 8.35809 15.7798 8.8245 15.7013 9.27833C15.6227 9.7322 15.3652 10.1355 14.9864 10.3976C14.721 10.6051 14.3947 10.7193 14.058 10.7226L14.058 10.7226Z" transform="translate(690.0491 74.91888)" id="Shape" fill="#263238" stroke="none" />
        <path d="M167.64 54.5769C158.356 62.1431 148.562 70.5448 139.232 78.7608C129.902 86.9768 120.386 95.4248 111.381 104.059C93.4638 120.642 76.6841 138.415 61.1562 157.254L55.8645 164.124L55.2147 165.006C55.3543 164.799 55.4785 164.582 55.586 164.356C55.8652 163.836 56.0982 163.293 56.2823 162.732C56.6359 161.797 56.8243 160.807 56.8392 159.807C56.8392 158.229 56.5608 158.229 56.8392 158.972C57.042 160.4 57.4484 161.791 58.046 163.103C59.9168 167.486 62.251 171.657 65.0087 175.543C68.2058 180.237 71.6454 184.761 75.3134 189.097C82.7867 198.381 91.142 207.247 99.915 216.02C108.688 224.793 117.972 233.658 126.837 241.782L127.441 242.292C135.553 249.581 136.674 261.891 130.012 270.526C123.351 279.16 111.159 281.2 102.05 275.203C78.7664 260.443 56.9987 243.418 37.0648 224.375C32.0052 219.315 27.0384 214.024 22.1645 208.175C16.8928 201.835 12.2304 195.012 8.23911 187.797C5.82039 183.361 3.84577 178.696 2.34406 173.872C0.325527 167.376 -0.399968 160.548 0.208873 153.773C0.588867 149.528 1.55744 145.357 3.08677 141.379C3.88869 139.319 4.83488 137.318 5.91827 135.391L7.58933 132.653L8.33203 131.539L14.3664 122.58C30.4514 100.124 48.3515 79.0258 67.8867 59.4974C77.1703 49.8424 86.9181 40.4195 96.8051 31.3216C106.692 22.2236 116.486 13.4506 127.395 4.53833C141.25 -3.66863 159.025 -0.489566 169.177 12.0108C179.329 24.5112 178.793 42.5613 167.918 54.4377L167.64 54.5769Z" transform="translate(372.658 200.8619)" id="Shape" fill="#407BFF" stroke="none" />
        <path d="M167.64 54.5769C158.356 62.1431 148.562 70.5448 139.232 78.7608C129.902 86.9768 120.386 95.4248 111.381 104.059C93.4638 120.642 76.6841 138.415 61.1562 157.254L55.8645 164.124L55.2147 165.006C55.3543 164.799 55.4785 164.582 55.586 164.356C55.8652 163.836 56.0982 163.293 56.2823 162.732C56.6359 161.797 56.8243 160.807 56.8392 159.807C56.8392 158.229 56.5608 158.229 56.8392 158.972C57.042 160.4 57.4484 161.791 58.046 163.103C59.9168 167.486 62.251 171.657 65.0087 175.543C68.2058 180.237 71.6454 184.761 75.3134 189.097C82.7867 198.381 91.142 207.247 99.915 216.02C108.688 224.793 117.972 233.658 126.837 241.782L127.441 242.292C135.553 249.581 136.674 261.891 130.012 270.526C123.351 279.16 111.159 281.2 102.05 275.203C78.7664 260.443 56.9987 243.418 37.0648 224.375C32.0052 219.315 27.0384 214.024 22.1645 208.175C16.8928 201.835 12.2304 195.012 8.23911 187.797C5.82039 183.361 3.84577 178.696 2.34406 173.872C0.325527 167.376 -0.399968 160.548 0.208873 153.773C0.588867 149.528 1.55744 145.357 3.08677 141.379C3.88869 139.319 4.83488 137.318 5.91827 135.391L7.58933 132.653L8.33203 131.539L14.3664 122.58C30.4514 100.124 48.3515 79.0258 67.8867 59.4974C77.1703 49.8424 86.9181 40.4195 96.8051 31.3216C106.692 22.2236 116.486 13.4506 127.395 4.53833C141.25 -3.66863 159.025 -0.489566 169.177 12.0108C179.329 24.5112 178.793 42.5613 167.918 54.4377L167.64 54.5769Z" transform="translate(372.658 200.8619)" id="Shape" fill="#000000" fill-opacity="0.2" stroke="none" />
        <path d="M26.9874 1.58252L58.5518 20.8925L18.2144 43.8694C18.2144 43.8694 -8.61521 23.8168 2.85006 10.8661L16.3113 1.58252C19.5572 -0.52753 23.7415 -0.52753 26.9874 1.58252L26.9874 1.58252Z" transform="translate(479.5644 448.7194)" id="Shape" fill="#FFB573" stroke="none" />
        <path d="M42.0546 35.2313L24.6943 45.4433C22.2673 46.8914 19.3569 47.2941 16.6279 46.5593C13.8987 45.8246 11.5839 44.0151 10.212 41.5442L0 22.977L40.3372 0L46.8357 23.2091C48.1622 27.8375 46.1974 32.778 42.0545 35.2313L42.0546 35.2313Z" transform="translate(497.7789 469.6583)" id="Shape" fill="#FFB573" stroke="none" />
      </g>
      <g id="Megaphone--inject-177" transform="translate(1169.723 0)">
        <path d="M0.59765 8.40166L43.3487 0C31.6049 20.7025 48.8724 40.5229 64.376 52.963C71.7565 58.9045 66.5577 69.5343 55.0924 71.5303L27.2416 77.0075C-6.36506 83.7845 0.59765 8.40166 0.59765 8.40166L0.59765 8.40166Z" transform="translate(86.58691 240.3491)" id="Shape" fill="#407BFF" stroke="none" />
        <path d="M70.1953 135.644L168.23 116.659C200.099 110.307 220.844 79.396 214.648 47.4962L214.648 47.4962C208.25 15.6577 177.374 -5.06433 145.486 1.07815L47.4969 20.2952C15.6519 26.7156 -5.06536 57.6051 1.07886 89.5045L1.07886 89.5045C7.58501 121.223 38.4064 141.799 70.1953 135.644L70.1953 135.644Z" transform="translate(0 116.4023)" id="Shape" fill="#407BFF" stroke="none" />
        <path d="M70.1953 135.644L168.23 116.659C200.099 110.307 220.844 79.396 214.648 47.4962L214.648 47.4962C208.25 15.6577 177.374 -5.06433 145.486 1.07815L47.4969 20.2952C15.6519 26.7156 -5.06536 57.6051 1.07886 89.5045L1.07886 89.5045C7.58501 121.223 38.4064 141.799 70.1953 135.644L70.1953 135.644Z" transform="translate(0 116.4023)" id="Shape" fill="#EEEEEE" fill-opacity="0.3" stroke="none" />
        <path d="M207.123 254.742L40.0176 252.514C25.5352 255.346 -11.0423 67.8168 3.25442 64.9853L157.084 0L207.123 254.742Z" transform="translate(129.8838 17.3103)" id="Shape" fill="#407BFF" stroke="none" />
        <path d="M14.9966 129.998C28.922 200.368 45.9575 256.255 53.338 254.816C60.7184 253.377 55.5196 195.122 41.687 124.845C27.8544 54.5684 10.7261 -1.41182 3.34565 0.0271273C-4.03481 1.46608 1.21046 59.5815 14.9966 129.998L14.9966 129.998Z" transform="translate(283.6689 17.23657)" id="Shape" fill="#407BFF" stroke="none" />
        <path d="M14.9966 129.998C28.922 200.368 45.9575 256.255 53.338 254.816C60.7184 253.377 55.5196 195.122 41.687 124.845C27.8544 54.5684 10.7261 -1.41182 3.34565 0.0271273C-4.03481 1.46608 1.21046 59.5815 14.9966 129.998L14.9966 129.998Z" transform="translate(283.6689 17.23657)" id="Shape" fill="#000000" fill-opacity="0.3" stroke="none" />
        <path d="M59.8161 22.8336C56.4275 5.61251 18.0398 -1.39663 9.91668 0.227997C1.79352 1.85262 -2.15205 17.0777 1.19006 34.2989C4.53216 51.52 13.955 64.1457 22.1247 62.5675C30.2943 60.9893 63.0654 40.0083 59.8161 22.8336L59.8161 22.8336Z" transform="translate(301.7451 115.7207)" id="Shape" fill="#407BFF" stroke="none" />
        <path d="M0 0L220.255 3.05176e-05L220.255 4.9668L0 4.9668L0 0Z" transform="matrix(0.9871641 -0.1597089 0.1597089 0.9871641 402.6221 129.0532)" id="Rectangle" fill="#407BFF" stroke="none" />
        <path d="M0 3.05176e-05L117.16 0L117.16 4.96677L0 4.96677L0 3.05176e-05Z" transform="matrix(0.7609724 -0.6487842 0.6487842 0.7609724 382.125 76.01147)" id="Rectangle" fill="#407BFF" stroke="none" />
        <path d="M0 6.10351e-05L4.96678 0L4.9668 34.6745L3.05178e-05 34.6745L0 6.10351e-05Z" transform="matrix(0.3328196 -0.9429905 0.9429905 0.3328196 513.7656 239.7532)" id="Rectangle" fill="#407BFF" stroke="none" />
        <path d="M3.8147e-05 3.05176e-05L4.9668 0L4.96679 87.2665L0 87.2666L3.8147e-05 3.05176e-05Z" transform="matrix(0.3179666 -0.9481019 0.9481019 0.3179666 395.3643 199.4187)" id="Rectangle" fill="#407BFF" stroke="none" />
      </g>
    </g>
  </g>
</svg>