<?xml version="1.0" encoding="utf-8"?>
<svg width="2000px" height="2000px" viewBox="0 0 2000 2000" version="1.1" xmlns:xlink="http://www.w3.org/1999/xlink" xmlns="http://www.w3.org/2000/svg">
  <desc>Created with Lunacy</desc>
  <defs>
    <rect width="2000" height="2000" id="artboard_1" />
    <clipPath id="clip_1">
      <use xlink:href="#artboard_1" clip-rule="evenodd" />
    </clipPath>
  </defs>
  <g id="Ultra-HD-Copy-14" clip-path="url(#clip_1)">
    <use xlink:href="#artboard_1" stroke="none" fill="#FFFFFF" />
    <g id="Shadow--inject-112" transform="translate(100.1104 1688.383)">
      <path d="M0 52.5452C0 23.5253 402.944 0 900 0C1397.06 0 1800 23.5253 1800 52.5452C1800 81.5651 1397.06 105.09 900 105.09C402.944 105.09 0 81.5651 0 52.5452Z" id="path--inject-112" fill="#E9E9E9" stroke="none" />
    </g>
    <path d="M543.615 1517.96L59.3817 1517.96C43.2003 1518.04 27.6943 1511.48 16.4826 1499.82C5.27091 1488.15 -0.665362 1472.39 0.0593542 1456.23L54.0899 61.7365C55.8034 27.4592 83.8758 0.423483 118.193 0.000495798L602.427 0.000495798C618.604 -0.0659412 634.102 6.49776 645.311 18.1626C656.52 29.8274 662.46 45.5749 661.749 61.7365L607.718 1456.23C606.005 1490.51 577.933 1517.54 543.615 1517.96L543.615 1517.96Z" transform="translate(1047.212 222.9658)" id="Shape" fill="#263238" stroke="none" />
    <path d="M4.64181 160.189L0 160.189L3.24932 77.3325C5.26679 34.3351 40.5096 0.396001 83.5525 0L83.5525 4.64181C43.0024 5.03944 9.80859 37.0114 7.89113 77.5181L4.64181 160.189Z" transform="translate(1047.643 206.9058)" id="Shape" fill="#407BFF" stroke="none" />
    <path d="M0 0L39.4553 0L39.4553 4.6418L0 4.6418L0 0Z" transform="translate(1164.106 206.7202)" id="Rectangle" fill="#407BFF" stroke="none" />
    <path d="M543.615 1517.96L400.703 1517.96L59.3817 1517.96C43.2004 1518.04 27.6943 1511.48 16.4826 1499.82C5.27091 1488.15 -0.665354 1472.39 0.0593619 1456.23L54.0901 61.7379C55.8036 27.4606 83.876 0.424937 118.193 0.0019504L602.427 0.0019504C618.604 -0.0644865 634.102 6.4992 645.311 18.164C656.52 29.8288 662.46 45.5763 661.749 61.7379L607.718 1456.23C606.005 1490.5 577.933 1517.54 543.615 1517.96L543.615 1517.96Z" transform="translate(1013.002 222.9673)" id="Shape" fill="#407BFF" stroke="none" />
    <path d="M535.837 1421L33.2224 1421C24.1737 1421.07 15.4972 1417 9.22266 1409.76C2.94811 1402.51 -0.374019 1392.72 0.0335277 1382.68L46.9158 38.3743C47.8485 17.046 63.5803 0.221561 82.7969 0.00100345L585.365 0.00100345C594.418 -0.051529 603.095 4.02459 609.368 11.2776C615.641 18.5305 618.961 28.3252 618.554 38.3743L571.672 1382.68C570.739 1403.98 555.028 1420.78 535.837 1421L535.837 1421Z" transform="translate(1036.191 301.6445)" id="Shape" fill="#EEEEEE" fill-opacity="0.8" stroke="none" />
    <path d="M125.329 1421L0 1421L211.388 0L336.717 0L125.329 1421L125.329 1421Z" transform="translate(1233.315 301.645)" id="Polygon" fill="#EEEEEE" fill-opacity="0.4" stroke="none" />
    <path d="M62.6644 1421L0 1421L211.388 0L274.052 0L62.6644 1421L62.6644 1421Z" transform="translate(1148.603 301.645)" id="Polygon" fill="#EEEEEE" fill-opacity="0.4" stroke="none" />
    <path d="M0 101.145C0 45.2841 65.7128 1.52588e-05 146.774 0C227.835 0 293.547 45.2841 293.547 101.145C293.547 157.006 227.835 202.29 146.774 202.29C65.7128 202.29 0 157.006 0 101.145Z" transform="matrix(0.07219378 -0.9973906 0.9973906 0.07219378 1222.082 819.0898)" id="Ellipse" fill="#407BFF" stroke="none" />
    <path d="M41.9107 281.99C57.9681 299.794 80.696 310.132 104.668 310.537C165.104 310.537 216.907 241.003 220.156 155.593C221.967 105.09 206.231 57.6048 178.38 28.5007C162.325 10.7003 139.591 0.376099 115.623 0C55.1862 0 3.38375 69.4878 0.134432 154.944C-1.62948 205.4 14.0599 252.932 41.9107 281.99ZM17.4483 155.64C20.3263 79.4213 64.5163 17.4068 115.576 17.4068C134.821 17.8612 153.019 26.2628 165.847 40.6158C190.634 66.3778 204.374 109.129 202.61 154.99C199.732 231.208 155.542 293.223 104.482 293.223C85.2537 292.756 67.0749 284.355 54.2578 270.014C29.4705 244.252 15.6844 201.501 17.4483 155.64Z" transform="translate(1223.387 524.8232)" id="Shape" fill="#EEEEEE" fill-rule="evenodd" stroke="none" />
    <path d="M0.000141657 62.5715C0.000141657 62.5715 38.5271 99.7059 54.1237 147.424C67.5849 110.289 87.684 58.2547 135.541 0C77.6577 38.4341 55.6091 86.6625 55.6091 86.6625C39.4806 73.937 20.3146 65.6339 0 62.5715L0.000141657 62.5715Z" transform="translate(1264.694 614.2705)" id="Shape" fill="#EEEEEE" stroke="none" />
    <path d="M5.57547 36.4846C8.1345 39.3482 11.7625 41.0279 15.6018 41.1264C24.514 41.1264 32.1731 31.982 32.5908 20.7489C32.9893 14.8474 30.9796 9.03628 27.0206 4.64181C24.4616 1.77818 20.8336 0.0985222 16.9943 0C8.08209 0 0.469451 9.14436 0.0517047 20.3775C-0.354 26.2717 1.63784 32.08 5.57547 36.4846ZM4.92555 20.7489C5.25051 12.1151 10.6815 5.10598 16.9943 5.10598C19.4717 5.14022 21.8242 6.1989 23.4928 8.03034C26.4915 11.4891 27.9941 15.997 27.6703 20.5632C27.3453 29.197 21.9143 36.2061 15.6015 36.2061C13.1157 36.1656 10.76 35.0886 9.10301 33.2354C6.12496 29.7832 4.62439 25.2981 4.92555 20.7489Z" transform="translate(1355.576 239.3984)" id="Shape" fill="#EEEEEE" fill-rule="evenodd" stroke="none" />
    <g id="Character--inject-112" transform="translate(426.623 354.5938)">
      <path d="M85.7576 30.9747C32.6089 23.8728 3.87615 56.0869 19.0084 114.527C33.2588 169.579 5.68645 162.245 0.44119 214.373C-4.80407 266.5 38.1791 268.635 52.1509 311.201C66.1227 353.766 143.316 402.134 173.488 380.317C203.66 358.501 263.539 363.514 269.016 291.473C274.493 219.432 217.492 215.533 237.034 176.17C262.471 125.111 206.12 137.551 206.12 72.4725C206.259 20.0665 130.273 -36.7028 85.7576 30.9747L85.7576 30.9747Z" transform="translate(203.1865 0)" id="Shape" fill="#263238" stroke="none" />
      <path d="M148.074 2.55322C146.913 24.7874 144.871 46.279 141.621 68.142C138.779 90.7439 133.821 113.029 126.814 134.705C124.641 141.033 121.874 147.14 118.552 152.947C116.278 156.894 113.484 160.516 110.243 163.716L108.618 165.202L107.736 165.898L107.226 166.316L105.276 167.662L101.423 170.354C91.6083 176.653 81.2829 182.118 70.5555 186.693C50.2284 195.616 29.1083 202.609 7.47331 207.582L0 187.019C18.3351 176.853 37.1345 166.455 54.3091 155.686C62.6974 150.56 70.7588 144.917 78.4466 138.79L80.9531 136.608L82.2528 135.541L82.2528 135.309L82.2528 135.309L82.2528 135.309C82.2528 135.309 82.7634 134.427 83.4133 133.081C85.0646 129.395 86.4454 125.594 87.5446 121.708C90.1798 112.261 92.2568 102.667 93.7646 92.9754C95.5285 82.9491 96.9674 72.6908 98.1743 62.3395C100.542 41.7299 102.584 20.5632 104.162 0L148.074 2.55322Z" transform="translate(73.98193 305.7695)" id="Shape" fill="#FFB573" stroke="none" />
      <path d="M35.4634 10.9547L0 0L6.63775 42.8903C6.63775 42.8903 29.8468 40.0124 41.0336 27.0617L35.4634 10.9547Z" transform="translate(52.16553 482.2979)" id="Shape" fill="#FFB573" stroke="none" />
      <path d="M0.885425 27.6187L2.83498 33.2353C5.13994 39.7771 11.4562 44.0382 18.3851 43.7258L36.4881 42.8903L29.8503 0L9.93701 7.7982C2.09362 10.9095 -1.89955 19.6536 0.885425 27.6187L0.885425 27.6187Z" transform="translate(22.31543 482.2979)" id="Shape" fill="#FFB573" stroke="none" />
      <path d="M94.9669 33.9619C94.9669 47.3767 88.4684 73.7886 82.9446 93.6556C78.8598 107.952 75.4249 118.814 75.4249 118.814L67.3017 116.772L0.227642 99.7827C-0.839953 65.3405 0.506139 27.4633 34.7627 4.81137C56.347 -9.39262 94.7811 10.103 94.9669 33.9619L94.9669 33.9619Z" transform="translate(169.0044 232.9092)" id="Shape" fill="#407BFF" stroke="none" />
      <g id="Group" transform="translate(169.0044 232.9092)" opacity="0.5">
        <path d="M94.9668 33.9619C94.9668 47.3767 88.4683 73.7886 82.9446 93.6556C78.8598 107.952 75.4249 118.814 75.4249 118.814L67.3017 116.772L0.227642 99.7827C-0.839953 65.3405 0.506139 27.4633 34.7627 4.81137C56.347 -9.39262 94.7811 10.103 94.9668 33.9619L94.9668 33.9619Z" id="Shape" fill="#000000" fill-opacity="0.5" stroke="none" />
      </g>
      <path d="M76.0328 3.60084C71.6695 -1.04096 61.7361 -1.83006 40.1052 5.03979C9.09797 14.834 0.417746 48.812 0 71.8354L48.4605 84.0897L52.6381 85.1573L56.5836 86.1321C56.5836 86.1321 58.3011 80.7012 60.7149 72.4388L60.7149 72.4388C61.6897 69.0503 62.8965 65.1512 64.057 60.9736C69.3486 42.2206 75.4758 17.5263 76.0328 3.60084L76.0328 3.60084Z" transform="translate(187.8457 265.5918)" id="Shape" fill="#000000" fill-opacity="0.3" stroke="none" />
      <path d="M40.9408 103.002L0 88.6584L25.7156 0L66.61 14.3896L40.9408 103.002L40.9408 103.002Z" transform="translate(85.35449 1241.697)" id="Polygon" fill="#FFB573" stroke="none" />
      <path d="M101.47 69.1631L68.1881 93.9503L0 24.8337L33.2818 0L101.47 69.1631L101.47 69.1631Z" transform="translate(571.7231 1170.492)" id="Polygon" fill="#FFB573" stroke="none" />
      <path d="M32.7388 30.5794L68.7128 0.825433C69.9589 -0.275239 71.8299 -0.275239 73.0761 0.825433L100.695 25.8912C102.065 27.2097 102.803 29.0524 102.723 30.952C102.643 32.8516 101.753 34.6257 100.277 35.8247C87.5586 45.9902 80.8744 50.2606 65.0923 63.3042C55.3445 71.3346 35.0134 90.5516 21.5521 101.646C8.09093 112.74 -3.60644 100.067 1.03537 94.2187C21.6449 68.1317 26.426 50.957 28.8863 36.846C29.3951 34.3697 30.7588 32.1514 32.7388 30.5794L32.7388 30.5794Z" transform="translate(593.5254 1223.79)" id="Shape" fill="#263238" stroke="none" />
      <path d="M82.5695 0.870055L128.059 19.855C129.713 20.595 130.692 22.3266 130.473 24.1254L125.321 64.2306C125.087 66.1539 123.958 67.8535 122.275 68.8137C120.592 69.774 118.554 69.8818 116.78 69.1045C100.673 62.5595 93.1064 59.3103 73.1467 50.955L11.8283 25.4252C-4.78938 18.4625 -1.21517 0.220276 6.30454 1.5663C39.9576 7.64705 61.6349 5.65111 74.9104 0.63788C77.396 -0.286713 80.1445 -0.203419 82.5695 0.870055L82.5695 0.870055Z" transform="translate(0 1316.721)" id="Shape" fill="#263238" stroke="none" />
      <path d="M13.2292 0L0 45.6753L39.8267 63.6855L54.1699 14.3432L13.2292 0L13.2292 0Z" transform="translate(97.84082 1241.744)" id="Polygon" fill="#000000" fill-opacity="0.2" stroke="none" />
      <path d="M33.3281 0L0 24.8337L35.1385 60.4828L68.4666 35.6492L33.3281 0L33.3281 0Z" transform="translate(571.7231 1170.492)" id="Polygon" fill="#000000" fill-opacity="0.2" stroke="none" />
      <path d="M197.184 261.747L28.5472 264.16C5.33819 133.633 0.000141657 71.2933 0.000141657 41.3537C-0.0459676 25.9495 10.8347 12.6749 25.9481 9.69654C36.2529 7.7006 49.1572 5.3797 61.9221 3.61579C66.3318 3.01233 70.788 2.45534 75.1513 1.99113C100.606 -0.216735 126.187 -0.589009 151.695 0.876997C155.502 0.876997 159.262 1.20196 163.021 1.43399C180.103 2.54805 196.164 4.7297 207.443 6.49354C211.644 7.16181 215.384 9.5318 217.782 13.0452C220.18 16.5587 221.024 20.9051 220.115 25.0608C215.195 48.2698 211.157 68.6473 207.908 86.8897C202.755 115.901 199.506 139.342 197.603 159.905C194.745 193.787 194.606 227.843 197.184 261.746L197.184 261.747Z" transform="translate(192.6729 221.8975)" id="Shape" fill="#407BFF" stroke="none" />
      <g id="Group" transform="translate(192.6729 221.8975)" opacity="0.5">
        <path d="M197.184 261.747L28.5472 264.16C5.33819 133.633 0.000141657 71.2933 0.000141657 41.3537C-0.0459676 25.9495 10.8347 12.6749 25.9481 9.69654C36.2529 7.7006 49.1571 5.3797 61.9221 3.61579C66.3318 3.01233 70.788 2.45534 75.1513 1.99113C100.606 -0.216735 126.187 -0.589009 151.695 0.876997C155.502 0.876997 159.262 1.20196 163.021 1.43399C180.103 2.54805 196.164 4.7297 207.443 6.49354C211.644 7.16181 215.384 9.5318 217.782 13.0452C220.18 16.5587 221.024 20.9051 220.115 25.0608C215.195 48.2698 211.157 68.6473 207.908 86.8897C202.755 115.901 199.506 139.342 197.603 159.905C194.745 193.787 194.606 227.843 197.184 261.746L197.184 261.747Z" id="Shape" fill="#000000" fill-opacity="0.5" stroke="none" />
      </g>
      <path d="M6.07077 95.3891C-2.42375 69.952 -1.95954 17.1283 7.18483 0L16.4684 22.3735C11.2232 51.3848 7.97393 74.8259 6.07077 95.3891L6.07077 95.3891Z" transform="translate(384.2041 286.5527)" id="Shape" fill="#000000" fill-opacity="0.3" stroke="none" />
      <path d="M64.8895 14.2366C64.1004 34.9391 66.5606 56.4307 77.5153 66.5498C77.5153 66.5498 59.4122 90.1766 16.8004 113.386C-5.75877 91.662 0.925443 67.6638 0.925443 67.6638C28.3121 60.7011 28.7763 42.4588 20.746 12.1942L42.4697 3.37483C46.5517 -0.223251 52.3939 -1.02071 57.2909 1.35169C62.1879 3.72415 65.1831 8.80326 64.8895 14.2366L64.8895 14.2366Z" transform="translate(266.8984 156.4102)" id="Shape" fill="#FFB573" stroke="none" />
      <path d="M21.7701 3.33205C25.5824 0.00410804 30.935 -0.913827 35.6383 0.953774C40.3416 2.82138 43.6064 7.16124 44.0972 12.1979C34.5173 26.9749 20.5132 38.3471 4.08481 44.6906C4.77015 33.6079 3.38489 22.4947 0 11.9194L21.7701 3.33205Z" transform="translate(287.6445 156.4526)" id="Shape" fill="#000000" fill-opacity="0.2" stroke="none" />
      <path d="M127.058 76.9073C112.39 115.434 106.959 132.006 80.6396 145.977C41.3235 166.958 -2.91296 140.5 0.150652 98.3525C2.75005 60.429 26.3304 3.84534 69.7778 0.224738C89.209 -1.51601 108.153 6.94277 119.828 22.5727C131.504 38.2026 134.24 58.7684 127.058 76.9073L127.058 76.9073Z" transform="translate(243.9536 32.93164)" id="Shape" fill="#FFB573" stroke="none" />
      <path d="M5.80049 8.72191C-21.5398 47.2954 56.8604 37.826 52.9613 65.027C50.6868 81.5518 27.1064 112.327 68.5114 118.083C109.916 123.839 120.175 56.2539 98.8688 30.8632C77.5628 5.47255 32.6765 -11.0058 5.80049 8.72191L5.80049 8.72191Z" transform="translate(291.4526 24.24902)" id="Shape" fill="#263238" stroke="none" />
      <path d="M46.7894 0.372097C41.1264 14.2975 11.0011 33.3753 0 29.8476C3.3421 13.1835 31.425 -2.64508 46.7894 0.372097L46.7894 0.372097Z" transform="translate(259.1436 31.43799)" id="Shape" fill="#263238" stroke="none" />
      <path d="M31.3523 21.2167C27.1995 28.022 20.5259 32.9104 12.785 34.8172C2.4802 37.2309 -2.208 27.9473 0.994856 18.4316C3.87276 9.93707 12.7386 -1.62105 22.8578 0.189324C27.3558 1.05711 31.1076 4.14544 32.8234 8.39295C34.5393 12.6405 33.9855 17.4681 31.3523 21.2167L31.3523 21.2167Z" transform="translate(337.1523 127.9385)" id="Shape" fill="#FFB573" stroke="none" />
      <path d="M127.557 1.34609C127.557 1.34609 99.0097 246.805 72.6907 399.613C52.0811 519.325 0 768.59 0 768.59L67.5847 792.542C67.5847 792.542 145.01 532.601 158.564 421.754C213.152 261.798 252.375 0 252.375 0L127.557 1.34609Z" transform="translate(93.66357 484.7109)" id="Shape" fill="#407BFF" stroke="none" />
      <path d="M0 29.986L78.2609 57.5583L88.7049 32.4462L3.85271 0L0 29.986L0 29.986Z" transform="translate(82.66211 1240.165)" id="Polygon" fill="#263238" stroke="none" />
      <path d="M31.0081 3.52782L5.75671 51.9418C-3.5269 88.4264 -1.29885 177.271 10.3985 233.39C31.4259 148.77 48.2292 59.74 58.6732 0L31.0081 3.52782Z" transform="translate(275.6675 555.4521)" id="Shape" fill="#000000" fill-opacity="0.3" stroke="none" />
      <path d="M0 2.50662C0 2.50662 30.2181 277.209 86.6161 429.553C114.885 506.096 324.741 732.848 324.741 732.848L372.087 694.971C372.087 694.971 239.007 466.177 180.845 406.39C157.125 273.495 186.926 74.501 131.827 0L0 2.50662Z" transform="translate(257.8442 483.5508)" id="Shape" fill="#407BFF" stroke="none" />
      <path d="M20.2847 70.1378L75.8007 24.6015L60.8076 0L0 52.9166L20.2847 70.1378L20.2847 70.1378Z" transform="translate(566.3384 1162.693)" id="Polygon" fill="#263238" stroke="none" />
      <path d="M176.435 1.26598L184.233 16.2126C184.837 17.373 183.491 18.6263 181.541 18.6263L4.64181 21.1794C3.11 21.1794 1.85669 20.4366 1.71745 19.5083L0 4.42245C0 3.40124 1.20684 2.4729 2.83151 2.4729L173.65 0.0127491C174.734 -0.0854897 175.79 0.389768 176.435 1.26598L176.435 1.26598Z" transform="translate(216.0215 472.4902)" id="Shape" fill="#263238" stroke="none" />
      <path d="M4.18595 21.6772L8.82776 21.6772C9.70971 21.6772 10.406 21.1666 10.3596 20.6096L7.89941 1.0212C7.89941 0.417745 7.06392 0 6.1355 0L1.4937 0C0.611744 0 -0.0844982 0.510601 0.00828691 1.0676L2.42204 20.656C2.46844 21.213 3.304 21.6772 4.18595 21.6772L4.18595 21.6772Z" transform="translate(365.3862 471.4824)" id="Shape" fill="#407BFF" stroke="none" />
      <path d="M4.23235 21.6804L8.87415 21.6804C9.8025 21.6804 10.4523 21.1698 10.406 20.6128L7.9922 1.02439C7.9922 0.420932 7.11024 -0.0432052 6.1819 0.00318727L1.54009 0.00318727C0.611744 0.00318727 -0.084569 0.513788 0.00828692 1.07078L2.42205 20.6592C2.5149 21.2162 3.35039 21.6804 4.23235 21.6804L4.23235 21.6804Z" transform="translate(229.103 473.4287)" id="Shape" fill="#407BFF" stroke="none" />
      <path d="M4.18001 21.6804L8.82182 21.6804C9.75016 21.6804 10.4465 21.1698 10.3536 20.6128L7.93986 1.02439C7.93986 0.420932 7.05791 -0.0432052 6.17595 0.00318727L1.53414 0.00318727C0.605795 0.00318727 -0.0440552 0.513788 0.00233734 1.07078L2.4161 20.6592C2.32331 21.3554 3.25166 21.6804 4.18001 21.6804L4.18001 21.6804Z" transform="translate(297.2969 472.3145)" id="Shape" fill="#407BFF" stroke="none" />
      <path d="M7.96259 7.0812C6.98778 10.2841 4.48123 12.3265 2.39244 11.723C0.303641 11.1196 -0.578313 7.96316 0.396497 4.7603C1.37131 1.55744 3.92424 -0.531354 6.01311 0.118496C8.10198 0.768346 8.98379 3.87835 7.96259 7.0812L7.96259 7.0812Z" transform="translate(295.2783 93.33496)" id="Shape" fill="#263238" stroke="none" />
      <path d="M7.99169 7.06825C6.97049 10.2711 4.46395 12.3135 2.37508 11.7101C0.286217 11.1066 -0.595665 7.9502 0.425536 4.74734C1.44674 1.54448 3.90688 -0.497923 5.99568 0.105534C8.08447 0.708992 8.9665 3.86539 7.99169 7.06825L7.99169 7.06825Z" transform="translate(259.1362 82.02197)" id="Shape" fill="#263238" stroke="none" />
      <path d="M6.96271 4.64181L0 0C0 0 2.04241 7.24121 6.96271 4.64181L6.96271 4.64181Z" transform="translate(259.0508 77.94971)" id="Shape" fill="#263238" stroke="none" />
      <path d="M17.7781 0C12.6589 6.41088 6.67593 12.0814 0 16.8497C2.56888 20.2274 6.48604 22.3133 10.7226 22.5591L17.7781 0Z" transform="translate(258.2617 97.53809)" id="Shape" fill="#ED893E" stroke="none" />
      <path d="M0.381056 5.3763C0.0471008 5.13251 -0.085419 4.6972 0.056096 4.30871C0.232742 3.79166 0.785061 3.50523 1.3094 3.65878C9.31024 6.37357 18.127 5.09681 25.029 0.223889C25.3026 -7.08284e-05 25.6749 -0.0610541 26.0057 0.0638873C26.3365 0.188899 26.5754 0.480925 26.6325 0.829897C26.6895 1.17887 26.5561 1.53181 26.2823 1.75562C18.8768 7.09248 9.34467 8.5111 0.706017 5.56194L0.381056 5.3763Z" transform="translate(279.2793 132.4526)" id="Shape" fill="#263238" stroke="none" />
      <path d="M12.1616 14.7609C11.8952 14.5358 11.688 14.249 11.5581 13.9254C10.0229 9.16533 6.29189 5.4343 1.5318 3.8991C0.474692 3.6461 -0.185641 2.59373 0.0463926 1.5318C0.299321 0.474692 1.35169 -0.185641 2.41362 0.0463926C8.47454 1.89806 13.2652 6.56763 15.2714 12.5793C15.6482 13.6044 15.1311 14.7421 14.1109 15.1322C13.4401 15.3447 12.7074 15.2051 12.1616 14.7609L12.1616 14.7609Z" transform="translate(304.9585 77.02148)" id="Shape" fill="#263238" stroke="none" />
      <path d="M0.0325102 2.99207C0.0325102 2.99207 0.0325102 2.75997 0.0325102 2.66711C-0.0620456 2.15594 0.0514922 1.6282 0.347838 1.20111C0.644113 0.774012 1.09876 0.482908 1.61071 0.392602C7.82419 -0.873101 14.2651 0.962203 18.8782 5.31291C19.2525 5.67958 19.4634 6.18147 19.4634 6.70546C19.4634 7.22945 19.2525 7.73134 18.8782 8.09802C18.1032 8.8527 16.8681 8.8527 16.0931 8.09802C12.3445 4.64464 7.14502 3.24075 2.1677 4.33817C1.22236 4.47295 0.318515 3.90321 0.0325102 2.99214L0.0325102 2.99207Z" transform="translate(256.3262 65.34912)" id="Shape" fill="#263238" stroke="none" />
      <path d="M7.74891 119.294C0.879051 108.2 -5.06246 86.5233 6.68131 74.2689C18.4251 62.0145 27.5694 58.5332 24.6451 37.1344C21.7207 15.7357 54.3991 16.3392 57.1377 0C73.4305 13.9254 90.698 46.4181 81.4608 61.3183C72.2237 76.2185 77.1904 87.4052 75.1944 105.462C73.1984 123.518 33.7431 161.349 7.74891 119.294L7.74891 119.294Z" transform="translate(88.46729 132.3984)" id="Shape" fill="#407BFF" stroke="none" />
      <path d="M7.74891 119.294C0.879051 108.2 -5.06246 86.5233 6.68131 74.2689C18.4251 62.0145 27.5694 58.5332 24.6451 37.1344C21.7207 15.7357 54.3991 16.3392 57.1377 0C73.4305 13.9254 90.698 46.4181 81.4608 61.3183C72.2237 76.2185 77.1904 87.4052 75.1944 105.462C73.1984 123.518 33.7431 161.349 7.74891 119.294L7.74891 119.294Z" transform="translate(88.46729 132.3984)" id="Shape" fill="#EEEEEE" fill-opacity="0.5" stroke="none" />
      <path d="M43.2616 0C35.3705 49.5745 20.8417 107.458 0 150.487C5.06869 150.074 9.82439 147.869 13.4148 144.267C17.0052 140.666 46.418 54.6341 43.2616 0L43.2616 0Z" transform="translate(103.6899 166.7939)" id="Shape" fill="#407BFF" stroke="none" />
      <path d="M19.1867 129.089C8.74263 121.29 -4.71858 103.327 1.64067 87.5909C7.99992 71.8551 15.2876 65.2638 4.65781 46.4181C-5.97196 27.5723 24.7104 16.0607 21.2291 0C41.6066 7.14835 69.5967 30.9608 66.3938 48.0427C63.191 65.1246 72.0105 73.8976 76.7915 91.3972C81.5726 108.897 58.8741 158.611 19.1867 129.089L19.1867 129.089Z" transform="translate(61.38672 146.9736)" id="Shape" fill="#407BFF" stroke="none" />
      <path d="M19.1867 129.089C8.74263 121.29 -4.71858 103.327 1.64067 87.5909C7.99992 71.8551 15.2876 65.2638 4.65781 46.4181C-5.97196 27.5723 24.7104 16.0607 21.2291 0C41.6066 7.14835 69.5967 30.9608 66.3938 48.0427C63.191 65.1246 72.0105 73.8976 76.7915 91.3972C81.5726 108.897 58.8741 158.611 19.1867 129.089L19.1867 129.089Z" transform="translate(61.38672 146.9736)" id="Shape" fill="#EEEEEE" fill-opacity="0.6" stroke="none" />
      <path d="M32.3874 94.2929C43.3421 93.5038 61.1202 86.8659 63.766 72.7549C66.4118 58.6438 64.2302 50.6599 80.3837 42.0725C96.5371 33.4852 79.9195 11.3902 89.6673 1.54958C71.9355 -2.62801 41.2068 1.54958 35.6367 15.1965C30.0665 28.8434 19.9009 30.9786 8.52851 41.2834C-2.8439 51.5882 -9.29608 97.2636 32.3874 94.2929L32.3874 94.2929Z" transform="translate(122.7798 196.7158)" id="Shape" fill="#407BFF" stroke="none" />
      <path d="M32.3874 94.2929C43.3421 93.5038 61.1202 86.8659 63.766 72.7549C66.4118 58.6438 64.2302 50.6599 80.3837 42.0725C96.5371 33.4852 79.9195 11.3902 89.6673 1.54958C71.9355 -2.62801 41.2068 1.54958 35.6367 15.1965C30.0665 28.8434 19.9009 30.9786 8.52851 41.2834C-2.8439 51.5882 -9.29608 97.2636 32.3874 94.2929L32.3874 94.2929Z" transform="translate(122.7798 196.7158)" id="Shape" fill="#EEEEEE" fill-opacity="0.7" stroke="none" />
      <path d="M0 0C8.3088 43.4009 12.3008 95.0642 4.64181 135.355C9.59164 134.369 14.0041 131.592 17.0355 127.557C20.0669 123.522 21.9093 45.629 0 0L0 0Z" transform="translate(94.12744 198.7295)" id="Shape" fill="#407BFF" stroke="none" />
      <path d="M80.9254 0C51.8677 31.8428 20.814 72.5514 3.12877 109.593C0.701767 105.96 -0.366607 101.588 0.111625 97.2458C0.589858 92.9033 42.5841 27.1081 80.9254 0L80.9254 0Z" transform="translate(99.95752 222.4492)" id="Shape" fill="#407BFF" stroke="none" />
      <path d="M29.2933 14.552C16.157 7.35722 -9.79067 27.4562 3.85625 50.8045C17.5032 74.1528 45.6325 84.9682 58.6296 72.4353C76.547 69.2325 84.3451 40.2677 73.5762 15.4804C62.8072 -9.30691 31.2893 -0.301799 29.2933 14.552L29.2933 14.552Z" transform="translate(20.50488 251.4375)" id="Shape" fill="#407BFF" stroke="none" />
      <path d="M1.39369 19.9133C1.39369 19.9133 -3.24812 4.82745 4.41083 0C5.44847 1.30466 6.4094 2.66853 7.28873 4.08481C8.16807 5.5011 2.09 5.52369 1.39369 19.9133L1.39369 19.9133Z" transform="translate(48.40479 246.0762)" id="Shape" fill="#263238" stroke="none" />
      <path d="M74.8644 25.0041C73.2862 56.8933 40.515 81.1235 4.91237 88.9218C2.72186 91.1713 1.12653 93.9312 0.270564 96.9521C-0.345926 98.3789 0.118354 100.043 1.38462 100.944C4.08375 103.181 7.25962 104.768 10.6682 105.586C29.4729 106.042 47.8074 99.6777 62.2851 87.6685C80.8523 73.4646 97.7949 45.3352 92.4569 32.2918C87.1188 19.2483 82.8948 23.6116 80.8523 13.7245C79.7179 9.71177 79.2321 5.54345 79.4134 1.37733C79.5947 -2.78879 74.7716 3.55898 73.6111 6.39049C75.1429 10.3824 75.375 14.6065 74.8644 25.0041L74.8644 25.0041Z" transform="translate(123.4253 201.6226)" id="Shape" fill="#407BFF" stroke="none" />
      <path d="M92.4184 9.28361C91.2043 5.78257 89.2034 2.60663 86.5697 0C86.941 10.4905 84.2488 23.209 72.6442 41.7763C60.5291 61.179 28.0365 78.4465 0 76.7291C0.22403 77.1778 0.559686 77.5615 0.97481 77.8431C3.67394 80.0796 6.84981 81.6675 10.2584 82.4849C29.0638 82.9453 47.3997 76.5805 61.8753 64.5676C80.4889 50.5029 97.5708 22.3735 92.4184 9.28361L92.4184 9.28361Z" transform="translate(123.6494 224.7705)" id="Shape" fill="#000000" fill-opacity="0.2" stroke="none" />
      <path d="M2.41383 12.3937C1.73225 10.0015 0.926575 7.64641 0 5.33805C1.90408 2.8745 4.48499 1.0195 7.42691 0L7.42691 7.65895C7.42691 7.65895 4.87398 12.0687 2.41383 12.3937L2.41383 12.3937Z" transform="translate(195.9688 202.1646)" id="Shape" fill="#263238" stroke="none" />
      <path d="M2.57091 0C1.7578 0.782086 0.995501 1.60341 0.287566 2.46015C-0.454806 4.35212 0.272738 6.44708 2.09301 7.65895C2.75954 8.26843 3.67734 8.61945 4.64181 8.63376C3.60442 7.20742 2.85038 5.63808 2.41161 3.99195C2.37337 2.6596 2.42652 1.32654 2.57091 -7.08283e-05L2.57091 0Z" transform="translate(122.5625 295.4189)" id="Shape" fill="#263238" stroke="none" />
      <path d="M88.881 21.8629C80.665 52.6845 43.577 69.5343 7.0924 69.72C4.42656 71.4163 2.23775 73.7649 0.733144 76.5434C-0.244358 77.7644 -0.244358 79.5001 0.733144 80.721C2.9301 83.5799 5.77896 85.8717 9.04195 87.4052C12.7554 88.3801 34.7111 94.4608 63.2582 80.721C84.1927 70.6019 106.798 46.6966 104.338 32.864C101.878 19.0314 96.7721 22.3735 96.8649 12.3472C96.5516 8.19548 96.9439 4.02064 98.0254 0C95.4881 0.555507 93.1568 1.80966 91.2948 3.6206C92.1767 7.56617 91.5269 11.7902 88.881 21.8629L88.881 21.8629Z" transform="translate(134.9385 219.1533)" id="Shape" fill="#407BFF" stroke="none" />
      <path d="M104.301 10.3976C103.855 6.69101 102.569 3.135 100.541 0C98.6848 10.3512 93.3932 22.3735 78.3073 37.9235C62.4323 54.3555 27.2474 64.521 0 56.955C0.126287 57.4371 0.364837 57.8825 0.696243 58.2547C2.90949 61.0974 5.75417 63.3859 9.00498 64.9389C12.7184 65.9137 34.6742 71.948 63.2213 58.2083C84.1559 48.1355 106.762 24.2302 104.301 10.3976L104.301 10.3976Z" transform="translate(135.2075 241.6201)" id="Shape" fill="#000000" fill-opacity="0.2" stroke="none" />
      <path d="M0.881954 11.0474C0.881954 11.0474 0.464209 5.61654 0 3.66699C2.3804 1.67608 5.27855 0.404146 8.35533 0L6.68428 7.4733C6.68428 7.4733 3.3421 11.0474 0.881954 11.0474L0.881954 11.0474Z" transform="translate(225.5371 218.3647)" id="Shape" fill="#263238" stroke="none" />
      <path d="M4.6418 0C4.6418 0 2.21671 1.20684 0.969592 1.99594C-0.543737 3.7051 -0.265049 5.87004 1.66251 7.38045C3.32543 8.773 4.6418 8.8194 4.6418 8.8194C3.7478 7.24566 3.25587 5.58233 3.18672 3.8991C3.60254 2.3209 4.6418 0 4.6418 0L4.6418 0Z" transform="translate(134.4653 292.9121)" id="Shape" fill="#263238" stroke="none" />
      <path d="M0 0L228.702 6.10352e-05L228.702 255.995L0 255.995L0 0Z" transform="matrix(0.9907004 -0.1360614 0.1360614 0.9907004 18.79148 306.6953)" id="Rectangle" fill="#407BFF" stroke="none" />
      <path d="M0 0L228.702 6.10352e-05L228.702 255.995L0 255.995L0 0Z" transform="matrix(0.9907004 -0.1360614 0.1360614 0.9907004 18.79148 306.6953)" id="Rectangle" fill="#EEEEEE" fill-opacity="0.8" stroke="none" />
      <path d="M0 0L67.4918 0L67.4918 255.995L0 255.995L0 0Z" transform="matrix(0.9907004 -0.1360614 0.1360614 0.9907004 178.5039 284.7773)" id="Rectangle" fill="#407BFF" fill-opacity="0.2" stroke="none" />
      <path d="M68.281 253.582L31.4714 233.808L0 4.59541L33.4211 0L68.281 253.582L68.281 253.582Z" transform="translate(211.9829 275.5977)" id="Polygon" fill="#407BFF" fill-opacity="0.2" stroke="none" />
      <path d="M30.0789 0L0 28.9648L66.8885 19.7741L30.0789 0L30.0789 0Z" transform="translate(213.3755 509.4063)" id="Polygon" fill="#407BFF" fill-opacity="0.3" stroke="none" />
      <path d="M34.5351 13.5541L0 0L3.3885 43.2617C3.3885 43.2617 26.5975 42.1477 38.8983 30.0325L34.5351 13.5541Z" transform="translate(282.2598 480.0693)" id="Shape" fill="#FFB573" stroke="none" />
      <path d="M122.451 0C131.735 25.9942 139.719 51.8026 146.588 78.5394C150.023 91.8614 153.273 105.276 155.872 119.202C157.125 126.118 158.239 133.127 159.075 140.461C159.995 148.161 160.321 155.92 160.05 163.67C159.892 168.699 159.112 173.688 157.729 178.524C155.842 184.477 152.673 189.943 148.445 194.538C142.258 201.144 134.91 206.556 126.768 210.506C113.455 216.981 99.436 221.887 84.9915 225.128C57.9697 231.398 30.4123 235.082 2.69226 236.129L0 214.405C12.6257 211.388 25.5763 208.046 38.1557 204.518C50.735 200.991 63.2678 197.091 75.2901 192.682C86.7622 188.755 97.8172 183.701 108.293 177.596C112.103 175.367 115.508 172.511 118.366 169.148C119.109 167.987 119.109 167.662 118.97 167.662C119.088 165.962 119.088 164.256 118.97 162.556C118.761 156.952 118.172 151.369 117.206 145.846C116.277 139.811 115.024 133.638 113.631 127.278C110.707 114.885 107.504 102.259 103.884 89.6333C96.6424 64.5676 88.5193 39.084 80.3496 14.3432L122.451 0Z" transform="translate(303.2871 278.0117)" id="Shape" fill="#FFB573" stroke="none" />
      <path d="M0.510956 21.3987L3.20321 31.425C4.96677 37.9674 10.8192 42.5739 17.5928 42.751L36.1601 43.2616L32.7716 0L13.833 2.18165C9.35621 2.63014 5.30093 5.0184 2.73759 8.71599C0.174238 12.4137 -0.63958 17.049 0.511027 21.3987L0.510956 21.3987Z" transform="translate(249.7207 480.0234)" id="Shape" fill="#FFB573" stroke="none" />
      <path d="M49.597 2.99448C68.9998 10.8855 84.8748 74.664 84.8748 74.664L31.2619 116.44C31.2619 116.44 -6.70808 56.9787 1.0438 31.1703C7.63515 9.40013 24.9027 -6.98545 49.597 2.99448L49.597 2.99448Z" transform="translate(356.46 226.6494)" id="Shape" fill="#407BFF" stroke="none" />
      <g id="Group" transform="translate(356.46 226.6494)" opacity="0.5">
        <path d="M49.597 2.99448C68.9998 10.8855 84.8748 74.664 84.8748 74.664L31.2619 116.44C31.2619 116.44 -6.70808 56.9787 1.0438 31.1703C7.63515 9.40013 24.9027 -6.98545 49.597 2.99448L49.597 2.99448Z" id="Shape" fill="#000000" fill-opacity="0.5" stroke="none" />
      </g>
      <path d="M5.24823 13.1008L5.94448 13.1008C11.0505 12.7294 17.0848 5.81316 20.2413 1.5891C20.4535 1.26485 20.4535 0.845548 20.2413 0.521296C20.0631 0.156106 19.6682 -0.0507131 19.2664 0.0107659C17.5954 0.196478 2.6953 2.05317 0.327935 6.69497C-0.193645 7.79281 -0.0874021 9.08571 0.606432 10.0835C1.50893 11.8415 3.27524 12.9896 5.24823 13.1008ZM2.18463 7.57721C3.29862 5.0706 11.2825 3.16744 17.224 2.28549L17.3633 2.28535C12.7215 7.99482 8.07967 11.2441 5.20177 11.105C3.89499 11.0365 2.73369 10.2503 2.18463 9.06262C1.89862 8.60876 1.89862 8.03108 2.18463 7.57721Z" transform="translate(607.1836 1259.279)" id="Shape" fill="#263238" fill-rule="evenodd" stroke="none" />
      <path d="M0.39168 5.85597C2.52687 9.75508 12.5532 11.844 17.6127 11.519L18.4483 11.3799C18.8053 11.335 19.0991 11.0779 19.1909 10.73C19.3787 10.4489 19.3787 10.0826 19.1909 9.80154C18.9589 9.29101 11.2998 0.00736617 5.26551 0.00736617C3.74554 -0.0742284 2.26721 0.520449 1.22717 1.63189C-0.0087827 2.66896 -0.356407 4.4265 0.39168 5.85597ZM3.50175 2.83895C4.06497 2.24937 4.82439 1.88617 5.63693 1.81775L6.05482 1.77142C9.62895 1.91067 14.5957 6.50603 17.3344 9.4304C12.2748 9.4304 4.33738 7.34153 2.99122 4.78858C2.75904 4.37069 2.61979 3.76737 3.50175 2.83895Z" transform="translate(608.1411 1249.859)" id="Shape" fill="#263238" fill-rule="evenodd" stroke="none" />
      <path d="M0.869631 7.38894C2.89738 10.0505 5.67944 12.04 8.85354 13.0986C13.0363 14.7743 17.3742 16.0337 21.8042 16.8583C22.2324 16.9326 22.6608 16.7276 22.8717 16.3477C23.1048 16.013 23.1048 15.5685 22.8717 15.2337C20.4116 12.4951 7.87873 -0.966097 2.58708 0.0551044C1.55227 0.276655 0.717916 1.0399 0.405421 2.05104C-0.267306 3.8073 -0.0961849 5.77519 0.869631 7.38894ZM2.95843 1.86562C3.63002 1.80782 4.30459 1.9363 4.90798 2.23676L4.90805 2.2369C10.2994 5.47375 15.1671 9.51195 19.3441 14.2127C10.5711 12.3095 4.39745 9.38531 2.58715 6.27524C1.90195 5.157 1.78169 3.78209 2.26219 2.56186C2.44783 1.86562 2.28683 1.92341 2.95843 1.86562Z" transform="translate(50.41406 1303.563)" id="Shape" fill="#263238" fill-rule="evenodd" stroke="none" />
      <path d="M9.25663 22.2459C9.3446 22.3483 9.45608 22.4281 9.58159 22.478C9.78813 22.5714 10.0248 22.5716 10.2314 22.4782C10.5974 22.403 10.8763 22.1055 10.9277 21.7354C11.0669 20.9462 13.8984 2.93598 4.61482 0.243791C2.15467 -0.452593 1.04061 0.475825 0.483616 1.35778C-1.88368 5.39613 4.98618 18.0219 9.25663 22.2459ZM4.28993 2.33252L4.93978 2.33252C9.85425 4.48257 9.6253 13.7257 9.50718 18.4945C9.50034 18.7704 9.49388 19.0314 9.4888 19.2751C5.45038 14.2155 1.04068 4.69989 2.43324 2.33252C2.66527 2.10049 3.31512 2.05402 4.28993 2.33252Z" transform="translate(62.59033 1297.759)" id="Shape" fill="#263238" fill-rule="evenodd" stroke="none" />
      <path d="M7.00909 4.64181L0 0C0 0 2.0888 7.24121 7.00909 4.64181L7.00909 4.64181Z" transform="translate(295.1641 89.27588)" id="Shape" fill="#263238" stroke="none" />
    </g>
  </g>
</svg>