<?xml version="1.0" encoding="utf-8"?>
<svg width="2000px" height="2000px" viewBox="0 0 2000 2000" version="1.1" xmlns:xlink="http://www.w3.org/1999/xlink" xmlns="http://www.w3.org/2000/svg">
  <desc>Created with Lunacy</desc>
  <defs>
    <rect width="2000" height="2000" id="artboard_1" />
    <clipPath id="clip_1">
      <use xlink:href="#artboard_1" clip-rule="evenodd" />
    </clipPath>
  </defs>
  <g id="Ultra-HD-Copy-13" clip-path="url(#clip_1)">
    <use xlink:href="#artboard_1" stroke="none" fill="#FFFFFF" />
    <g id="Group" transform="translate(100.1101 276.8701)">
      <g id="Shadow--inject-119" transform="translate(0 1341.714)">
        <path d="M0 52.5453C0 23.5253 402.944 0 900 0C1397.06 0 1800 23.5253 1800 52.5453C1800 81.5652 1397.06 105.091 900 105.091C402.944 105.091 0 81.5652 0 52.5453Z" id="path--inject-119" fill="#E9E9E9" stroke="none" />
      </g>
      <g id="character-2--inject-119" transform="translate(1063.251 35.94678)">
        <path d="M208.33 91.1828C205.359 93.3644 203.085 94.9891 200.485 96.7066C197.886 98.424 195.426 100.002 192.873 101.673C187.813 104.83 182.661 107.94 177.508 110.957C167.064 116.806 156.434 122.283 145.433 127.157C134.444 132.123 123.194 136.493 111.734 140.247C106.024 142.289 100.083 143.867 94.1877 145.492L85.229 147.674L83.0009 148.231L81.4227 148.556L79.5195 148.927C76.8251 149.431 74.0911 149.695 71.3501 149.716C65.6895 149.835 60.0556 148.906 54.7325 146.978C49.8881 145.214 45.347 142.708 41.2714 139.551C34.7543 134.38 29.2065 128.093 24.8858 120.983C18.1152 109.634 12.9891 97.3812 9.6607 84.5916C3.46365 61.467 0.219426 37.6508 0.00566627 13.7112C-0.191095 6.95796 4.69833 1.12681 11.3824 0.143215C18.0663 -0.840449 24.4284 3.33495 26.1855 9.85839L26.1855 10.5082C31.6771 31.2382 38.658 51.5447 47.0737 71.2695C50.6696 79.9471 55.3485 88.1353 60.9991 95.6389C62.8297 98.0808 65.1152 100.146 67.7298 101.72C69.5401 102.509 69.3079 101.72 69.2615 101.72C72.5153 100.321 75.8475 99.1117 79.2413 98.0991C83.8831 96.1959 88.9427 94.4785 93.7237 92.3897C103.379 88.4906 112.894 83.8488 122.317 79.1605C131.74 74.4723 140.885 69.3199 150.168 63.9354C154.81 61.336 159.452 58.5974 163.769 55.8122L176.58 47.5962L177.648 46.9C189.845 38.8163 206.273 42.0183 214.541 54.0914C222.81 66.1644 219.858 82.6387 207.912 91.09L208.33 91.1828Z" transform="translate(219.1806 222.4903)" id="Shape" fill="#FFB573" stroke="none" />
        <path d="M41.7799 38.6199L43.1724 0L0.0964682 13.6469C-1.01653 28.4502 7.58345 42.2703 21.356 47.8105L41.7799 38.6199Z" transform="translate(205.3036 215.3132)" id="Shape" fill="#FFB573" stroke="none" />
        <path d="M20.0031 2.28244L4.22095 14.4904C1.28823 16.7564 -0.286713 20.3612 0.0432053 24.0525L1.25012 38.7207L44.3262 25.0737L36.7601 6.73861C35.4604 3.59659 32.7697 1.24035 29.4837 0.366466C26.1977 -0.507343 22.692 0.201082 20.0032 2.28244L20.0031 2.28244Z" transform="translate(204.15 190.2395)" id="Shape" fill="#FFB573" stroke="none" />
        <path d="M61.7824 0.615923C31.6572 5.76833 0 38.3538 0 38.3538C0 38.3538 7.70542 73.8172 13.9254 109.141C93.5789 98.883 118.738 -9.08544 61.7824 0.615923L61.7824 0.615923Z" transform="translate(360.0651 246.0295)" id="Shape" fill="#407BFF" stroke="none" />
        <path d="M0.0698368 52.135C5.03717 144.193 5.03717 236.451 0.0698368 328.508L188.945 342.434C205.516 243.285 202.313 149.288 204.124 55.3846C204.634 28.4157 196.65 3.62847 169.774 1.07546C159.841 0.14711 137.282 -0.131387 128.509 0.0542545C101.995 0.359241 75.5221 2.21912 49.2266 5.62434C43.5635 6.59915 37.947 7.71314 32.6553 8.96644C12.6875 13.4342 -1.10577 31.7072 0.0698368 52.135L0.0698368 52.135Z" transform="translate(386.4072 238.0041)" id="Shape" fill="#407BFF" stroke="none" />
        <path d="M0 0C0 0 13.2755 43.4473 40.523 53.4272C40.523 36.1133 40.8015 18.7993 41.1265 1.53181L0 0Z" transform="translate(549.1724 293.1099)" id="Shape" fill="#000000" fill-opacity="0.2" stroke="none" />
        <path d="M319.496 0C319.496 0 183.166 131.456 136.423 228.748C87.823 329.94 0 522.296 0 522.296L28.872 536.732C28.872 536.732 196.348 318.846 207.535 259.616C268.621 156.15 422.822 108.432 449.234 19.5882C393.161 2.92436 319.496 0 319.496 0L319.496 0Z" transform="translate(67.25987 553.376)" id="Shape" fill="#FFB573" stroke="none" />
        <path d="M15.5594 0C15.5594 0 -5.0502 185.997 1.1698 289.417C8.03972 402.723 66.1551 607.659 66.1551 607.659L94.0059 606.22C94.0059 606.22 102.408 431.549 70.4256 306.591C88.9928 223.735 143.488 102.352 141.909 13.8791C100.203 6.0792 57.9665 1.43966 15.5608 0.000141657L15.5594 0Z" transform="translate(433.1178 566.5123)" id="Shape" fill="#FFB573" stroke="none" />
        <path d="M69.808 32.1677C62.8453 25.6227 53.2832 18.2423 51.7978 0C51.7978 0 18.5624 15.2716 20.8833 27.8508C23.2042 40.4301 22.6008 80.7211 0.598641 105.972C-2.46497 109.5 6.72586 113.585 16.8914 109.779C34.159 103.327 35.6907 96.8745 40.1005 82.2528C43.9068 69.7199 62.799 56.6301 70.4115 49.4817C76.7707 43.3545 76.7707 38.7127 69.808 32.1677L69.808 32.1677Z" transform="translate(476.3471 1139.079)" id="Shape" fill="#FFB573" stroke="none" />
        <path d="M88.1017 50.2927C92.0936 41.659 90.8868 29.3581 101.052 16.4075C101.052 16.4075 82.4851 -6.52301 72.9695 1.83219C63.4538 10.1874 35.835 16.9181 4.0851 6.474C-0.556711 4.98859 -3.06333 18.4498 6.77728 22.9524C23.1164 30.4256 35.1851 35.7174 49.1105 42.0766C60.9935 47.5076 63.036 51.3602 71.9946 56.5126C79.6536 60.644 84.0633 59.1586 88.1017 50.2927L88.1017 50.2927Z" transform="translate(0 1065.531)" id="Shape" fill="#FFB573" stroke="none" />
        <path d="M7.29745 91.6757C30.0423 82.3921 28.0463 62.5251 22.4298 44.0508L71.4473 0C67.6874 26.1334 63.1849 69.2094 82.1698 85.5485C82.1698 85.5485 71.4473 121.058 19.6447 130.11C-0.640005 122.358 -6.02452 96.1782 7.29745 91.6757L7.29745 91.6757Z" transform="translate(444.0256 152.4167)" id="Shape" fill="#FFB573" stroke="none" />
        <path d="M27.8509 0L0 26.3654C1.48839 30.9004 2.56045 35.5614 3.20286 40.2909C10.6761 40.9407 30.6824 30.0789 31.0537 18.4744C30.9007 12.1923 29.8214 5.96708 27.8509 0L27.8509 0Z" transform="translate(466.5482 170.0556)" id="Shape" fill="#000000" fill-opacity="0.2" stroke="none" />
        <path d="M22.5128 46.1396L0 11.0011L43.8187 0C43.8187 0 57.7441 35.1849 43.8187 44.19L22.5128 46.1396Z" transform="translate(613.3221 26.1131)" id="Shape" fill="#FFB573" stroke="none" />
        <path d="M18.0529 202.011L20.6058 200.943L23.7622 199.504L30.2607 196.394C34.5775 194.212 38.8944 191.752 43.1185 189.339C51.552 184.4 59.6608 178.927 67.3953 172.953C74.9828 167.023 82.1056 160.521 88.7013 153.504C91.9042 149.976 94.9213 146.355 97.9849 142.642L101.791 137.49C102.655 136.254 103.416 134.95 104.066 133.59C104.672 132.283 105.184 130.933 105.597 129.552C106.111 127.83 106.422 126.054 106.526 124.26C107.083 119.247 107.686 114.234 107.872 109.221C108.058 104.208 108.243 99.1018 108.336 94.0422C108.429 88.9826 108.336 83.8766 107.733 78.8171C107.016 68.6142 105.604 58.4717 103.509 48.4603C102.441 43.4472 101.374 38.3876 99.8882 33.5137C99.2383 31.0536 98.4028 28.6398 97.6138 26.226L95.3393 19.5883L94.6431 17.6851C92.4216 11.4734 95.1162 4.57438 100.96 1.51247C106.803 -1.54944 114.009 0.16163 117.852 5.52362C120.127 8.63362 121.705 10.9081 123.422 13.6468C125.14 16.3854 126.579 18.892 128.064 21.5843C131.035 26.9224 133.634 32.3997 136.095 37.9699C140.813 49.1764 144.525 60.7802 147.189 72.6443C149.942 84.56 151.681 96.6875 152.387 108.897C152.805 115.024 152.805 121.105 152.759 127.464C152.842 131.256 152.578 135.047 151.969 138.79C151.299 142.874 150.29 146.896 148.952 150.813C147.58 154.654 145.935 158.392 144.032 162L142.5 164.692L141.247 166.827L138.741 170.912C135.329 176.35 131.61 181.588 127.6 186.601C119.71 196.539 110.897 205.709 101.281 213.988C91.7995 222.178 81.6444 229.554 70.9232 236.037C65.5387 239.193 60.0614 242.21 54.3984 244.995C51.567 246.388 48.7354 247.734 45.7647 249.034L41.1229 250.89L35.8777 252.84C22.232 257.762 7.14785 250.926 1.85372 237.42C-3.44042 223.915 2.98003 208.649 16.3357 202.987L18.0529 202.011Z" transform="translate(535.4828 45.37743)" id="Shape" fill="#FFB573" stroke="none" />
        <path d="M2.15347 17.546C24.3413 17.546 65.607 0 65.607 0C65.607 0 89.9765 44.9327 93.4579 68.513C79.33 89.4464 58.3029 104.757 34.0428 111.775C6.98084 97.5707 -5.31992 62.1073 2.15347 17.546L2.15347 17.546Z" transform="translate(529.3337 220.4192)" id="Shape" fill="#407BFF" stroke="none" />
        <path d="M84.6665 248.43C84.6665 248.43 30.543 226.242 0 188.086C34.3493 122.358 114.281 29.1508 137.815 22.2345C140.774 14.6037 144.232 7.17619 148.167 0L301.346 22.7913C293.084 97.1533 132.616 211.528 84.6665 248.43L84.6665 248.43Z" transform="translate(235.2935 529.6561)" id="Shape" fill="#263238" stroke="none" />
        <path d="M48.0427 0.178346C27.0618 9.74045 6.26647 61.6358 0 102.716C31.0666 78.4956 60.6709 52.4563 88.6574 24.7347C71.716 11.2723 52.2205 -1.67835 48.0427 0.178346L48.0427 0.178346Z" transform="translate(385.4093 625.1456)" id="Shape" fill="#000000" fill-opacity="0.2" stroke="none" />
        <path d="M33.3882 259.895C33.3882 259.895 73.122 270.942 143.167 258.688C155.978 188.411 206.667 78.8179 190.188 46.4181C193.439 39.1261 194.158 30.9566 192.231 23.209L3.30924 0C-12.1944 23.4876 31.7172 189.85 33.3882 259.895L33.3882 259.895Z" transform="translate(393.1476 531.4202)" id="Shape" fill="#263238" stroke="none" />
        <path d="M5.90156 4.76083L29.8069 0.119027C33.3062 -0.515241 36.7602 1.43619 38.0228 4.76083L46.2852 26.2524L2.46653 37.2535L0.052838 12.7447C-0.404147 8.95851 2.15375 5.46671 5.90156 4.76083L5.90156 4.76083Z" transform="translate(610.6698 0)" id="Shape" fill="#FFB573" stroke="none" />
        <path d="M33.5773 0.364483C3.49835 -2.83838 -10.3806 15.1719 8.83654 50.3103C32.9274 16.518 33.5773 0.364483 33.5773 0.364483L33.5773 0.364483Z" transform="translate(434.4563 71.56331)" id="Shape" fill="#263238" stroke="none" />
        <path d="M105.28 60.3271C96.5538 94.3516 93.1653 114.683 72.37 129.026C41.1306 150.564 1.67523 126.612 0.0970348 90.6846C-1.34191 58.1919 13.1405 8.19966 49.4859 0.958449C65.7477 -2.34258 82.5595 3.00702 93.9232 15.0986C105.287 27.1902 109.584 44.3014 105.281 60.3271L105.28 60.3271Z" transform="translate(431.9626 64.93504)" id="Shape" fill="#FFB573" stroke="none" />
        <path d="M97.9223 122.358L72.5316 108.433C72.5316 108.433 76.1058 87.3125 89.4279 79.8391C77.8698 73.4334 70.1644 56.8622 70.8606 49.1568C52.7112 53.7986 26.1136 50.5957 15.159 44.0508C-4.75442 32.0285 -3.96525 8.81948 11.2134 0C16.1802 15.4108 24.1176 23.4875 42.8706 14.6681C61.6235 5.84872 87.8032 2.64586 97.6903 17.3604C107.577 32.0749 131.854 20.2383 145.269 32.864C151.698 38.2479 154.659 46.7219 152.983 54.9382C151.307 63.1545 145.262 69.7914 137.238 72.2266C160.401 90.701 139.606 118.366 97.9223 122.358L97.9223 122.358Z" transform="translate(431.8009 35.67522)" id="Shape" fill="#263238" stroke="none" />
        <path d="M0 0.421429C13.6918 -1.99927 27.0249 6.22397 31.0073 19.5456C23.4412 11.8403 8.68031 0.839245 0 0.421429L0 0.421429Z" transform="translate(559.0593 105.7165)" id="Shape" fill="#263238" stroke="none" />
        <path d="M0 5.33805C9.40798 11.0128 21.5776 8.71479 28.2684 0C20.4704 3.52775 6.45218 7.51971 0 5.33805L0 5.33805Z" transform="translate(560.8697 100.3821)" id="Shape" fill="#263238" stroke="none" />
        <path d="M34.8926 23.9177C29.8727 31.2187 22.1591 36.2275 13.4475 37.8432C1.93574 39.8391 -2.65961 29.2558 1.51799 18.9974C5.27785 9.71383 15.8147 -2.44769 26.9087 0.430212C38.0027 3.30811 40.9734 14.959 34.8926 23.9177L34.8926 23.9177Z" transform="translate(511.2162 132.0268)" id="Shape" fill="#FFB573" stroke="none" />
        <path d="M6.78961 5.7094C6.23262 8.49451 4.32946 10.3512 2.47276 10.3512C0.616066 10.3512 -0.405139 7.42684 0.151856 4.6418C0.708851 1.85676 2.61201 0 4.42239 0C6.23276 0 7.30029 2.92436 6.78961 5.7094L6.78961 5.7094Z" transform="translate(476.4226 119.135)" id="Shape" fill="#263238" stroke="none" />
        <path d="M6.76551 5.54373C6.25498 8.32885 4.30537 10.1855 2.495 10.1855C0.684626 10.1855 -0.382897 7.26118 0.127632 4.42967C0.638162 1.59817 2.63424 -0.212131 4.44447 0.0199736C6.2547 0.252078 7.32251 2.75869 6.76551 5.54373L6.76551 5.54373Z" transform="translate(444.7433 113.2199)" id="Shape" fill="#263238" stroke="none" />
        <path d="M17.9638 0C12.9845 7.92215 6.94005 15.1225 0 21.3987C3.34367 24.912 8.06197 26.7789 12.9042 26.5048L17.9638 0Z" transform="translate(442.2716 121.8736)" id="Shape" fill="#ED893E" stroke="none" />
        <path d="M7.01598 7.54449C4.90047 7.65619 2.77945 7.50023 0.703184 7.08028C0.252291 6.987 -0.0509964 6.56239 0.00708284 6.10555C0.0512797 5.88109 0.185429 5.68454 0.378365 5.56172C0.571443 5.43891 0.80631 5.40059 1.02829 5.45569C8.05744 6.98828 15.3951 5.05459 20.756 0.256894C21.0764 -0.076353 21.6063 -0.0867647 21.9397 0.233663C22.273 0.55409 22.2833 1.0841 21.9629 1.41735C17.875 5.18371 12.5712 7.35786 7.01598 7.54449L7.01598 7.54449Z" transform="translate(459.1609 152.4384)" id="Shape" fill="#263238" stroke="none" />
        <path d="M10.873 13.3441C10.2129 13.2596 9.65646 12.8109 9.43406 12.1836C8.26355 8.07811 5.21495 4.77121 1.21811 3.27135C0.337285 3.02317 -0.179904 2.11267 0.0576543 1.22894C0.165597 0.798661 0.444944 0.431274 0.830675 0.212131C1.21641 -0.00708284 1.67509 -0.0589292 2.10006 0.068491C7.21585 1.81979 11.1512 5.96325 12.6369 11.1624C12.7823 11.5807 12.7504 12.0402 12.5488 12.4346C12.3472 12.8289 11.9935 13.1238 11.5694 13.2511C11.3456 13.3273 11.109 13.3589 10.873 13.3441L10.873 13.3441Z" transform="translate(489.6532 98.5033)" id="Shape" fill="#263238" stroke="none" />
        <path d="M1.34333 6.88111C0.957457 6.80115 0.612099 6.58746 0.368591 6.27766C0.0878271 5.92833 -0.0407971 5.48077 0.0114742 5.03561C0.0638872 4.59053 0.292946 4.18503 0.647088 3.91036C4.75938 0.408609 10.3333 -0.841582 15.5472 0.568256C15.9715 0.695676 16.3252 0.990605 16.5268 1.38491C16.7284 1.77928 16.7603 2.23874 16.6151 2.65712C16.3275 3.52406 15.3972 3.99953 14.5262 3.72472C10.3769 2.70911 5.99222 3.74484 2.73596 6.50983C2.34569 6.82629 1.83913 6.96136 1.34319 6.88111L1.34333 6.88111Z" transform="translate(439.8606 90.99435)" id="Shape" fill="#263238" stroke="none" />
      </g>
      <g id="Cup--inject-119" transform="translate(301.3877 0)">
        <path d="M93.9502 274.47L12.765 274.47L0 0L106.715 0L93.9502 274.47L93.9502 274.47Z" transform="translate(491.896 775.2747)" id="Polygon" fill="#407BFF" stroke="none" />
        <path d="M102.63 88.6586L102.63 88.6586C73.7356 111.351 33.0724 111.351 4.1776 88.6586L4.1776 88.6586L0 0L106.762 0L102.63 88.6586Z" transform="translate(491.8496 775.321)" id="Shape" fill="#000000" fill-opacity="0.2" stroke="none" />
        <path d="M306.177 536.702C193.521 536.702 86.3878 452.407 56.9123 340.632L4.45992 141.359C-5.40378 107.165 1.29432 70.326 22.563 41.7925C43.7043 14.8873 76.22 -0.571797 110.433 0.0162197L270.9 0.0162197C291.695 0.737323 308.181 17.8046 308.181 38.6129C308.181 59.4211 291.695 76.4884 270.9 77.2095L110.479 77.2095C100.223 76.5788 90.2853 80.8923 83.7419 88.814C77.1428 98.4061 75.4245 110.538 79.1001 121.585L131.645 320.904C152.116 398.562 228.845 459.416 306.27 459.416C320.379 458.927 333.63 466.174 340.829 478.318C348.028 490.461 348.028 505.564 340.829 517.708C333.63 529.851 320.379 537.098 306.27 536.609L306.177 536.702Z" transform="translate(0 99.50417)" id="Shape" fill="#407BFF" stroke="none" />
        <path d="M39.9582 536.616C25.8498 537.105 12.5987 529.858 5.39938 517.714C-1.79975 505.571 -1.79975 490.468 5.39938 478.324C12.5987 466.181 25.8498 458.934 39.9582 459.423C117.383 459.423 194.113 398.569 214.583 320.911L267.082 121.592C270.757 110.545 269.039 98.4131 262.44 88.8211C255.897 80.8994 245.958 76.5859 235.703 77.2166L75.2823 77.2166C61.1739 77.7058 47.9227 70.4581 40.7235 58.315C33.5243 46.1718 33.5243 31.0681 40.7235 18.9249C47.9227 6.78167 61.1739 -0.465909 75.2823 0.0233025L235.703 0.0233025C269.914 -0.557419 302.427 14.9002 323.572 41.7996C344.841 70.333 351.539 107.172 341.676 141.366L289.177 340.639C259.701 452.321 152.522 536.616 39.9582 536.616L39.9582 536.616Z" transform="translate(744.3252 99.58987)" id="Shape" fill="#407BFF" stroke="none" />
        <g id="Group" transform="translate(136.6122 99.61311)" opacity="0.2">
          <path d="M172.861 38.6199C172.861 17.3088 155.598 0.025569 134.288 0L0 0L9.28361 77.1933L134.287 77.1933C155.591 77.1934 172.861 59.9234 172.861 38.6199L172.861 38.6199Z" id="Shape" fill="#000000" fill-opacity="0.2" stroke="none" />
          <path d="M120.362 50.1315C76.6826 50.1315 33.2817 30.8216 0 0L5.4309 44.9791C7.8288 64.9847 11.9759 84.7415 17.8245 104.023C49.9095 119.123 84.9019 127.044 120.362 127.232C134.47 127.721 147.722 120.474 154.921 108.33C162.12 96.1871 162.12 81.0834 154.921 68.9402C147.722 56.797 134.47 49.5494 120.362 50.0386L120.362 50.1315Z" transform="translate(49.20318 409.2682)" id="Shape" fill="#000000" fill-opacity="0.2" stroke="none" />
          <path d="M0 88.6585C0.0254982 109.951 17.2804 127.206 38.5733 127.232C74.0489 127.049 109.058 119.128 141.157 104.023C147.006 84.7416 151.153 64.9848 153.551 44.9791L158.935 0C125.7 30.8216 82.2991 50.1315 38.5734 50.1315C17.2986 50.1571 0.0511381 67.3837 0 88.6585L0 88.6585Z" transform="translate(609.0051 409.3611)" id="Shape" fill="#000000" fill-opacity="0.2" stroke="none" />
          <path d="M37.2815 0C16.4857 0.721104 0 17.7884 0 38.5966C0 59.4049 16.4857 76.4722 37.2815 77.1933L162.239 77.1933L171.523 0L37.2815 0Z" transform="translate(645.7139 7.082836E-05)" id="Shape" fill="#000000" fill-opacity="0.2" stroke="none" />
        </g>
        <path d="M0 0L32.864 0L32.864 4.64181L0 4.64181L0 0Z" transform="translate(478.2955 0)" id="Rectangle" fill="#407BFF" stroke="none" />
        <path d="M0 0L117.995 0L117.995 4.64181L0 4.64181L0 0Z" transform="translate(331.7073 0)" id="Rectangle" fill="#407BFF" stroke="none" />
        <path d="M361.065 811.481L361.065 811.481C193.549 811.482 54.0643 682.941 40.4089 515.983L0.0716075 22.3735C-0.409105 16.6123 1.54661 10.9133 5.46349 6.66116C9.38036 2.40901 14.9 -0.00704742 20.6812 0L701.495 0C707.272 0.00704742 712.783 2.42736 716.697 6.67614C720.61 10.9249 722.571 16.6157 722.105 22.3735L681.767 515.983C668.089 682.949 528.589 811.484 361.065 811.481L361.065 811.481Z" transform="translate(184.1655 16.24629)" id="Shape" fill="#407BFF" stroke="none" />
        <path d="M202.05 670.741C204.87 673.451 205.343 677.791 203.174 681.045C201.005 684.298 196.816 685.531 193.231 683.97C104.451 643.174 44.5794 557.662 36.6162 460.282L0.0387431 13.2756C-0.232529 9.86405 0.929835 6.49361 3.24642 3.97446C5.563 1.45531 8.82436 0.0151573 12.2467 7.08284e-05L67.7163 7.08284e-05C74.1287 -0.0167155 79.461 4.93043 79.9243 11.3261L115.527 480.149C120.451 551.885 151.051 619.447 201.725 670.463L202.05 670.741Z" transform="translate(239.2501 67.90948)" id="Shape" fill="#EEEEEE" fill-opacity="0.1" stroke="none" />
        <path d="M344.801 118.459L14.1655 118.459C9.94997 118.447 5.95744 116.564 3.2676 113.318C0.577747 110.073 -0.531425 105.8 0.240037 101.656L10.5912 46.6501C15.6792 19.6095 39.2886 0.0164322 66.8035 0L292.163 0C319.678 0.0164322 343.287 19.6095 348.375 46.6501L358.727 101.656C359.498 105.8 358.389 110.073 355.699 113.318C353.009 116.564 349.017 118.447 344.801 118.459L344.801 118.459Z" transform="translate(365.7702 1029.135)" id="Shape" fill="#407BFF" stroke="none" />
        <path d="M358.727 0L0.240037 0C-0.531425 4.14417 0.577747 8.41711 3.2676 11.6628C5.95744 14.9085 9.94997 16.7919 14.1655 16.8033L344.801 16.8033C349.017 16.7919 353.009 14.9085 355.699 11.6628C358.389 8.41711 359.498 4.14417 358.727 0L358.727 0Z" transform="translate(365.7702 1130.791)" id="Shape" fill="#000000" fill-opacity="0.2" stroke="none" />
        <path d="M0 0L562.958 0L562.958 235.061L0 235.061L0 0Z" transform="translate(263.7512 1147.594)" id="Rectangle" fill="#407BFF" stroke="none" />
        <path d="M0 0L562.958 0L562.958 235.061L0 235.061L0 0Z" transform="translate(263.7512 1147.594)" id="Rectangle" fill="#EEEEEE" fill-opacity="0.7" stroke="none" />
      </g>
      <g id="character-1--inject-119" transform="translate(227.2979 430.1104)">
        <path d="M26.0029 64.8904C13.47 -0.09491 118.421 -19.6833 165.675 21.768C211.814 62.2446 187.77 97.8009 253.405 87.1247C319.04 76.4485 325.724 139.345 291.375 162.276C257.025 185.206 311.892 232.46 253.823 252.791C181.968 277.996 114.568 255.158 66.108 231.253C17.6475 207.347 -31.6019 94.273 26.0029 64.8904L26.0029 64.8904Z" transform="translate(135.4968 0)" id="Shape" fill="#263238" stroke="none" />
        <path d="M107.23 0.18557C107.23 0.18557 331.94 123.565 320.196 201.547C291.51 377.286 290.72 470.354 290.72 470.354L259.249 470.354C259.249 470.354 229.402 294.523 245.324 204.75C225.735 164.506 -15.546 172.861 0.793207 0L107.23 0.18557Z" transform="translate(264.033 459.7695)" id="Shape" fill="#263238" stroke="none" />
        <path d="M0 0C9.28361 65.728 63.4535 98.3599 118.412 118.83C77.7967 72.8298 31.5179 23.5803 0 0L0 0Z" transform="translate(265.6616 497.1816)" id="Shape" fill="#000000" fill-opacity="0.2" stroke="none" />
        <path d="M43.6354 0.00198319L6.87233 0.00198319C5.26425 -0.0556711 3.88557 1.14048 3.71594 2.74063L0.00247899 32.9124C-0.0479508 34.7991 0.669682 36.6255 1.99106 37.9731C3.31236 39.3206 5.12422 40.0741 7.01151 40.0609C23.165 39.7824 30.9632 38.9005 51.3872 38.9005C63.92 38.9005 71.579 40.2002 88.9394 40.2002C106.3 40.2002 106.346 23.5826 99.0121 22.0507C66.5194 15.2272 61.8776 11.4674 50.6445 2.55506C48.6616 0.940176 46.1924 0.0406555 43.6354 0.00198319L43.6354 0.00198319Z" transform="translate(513.8103 924.2725)" id="Shape" fill="#263238" stroke="none" />
        <path d="M26.405 87.5384C36.4313 90.6484 47.0146 93.9905 57.3658 96.8219C67.717 99.6534 78.2075 102.949 88.6051 105.549C99.0027 108.148 109.447 110.655 119.705 112.604C124.765 113.486 129.917 114.461 134.837 115.018L138.551 115.528L142.125 115.807L145.653 116.085L146.256 116.085L146.256 116.085C146.256 116.085 145.792 116.41 145.978 116.457C146.164 116.503 146.674 116.178 147.417 115.157C149.362 112.09 150.774 108.715 151.594 105.177C153.919 95.5305 155.226 85.6669 155.494 75.748C156.051 65.2575 155.958 54.4885 155.494 43.7195C155.029 32.9506 154.379 21.8566 153.544 11.2269L153.544 10.8555C153.218 5.68504 156.816 1.08984 161.913 0.165172C167.011 -0.759493 171.993 2.2794 173.504 7.2349C179.994 29.4186 184.225 52.202 186.129 75.2371C187.235 87.6155 186.861 100.082 185.015 112.372C183.845 119.803 181.445 126.988 177.913 133.631C175.549 137.936 172.4 141.762 168.63 144.91C164.215 148.576 158.973 151.109 153.358 152.291C152.012 152.569 150.573 152.801 149.274 152.941L147.278 152.941L136.137 152.941L131.495 152.709C125.322 152.43 119.473 151.687 113.532 150.945C101.834 149.413 90.3227 147.278 79.2287 144.725C56.8636 139.845 34.807 133.645 13.175 126.157C2.96332 122.241 -2.38132 111.003 1.02517 100.611C4.43159 90.2178 15.3915 84.3241 25.94 87.2125L26.405 87.5384Z" transform="translate(322.5771 131.8311)" id="Shape" fill="#FFC3BD" stroke="none" />
        <path d="M27.0153 0L0 18.5672C0 18.5672 1.94955 21.8629 6.96271 29.8932C11.9759 37.9236 20.3311 42.8439 27.8972 37.7843C46.6966 28.3614 27.0153 0 27.0153 0L27.0153 0Z" transform="translate(461.5923 114.0469)" id="Shape" fill="#FFC3BD" stroke="none" />
        <path d="M2.53891 11.0514L8.43403 3.94946C10.4974 1.44844 13.5702 0 16.8125 0C20.0548 0 23.1276 1.44844 25.191 3.94946L29.0437 8.59127L2.02831 27.1585L0.450114 21.1241C-0.588584 17.6288 0.195982 13.8455 2.53884 11.0513L2.53891 11.0514Z" transform="translate(459.5642 105.5947)" id="Shape" fill="#FFC3BD" stroke="none" />
        <path d="M212.809 48.7855C214.665 82.6243 211.694 140.647 203.525 245.088L39.205 245.088C41.8044 182.47 37.9517 159.168 1.00293 43.0762C-0.78747 37.4293 -0.162268 31.2932 2.73036 26.1234C5.62299 20.9537 10.5252 17.2108 16.2744 15.7823C31.4212 11.8933 46.7599 8.79455 62.2284 6.49857C86.5971 2.57667 111.215 0.404926 135.894 0C145.549 0 155.622 0.417746 164.952 0.974811C190.751 2.40009 211.359 22.9874 212.809 48.7857L212.809 48.7855Z" transform="translate(167.7844 214.8672)" id="Shape" fill="#FFC3BD" stroke="none" />
        <path d="M12.6721 0C15.1688 16.4455 14.4436 33.2199 10.5369 49.3888C7.42692 38.2948 3.94557 26.4118 0 13.4148L12.6721 0Z" transform="translate(174.7288 263.5137)" id="Shape" fill="#000000" fill-opacity="0.2" stroke="none" />
        <path d="M34.3958 38.2949C34.3958 22.6985 14.1575 3.20286 0 0C10.212 5.7558 29.2434 26.1797 34.3958 38.2949L34.3958 38.2949Z" transform="translate(264.1299 258.8252)" id="Shape" fill="#000000" fill-opacity="0.2" stroke="none" />
        <path d="M0 0C6.7306 23.209 15.2251 66.285 0 83.5525C0 83.5525 8.63376 107.04 52.6845 103.141C101.099 98.8241 73.6655 77.054 73.6655 77.054C46.6966 73.0621 45.8147 53.4272 48.5998 34.5815L0 0Z" transform="translate(229.9199 137.9521)" id="Shape" fill="#FFC3BD" stroke="none" />
        <path d="M0.330414 0L29.1096 20.4704C28.366 24.8559 28.0088 29.2981 28.0419 33.746C17.7835 33.1426 2.92974 23.302 0.933801 12.8115C-0.0568751 8.61493 -0.261427 4.27109 0.330414 0L0.330414 0Z" transform="translate(249.4099 152.0635)" id="Shape" fill="#000000" fill-opacity="0.2" stroke="none" />
        <path d="M7.02476 81.0296C26.1954 115.89 33.5759 131.068 60.4055 140.955C100.789 155.763 139.316 124.616 131.1 84.6966C123.534 48.769 93.4552 -2.24441 51.5397 0.0764946C32.7457 1.03615 15.7879 11.6567 6.72027 28.1466C-2.34725 44.6365 -2.23209 64.6452 7.02476 81.0296L7.02476 81.0296Z" transform="translate(185.25 31.16113)" id="Shape" fill="#FFC3BD" stroke="none" />
        <path d="M8.3093 5.82889C24.5556 -16.3589 50.0856 30.8946 53.1027 45.7949C56.1198 60.6951 49.2036 81.676 25.9946 80.005C2.78554 78.3339 -9.09748 29.6414 8.3093 5.82889L8.3093 5.82889Z" transform="translate(170.365 56.41602)" id="Shape" fill="#263238" stroke="none" />
        <path d="M0 34.6699C34.4422 51.5661 54.4484 41.7255 68.3738 32.9989C82.2992 24.2722 131.827 29.1462 120.594 17.913C109.361 6.67982 92.047 -3.3465 63.732 1.0632C35.4169 5.47291 0 34.6699 0 34.6699L0 34.6699Z" transform="translate(175.3787 21.77246)" id="Shape" fill="#263238" stroke="none" />
        <path d="M54.9701 10.4568L17.3251 0.105534C15.9611 -0.273539 14.5242 0.395789 13.9365 1.68359L0.475294 30.6949C-0.177142 32.1572 -0.157026 33.8319 0.530363 35.278C1.21775 36.7242 2.50357 37.7973 4.04947 38.2146C17.2322 41.6032 22.6167 37.5183 37.2384 46.5698C48.2395 53.3468 62.954 54.0895 79.943 54.0895C94.2398 54.0895 95.8644 39.1893 89.6444 38.0289C61.7935 32.8301 64.7643 23.5929 59.9368 14.0771C58.8508 12.2376 57.0538 10.9278 54.9701 10.4568L54.9701 10.4568Z" transform="translate(0 910.0117)" id="Shape" fill="#263238" stroke="none" />
        <path d="M309.144 0C309.144 0 285.425 145.567 262.726 264.026C259.291 281.943 251.168 300.093 235.572 309.609C154.619 359.044 34.8135 464.274 34.8135 464.274L0 453.226C0 453.226 112.982 278.973 171.747 271.082C171.747 222.25 125.329 97.8959 189.943 0.000141657L309.144 0Z" transform="translate(17.04663 459.9551)" id="Shape" fill="#263238" stroke="none" />
        <path d="M3.95853 4.0562C0.492753 5.83697 -0.959157 10.029 0.662812 13.5719C2.38026 16.1248 101.019 18.8636 126.688 18.6779C152.357 18.4922 180.347 17.2389 178.723 12.6436C177.098 8.04823 178.119 0.203561 174.684 0.0178488C171.249 -0.167863 14.2169 1.08552 3.95853 4.0562L3.95853 4.0562Z" transform="translate(200.8491 449.6787)" id="Shape" fill="#407BFF" stroke="none" />
        <path d="M0.786692 7.19057C2.17925 10.1149 4.87151 11.8324 6.7746 10.8576C8.67769 9.88276 9.0955 6.86561 7.74941 3.94125C6.40332 1.01688 3.66459 -0.700563 1.7615 0.274247C-0.141586 1.24906 -0.559474 4.08056 0.786692 7.19057L0.786692 7.19057Z" transform="translate(248.675 90.93555)" id="Shape" fill="#263238" stroke="none" />
        <path d="M0.936634 7.21273C2.28273 10.1371 4.97498 11.8545 6.87814 10.8797C8.7813 9.90492 9.24544 6.84138 7.85295 3.91702C6.46047 0.992659 3.8146 -0.724786 1.86505 0.296417C-0.0844982 1.31762 -0.688027 4.28837 0.936634 7.21273L0.936634 7.21273Z" transform="translate(281.8533 75.31641)" id="Shape" fill="#263238" stroke="none" />
        <path d="M0 5.33805L6.08075 0C6.08075 0 5.01315 7.14835 0 5.33805L0 5.33805Z" transform="translate(282.79 70.83203)" id="Shape" fill="#263238" stroke="none" />
        <path d="M0 0C5.74581 5.49033 12.2106 10.1749 19.2172 13.9254C17.2628 17.4512 13.8766 19.957 9.93354 20.7953L0 0Z" transform="translate(276.3843 90.60645)" id="Shape" fill="#826060" stroke="none" />
        <path d="M20.7984 3.52689C22.3851 3.08613 23.9367 2.52751 25.4402 1.85584C25.6744 1.74528 25.8548 1.54611 25.9419 1.30225C26.029 1.05846 26.0155 0.789948 25.9044 0.556144C25.7948 0.333389 25.6006 0.163897 25.365 0.0853481C25.1295 0.00687034 24.8724 0.025994 24.6511 0.138398C17.3565 3.83556 8.73668 3.83556 1.44207 0.138398C1.00286 -0.124374 0.435311 -0.0027623 0.142365 0.416895C-0.125862 0.870267 -0.0052413 1.45325 0.420862 1.76299C6.71254 5.02357 14.04 5.6579 20.7984 3.52689L20.7984 3.52689Z" transform="translate(257.814 125.1885)" id="Shape" fill="#263238" stroke="none" />
        <path d="M4.56772 22.7923C10.0919 28.1606 17.5216 31.1158 25.2237 31.0084C35.3893 30.7763 37.571 20.9357 32.2328 12.8589C27.591 5.61768 16.4507 -3.06248 7.39915 1.06873C3.42172 2.98896 0.680802 6.78536 0.109996 11.165C-0.46088 15.5446 1.21534 19.9169 4.56772 22.7923L4.56772 22.7923Z" transform="translate(191.3276 123.2832)" id="Shape" fill="#FFC3BD" stroke="none" />
        <path d="M2.46079 20.4433C3.24132 20.2047 3.7828 19.4951 3.80688 18.6793C4.03899 9.90634 13.4155 3.54708 13.5082 3.50062C13.9273 3.21787 14.2167 2.78001 14.3124 2.28358C14.4082 1.78721 14.3026 1.27314 14.0188 0.854757C13.7537 0.428087 13.3232 0.130749 12.8302 0.0339268C12.3373 -0.0628956 11.8263 0.0494382 11.4194 0.344155C10.9552 0.622652 0.279135 7.86386 0.000566627 18.5864C-0.0118283 19.0912 0.176788 19.5802 0.52498 19.9459C0.873243 20.3115 1.35247 20.5238 1.85726 20.536L2.46079 20.4433Z" transform="translate(235.1646 73.7373)" id="Shape" fill="#263238" stroke="none" />
        <path d="M17.5933 4.38796C18.2231 4.18263 18.7099 3.67833 18.893 3.04179C19.0191 2.54918 18.9428 2.02661 18.6813 1.59066C18.4196 1.15464 17.9944 0.841441 17.5004 0.720891C11.6166 -0.968011 5.27855 0.351734 0.557844 4.24857C0.200657 4.60547 0 5.08973 0 5.59466C0 6.0996 0.200657 6.58385 0.557844 6.94075C0.908373 7.30977 1.39496 7.51864 1.90394 7.51864C2.41291 7.51864 2.8995 7.30977 3.25003 6.94075L3.25003 6.94075C7.05981 3.96575 12.0588 2.98315 16.7112 4.29489C16.9938 4.39497 17.2961 4.42684 17.5933 4.38796L17.5933 4.38796Z" transform="translate(272.2522 54.7002)" id="Shape" fill="#263238" stroke="none" />
        <path d="M115.349 35.2252C100.913 51.1003 86.3377 68.1356 73.0157 85.1711C66.3315 93.712 60.0187 102.485 54.4485 111.258C48.8568 119.442 44.0985 128.166 40.2446 137.298C38.8185 140.579 37.8803 144.051 37.4595 147.603L37.4595 148.856C37.4675 148.996 37.4675 149.135 37.4595 149.274L37.8308 150.76L38.5735 153.73L39.6876 157.165C43.2536 167.107 47.3441 176.853 51.942 186.362C61.2256 206.229 71.7625 226.235 81.8352 246.195L81.8352 246.195C84.1935 250.816 82.7133 256.47 78.3934 259.342C74.0736 262.214 68.2869 261.391 64.939 257.429C49.9235 239.806 36.1063 221.198 23.5805 201.727C16.9493 191.603 11.0694 181.007 5.9879 170.023L4.03835 165.381C3.43493 163.757 2.8779 161.993 2.27448 160.275L1.43895 157.722C1.16045 156.655 0.835527 155.17 0.603422 153.963C0.250697 151.58 0.0491549 149.176 0 146.768C0.125862 139.02 1.48913 131.341 4.03821 124.023C8.33437 112.029 13.8728 100.517 20.5631 89.674C26.8296 79.2764 33.6066 69.575 40.5693 60.1057C47.532 50.6363 54.7268 41.5384 62.2929 32.5798C69.859 23.6211 77.3788 15.1265 85.7804 6.44637C93.536 -1.79309 106.502 -2.18633 114.743 5.56782C122.984 13.322 123.379 26.2879 115.626 34.5301L115.349 35.2252Z" transform="translate(85.28101 233.3018)" id="Shape" fill="#FFC3BD" stroke="none" />
        <path d="M0 5.33805L6.03436 0C6.03436 0 5.24526 7.19475 0 5.33805L0 5.33805Z" transform="translate(249.6938 86.42871)" id="Shape" fill="#263238" stroke="none" />
        <path d="M15.9949 0L56.1929 16.2463L20.1261 35.3241C20.1261 35.3241 -1.41189 21.1666 0.073449 4.54888L15.9949 0Z" transform="translate(147.3616 474.4375)" id="Shape" fill="#FFC3BD" stroke="none" />
        <path d="M44.747 32.9567L27.3402 40.9871C24.0605 42.4945 20.181 41.6846 17.7781 38.9911L0 19.0778L36.0669 0L48.4141 21.4451C49.5643 23.4364 49.8221 25.8201 49.1241 28.0112C48.4261 30.2022 46.8371 31.9977 44.747 32.9567L44.747 32.9567Z" transform="translate(167.4875 490.6836)" id="Shape" fill="#FFC3BD" stroke="none" />
        <path d="M183.305 27.063C176.76 8.49579 171.375 2.83278 171.375 2.83278C166.094 0.918856 160.514 -0.0399472 154.897 0.00127491C162.045 20.7038 181.262 70.2782 111.682 75.7555C42.1012 81.2328 17.0818 11.1415 17.0818 11.1415C4.64181 11.1415 0 15.5513 0 15.5513C21.3059 66.6112 42.9367 117.671 13.9254 134.057C18.8457 158.519 19.6348 189.758 18.1495 221.555C46.3253 215.892 158.935 200.435 205.632 206.422C205.168 174.997 203.729 148.214 201.64 125.469C219.093 103.653 193.703 47.6262 183.305 27.063L183.305 27.063Z" transform="translate(178.6743 214.4941)" id="Shape" fill="#407BFF" stroke="none" />
        <path d="M183.305 27.063C176.76 8.49579 171.375 2.83278 171.375 2.83278C166.094 0.918856 160.514 -0.0399472 154.897 0.00127491C162.045 20.7038 181.262 70.2782 111.682 75.7555C42.1012 81.2328 17.0818 11.1415 17.0818 11.1415C4.64181 11.1415 0 15.5513 0 15.5513C21.3059 66.6112 42.9367 117.671 13.9254 134.057C18.8457 158.519 19.6348 189.758 18.1495 221.555C46.3253 215.892 158.935 200.435 205.632 206.422C205.168 174.997 203.729 148.214 201.64 125.469C219.093 103.653 193.703 47.6262 183.305 27.063L183.305 27.063Z" transform="translate(178.6743 214.4941)" id="Shape" fill="#FAFAFA" fill-opacity="0.8" stroke="none" />
      </g>
    </g>
  </g>
</svg>