<?xml version="1.0" encoding="utf-8"?>
<svg width="2000px" height="2000px" viewBox="0 0 2000 2000" version="1.1" xmlns:xlink="http://www.w3.org/1999/xlink" xmlns="http://www.w3.org/2000/svg">
  <desc>Created with Lunacy</desc>
  <defs>
    <path d="M415.165 984.732C428.455 986.672 441.146 977.824 445.706 963.439L699.45 104.17C701.599 97.8603 701.09 90.7739 698.07 84.9483C695.051 79.1227 689.855 75.2033 683.977 74.3172L285.615 0.276267C272.364 -1.69569 259.678 7.05072 255.037 21.3585L1.32891 880.628C-0.834212 886.931 -0.336919 894.019 2.67732 899.848C5.69151 905.677 10.8873 909.599 16.7656 910.481L415.165 984.732Z" transform="translate(0.0002441406 0)" id="path_1" />
    <rect width="2000" height="2000" id="artboard_1" />
    <clipPath id="clip_1">
      <use xlink:href="#artboard_1" clip-rule="evenodd" />
    </clipPath>
    <clipPath id="mask_1">
      <use xlink:href="#path_1" />
    </clipPath>
  </defs>
  <g id="Ultra-HD-Copy-23" clip-path="url(#clip_1)">
    <use xlink:href="#artboard_1" stroke="none" fill="#FFFFFF" />
    <g id="Group-12" transform="translate(100 137)">
      <g id="Group-11">
        <g id="Shadow--inject-29" transform="translate(0 1630.449)">
          <path d="M0 47.3685C0 21.2076 402.944 0 900 0C1397.06 0 1800 21.2076 1800 47.3685C1800 73.5294 1397.06 94.7369 900 94.7369C402.944 94.7369 0 73.5294 0 47.3685Z" id="path--inject-29" fill="#E9E9E9" stroke="none" />
        </g>
        <g id="Smartphone--inject-29" transform="matrix(0.9816272 -0.190809 0.190809 0.9816272 495.4854 656.7578)">
          <path d="M84.9386 71.9326L81.4302 70.5833C85.2318 58.4236 84.1371 44.968 78.4389 33.8159C72.6399 22.9942 62.9208 15.684 51.9233 13.8721L0 4.21645L0.59089 0L52.5142 9.73998C64.5917 11.7015 75.2671 19.7293 81.6149 31.6234C87.8619 43.8475 89.0776 58.5921 84.9387 71.9326L84.9386 71.9326Z" transform="translate(671.123 54.48438)" id="Shape" fill="#263238" stroke="none" />
          <path d="M0.743928 0.0831299L4.9469 0L4.20299 33.212L0 33.2954L0.743928 0.0831299Z" transform="matrix(0.1607425 -0.9869964 0.9869964 0.1607425 619.0244 49.81836)" id="Rectangle" fill="#263238" stroke="none" />
          <path d="M24.0486 933.224L422.411 1007.26C441.53 1010.02 459.778 997.318 466.394 976.653L720.102 117.341C723.19 108.285 722.469 98.1121 718.147 89.7397C713.825 81.3673 706.379 75.7203 697.944 74.4179L299.434 0.377277C280.312 -2.39221 262.056 10.3136 255.451 30.9887L1.89073 890.259C-1.19564 899.32 -0.475316 909.497 3.84547 917.875C8.16625 926.254 15.6111 931.91 24.0486 933.224L24.0486 933.224Z" transform="translate(23.77539 4.361328)" id="Shape" fill="#263238" stroke="none" />
          <path d="M24.1197 933.219L422.519 1007.26C441.634 1010.04 459.886 997.327 466.465 976.648L720.21 117.379C723.296 108.317 722.576 98.14 718.255 89.7617C713.935 81.3834 706.49 75.7274 698.052 74.4129L299.579 0.37213C280.47 -2.37638 262.235 10.3255 255.633 30.9835L1.88797 890.295C-1.20066 899.365 -0.47109 909.55 3.86699 917.926C8.20502 926.302 15.6712 931.939 24.1197 933.219L24.1197 933.219Z" transform="translate(0.0009765625 0)" id="Shape" fill="#407BFF" stroke="none" />
          <path d="M415.165 984.732C428.455 986.672 441.146 977.824 445.706 963.439L699.45 104.17C701.599 97.8603 701.09 90.7739 698.07 84.9483C695.051 79.1227 689.855 75.2033 683.977 74.3172L285.615 0.276267C272.364 -1.69569 259.678 7.05072 255.037 21.3585L1.32891 880.628C-0.834212 886.931 -0.336919 894.019 2.67732 899.848C5.69151 905.677 10.8873 909.599 16.7656 910.481L415.165 984.732Z" transform="translate(10.70117 11.28516)" id="Shape" fill="#FFFFFF" stroke="none" />
          <g id="Mask-group" transform="translate(10.7002 11.28125)">
            <path d="M415.165 984.732C428.455 986.672 441.146 977.824 445.706 963.439L699.45 104.17C701.599 97.8603 701.09 90.7739 698.07 84.9483C695.051 79.1227 689.855 75.2033 683.977 74.3172L285.615 0.276267C272.364 -1.69569 259.678 7.05072 255.037 21.3585L1.32891 880.628C-0.834212 886.931 -0.336919 894.019 2.67732 899.848C5.69151 905.677 10.8873 909.599 16.7656 910.481L415.165 984.732Z" transform="translate(0.0002441406 0)" id="Shape" fill="none" stroke="none" />
            <g clip-path="url(#mask_1)">
              <g id="Group" transform="translate(-293.5183 -262.0264)">
                <path d="M593.893 488.884C375.158 472.65 389.007 160.423 213.516 206.635C-67.3354 280.549 -53.1174 141.617 151.4 44.0908C355.917 -53.4356 754.575 14.5757 756.68 211.062C757.825 332.243 721.855 498.413 593.893 488.884L593.893 488.884Z" transform="translate(380.98 144.6816)" id="Shape" fill="#407BFF" fill-opacity="0.1" stroke="none" />
                <path d="M529.755 552.697C304.483 499.992 427.533 259.781 187.12 200.582C-153.705 116.674 33.5659 1.05929 255.182 0.0051792C476.798 -1.04893 799.084 159.176 682.645 353.048C610.927 472.458 661.595 583.561 529.755 552.697L529.755 552.697Z" transform="translate(453.5383 0)" id="Shape" fill="#407BFF" fill-opacity="0.1" stroke="none" />
                <path d="M98.3607 0.509427C300.699 -15.0493 299.444 331.163 412.264 304.6C592.925 262.14 604.299 443.742 479.292 532.541C354.284 621.339 38.3497 539.329 7.18091 278.036C-11.9857 117.01 3.59871 7.76172 98.3607 0.509427L98.3607 0.509427Z" transform="translate(221.1931 807.4463)" id="Shape" fill="#407BFF" fill-opacity="0.1" stroke="none" />
                <path d="M162.492 0.382038C381.227 16.4045 385.511 290.895 561.112 244.514C841.779 170.389 805.699 575.59 601.255 673.327C396.811 771.065 2.29 475.154 0.0372758 278.33C-1.32911 157.15 34.5298 -9.02069 162.492 0.382038L162.492 0.382038Z" transform="translate(-0.0007324219 929.8936)" id="Shape" fill="#407BFF" fill-opacity="0.1" stroke="none" />
              </g>
            </g>
          </g>
          <path d="M29.2115 51.525L193.402 82.0099C205.397 83.8335 217.469 79.3526 226.232 69.8244L248.39 46.1701L0 0L6.61047 29.0092C9.46305 41.0422 18.3831 49.9286 29.2115 51.525L29.2115 51.525Z" transform="translate(372.5459 21.33008)" id="Shape" fill="#407BFF" stroke="none" />
        </g>
        <path d="M55.6162 18.9185C56.5251 19.0366 57.2444 19.7453 57.3759 20.6524L60.5074 43.4522C61.5167 50.9313 63.1729 53.0534 64.1046 53.6745C64.6308 54.0099 65.2875 54.0678 65.8643 53.8298C67.7615 53.0776 69.2862 51.6087 70.1086 49.7408C72.6965 44.979 72.6965 37.9916 70.1086 30.5642C64.4669 13.6132 50.7767 6.49637 34.3433 11.9569C14.9338 18.4009 6.05715 38.768 13.2257 60.3514C19.178 78.2599 34.6021 86.5154 51.6049 80.8478C57.493 79.0291 62.8315 75.7637 67.1325 71.3501C67.5159 70.9067 68.0731 70.6519 68.6594 70.6519C69.2456 70.6519 69.8028 70.9067 70.1862 71.3501L73.68 75.8013C74.3057 76.5505 74.3057 77.6401 73.68 78.3893C68.0741 84.1179 61.0998 88.3221 53.4164 90.6043C31.5742 97.8506 10.3273 86.8259 2.87399 64.3885C-6.08029 37.5516 6.49709 10.8182 32.1436 2.278C53.494 -4.81294 73.3176 5.04709 80.3827 26.2423C86.9302 45.9365 78.8299 60.0925 67.443 63.8709C62.7561 65.6323 57.4755 63.8864 54.7621 59.6785C52.6567 65.7938 47.7651 70.5412 41.5896 72.4629C34.2915 74.8956 25.0009 71.583 21.3519 60.5584C15.8764 44.0512 24.8052 26.2283 41.3048 20.73C45.9007 19.1518 50.772 18.5352 55.6162 18.9185ZM47.0225 30.4043C45.7299 30.5798 44.4564 30.8743 43.2181 31.2842C34.1086 34.3121 29.3209 45.7249 32.7629 56.1284C33.6428 58.7163 35.7908 63.0123 40.9667 61.3043C46.6342 59.441 49.7656 49.7621 48.7305 42.697L47.0225 30.4043Z" transform="matrix(0.9743701 0.224951 -0.224951 0.9743701 991.6855 174.8369)" id="Shape" fill="#407BFF" fill-rule="evenodd" stroke="none" />
        <g id="Group-2" transform="translate(708.3613 306.6943)">
          <path d="M74.8768 43.2698C59.6967 32.1873 52.9447 12.7232 50.6165 4.10871C50.0039 1.87731 48.0794 0.254297 45.7766 0.0271244C43.4739 -0.200064 41.2692 1.01559 40.2325 3.08426L40.2325 3.08428C37.7733 9.24688 37.349 16.0344 39.0219 22.4553C39.3448 23.7145 38.9212 25.0477 37.9306 25.8896C36.9402 26.7316 35.5561 26.9348 34.3654 26.4133L31.4784 25.2491C27.4149 23.5788 23.1045 22.5878 18.7196 22.3156L15.4135 22.0827C8.71067 21.6497 2.87571 26.6186 2.2356 33.3049L0.140194 55.7957C-0.1325 58.4381 -0.00688362 61.1066 0.512726 63.7117C2.72963 74.6281 11.3189 83.1253 22.2584 85.2247C33.7135 87.3667 51.5012 90.7659 54.6211 91.2781L54.6211 91.2781L62.5837 93.2804L81.2096 47.6003L74.8768 43.2698Z" transform="matrix(0.9563048 -0.2923717 0.2923717 0.9563048 0.8183594 23.74316)" id="Shape" fill="#407BFF" stroke="none" />
          <path d="M74.8768 43.2698C59.6967 32.1873 52.9447 12.7232 50.6165 4.10871C50.0038 1.87731 48.0794 0.254299 45.7766 0.0271244C43.4739 -0.200064 41.2692 1.01559 40.2325 3.08426L40.2325 3.08427C37.7733 9.24688 37.349 16.0344 39.0219 22.4553C39.3448 23.7145 38.9212 25.0477 37.9306 25.8896C36.9402 26.7316 35.5561 26.9348 34.3654 26.4133L31.4784 25.2491C27.4149 23.5788 23.1045 22.5878 18.7196 22.3156L15.4135 22.0827C8.71067 21.6497 2.87571 26.6186 2.2356 33.3049L0.140197 55.7957C-0.132502 58.4382 -0.00688458 61.1066 0.512721 63.7117C2.72963 74.6281 11.3189 83.1253 22.2584 85.2247C33.7135 87.3667 51.5012 90.766 54.621 91.2782L54.621 91.2782L62.5837 93.2804L81.2096 47.6003L74.8768 43.2698Z" transform="matrix(0.9659258 -0.258819 0.258819 0.9659258 0 22.21973)" id="Shape" fill="#FFFFFF" fill-opacity="0.7" stroke="none" />
          <path d="M29.8532 74.263L3.54415 62.6218C0.711002 61.3648 -0.685879 58.146 0.33115 55.218L17.9792 3.9967C18.9756 1.09091 22.0307 -0.568199 25.0104 0.178352L52.9494 6.97684C54.583 7.37989 55.9703 8.4547 56.7686 9.93601C57.5668 11.4173 57.7018 13.167 57.1402 14.7532L37.8623 70.631C37.3436 72.221 36.1807 73.52 34.6576 74.2107C33.1344 74.9014 31.3911 74.9204 29.8532 74.263L29.8532 74.263Z" transform="matrix(0.9659258 -0.258819 0.258819 0.9659258 65.82031 43.8916)" id="Shape" fill="#407BFF" stroke="none" />
        </g>
        <g id="Group" transform="translate(1248.039 208.708)">
          <path d="M64.9597 37.5389C51.7901 27.9243 45.9324 11.0381 43.9126 3.56453C43.3811 1.62867 41.7115 0.220617 39.7137 0.0235329C37.716 -0.173567 35.8033 0.881079 34.9039 2.67576L34.9039 2.67578C32.7704 8.02217 32.4023 13.9107 33.8536 19.4812C34.1338 20.5736 33.7663 21.7302 32.9069 22.4607C32.0476 23.1911 30.8469 23.3674 29.8139 22.915L27.3092 21.905C23.7839 20.4559 20.0444 19.5961 16.2403 19.36L13.372 19.158C7.55698 18.7823 2.49484 23.0931 1.9395 28.8938L0.121628 48.4058C-0.114952 50.6983 -0.00597191 53.0133 0.444815 55.2734C2.3681 64.7439 9.81973 72.1158 19.3104 73.9371C29.2483 75.7954 44.6801 78.7444 47.3868 79.1888L47.3868 79.1888L54.2948 80.9259L70.4538 41.2959L64.9597 37.5389Z" transform="matrix(0.9563048 0.2923717 0.2923717 -0.9563048 0.7099609 77.38965)" id="Shape-2" fill="#407BFF" stroke="none" />
          <path d="M64.9597 37.5389C51.7901 27.9243 45.9324 11.0381 43.9126 3.56453C43.3811 1.62867 41.7115 0.220615 39.7137 0.0235329C37.716 -0.173569 35.8033 0.881079 34.9039 2.67576L34.9039 2.67578C32.7704 8.02217 32.4023 13.9107 33.8536 19.4812C34.1338 20.5736 33.7663 21.7302 32.9069 22.4607C32.0476 23.1911 30.8469 23.3674 29.8139 22.915L27.3092 21.905C23.7839 20.4559 20.0444 19.5961 16.2403 19.36L13.372 19.158C7.55698 18.7823 2.49484 23.0931 1.93951 28.8938L0.121629 48.4059C-0.114954 50.6983 -0.00596952 53.0133 0.444815 55.2734C2.3681 64.744 9.81973 72.1158 19.3104 73.9371C29.2483 75.7954 44.6801 78.7444 47.3867 79.1888L47.3867 79.1888L54.2948 80.9259L70.4538 41.2959L64.9597 37.5389Z" transform="matrix(0.9659258 0.258819 0.258819 -0.9659258 3.814697E-06 79.20996)" id="Shape-3" fill="#FFFFFF" fill-opacity="0.7" stroke="none" />
          <path d="M25.8993 64.4273L3.07474 54.3279C0.616833 53.2373 -0.595039 50.4449 0.287296 47.9047L15.5979 3.46736C16.4623 0.946426 19.1129 -0.492943 21.6979 0.154728L45.9365 6.0528C47.3538 6.40247 48.5573 7.33492 49.2498 8.62003C49.9424 9.9051 50.0595 11.4231 49.5722 12.7992L32.8476 61.2763C32.3976 62.6557 31.3888 63.7826 30.0673 64.3819C28.7459 64.9811 27.2335 64.9976 25.8993 64.4273L25.8993 64.4273Z" transform="matrix(0.9659258 0.258819 0.258819 -0.9659258 57.10254 63.94629)" id="Shape-4" fill="#407BFF" stroke="none" />
        </g>
        <path d="M16.7731 13.2097L116.484 0.173428C127.067 -1.24787 136.802 6.17287 138.235 16.755L144.994 68.4568C146.326 78.9995 138.907 88.6439 128.375 90.0608L119.734 91.2056L103.595 111.665L101.786 93.5322L28.4798 103.134C17.9371 104.466 8.29274 97.0471 6.87586 86.5155L0.154626 34.8136C-1.1773 24.2709 6.24144 14.6266 16.7731 13.2097ZM63.6012 35.1446L114.38 28.4972C117.165 27.9614 119.049 25.3473 118.677 22.5359C118.304 19.7245 115.805 17.6909 112.976 17.8983L62.1988 24.5086C59.2623 24.8963 57.1958 27.591 57.583 30.5277C57.9702 33.4643 60.6645 35.5313 63.6012 35.1446ZM17.2175 35.4802C17.0294 34.0637 17.4152 32.6308 18.2891 31.5003C19.163 30.3698 20.4525 29.6354 21.8707 29.4606L44.8411 26.4323C47.7778 26.0453 50.4723 28.1119 50.8599 31.0486C51.2474 33.9852 49.1813 36.6801 46.2447 37.0681L23.2371 40.0595C20.3113 40.4533 17.6187 38.4049 17.2175 35.4802ZM117.299 50.6571L31.5108 61.7361C29.6239 61.9806 27.7498 61.1997 26.5948 59.6876C25.4398 58.1755 25.1794 56.1621 25.9117 54.4059C26.6439 52.6497 28.2577 51.4177 30.1447 51.174L115.933 40.0951C117.878 39.7127 119.874 40.4441 121.112 41.9926C122.35 43.5412 122.624 45.6497 121.822 47.463C121.021 49.2763 119.277 50.4932 117.299 50.6202L117.299 50.6571ZM80.362 78.0562L120.209 72.8122L120.136 72.886C122.023 72.6357 123.633 71.3975 124.36 69.6378C125.086 67.8783 124.819 65.8647 123.658 64.356C122.497 62.8473 120.619 62.0727 118.732 62.3241L78.9954 67.4943C76.0795 67.8725 74.022 70.5424 74.3994 73.4584C74.7767 76.3744 77.446 78.4326 80.362 78.0562Z" transform="matrix(-0.9945219 0.1045285 0.1045285 0.9945219 727.6045 491.5273)" id="Shape" fill="#407BFF" fill-rule="evenodd" stroke="none" />
        <g id="Group-4" transform="matrix(0.9848077 -0.1736482 0.1736482 0.9848077 946.1855 399.1895)">
          <path d="M13.6769 15.1787L108.602 0.180794C117.426 -1.13312 125.665 4.8933 127.086 13.7001L136.38 72.6621C137.71 81.4804 131.691 89.7251 122.887 91.1455L27.9619 106.117C19.1437 107.447 10.8989 101.428 9.47856 92.6242L0.184047 33.6621C-1.1459 24.8438 4.87274 16.5991 13.6769 15.1787ZM49.7202 31.6055L57.272 79.3983L94.8725 48.9535L49.7202 31.6055Z" transform="matrix(0.9510565 0.309017 -0.309017 0.9510565 32.84863 -7.629395E-06)" id="Shape" fill="#407BFF" fill-rule="evenodd" stroke="none" />
          <path d="M13.6774 15.1787L108.603 0.180794C117.426 -1.13312 125.665 4.8933 127.086 13.7001L136.381 72.6621C137.711 81.4804 131.692 89.7251 122.888 91.1455L27.9624 106.117C19.1442 107.447 10.8994 101.428 9.47905 92.6242L0.184536 33.6621C-1.14542 24.8438 4.87323 16.5991 13.6774 15.1787ZM49.7217 31.5986L57.2735 79.3914L94.8739 48.9466L49.7217 31.5986Z" transform="matrix(0.9510565 0.309017 -0.309017 0.9510565 32.84839 0.0009689331)" id="Shape" fill="#FFFFFF" fill-opacity="0.5" fill-rule="evenodd" stroke="none" />
        </g>
        <g id="Group-3" transform="matrix(0.05233597 -0.9986295 0.9986295 0.05233597 435.2432 462.4902)">
          <path d="M84.5122 1.07793C48.5298 -5.18939 13.5421 16.4309 3.05134 51.4161C-7.43954 86.4013 9.87855 123.706 43.3725 138.272L55.9286 161.797L75.7968 144.033L75.7968 144.033C112.369 142.036 141.636 112.944 143.854 76.385C146.073 39.8259 120.537 7.40906 84.4754 1.00415L84.5122 1.07793Z" transform="matrix(-0.6691304 -0.7431448 -0.7431448 0.6691304 216.5859 107.0039)" id="Shape" fill="#407BFF" stroke="none" />
          <path d="M59.9871 121.02C40.1312 117.497 10.9754 113.228 1.3628 73.8195C-3.50328 54.0991 4.19272 19.6611 32.0569 7.39465C70.8402 -7.71318 80.7514 1.84318 106.956 22.3766C128.309 50.2739 121.311 60.8005 117.782 80.6554C115.478 93.676 108.092 105.246 97.2513 112.817C86.4107 120.389 73.0049 123.339 59.987 121.02L59.9871 121.02Z" transform="matrix(-0.6691304 -0.7431448 -0.7431448 0.6691304 201.0928 104.75)" id="Shape" fill="#FFFFFF" fill-opacity="0.3" stroke="none" />
        </g>
        <g id="Character--inject-44" transform="matrix(-1 0 0 1 481.8906 553.8926)">
          <path d="M17.4672 0.775523L0 0L7.90276 33.2357C14.1259 29.0251 19.8064 24.064 24.8161 18.4643C26.2762 16.7773 27.0036 14.5778 26.8373 12.3529C26.671 10.128 25.6245 8.06121 23.9296 6.61018L17.4672 0.775523Z" transform="translate(215.8989 386.8262)" id="Shape" fill="#FF8B7B" stroke="none" />
          <path d="M0 17.9104L7.82883 44.9789L28.1765 33.1618L20.2738 0L0 17.9104L0 17.9104Z" transform="translate(195.625 386.8262)" id="Polygon" fill="#FF8B7B" stroke="none" />
          <path d="M100.756 28.5088L92.3735 38.1841C89.4931 41.5076 86.6865 44.9051 83.9168 48.3394C78.3775 55.1712 72.8383 62.0399 67.7421 69.0932C57.3974 82.6627 48.2539 97.1071 40.415 112.263C39.4918 114.109 38.7532 115.956 37.9039 117.765L36.6484 120.461C36.6484 120.461 36.6484 120.276 36.6484 120.461C36.2078 122.277 36.2716 124.18 36.833 125.963C38.8833 133.234 41.9147 140.191 45.8435 146.643C54.8631 161.687 64.8809 176.109 75.8292 189.812L61.9075 204.584C46.1906 193.078 32.0063 179.613 19.6982 164.516C12.6991 156.113 7.10047 146.636 3.11731 136.451C0.444477 129.558 -0.530802 122.123 0.273741 114.774C0.569457 112.476 1.08899 110.213 1.8249 108.016L3.15427 104.323C4.04052 101.886 4.88992 99.4116 5.81313 96.9374C13.4913 78.7152 23.1245 61.3804 34.5436 45.2372C40.0828 37.2978 45.6221 29.5428 51.863 22.1571C54.8912 18.4643 57.9562 14.7714 61.0951 11.0786C64.2341 7.3857 67.373 3.98829 71.0289 0L100.756 28.5088Z" transform="translate(0 189.7021)" id="Shape" fill="#FF8B7B" stroke="none" />
          <path d="M31.1677 4.28372L15.3991 35.3775L0 22.1571L12.6295 0L31.1677 4.28372L31.1677 4.28372Z" transform="translate(66.89307 386.8262)" id="Polygon" fill="#FF8B7B" stroke="none" />
          <path d="M36.1529 0C45.8652 17.1717 54.9126 34.4173 63.5908 52.0323C72.269 69.6472 80.5779 87.4467 88.333 105.726L88.9608 107.314L89.6624 109.345C90.132 110.664 90.4781 112.024 90.6964 113.407C90.918 114.663 91.0658 115.955 91.2135 117.1C91.2866 118.256 91.2866 119.416 91.2135 120.572C91.1914 122.691 90.9813 124.804 90.5857 126.886C90.2644 128.723 89.8202 130.537 89.2563 132.315C87.3887 138.248 84.8226 143.938 81.6121 149.265C78.8397 153.986 75.7684 158.525 72.4169 162.855C69.2041 167.065 65.9544 171.09 62.5569 174.93C49.089 190.028 34.2544 203.849 18.2426 216.217L4.13598 201.445C15.9531 186.674 27.6964 171.311 37.8887 155.986C42.8584 148.714 47.2421 141.058 50.9983 133.09C52.5295 129.916 53.6703 126.568 54.3959 123.12C54.4986 122.559 54.5603 121.991 54.5802 121.421C54.5804 120.941 54.5804 120.535 54.5804 120.461C54.5804 120.387 54.5804 120.202 54.5804 120.461C54.5624 120.546 54.5624 120.634 54.5804 120.719C54.5804 120.719 54.5804 121.015 54.5804 121.236C54.5486 121.345 54.5486 121.46 54.5804 121.569C54.5804 121.569 54.7649 121.864 54.5804 121.569C45.7544 104.692 36.4854 87.7791 27.3271 70.792C18.1688 53.8049 8.86282 36.7808 0 19.7937L36.1529 0Z" transform="translate(216.416 188.3721)" id="Shape" fill="#FF8B7B" stroke="none" />
          <path d="M5.19803 3.2974C5.64116 5.43926 4.86569 7.43338 3.49935 7.80268C2.13301 8.17199 0.618931 6.69482 0.138843 4.55296C-0.341246 2.41109 0.471186 0.380014 1.83752 0.0476708C3.20386 -0.284672 4.71794 1.15554 5.19803 3.2974L5.19803 3.2974Z" transform="translate(107.7075 80.16113)" id="Shape" fill="#263238" stroke="none" />
          <path d="M6.27789 0C5.12636 7.20398 3.01498 14.2213 0 20.8646C3.43692 22.2473 7.31256 22.0169 10.5615 20.2368L6.27789 0Z" transform="translate(106.5171 87.55762)" id="Shape" fill="#FF5652" stroke="none" />
          <path d="M4.09924 38.1361C6.27801 42.1613 9.01068 44.34 11.8173 44.34L12.1865 44.2292C18.0951 43.7861 22.0095 33.7416 21.0863 21.3705C20.8264 16.0891 19.4681 10.9199 17.098 6.19286C14.8085 1.98301 11.9649 -0.269627 9.01068 0.0258076C6.05644 0.321242 3.50837 2.90623 1.8835 7.41151C-1.24553 17.5698 -0.45507 28.5319 4.09924 38.1361ZM9.1215 1.94531L9.38002 1.94531L9.38002 1.94526C11.448 1.94526 13.6637 3.82865 15.4732 7.15225C17.6886 11.6452 18.9462 16.5496 19.1661 21.5543C19.9785 32.559 16.6918 42.1235 12.0019 42.4558C9.86011 42.6405 7.5336 40.7202 5.65021 37.2121C3.43064 32.7206 2.17294 27.8153 1.95735 22.8099C1.49282 17.8242 2.05844 12.7963 3.61918 8.0385C4.98552 4.34564 6.97969 1.94531 9.1215 1.94531Z" transform="translate(98.68848 59.76172)" id="Shape" fill="#263238" fill-rule="evenodd" stroke="none" />
          <path d="M1.30154 4.23442C1.56423 4.23515 1.82118 4.15807 2.04015 4.01286C4.83075 2.34477 8.25437 2.12479 11.2353 3.42199C11.8879 3.67719 12.625 3.36598 12.8971 2.72033C13.1553 2.05756 12.8461 1.30897 12.1955 1.0216C8.40662 -0.605239 4.06148 -0.274192 0.562921 1.9079C0.279488 2.09537 0.0840719 2.38979 0.0215251 2.72383C-0.0411344 3.05786 0.0343726 3.40305 0.230691 3.68046C0.474341 4.03055 0.874979 4.2378 1.30154 4.23447L1.30154 4.23442Z" transform="translate(105.8438 66.18848)" id="Shape" fill="#263238" stroke="none" />
          <path d="M63.1968 0C62.4952 22.3418 54.2232 49.3365 67.5913 62.5569C67.5913 62.5569 61.3873 82.6829 24.4957 82.6829C-16.1257 82.6829 6.03142 62.5569 6.03142 62.5569C28.3731 57.2762 28.4471 40.8799 25.1973 25.4437L63.1968 0Z" transform="translate(123.4185 98.48926)" id="Shape" fill="#FF8B7B" stroke="none" />
          <path d="M71.5675 23.0228C74.7433 16.6711 77.9561 6.88505 71.5675 4.55853C64.3664 2.04742 27.8072 -4.30429 0 4.55853C2.94916 10.8257 3.0835 18.0537 0.369308 24.4261L71.5675 23.0228Z" transform="translate(128.9326 144.9277)" id="Shape" fill="#263238" stroke="none" />
          <path d="M0.512434 4.67459C1.50946 6.04105 4.20529 6.44721 6.97493 6.44721L6.97482 6.44732C9.32027 6.43605 11.6585 6.18857 13.9544 5.7087C14.2052 5.65111 14.3955 5.44623 14.4345 5.19176C14.4891 4.94889 14.3858 4.6978 14.1759 4.56381C14.1219 4.53679 13.9684 4.43727 13.7335 4.28487C12.0417 3.18767 6.12374 -0.65036 2.65424 0.0954549C1.75548 0.267995 0.974942 0.819763 0.512434 1.60955C-0.170736 2.51699 -0.170736 3.76703 0.512434 4.67459ZM3.0238 1.27734L3.76241 1.27734L3.76241 1.27723C6.81752 1.74019 9.72431 2.90289 12.2559 4.67484C8.19378 5.3765 2.65449 5.33953 1.54668 3.82544L1.54663 3.82538C1.4358 3.67757 1.10353 3.23442 1.73116 2.1636C2.02902 1.7101 2.49333 1.39184 3.0238 1.27734Z" transform="translate(242.1968 1088.077)" id="Shape" fill="#FFFFFF" fill-rule="evenodd" stroke="none" />
          <path d="M7.42176 12.2034L7.97578 12.2034C8.1721 12.0728 8.28446 11.848 8.27116 11.6127C8.27116 11.2803 7.9387 3.45154 4.87369 0.86652C4.114 0.227646 3.12903 -0.0784365 2.14101 0.0172425C1.11908 0.0304279 0.243763 0.752246 0.036063 1.75276C-0.48099 4.81776 4.68909 10.6893 7.42176 12.2034ZM2.36264 1.125L2.65802 1.125L2.7688 1.1987C3.25576 1.19115 3.72864 1.362 4.09817 1.67901C5.90459 4.14886 6.90996 7.11333 6.9787 10.1725C4.31985 8.10449 1.03327 3.63609 1.36561 1.82665C1.40247 1.64205 1.51325 1.125 2.36264 1.125Z" transform="translate(248.397 1081.583)" id="Shape" fill="#FFFFFF" fill-rule="evenodd" stroke="none" />
          <path d="M0.444589 4.49066C1.5524 6.04161 4.69135 6.5217 8.3842 6.5217C11.1204 6.50164 13.85 6.25461 16.5453 5.78319C16.8055 5.72966 17.0089 5.52635 17.0625 5.26613C17.1155 5.00434 16.9969 4.73758 16.767 4.60144C15.4006 3.78901 3.36197 -3.11665 0.444589 1.68404C-0.148196 2.52567 -0.148196 3.64904 0.444589 4.49066ZM1.69968 2.3488C2.28075 1.56307 3.24149 1.1533 4.21079 1.27795L4.21079 1.27806C7.89452 1.75736 11.4466 2.96233 14.6616 4.82319C9.56548 5.52485 2.69682 5.45092 1.51508 3.75222C1.4043 3.60448 1.14578 3.23517 1.69968 2.3488Z" transform="translate(77.89648 1088.003)" id="Shape" fill="#FFFFFF" fill-rule="evenodd" stroke="none" />
          <path d="M8.93033 12.2715L9.18886 12.2715C9.32861 12.2881 9.47004 12.2623 9.59502 12.1975C9.78446 12.0815 9.88623 11.8634 9.85355 11.6436C9.85355 11.3113 9.5212 4.03636 6.16069 1.1929C5.16704 0.270924 3.80859 -0.150112 2.46784 0.0481216C0.658376 0.232719 0.0305409 1.15593 0.0305409 1.89455C-0.4864 4.88575 5.6806 10.7574 8.93033 12.2715ZM2.61573 1.19238L2.98504 1.19238L2.98493 1.2662C3.78756 1.24287 4.5726 1.50455 5.20078 2.00482C7.1155 4.39805 8.2383 7.32772 8.41354 10.3876C5.16381 8.39338 0.990982 3.85124 1.28636 1.96785C1.32321 1.78325 1.39714 1.19238 2.61573 1.19238Z" transform="translate(85.28955 1081.515)" id="Shape" fill="#FFFFFF" fill-rule="evenodd" stroke="none" />
          <path d="M27.4009 62.8523L0.258414 62.8523L0 0L27.1055 0L27.4009 62.8523L27.4009 62.8523Z" transform="translate(96.91553 1030.305)" id="Polygon" fill="#FF8B7B" stroke="none" />
          <path d="M38.3688 62.8523L11.2263 62.8523L0 0L27.1425 0L38.3688 62.8523L38.3688 62.8523Z" transform="translate(248.8398 1030.305)" id="Polygon" fill="#FF8B7B" stroke="none" />
          <path d="M43.1981 0.000338091L73.6641 0.000338091C74.7654 -0.0176934 75.7182 0.763409 75.9167 1.84677L80.3482 25.9611C80.546 27.1743 80.194 28.4125 79.3877 29.3402C78.5812 30.2678 77.4041 30.7888 76.1752 30.7618C65.5398 30.7618 60.4068 29.9863 47.0017 29.9863C38.7666 29.9863 21.7426 30.8357 10.3686 30.8357C-1.00548 30.8357 -2.07633 19.5725 2.61355 18.5385C23.6997 13.9594 31.824 7.68154 38.7297 1.66217C39.9661 0.580727 41.5555 -0.0103681 43.1981 0.000338091L43.1981 0.000338091Z" transform="translate(215.0581 1090.019)" id="Shape" fill="#263238" stroke="none" />
          <path d="M66.4498 0.000225394L95.9926 0.000225394C97.0855 -0.0149887 98.0263 0.768931 98.2083 1.84665L102.64 25.961C102.863 27.1657 102.53 28.4067 101.735 29.3385C100.939 30.2703 99.7656 30.7932 98.5408 30.7616C87.8684 30.7616 72.4693 29.9862 59.0273 29.9862C43.3326 29.9862 29.706 30.8356 11.3156 30.8356C0.237002 30.8356 -2.49567 19.5724 2.19421 18.5384C23.6127 13.9224 40.9692 13.4053 59.7288 2.10518C61.7345 0.801951 64.0592 0.0738165 66.4498 0.000225394L66.4498 0.000225394Z" transform="translate(31.01953 1090.02)" id="Shape" fill="#263238" stroke="none" />
          <path d="M36.7402 0.835422C61.9255 6.67013 88.4401 75.985 88.4401 75.985L36.0386 110.993C24.0061 92.7398 13.4598 73.5492 4.50168 53.6064C-9.38359 21.8847 10.9641 -5.14698 36.7402 0.835422L36.7402 0.835422Z" transform="translate(206.0435 166.377)" id="Shape" fill="#407BFF" stroke="none" />
          <path d="M36.7402 0.835422C61.9255 6.67013 88.4401 75.985 88.4401 75.985L36.0386 110.993C24.0061 92.7398 13.4598 73.5492 4.50168 53.6064C-9.38359 21.8847 10.9641 -5.14698 36.7402 0.835422L36.7402 0.835422Z" transform="translate(206.0435 166.377)" id="Shape" fill="#FAFAFA" fill-opacity="0.3" stroke="none" />
          <path d="M1.2187 0L22.8957 64.2925L20.4215 65.9543C20.4215 65.9543 10.5247 51.1829 0 31.5L1.2187 0Z" transform="translate(221.623 211.5264)" id="Shape" fill="#000000" fill-opacity="0.2" stroke="none" />
          <path d="M0.007438 128.217C0.229 158.498 2.03846 196.165 6.54375 242.916L151.821 242.916C153.704 220.759 143.881 111.968 169.399 7.01713C153.448 3.9245 137.313 1.8768 121.095 0.886868C100.555 -0.29566 79.9648 -0.29566 59.4251 0.886981C45.2481 2.26633 31.1986 4.73552 17.4007 8.27268C17.4007 8.27268 4.99281 21.7147 1.22603 84.7516C0.413598 97.3443 -0.0664912 111.673 0.007438 128.217L0.007438 128.217Z" transform="translate(73.49512 160.1572)" id="Shape" fill="#407BFF" stroke="none" />
          <path d="M0.007438 128.217C0.229 158.498 2.03846 196.165 6.54375 242.916L151.821 242.916C153.704 220.759 143.881 111.968 169.399 7.01713C153.448 3.9245 137.313 1.8768 121.095 0.886868C100.555 -0.29566 79.9648 -0.29566 59.4251 0.886981C45.2481 2.26633 31.1986 4.73552 17.4007 8.27268C17.4007 8.27268 4.99281 21.7147 1.22603 84.7516C0.413598 97.3443 -0.0664912 111.673 0.007438 128.217L0.007438 128.217Z" transform="translate(73.49512 160.1572)" id="Shape" fill="#FAFAFA" fill-opacity="0.3" stroke="none" />
          <path d="M0.0075507 66.4713C8.79656 50.4444 24.7497 18.2796 22.497 0L1.07851 23.1911C0.413711 35.5991 -0.0663785 49.9274 0.0075507 66.4713L0.0075507 66.4713Z" transform="translate(73.49512 221.9033)" id="Shape" fill="#000000" fill-opacity="0.2" stroke="none" />
          <path d="M103.289 24.7669C105.579 50.6168 46.9731 112.804 46.9731 112.804L0 74.5096C12.3101 53.7872 27.0504 34.6088 43.9077 17.3813C71.3828 -9.20733 100.741 -4.14815 103.289 24.7669L103.289 24.7669Z" transform="translate(15.89453 168.2959)" id="Shape" fill="#407BFF" stroke="none" />
          <path d="M103.289 24.7669C105.579 50.6168 46.9731 112.804 46.9731 112.804L0 74.5096C12.3101 53.7872 27.0504 34.6088 43.9077 17.3813C71.3828 -9.20733 100.741 -4.14815 103.289 24.7669L103.289 24.7669Z" transform="translate(15.89453 168.2959)" id="Shape" fill="#FAFAFA" fill-opacity="0.3" stroke="none" />
          <path d="M0 0L0.147633 32.3862L27.2901 32.3862L27.1424 0L0 0L0 0Z" transform="translate(96.91553 1030.343)" id="Polygon" fill="#000000" fill-opacity="0.2" stroke="none" />
          <path d="M27.1425 0L0 0L5.79781 32.3862L32.9403 32.3862L27.1425 0L27.1425 0Z" transform="translate(248.8398 1030.343)" id="Polygon" fill="#000000" fill-opacity="0.2" stroke="none" />
          <path d="M73.4157 30.8458C77.3671 57.5451 81.06 72.9443 70.7569 89.7468C64.1054 100.959 51.7796 107.553 38.7609 106.863C25.7422 106.173 14.1826 98.3131 8.75384 86.4602C-1.84462 64.303 -6.57147 24.2725 16.7304 7.35927C26.7639 -0.37545 40.1674 -2.15465 51.8713 2.69467C63.5753 7.54398 71.7928 18.2815 73.4157 30.8458L73.4157 30.8458Z" transform="translate(109.2852 30.19727)" id="Shape" fill="#FF8B7B" stroke="none" />
          <path d="M42.4151 53.731C-42.9268 51.663 26.905 0 26.905 0C12.8722 24.6313 53.0873 22.3787 63.2427 11.3001C75.5768 -2.25264 97.8817 16.6178 96.1091 31.3892C109.108 29.7644 119.411 39.4027 114.573 70.4227C109.736 101.443 99.5803 110.195 94.2626 117.765C88.9449 125.335 89.388 118.134 71.6624 121.458C59.476 123.747 39.0546 97.4543 36.8019 82.092C35.2037 72.271 37.1963 62.2028 42.4151 53.731L42.4151 53.731Z" transform="translate(94.90039 0)" id="Shape" fill="#263238" stroke="none" />
          <path d="M0 32.3863C0 32.3863 22.1571 23.1542 7.38571 0C27.918 10.6723 24.816 30.1337 0 32.3863L0 32.3863Z" transform="translate(181.2236 3.507813)" id="Shape" fill="#263238" stroke="none" />
          <path d="M20.2913 10.6151C20.188 17.4139 17.9103 24.001 13.7919 29.4116C8.28954 36.502 1.97468 33.1045 0.460705 25.128C-0.868668 18.0377 0.460705 5.81437 7.32936 1.53065C14.198 -2.75307 20.3283 2.49083 20.2913 10.6151L20.2913 10.6151Z" transform="translate(128.8413 66.93457)" id="Shape" fill="#FF8B7B" stroke="none" />
          <path d="M0 0.147633C0 0.147633 22.7849 207.427 36.6701 284.977C51.8846 369.913 110.527 653.376 110.527 653.376L160.233 653.376C160.233 653.376 124.929 376.929 117.617 292.696C109.678 201.297 93.4661 0 93.4661 0L0 0.147633Z" transform="translate(131.5547 402.9268)" id="Shape" fill="#263238" stroke="none" />
          <path d="M0.00777609 0C-0.213786 0 4.40228 19.092 4.40228 19.092L60.4597 19.092L60.0904 2.06809L0.00777609 0Z" transform="translate(235.0205 1038.135)" id="Shape" fill="#407BFF" stroke="none" />
          <path d="M8.05039 0.287095C43.391 7.26658 34.4912 140.025 27.5856 208.305C19.1659 160.04 7.71805 67.1647 0 1.24727C2.4986 0.0292448 5.33541 -0.309128 8.05039 0.287095L8.05039 0.287095Z" transform="translate(140.085 476.6455)" id="Shape" fill="#000000" fill-opacity="0.2" stroke="none" />
          <path d="M11.8198 0C11.8198 0 0.224154 202.848 0.00259203 285.568C-0.255935 371.612 18.91 653.376 18.91 653.376L64.7383 653.376C64.7383 653.376 77.1094 376.634 82.4271 292.142C88.1879 199.82 107.058 5.63485e-05 107.058 5.63485e-05L11.8198 0Z" transform="translate(68.25684 403.0742)" id="Shape" fill="#263238" stroke="none" />
          <path d="M14.7715 0L27.6595 1.034C29.783 1.20169 31.7169 2.31992 32.9215 4.07665C34.1261 5.83337 34.4723 8.04031 33.8635 10.0815L28.5458 27.9919C27.6347 30.9455 25.3373 33.2672 22.3933 34.2092C19.4495 35.1513 16.2309 34.5947 13.7744 32.7187C7.10272 26.5341 2.32584 18.581 0 9.7861L14.7715 0Z" transform="translate(54.18945 377.041)" id="Shape" fill="#FF8B7B" stroke="none" />
          <path d="M17.1748 605.39C16.9234 605.391 16.714 605.198 16.6947 604.947C11.5985 526.991 -0.218519 338.286 0.00304282 270.596C0.18764 201.355 8.42274 46.4402 11.0816 0.611888C11.0256 0.415964 11.0994 0.206066 11.2658 0.088298C11.432 -0.0294702 11.6544 -0.0294702 11.8207 0.088298C11.987 0.206066 12.0608 0.415964 12.0048 0.611888C9.4937 46.4402 1.2586 201.355 0.926256 270.559C0.704694 338.212 12.5219 526.88 17.6179 604.873C17.6283 604.997 17.5862 605.119 17.5019 605.211C17.4178 605.302 17.2991 605.354 17.1748 605.353L17.1748 605.39Z" transform="translate(80.88574 418.0469)" id="Shape" fill="#FAFAFA" fill-opacity="0.2" stroke="none" />
          <path d="M0.0165664 0C-0.204996 0 1.86299 19.092 1.86299 19.092L57.6619 19.092L59.8407 2.06809L0.0165664 0Z" transform="translate(79.02588 1038.135)" id="Shape" fill="#407BFF" stroke="none" />
        </g>
        <g id="Character--inject-78" transform="translate(1362.724 588.3428)">
          <path d="M38.3479 11.5193C46.3983 27.2508 53.4887 42.8716 60.0619 59.194C63.3117 67.3183 66.4137 75.6272 69.2203 84.1208C72.2905 92.9539 74.7581 101.985 76.6059 111.152L76.9383 112.999L77.1229 113.996L77.3075 115.362C77.3075 116.249 77.566 117.209 77.6398 118.095L77.6398 120.532C77.7017 123.406 77.5659 126.281 77.2337 129.137C76.613 134.046 75.7128 138.916 74.5379 143.723C72.3071 152.483 69.595 161.113 66.4134 169.574C60.2585 186.02 52.9277 202.002 44.4778 217.396C42.0802 221.901 36.7028 223.916 31.9352 222.095C27.1675 220.275 24.5021 215.188 25.7182 210.232L25.7183 210.01C29.4112 193.688 33.5102 177.144 36.7969 161.043C38.4956 152.993 39.8619 144.942 40.8221 137.335C41.2688 133.769 41.5154 130.182 41.5607 126.589C41.5649 125.193 41.4786 123.799 41.3021 122.415L41.3022 121.64L41.3022 121.234L41.0806 120.458L40.7113 119.166C38.7171 112.408 35.8737 104.875 32.8455 97.3781C29.8174 89.8816 26.4938 82.3482 23.0595 74.7778C16.2646 59.711 9.1005 44.3857 2.0841 29.5035L2.0841 29.2819C-2.86115 19.208 1.29534 7.03251 11.3685 2.08557C21.4416 -2.86137 33.6177 1.29303 38.5665 11.3653L38.3479 11.5193Z" transform="translate(210.8813 205.5889)" id="Shape" fill="#FFB573" stroke="none" />
          <path d="M5.5821 22.1571L18.1747 3.69285L30.6935 0C36.4544 7.01639 34.7925 17.8365 33.0939 24.0404L33.0939 24.0404L29.401 47.1577C28.7174 51.4934 25.2598 54.8609 20.9075 55.4297L12.6724 56.6114C9.74287 57.0283 6.77105 56.2187 4.45761 54.3736C2.14428 52.5285 0.6941 49.8112 0.449097 46.8622L0.116754 42.874C-0.513109 35.5441 1.4184 28.2225 5.5821 22.1572L5.5821 22.1571Z" transform="translate(225.7373 398.7236)" id="Shape" fill="#FFB573" stroke="none" />
          <path d="M0.372238 28.401L0.372238 28.401C-0.0650261 27.5023 -0.119459 26.4647 0.221562 25.5253C0.562583 24.5858 1.26976 23.8246 2.1817 23.4156L51.8875 0.372237C52.7862 -0.065026 53.8238 -0.119402 54.7633 0.221562C55.7027 0.562582 56.4639 1.26981 56.8728 2.18181L56.8728 2.18175C57.2983 3.07662 57.3462 4.10487 57.0059 5.03546C56.6657 5.966 55.9657 6.72078 55.0634 7.13015L5.50536 30.0997C4.60626 30.593 3.54251 30.6901 2.56893 30.368C1.59534 30.0458 0.799585 29.3332 0.372238 28.401L0.372238 28.401Z" transform="translate(213.5166 422.4287)" id="Shape" fill="#FFFFFF" fill-opacity="0.1" stroke="none" />
          <path d="M7.38086 0C29.538 4.87459 40.6165 16.2485 62.035 52.0692C49.8487 70.1273 20.0473 85.748 20.0473 85.748L7.12233 70.9766C-9.05238 40.9537 7.38086 0.0738728 7.38086 0.0738728" transform="translate(198.0879 178.5918)" id="Shape" fill="#263238" stroke="none" />
          <path d="M0.00270473 0C-0.0921861 10.4331 2.3406 20.7343 7.09292 30.0228L19.9811 44.7943C19.9811 44.7943 24.6709 42.3201 31.0596 38.221C20.5719 17.1717 12.3368 6.64709 0.00270473 0L0.00270473 0Z" transform="translate(198.1177 219.4727)" id="Shape" fill="#000000" fill-opacity="0.2" stroke="none" />
          <path d="M90.6916 80.5374L90.2855 82.8639L89.9162 84.6365L89.1407 87.9231C88.5498 90.0281 87.8851 92.096 87.1835 94.0902C85.7549 98.0987 84.0649 102.009 82.1243 105.796C78.2227 113.421 73.2483 120.448 67.3529 126.661C61.4136 132.908 54.5665 138.224 47.0422 142.43C39.7232 146.528 31.8853 149.62 23.7403 151.625L22.4478 151.957C12.8635 154.355 3.14774 148.539 0.73377 138.958C0.514462 138.085 0.366265 137.196 0.290645 136.299C-0.356686 128.89 0.0786625 121.426 1.58305 114.142C2.9344 107.633 4.7486 101.228 7.01178 94.9764C11.3836 83.3318 16.7327 72.0777 23.0017 61.3346C29.0409 50.9671 35.5977 40.9099 42.6473 31.2012C49.7749 21.5994 56.939 12.3672 65.1002 3.35673C68.5533 -0.499811 74.3661 -1.11435 78.5493 1.93489C82.7325 4.98419 83.9265 10.7062 81.3119 15.1739L81.3119 15.4324C75.7356 24.9969 70.0487 35.0045 64.9156 44.9752C59.7825 54.9459 54.7972 64.9905 50.4395 75.1089C46.1022 84.9052 42.4739 95.0004 39.5827 105.316C36.8969 113.932 35.9676 122.998 36.8499 131.979L13.3634 116.654C18.1619 114.789 22.7333 112.385 26.99 109.489C31.0063 106.669 34.6537 103.356 37.847 99.6295C41.0129 95.8464 43.727 91.707 45.9344 87.2954C47.0901 85.0782 48.0896 82.783 48.9256 80.4266C49.3687 79.2819 49.701 78.1002 50.0703 76.9923L50.5504 75.3675L50.735 74.6658C50.735 74.6658 50.735 74.075 50.735 74.6658C51.6981 67.3702 56.5322 61.1662 63.371 58.4488C70.2097 55.7314 77.9835 56.9257 83.6912 61.5707C89.3989 66.2156 92.1477 73.5846 90.8763 80.8328L90.6916 80.5374Z" transform="translate(12.18994 132.3984)" id="Shape" fill="#FFB573" stroke="none" />
          <path d="M71.0505 30.5399C73.34 16.6548 63.6647 0 63.6647 0C41.5076 1.0709 20.3845 6.46249 0 48.1917C4.91144 71.4567 35.7468 87.853 35.7468 87.853L57.4977 59.6396C57.4977 59.6396 68.7239 44.462 71.0505 30.5399L71.0505 30.5399Z" transform="translate(41.21094 179.626)" id="Shape" fill="#263238" stroke="none" />
          <path d="M10.4508 15.7533L16.581 9.10619C19.2407 6.24995 22.5456 4.07202 26.2193 2.75448L32.0539 0.649529C35.1758 -0.453267 38.623 -0.14104 41.4959 1.50467C44.3688 3.15039 46.382 5.96623 47.0099 9.21698L48.4502 16.8981C49.5421 22.6285 46.1073 28.252 40.5107 29.897L31.537 32.5189C24.8463 43.0726 11.4898 47.2171 0 42.305C-0.00755069 32.4529 3.727 22.9626 10.4488 15.7556L10.4508 15.7533Z" transform="translate(72.78467 109.6621)" id="Shape" fill="#FFB573" stroke="none" />
          <path d="M30.7246 0L0 0C0 0 1.47712 22.4895 1.36634 35.8208L28.4719 39.0706C26.1455 24.2991 30.7246 0 30.7246 0L30.7246 0Z" transform="translate(213.5195 1023.555)" id="Shape" fill="#FFB573" stroke="none" />
          <path d="M0 0C0 0 55.1343 233.647 72.343 328.664C90.4011 428.371 102.698 628.413 102.661 635.725C112.558 633.767 128.511 633.324 136.451 635.725C136.451 635.725 174.413 400.49 140.144 313.154C127.108 147.566 143.837 53.8787 110.601 0.0368519L0 0Z" transform="translate(108.8643 391.4854)" id="Shape" fill="#407BFF" stroke="none" />
          <path d="M59.4918 30.8471C50.4812 -6.08146 19.9044 -2.38861 0 4.33241C12.4079 57.6941 32.9772 147.541 48.0071 218.813C69.3518 167.63 71.6783 80.5159 59.4918 30.8471L59.4918 30.8471Z" transform="translate(119.5732 433.0918)" id="Shape" fill="#000000" fill-opacity="0.2" stroke="none" />
          <path d="M31.7586 0C28.9889 35.7099 0 74.1156 0 74.1156L44.7204 62.6677L63.554 34.676C63.6666 24.0207 65.0677 13.4189 67.7271 3.10119L31.7586 0Z" transform="translate(16.80127 1019.528)" id="Shape" fill="#FFB573" stroke="none" />
          <path d="M18.2057 0C18.2057 0 25.9976 248.603 23.9666 321.278C21.1231 422.019 0 635.762 0 635.762C16.027 634.1 29.8752 633.62 38.738 635.762C38.738 635.762 105.209 462.714 97.4175 322.238C114.035 192.065 170.019 72.4907 135.417 0.0739292L18.2057 0Z" transform="translate(45.71631 391.4854)" id="Shape" fill="#407BFF" stroke="none" />
          <path d="M58.4434 0C54.0858 18.8336 49.1743 53.3617 61.9147 65.9544C50.6194 83.2223 34.3027 96.6133 15.163 104.323C-9.50508 88.5177 3.34597 65.9544 3.34597 65.9544C24.5429 60.9321 24.5429 45.3482 21.4041 30.6876L58.4434 0Z" transform="translate(123.9087 111.0869)" id="Shape" fill="#FFB573" stroke="none" />
          <path d="M69.0194 0.933581C69.0194 0.933581 26.1823 -4.90113 5.13312 12.603C4.81622 16.9568 3.00258 21.0668 0 24.2354C22.947 29.2734 46.5755 30.4343 69.9058 27.6699C75.4819 18.1053 69.0194 0.933581 69.0194 0.933581L69.0194 0.933581Z" transform="translate(117.0249 156.5723)" id="Shape" fill="#407BFF" stroke="none" />
          <path d="M6.16159 45.2801C8.45114 104.366 -4.54766 194.213 1.73012 215.631C65.0995 222.057 114.621 220.986 157.236 215.631C164.622 192.256 147.044 122.83 167.244 40.2209C169.465 31.6313 167.823 22.4998 162.747 15.223C157.671 7.94626 149.668 3.25085 140.84 2.36917C135.374 1.81527 129.54 1.33518 123.557 1.03974C104.059 -0.346543 84.4869 -0.346543 64.9885 1.03974C57.6031 1.70443 49.7743 2.70151 42.5363 3.77247C21.93 6.76362 5.34916 24.6001 6.16159 45.2801L6.16159 45.2801Z" transform="translate(62.26563 175.8535)" id="Shape" fill="#263238" stroke="none" />
          <path d="M6.05577 4.80511C5.79724 7.3901 4.24631 9.38427 2.58448 9.27349C0.92265 9.16271 -0.222126 7.02085 0.0364011 4.43586C0.294928 1.85088 1.80901 -0.10633 3.47073 0.00445153C5.13244 0.115233 6.27733 2.25704 6.05577 4.80511L6.05577 4.80511Z" transform="translate(106.7593 74.4502)" id="Shape" fill="#263238" stroke="none" />
          <path d="M5.94544 2.63748L0 0C0 0 2.65886 6.07959 5.94544 2.63748L5.94544 2.63748Z" transform="translate(105.0234 72.45996)" id="Shape" fill="#263238" stroke="none" />
          <path d="M1.12629 5.32764C0.736587 5.25083 0.399623 5.0082 0.20308 4.66295C-0.214913 3.93893 0.0330202 3.01318 0.756985 2.59496C4.7566 -0.151803 9.85016 -0.759183 14.3836 0.970095C14.7379 1.14449 15.0076 1.45357 15.1326 1.82823C15.2575 2.20294 15.227 2.61203 15.0483 2.96421C14.7112 3.72852 13.8189 4.07557 13.054 3.73968C9.44659 2.41487 5.41914 2.93902 2.27096 5.14304C1.92644 5.34663 1.51758 5.41255 1.12641 5.32764L1.12629 5.32764Z" transform="translate(108.4023 57.08789)" id="Shape" fill="#263238" stroke="none" />
          <path d="M10.5985 0C7.78308 5.71571 4.21892 11.0309 0 15.8055C2.46671 17.8771 5.73943 18.719 8.89968 18.095L10.5985 0Z" transform="translate(101.6997 86.3457)" id="Shape" fill="#ED893E" stroke="none" />
          <path d="M92.0239 48.9959C87.1493 80.3851 85.746 93.7902 68.4635 109.005C42.6135 131.9 5.42647 120.305 0.921185 88.3617C-3.10401 59.6313 5.53725 13.1013 37.2588 2.42898C51.2266 -2.57343 66.8027 0.267063 78.1055 9.87791C89.4083 19.4888 94.7158 34.4056 92.0239 48.9959L92.0239 48.9959Z" transform="translate(107.5366 25.16309)" id="Shape" fill="#FFB573" stroke="none" />
          <path d="M4.93026 23.3905C-1.38448 35.8354 11.0604 58.9157 19.4063 68.3694C4.63489 84.3595 -10.1365 111.945 9.32477 128.489C27.272 143.556 123.508 143.26 104.785 110.985C121.292 90.6742 93.7065 87.7938 106.927 48.2064C116.491 19.5129 98.5071 11.5364 82.3694 14.2691C63.979 -8.84812 18.04 -2.49641 4.93026 23.3905L4.93026 23.3905Z" transform="translate(116.3047 15.24316)" id="Shape" fill="#263238" stroke="none" />
          <path d="M0 0C0 0 29.7644 24.3729 64.0341 28.3611C82.4983 30.5029 91.7305 30.2444 92.5799 27.4379C93.4293 24.6313 95.0172 15.1776 95.0172 15.1776L0 0Z" transform="translate(128.2886 51.66895)" id="Shape" fill="#E0E0E0" stroke="none" />
          <path d="M3.60337 45.2804C12.6139 52.4076 80.7102 71.8689 126.612 67.4375C127.055 64.7048 125.578 64.3724 125.578 64.3724C125.578 64.3724 136.14 28.958 111.878 15.6637C100.43 -3.05907 65.8649 -1.9143 50.5765 3.36648L48.3977 6.09919C48.3977 6.09919 18.4487 13.0787 18.0055 37.8946C6.18841 39.4088 -6.33041 37.4515 3.60337 45.2804L3.60337 45.2804Z" transform="translate(99.42529 0)" id="Shape" fill="#407BFF" stroke="none" />
          <path d="M0 2.84368L2.17877 0.110978C18.3003 -0.848552 34.1715 4.44184 46.493 14.8824C35.0083 7.97675 15.8054 1.51425 0 2.84368L0 2.84368Z" transform="translate(147.8232 3.40332)" id="Shape" fill="#000000" fill-opacity="0.2" stroke="none" />
          <path d="M15.8963 0.0576445C9.36004 -0.828661 3.15596 8.69891 0.903378 15.4937C-1.57088 23.101 1.12494 30.2652 7.91977 27.6802C13.3842 25.455 17.8667 21.3396 20.5494 16.0846C24.1314 9.25287 22.4696 0.906985 15.8963 0.0576445L15.8963 0.0576445Z" transform="translate(115.3091 73.58301)" id="Shape" fill="#FFB573" stroke="none" />
          <path d="M25.6904 0.661757C44.5608 -2.66179 44.1546 7.08729 45.4102 17.5381C46.3682 23.8662 45.2815 30.3348 42.3082 36.0024C35.6611 47.7088 41.348 64.9913 20.1511 64.9913C-1.04583 64.9913 -2.92922 60.0799 2.75781 49.629C8.10257 39.0542 11.8367 27.7399 13.8364 16.0611C15.2765 10.0047 17.3076 2.13888 25.6904 0.661757L25.6904 0.661757Z" transform="translate(198.5386 1038.07)" id="Shape" fill="#263238" stroke="none" />
          <path d="M7.82885 0C7.82885 12.6664 8.05042 41.9877 8.05042 41.9877L4.6899 41.9877C4.6899 41.9877 1.80947 10.7831 0 2.36336L7.82885 0Z" transform="translate(234.9009 1061.074)" id="Shape" fill="#263238" stroke="none" />
          <path d="M82.7555 4.0252C84.1652 7.38368 84.76 11.0282 84.4913 14.6606C83.7157 28.0287 80.7983 63.554 80.7983 63.554L77.7333 63.554C78.2091 52.6619 78.1105 41.753 77.4378 30.8719C76.2931 22.0462 71.9356 37.6301 65.8054 46.4191C59.6753 55.2081 48.0059 63.2585 28.0645 63.8863C4.72561 64.6249 -4.69112 63.6278 2.21449 57.7931C9.12011 51.9585 24.8517 48.1179 24.8517 48.1179C37.1977 42.6789 47.4745 33.4247 54.173 21.7141C59.968 12.2087 68.4669 4.64818 78.5827 0C80.5744 0.533056 82.1512 2.05401 82.7556 4.0252L82.7555 4.0252Z" transform="translate(0 1038.879)" id="Shape" fill="#263238" stroke="none" />
        </g>
        <g id="Group" transform="translate(1216.368 399.168)">
          <path d="M176.913 146.469C171.219 146.437 166.393 142.269 165.532 136.64C154.491 63.8274 86.6028 13.6858 13.7623 24.5438C9.59551 25.3615 5.31639 23.8248 2.62167 20.5432C-0.0729844 17.2617 -0.747878 12.7653 0.864762 8.83724C2.47734 4.90917 6.11691 2.18404 10.34 1.74249C95.7308 -11.0216 175.353 47.707 188.373 133.059C188.83 136.088 188.062 139.175 186.241 141.638C184.42 144.101 181.694 145.739 178.664 146.191C178.091 146.343 177.505 146.436 176.913 146.469L176.913 146.469Z" id="Shape" fill="#407BFF" stroke="none" />
          <path d="M110.575 97.1148C104.865 97.1019 100.017 92.9296 99.1542 87.2859C92.8583 46.125 54.4664 17.8027 13.281 23.9357C6.9742 24.8901 1.08754 20.5518 0.131943 14.2451C-0.823594 7.93845 3.51369 2.05103 9.82022 1.0944C63.6138 -6.93606 113.758 30.0893 121.916 83.8638C122.372 86.893 121.605 89.9793 119.783 92.4425C117.962 94.9057 115.236 96.5436 112.206 96.9954C111.666 97.0711 111.121 97.111 110.575 97.1148L110.575 97.1148Z" transform="translate(9.036133 57.94727)" id="Shape" fill="#407BFF" stroke="none" />
          <path d="M44.6006 47.769C38.8912 47.7561 34.0433 43.5838 33.18 37.9402C32.4934 33.3551 30.0082 29.2325 26.2743 26.4844C22.5405 23.7362 17.8655 22.589 13.2836 23.2964C6.9762 24.2524 1.08803 19.9142 0.132064 13.6068C-0.823959 7.29941 3.51424 1.41129 9.82162 0.455302C31.9625 -2.87019 52.6085 12.3783 55.9416 34.518C56.3976 37.5472 55.6304 40.6335 53.8092 43.0967C51.9879 45.5599 49.262 47.1978 46.2321 47.6496C45.6915 47.7253 45.1464 47.7652 44.6006 47.769L44.6006 47.769Z" transform="translate(17.51025 115.9336)" id="Shape" fill="#407BFF" stroke="none" />
        </g>
        <path d="M221.293 97.8455L197.651 9.99957C196.723 6.54028 194.457 3.59186 191.354 1.80341C188.25 0.0148926 184.564 -0.466919 181.105 0.463806L10.0035 46.369C2.79681 48.3128 -1.47168 55.7288 0.467712 62.9366L24.0881 150.782C26.0229 157.987 33.4273 162.264 40.6347 160.339L64.7767 153.85L98.0162 172.984L90.9427 146.818L211.757 114.35C218.932 112.406 223.192 105.033 221.293 97.8455L221.293 97.8455Z" transform="matrix(0.9816272 0.190809 -0.190809 0.9816272 815.9863 817.4844)" id="Shape" fill="#407BFF" stroke="none" />
        <path d="M221.293 97.8455L197.651 9.99957C196.723 6.54028 194.457 3.59186 191.354 1.80341C188.25 0.0148926 184.564 -0.466919 181.105 0.463806L10.0035 46.369C2.79681 48.3128 -1.47168 55.7288 0.467712 62.9366L24.0881 150.782C26.0229 157.987 33.4273 162.264 40.6347 160.339L64.7767 153.85L98.0162 172.984L90.9427 146.818L211.757 114.35C218.932 112.406 223.192 105.033 221.293 97.8455L221.293 97.8455Z" transform="matrix(0.9816272 0.190809 -0.190809 0.9816272 815.9863 817.4844)" id="Shape" fill="#000000" fill-opacity="0.2" stroke="none" />
        <path d="M133.668 87.577L142.807 28.1087C143.556 23.2343 140.212 18.6757 135.337 17.9261L19.4475 0.106506C17.106 -0.258728 14.7152 0.323975 12.8042 1.72589C10.8932 3.12775 9.61963 5.23334 9.26489 7.57666L0.104736 67.0448C-0.643921 71.9191 2.7002 76.478 7.57471 77.2273L23.9127 79.7521L38.9155 100.201L41.6489 82.4648L123.402 94.9843C125.746 95.3692 128.147 94.804 130.074 93.4138C132.001 92.0238 133.294 89.9231 133.668 87.577L133.668 87.577Z" transform="matrix(0.9816272 0.190809 -0.190809 0.9816272 933.377 1038.139)" id="Shape" fill="#407BFF" stroke="none" />
        <path d="M133.668 87.577L142.807 28.1087C143.556 23.2343 140.212 18.6757 135.337 17.9261L19.4475 0.106506C17.106 -0.258728 14.7152 0.323975 12.8042 1.72589C10.8932 3.12775 9.61963 5.23334 9.26489 7.57666L0.104736 67.0448C-0.643921 71.9191 2.7002 76.478 7.57471 77.2273L23.9127 79.7521L38.9155 100.201L41.6489 82.4648L123.402 94.9843C125.746 95.3692 128.147 94.804 130.074 93.4138C132.001 92.0238 133.294 89.9231 133.668 87.577L133.668 87.577Z" transform="matrix(0.9816272 0.190809 -0.190809 0.9816272 933.377 1038.139)" id="Shape" fill="#FFFFFF" fill-opacity="0.3" stroke="none" />
        <g id="NEWS" fill="#FFFFFF" transform="matrix(0.9986295 -0.05233596 0.05233596 0.9986295 790.7715 897.4648)">
          <path d="M182.635 28.9688Q184.428 26.4844 184.428 23.1328Q184.428 19.6875 182.26 17.1797Q180.092 14.6719 174.866 12.5625Q172.217 11.4609 171.385 10.7695Q170.553 10.0781 170.553 9.02344Q170.553 7.92188 171.584 7.28906Q172.616 6.65625 174.303 6.65625Q178.405 6.65625 182.647 8.97656L182.647 0.421875Q180.467 -0.164063 179.26 -0.375Q178.053 -0.585938 176.577 -0.726563Q175.1 -0.867188 173.342 -0.867188Q167.108 -0.867188 163.405 2.05078Q159.702 4.96875 159.702 9.84375Q159.702 16.8047 167.811 19.9219Q170.319 20.8594 171.245 21.3984Q172.17 21.9375 172.627 22.5586Q173.084 23.1797 173.084 24Q173.084 25.1484 172.17 25.7461Q171.256 26.3438 169.592 26.3438Q167.389 26.3438 164.834 25.3945Q162.28 24.4453 160.17 22.8984L160.17 32.1094Q164.553 33.8906 169.827 33.8906Q174.373 33.8906 177.608 32.6719Q180.842 31.4531 182.635 28.9688ZM56.6937 17.0859L68.5531 33.3047L77.4359 33.3047L77.4359 -0.304688L68.0609 -0.304688L68.0609 14.7656Q68.0609 17.2969 68.2015 18.3281L68.1078 18.3281Q67.9672 18 67.6976 17.5781Q67.4281 17.1563 67.1234 16.7109Q66.8187 16.2656 66.514 15.8438Q66.2094 15.4219 65.9984 15.1172L54.6312 -0.304688L45.0687 -0.304688L45.0687 33.3047L54.4437 33.3047L54.4437 19.1953Q54.4437 16.1016 54.3031 13.6172L54.3969 13.6172Q55.2875 15.1641 56.6937 17.0859ZM84.0453 -0.304688L84.0453 33.3047L105.748 33.3047L105.748 25.3828L94.1703 25.3828L94.1703 20.4375L104.319 20.4375L104.319 12.5156L94.1703 12.5156L94.1703 7.61719L104.975 7.61719L104.975 -0.304688L84.0453 -0.304688ZM148.803 33.3047L138.045 33.3047L133.381 14.1563Q133.17 13.3359 132.912 10.0781L132.819 10.0781Q132.467 12.9609 132.139 14.1563L127.1 33.3047L115.709 33.3047L107.694 -0.304688L118.803 -0.304688L121.616 19.4766Q121.686 19.8516 121.827 21.6563L121.967 23.6016L122.108 23.6016Q122.155 22.9922 122.389 21.5273Q122.623 20.0625 122.834 19.3359L128.014 -0.304688L139.053 -0.304688L143.366 19.6172L143.67 21.6094L143.905 23.5547L143.998 23.5547L144.069 22.7344L144.373 19.4766L147.303 -0.304688L157.287 -0.304688L148.803 33.3047Z" />
        </g>
        <g id="LIVE" fill="#FFFFFF" transform="matrix(0.9396926 0.3420201 -0.3420201 0.9396926 895.7227 1042.494)">
          <path d="M77.389 3.89648L77.389 29.1035L93.6663 29.1035L93.6663 23.1621L84.9827 23.1621L84.9827 3.89648L77.389 3.89648ZM96.8655 3.89648L96.8655 29.1035L104.459 29.1035L104.459 3.89648L96.8655 3.89648ZM123.778 29.1035L115.252 29.1035L107.114 3.89648L115.287 3.89648L119.137 19.418Q119.594 21.2988 119.647 22.2305L119.823 22.2305Q119.928 21.0527 120.367 19.3125L124.112 3.89648L132.022 3.89648L123.778 29.1035ZM134.694 3.89648L134.694 29.1035L150.971 29.1035L150.971 23.1621L142.287 23.1621L142.287 19.4531L149.899 19.4531L149.899 13.5117L142.287 13.5117L142.287 9.83789L150.391 9.83789L150.391 3.89648L134.694 3.89648Z" />
        </g>
        <path d="M254.138 120.178L239.24 13.7617C238.012 5.02112 229.932 -1.06952 221.191 0.157104L13.7616 29.1608C5.02112 30.3888 -1.06952 38.4691 0.157105 47.2098L15.0554 153.626C15.6347 157.825 17.8618 161.619 21.2447 164.172C24.6275 166.725 28.8875 167.825 33.0836 167.231L62.296 163.058L98.4987 190.371L94.0541 158.614L240.471 138.144C249.193 136.935 255.3 128.907 254.138 120.178L254.138 120.178Z" transform="matrix(0.9816272 0.190809 -0.190809 0.9816272 835.7012 887.7373)" id="Shape" fill="#407BFF" stroke="none" />
        <g id="Download-Now" transform="matrix(0.9986295 0.05233596 -0.05233596 0.9986295 836.1377 923.8145)">
          <g id="DOWNLOAD" fill="#FFFFFF">
            <path d="M65.091 28.0427Q66.317 25.7949 66.317 22.9473Q66.317 20.1128 65.1503 17.8782Q63.9836 15.6436 61.8412 14.4373Q59.6989 13.231 56.9831 13.231Q54.1618 13.231 51.9469 14.49Q49.7321 15.749 48.506 18.0562Q47.2799 20.3633 47.2799 23.2505Q47.2799 26.0059 48.4928 28.1877Q49.7057 30.3696 51.8876 31.5759Q54.0695 32.7822 56.7326 32.7822Q59.4616 32.7822 61.6632 31.5364Q63.8649 30.2905 65.091 28.0427ZM150.718 28.0427Q151.944 25.7949 151.944 22.9473Q151.944 20.1128 150.778 17.8782Q149.611 15.6436 147.469 14.4373Q145.326 13.231 142.611 13.231Q139.789 13.231 137.574 14.49Q135.36 15.749 134.133 18.0562Q132.907 20.3633 132.907 23.2505Q132.907 26.0059 134.12 28.1877Q135.333 30.3696 137.515 31.5759Q139.697 32.7822 142.36 32.7822Q145.089 32.7822 147.291 31.5364Q149.492 30.2905 150.718 28.0427ZM44.4652 27.845Q45.6715 25.6367 45.6715 22.7627Q45.6715 13.5474 35.6784 13.5474L27.8473 13.5474L27.8473 32.4526L35.8498 32.4526Q38.7765 32.4526 41.0177 31.2529Q43.2589 30.0532 44.4652 27.845ZM90.5221 32.4526L84.4709 32.4526L81.8473 21.6816Q81.7287 21.2202 81.5836 19.3877L81.5309 19.3877Q81.3332 21.0093 81.1486 21.6816L78.3141 32.4526L71.9069 32.4526L67.3981 13.5474L73.6471 13.5474L75.2292 24.6743Q75.2687 24.8853 75.3478 25.9004L75.4269 26.9946L75.506 26.9946Q75.5324 26.6519 75.6642 25.8279Q75.7961 25.0039 75.9147 24.5952L78.8283 13.5474L85.0378 13.5474L87.4635 24.7534L87.6349 25.874L87.7668 26.9683L87.8195 26.9683L87.859 26.5068L88.0304 24.6743L89.6784 13.5474L95.2946 13.5474L90.5221 32.4526ZM103.969 23.3296L110.64 32.4526L115.637 32.4526L115.637 13.5474L110.363 13.5474L110.363 22.0244Q110.363 23.4482 110.443 24.0283L110.39 24.0283Q110.311 23.8438 110.159 23.6064Q110.007 23.3691 109.836 23.1187Q109.665 22.8682 109.493 22.6309Q109.322 22.3936 109.203 22.2222L102.809 13.5474L97.4303 13.5474L97.4303 32.4526L102.704 32.4526L102.704 24.5161Q102.704 22.7759 102.625 21.3784L102.677 21.3784Q103.178 22.2485 103.969 23.3296ZM119.355 32.4526L119.355 13.5474L125.05 13.5474L125.05 27.9966L131.563 27.9966L131.563 32.4526L119.355 32.4526ZM166.473 32.4526L165.642 28.9722L160 28.9722L159.103 32.4526L152.946 32.4526L159.459 13.5474L166.526 13.5474L172.656 32.4526L166.473 32.4526ZM191.489 27.845Q192.695 25.6367 192.695 22.7627Q192.695 13.5474 182.702 13.5474L174.871 13.5474L174.871 32.4526L182.873 32.4526Q185.8 32.4526 188.041 31.2529Q190.282 30.0532 191.489 27.845ZM162.887 17.6606L162.755 17.6606Q162.729 17.9771 162.57 18.7021Q162.412 19.4272 160.975 24.9248L164.588 24.9248L163.269 19.7832Q162.992 18.6494 162.887 17.6606ZM39.06 20.3237Q39.6203 21.4312 39.6203 22.8154Q39.6203 25.1885 38.4008 26.5925Q37.1813 27.9966 35.1378 27.9966L33.5426 27.9966L33.5426 18.0034L35.006 18.0034Q36.4167 18.0034 37.4582 18.6099Q38.4997 19.2163 39.06 20.3237ZM186.083 20.3237Q186.644 21.4312 186.644 22.8154Q186.644 25.1885 185.424 26.5925Q184.205 27.9966 182.161 27.9966L180.566 27.9966L180.566 18.0034L182.029 18.0034Q183.44 18.0034 184.482 18.6099Q185.523 19.2163 186.083 20.3237ZM59.3825 19.4272Q60.279 20.772 60.279 23.1055Q60.279 24.5952 59.8439 25.6763Q59.4088 26.7573 58.6178 27.3374Q57.8268 27.9175 56.838 27.9175Q55.2165 27.9175 54.2738 26.6255Q53.3312 25.3335 53.3312 23.0264Q53.3312 20.6665 54.2804 19.3745Q55.2296 18.0825 56.9303 18.0825Q58.486 18.0825 59.3825 19.4272ZM145.01 19.4272Q145.906 20.772 145.906 23.1055Q145.906 24.5952 145.471 25.6763Q145.036 26.7573 144.245 27.3374Q143.454 27.9175 142.465 27.9175Q140.844 27.9175 139.901 26.6255Q138.959 25.3335 138.959 23.0264Q138.959 20.6665 139.908 19.3745Q140.857 18.0825 142.558 18.0825Q144.113 18.0825 145.01 19.4272Z" />
          </g>
          <g id="NOW" fill="#FFFFFF">
            <path d="M129.249 68.8672Q129.249 76.0391 126.162 81.7002Q123.074 87.3613 117.529 90.499Q111.984 93.6367 105.111 93.6367Q98.4037 93.6367 92.9086 90.5986Q87.4135 87.5605 84.3588 82.0654Q81.3041 76.5703 81.3041 69.6309Q81.3041 62.3594 84.392 56.5488Q87.4799 50.7383 93.058 47.5674Q98.6361 44.3965 105.742 44.3965Q112.581 44.3965 117.977 47.4346Q123.372 50.4727 126.311 56.1006Q129.249 61.7285 129.249 68.8672ZM62.0131 92.8066L45.2123 69.8301Q43.2201 67.1074 41.9584 64.916L41.8256 64.916Q42.0248 68.4355 42.0248 72.8184L42.0248 92.8066L28.7436 92.8066L28.7436 45.1934L42.2904 45.1934L58.394 67.041Q58.6928 67.4727 59.1244 68.0703Q59.5561 68.668 59.9877 69.2988Q60.4193 69.9297 60.8012 70.5273Q61.183 71.125 61.3822 71.5898L61.515 71.5898Q61.3158 70.1289 61.3158 66.543L61.3158 45.1934L74.5971 45.1934L74.5971 92.8066L62.0131 92.8066ZM174.97 92.8066L190.21 92.8066L202.23 45.1934L188.085 45.1934L183.935 73.2168L183.503 77.832L183.404 78.9941L183.271 78.9941L182.939 76.2383L182.507 73.416L176.398 45.1934L160.759 45.1934L153.421 73.0176Q153.122 74.0469 152.79 76.1221Q152.458 78.1973 152.392 79.0605L152.193 79.0605L151.994 76.3047Q151.794 73.748 151.695 73.2168L147.71 45.1934L131.972 45.1934L143.328 92.8066L159.464 92.8066L166.603 65.6797Q167.068 63.9863 167.566 59.9023L167.699 59.9023Q168.064 64.5176 168.363 65.6797L174.97 92.8066ZM114.042 69.2656Q114.042 63.3887 111.785 60.002Q109.527 56.6152 105.609 56.6152Q101.326 56.6152 98.935 59.8691Q96.5443 63.123 96.5443 69.0664Q96.5443 74.877 98.9184 78.1309Q101.292 81.3848 105.376 81.3848Q107.867 81.3848 109.859 79.9238Q111.851 78.4629 112.947 75.7402Q114.042 73.0176 114.042 69.2656Z" />
          </g>
        </g>
        <g id="icons8_music_1" transform="translate(1188.295 0)">
          <path d="M0 0L101.331 0L101.331 101.331L0 101.331L0 0Z" id="Background" fill="none" stroke="none" />
          <path d="M81.5092 0.385735L38.2122 13.6306C32.9599 15.1225 28.7124 20.5879 28.7124 25.8402L28.7124 70.8879C28.7124 70.8879 28.7124 71.4969 28.7124 71.5121C28.7124 71.5121 25.5763 69.396 18.5885 70.3855C8.32751 71.847 0 79.7178 0 87.9844C0 96.2511 8.32751 101.305 18.5885 99.8439C28.8647 98.3976 36.3853 90.7704 36.3853 82.5038C36.3853 82.5038 36.3853 47.169 36.3853 43.5C36.3853 39.8463 40.785 38.263 40.785 38.263L79.0733 26.2665C79.0733 26.2665 83.3056 24.8507 83.3056 28.7632C83.3056 32.691 83.3056 60.0637 83.3056 60.0637C83.3056 60.0637 83.3056 60.0789 83.3056 60.0941C83.3056 60.0941 79.4083 57.841 72.4205 58.6935C62.1595 59.9419 53.832 67.6452 53.832 75.9118C53.832 84.1785 62.1595 89.4003 72.4205 88.1519C82.6814 86.9188 91.0089 79.2002 91.0089 70.9336L91.0089 7.1604C91.0089 1.92335 86.7462 -1.12144 81.5092 0.385735L81.5092 0.385735Z" transform="translate(2.526855 0.2841797)" id="Shape" fill="#407BFF" stroke="none" />
        </g>
        <g id="Group-9" transform="translate(708.3623 124.9004)">
          <path d="M0 50.6654C0 22.6837 22.6837 0 50.6654 0C78.6471 0 101.331 22.6837 101.331 50.6654C101.331 78.6471 78.6471 101.331 50.6654 101.331C22.6837 101.331 0 78.6471 0 50.6654Z" id="Ellipse-2" fill="#729CFA" stroke="none" />
          <path d="M31.2509 17.3701L1.37826 0.123099C1.09397 -0.0410378 0.743713 -0.0410378 0.459421 0.123099C0.175129 0.287236 0 0.590568 0 0.918842L0 35.4129C0 35.7411 0.175129 36.0445 0.459421 36.2086C0.743713 36.3727 1.09397 36.3727 1.37826 36.2086L31.2509 18.9616C31.5352 18.7975 31.7104 18.4941 31.7104 18.1659C31.7104 17.8376 31.5352 17.5342 31.2509 17.3701L1.37826 0.123113C1.09397 -0.0410238 0.743713 -0.0410238 0.459421 0.123113C0.175129 0.28725 0 0.590582 0 0.918856L0 35.4129C0 35.7411 0.175129 36.0445 0.459421 36.2086C0.743713 36.3727 1.09397 36.3727 1.37826 36.2086L31.2509 18.9616C31.5352 18.7975 31.7104 18.4941 31.7104 18.1659C31.7104 17.8376 31.5352 17.5342 31.2509 17.3701L31.2509 17.3701Z" transform="translate(39.04443 34.39746)" id="Shape" fill="#FFFFFF" stroke="none" />
        </g>
        <g id="Group-10" transform="translate(507.8027 689.7998)" opacity="0.5">
          <path d="M101.331 31.9832L99.556 42.6811L78.8056 38.2849L78.0986 59.4944L97.0928 63.5185L95.3181 74.2165L77.7321 70.4907L77.2149 86.0055L66.3707 86.0055L66.9639 68.2094L37.135 61.8898L36.3311 86.0055L25.487 86.0055L26.3669 59.6084L0 54.0223L1.77476 43.3244L26.7334 48.6121L27.4404 27.4027L4.23795 22.487L6.01271 11.789L27.8069 16.4064L28.3538 0L39.198 0L38.575 18.6877L68.404 25.0073L69.2376 0L80.0817 0L79.1721 27.2886L101.331 31.9832ZM37.501 50.8931L67.3299 57.2126L68.0369 36.0032L38.208 29.6836L37.501 50.8931Z" id="Shape" fill="#3362CC" fill-rule="evenodd" stroke="none" />
        </g>
      </g>
    </g>
  </g>
</svg>