<?xml version="1.0" encoding="utf-8"?>
<svg width="2000px" height="2000px" viewBox="0 0 2000 2000" version="1.1" xmlns:xlink="http://www.w3.org/1999/xlink" xmlns="http://www.w3.org/2000/svg">
  <desc>Created with Lunacy</desc>
  <defs>
    <rect width="1999.99951" height="2000" id="artboard_1" />
    <clipPath id="clip_1">
      <use xlink:href="#artboard_1" clip-rule="evenodd" />
    </clipPath>
  </defs>
  <g id="Ultra-HD-Copy-20" clip-path="url(#clip_1)">
    <use xlink:href="#artboard_1" stroke="none" fill="#FFFFFF" />
    <g id="Group" transform="translate(100 542)">
      <g id="undraw_connected_world_wuay">
        <path d="M418.523 41.9359C417.876 36.8205 416.568 31.8109 414.63 27.0325C414.131 25.2055 412.886 23.6727 411.201 22.8085C410.086 22.5188 408.918 22.5057 407.798 22.7704L390.326 25.4438C388.864 25.5106 387.464 26.0547 386.34 26.9928C384.064 29.3859 386.305 33.2394 386.235 36.541C386.157 40.2536 382.858 43.2671 379.281 44.2642C375.63 45.002 371.863 44.9552 368.231 44.1272L343.801 40.3307C350.996 38.0336 357.4 33.7599 362.283 27.9974C365.498 24.1888 367.208 17.0784 362.562 15.2748C361.181 14.8959 359.742 14.7804 358.319 14.9341C347.25 15.0201 338.54 5.77855 328.178 1.88629C314.573 -2.89357 299.438 1.61839 290.671 13.0672L303.686 13.6947C304.91 13.6271 306.124 13.9509 307.152 14.6192C310.004 16.9626 306.458 21.4636 306.86 25.1331C307.382 29.9004 313.712 30.9183 318.484 31.4004C323.256 31.8825 329.309 35.7594 327.014 39.9704C303.031 48.2311 278.626 23.8224 253.439 26.827C247.064 27.5875 241.045 30.0918 234.821 31.6665C196.801 41.2859 157.496 15.6202 118.657 21.0557C110.023 22.5277 101.537 24.7658 93.2997 27.7435C88.0137 29.4791 82.5 31.3548 78.6592 35.38C74.8184 39.4053 73.3567 46.2891 76.9952 50.4981C66.9664 51.324 56.8705 50.3643 47.1769 47.6637C52.5164 50.6317 55.81 56.2777 55.7655 62.3865C40.1067 64.9398 24.8626 69.588 10.443 76.2057C13.1343 80.681 16.2776 84.8683 19.8237 88.7019L0 101.438C6.69739 103.125 10.1601 112.257 6.26533 117.961C13.2097 114.872 17.5136 106.88 24.9395 105.259C29.8044 104.198 34.7547 106.188 39.3698 108.058C43.985 109.927 49.0575 111.74 53.8351 110.337C58.6128 108.934 62.1368 102.739 59.1009 98.7918C79.5219 92.8336 100.627 89.5364 121.892 88.9817C123.532 88.7758 125.196 89.0916 126.647 89.8842C129.415 91.8047 128.687 95.9529 128.538 99.3188C128.389 102.685 131.012 107.108 134.02 105.591C130.481 108.66 133.507 114.438 136.902 117.665C140.298 120.892 144.39 125.345 142.312 129.544C141.769 130.639 140.849 131.516 140.327 132.621C138.786 135.885 141.232 139.689 144.118 141.857C147.004 144.024 150.539 145.538 152.543 148.539C154.548 151.54 153.638 156.793 150.053 157.212L139.865 144.276C136.384 147.886 133.997 152.408 132.982 157.319C143.786 166.151 145.411 184.128 136.366 194.754C131.744 200.184 125.171 203.484 119.434 207.72C113.697 211.955 108.388 217.987 108.403 225.118C108.428 237.438 107.421 248.884 112.038 260.306C120.551 281.368 130.38 301.874 141.466 321.703C146.584 315.368 148.139 332.616 154.037 333.513C154.037 333.513 139.874 296.94 133.908 278.231C137.794 278.246 142.284 278.554 144.562 281.702C146.448 284.309 146.043 287.853 146.629 291.017C147.375 294.082 148.618 297.004 150.309 299.667L185.901 363.068C188.852 368.324 192.236 373.965 197.875 376.094C201.481 377.455 205.652 377.198 208.97 379.158C211.571 380.693 213.323 383.419 215.975 384.866C223.473 388.956 233.899 381.112 240.906 385.995C242.909 387.391 244.184 389.61 246.03 391.208C252.501 396.813 263.117 393.063 270.588 397.244C275.402 399.938 277.897 405.327 280.465 410.21C286.898 422.442 297.307 434.425 311.092 435.399C315.423 435.705 319.846 434.884 324.079 435.847C328.312 436.811 332.479 440.505 331.799 444.792C330.634 452.143 334.266 460.192 333.291 467.57C331.514 481.01 312.451 486.916 310.813 500.373C310.455 503.32 311.016 506.361 310.314 509.245C309.454 512.78 306.8 515.658 305.856 519.172C304.069 525.83 308.839 532.456 314.08 536.936C319.32 541.416 325.571 545.278 328.436 551.549C331.464 558.177 329.977 565.905 330.962 573.125C333.112 588.887 346.726 600.572 360.737 608.106C365.005 610.401 369.589 612.624 372.352 616.606C375.958 621.804 375.599 628.656 376.803 634.866C379.752 650.076 392.556 662.609 392.92 678.098C393.178 689.107 387.059 699.094 383.403 709.481C376.468 729.62 378.65 751.782 389.38 770.181C392.114 774.799 395.385 779.153 397.32 784.159C400.772 793.091 399.652 803.246 402.835 812.279C407.043 824.22 418.606 834.084 417.499 846.697C422.749 857.598 434.341 862.955 445.997 866.2L466.888 872.015C470.888 873.128 475.068 874.251 479.142 873.444C483.215 872.638 487.102 869.256 486.997 865.105C476.752 862.795 466.179 860.338 457.734 854.095C449.289 847.852 443.504 836.735 446.708 826.734C448.194 822.097 451.355 816.741 448.35 812.909C446.629 810.715 443.483 810.142 441.542 808.14C438.515 805.018 439.555 799.773 441.731 796.008C443.907 792.243 447.053 788.878 447.93 784.619C448.838 779.739 446.617 774.809 442.36 772.256C446.234 770.793 449.757 768.533 452.701 765.621C455.42 762.516 456.676 757.728 454.537 754.198C460.889 755.004 468.389 755.398 472.559 750.539C475.888 746.658 475.66 740.857 474.344 735.916C473.028 730.975 470.804 726.176 470.735 721.063C485.389 721.758 500.074 721.26 514.647 719.574C512.54 712.477 507.751 706.48 501.297 702.854C507.897 701.737 513.909 693.836 515.995 687.475C518.08 681.114 517.548 674.186 516.259 667.617C515.764 665.926 515.696 664.138 516.062 662.415C516.805 660.046 519.132 658.601 521.284 657.365L554.045 638.55C556 637.57 557.771 636.262 559.283 634.682C562.716 630.651 562.207 624.565 560.45 619.57C558.692 614.576 555.877 609.879 555.2 604.628C553.175 588.922 569.988 577.654 575.661 562.87C577.888 557.068 578.342 550.762 578.773 544.562C579.235 537.904 579.27 530.17 574.157 525.879C569.257 521.766 561.599 522.683 556.471 518.857C551.77 515.35 550.148 508.538 545.011 505.704C540.347 503.131 534.499 504.768 529.311 503.558C520.177 501.427 514.429 490.9 505.1 489.925C499.837 489.375 493.88 491.948 489.566 488.883C485.765 486.182 485.613 480.753 484.889 476.147C482.292 461.483 470.836 449.99 456.181 447.346C450.755 446.476 444.848 446.806 440.231 443.824C435.556 440.804 433.413 435.151 429.741 430.969C423.822 424.228 414.501 421.834 405.77 419.781L370.254 411.432C363.949 409.95 355.822 409.164 352.439 414.686C351.437 416.789 350.728 419.019 350.331 421.314C347.731 429.832 339.934 435.7 331.029 435.843C328.053 430.766 323.23 427.034 317.569 425.428C313.967 424.424 310.112 424.312 306.678 422.836C302.897 420.99 300.043 417.67 298.787 413.655C297.531 409.64 297.984 405.285 300.039 401.614C304.249 394.119 302.916 384.733 296.785 378.708C290.745 373.285 282.008 371.975 273.91 372.518C271.789 367.889 275.335 362.667 279.157 359.304C282.979 355.941 287.62 352.634 288.452 347.611C289.761 339.711 279.68 333.71 272.026 336.066C264.372 338.421 259.487 345.856 256.258 353.184C254.405 357.389 252.83 361.817 249.907 365.362C246.984 368.908 242.278 371.446 237.826 370.308C231.524 368.698 229.09 361.21 227.695 354.856C225.823 346.331 223.941 337.689 224.333 328.97C224.725 320.251 227.664 311.299 234.094 305.396C244.57 295.778 260.642 296.721 274.781 298.255C271.441 294.491 272.266 288.148 275.841 284.606C279.671 281.203 284.935 279.91 289.906 281.15C294.167 282.037 298.005 284.332 300.803 287.665C304.821 292.564 305.963 299.178 309 304.739C312.037 310.299 318.866 315.042 324.456 312.058C329.283 309.482 330.05 302.787 328.848 297.448C327.647 292.11 325.095 286.918 325.53 281.463C326.36 271.054 337.15 264.789 346.672 260.502C356.193 256.215 367.096 250.45 368.604 240.118C368.656 238.095 369.038 236.094 369.734 234.194C370.79 232.516 372.258 231.136 373.997 230.185C401.786 211.82 430.037 193.232 461.798 183.197C463.45 182.675 463.644 183.255 465.328 182.846C467.685 181.484 466.123 177.716 463.864 176.198C461.604 174.68 458.584 173.516 458.01 170.854C457.589 168.898 458.742 166.977 459.041 164.999C459.777 160.137 453.961 155.648 449.444 157.592C446.893 154.213 451.941 150.287 456.023 149.163C468.28 145.79 480.863 143.735 493.557 143.032C495.021 142.799 496.522 143.054 497.828 143.758C499.96 145.235 499.687 148.623 498.176 150.731C496.665 152.839 494.315 154.162 492.432 155.946C488.238 160.031 486.67 166.112 488.365 171.716C494.992 175.087 502.196 178.557 509.536 177.369C516.875 176.182 523.389 167.935 519.939 161.349C516.727 155.216 507.077 153.833 505.418 147.111C503.475 139.241 514.615 132.242 512.106 124.534C511.006 121.157 507.642 119.17 505.06 116.733C498.818 110.615 496.978 101.291 500.427 93.2608C491.894 94.7622 483.162 92.0296 477.006 85.9314C471.404 80.2776 466.934 71.3589 458.979 71.6119C451.679 71.844 445.391 80.3609 438.565 77.7625C436.885 77.1233 435.115 75.8223 433.488 76.5846C432.407 77.2861 431.709 78.4451 431.594 79.7282C429.859 88.0218 432.843 97.4714 428.323 104.638C423.404 112.437 412.027 113.518 406.063 120.551C402.827 124.368 401.572 129.512 398.597 133.537C395.622 137.562 389.306 140.121 385.736 136.613C389.35 129.184 387.352 120.243 380.92 115.058C377.605 112.895 374.031 111.157 370.283 109.884C366.095 108.112 362.111 105.891 358.4 103.262C356.541 102.14 355.031 100.524 354.038 98.5938C353.252 96.1768 353.358 93.5583 354.336 91.2125C358.026 80.6328 367.274 72.9681 378.355 71.3051C383.109 70.6582 388.642 70.8862 391.788 67.2637C393.453 65.3471 394.327 62.4492 396.743 61.6708C398.289 61.3602 399.893 61.5578 401.317 62.2341L419.063 68.4801C421.043 69.374 423.222 69.7344 425.384 69.5256C427.608 69.226 429.224 67.2616 429.09 65.0215C428.523 62.0746 423.989 60.6605 424.401 57.6881C424.632 56.7249 425.15 55.8544 425.886 55.1916C438.853 41.3906 457.307 34.1033 476.204 35.3214C478.444 38.9999 474.902 43.3559 471.954 46.4961C469.007 49.6363 466.638 55.2471 470.203 57.6643C471.664 58.4099 473.288 58.7757 474.928 58.7284C493.636 65.2114 483.542 60.6076 487.504 62.5428C487.504 62.5428 499.65 68.1312 505.546 71.3021C505.026 67.4142 504.528 63.3184 506.002 59.683C507.476 56.0477 511.664 53.1963 515.322 54.6121C518.848 55.9765 520.656 60.6447 524.412 61.0724C529.423 61.6429 531.399 54.2408 529.306 49.6529C527.214 45.0649 523.07 41.2232 522.724 36.1923C522.491 32.7982 523.783 28.5888 521.072 26.5336C520.107 25.9166 519.012 25.5326 517.873 25.412L450.178 12.9549C446.159 12.2152 440.351 12.7822 440.172 16.8656C440.073 19.145 442.109 21.3999 441.207 23.4956C440.245 25.7324 437.083 25.5279 434.78 26.319C431.207 27.5465 429.413 31.7895 429.757 35.5522C430.385 39.2909 431.833 42.8443 433.997 45.9574C429.593 44.1157 422.926 43.7773 418.523 41.9359L418.523 41.9359Z" transform="translate(0 41.4082)" id="Shape" fill="#407BFF" stroke="none" />
        <path d="M25.5786 1.11119C16.8341 -1.78261 7.21339 1.09859 1.49909 8.32252C0.384432 9.79013 -0.551619 11.8132 0.381472 13.4024C1.71934 15.6807 5.12817 14.7808 7.64138 13.9658C11.3353 12.6461 15.356 12.5502 19.1086 13.6923C21.4685 14.5025 23.5798 15.9345 25.95 16.7141C28.3012 17.6975 31.0031 17.3027 32.9746 15.6876C34.6013 14.0286 34.7033 11.4493 34.7062 9.12582C34.9347 7.55128 34.4406 5.95768 33.3614 4.78856C32.4127 4.23905 31.3465 3.92371 30.2515 3.86874C27.7991 3.41477 25.582 2.11932 23.9824 0.205721" transform="translate(338.9316 24.76855)" id="Shape" fill="#407BFF" stroke="none" />
        <path d="M5.87961 0.00827219C3.93693 -0.097522 2.07947 0.816885 0.978604 2.42108C-0.122312 4.02528 -0.307525 6.08728 0.489936 7.86196C3.42374 8.66204 6.48884 8.86189 9.50172 8.44953C12.5746 7.97246 15.0592 5.69449 15.8005 2.67451C12.2533 3.32003 8.59283 2.62094 5.53318 0.713602" transform="translate(383.04 19.07422)" id="Shape" fill="#407BFF" stroke="none" />
        <path d="M23.1088 7.38986C15.1237 9.08753 7.367 11.7225 0 15.24C7.13009 17.9806 11.6314 25.0594 11.0893 32.6788C10.7776 34.1036 10.8137 35.5825 11.1945 36.9904C12.0432 39.048 14.5025 39.82 16.6647 40.3481C20.5492 41.5303 24.6055 42.0481 28.6624 41.8795C32.7853 41.6638 36.5206 39.3812 38.5935 35.8108C39.1815 34.1427 39.8712 32.5123 40.6588 30.9288C45.8413 23.0358 61.2374 32.5796 66.8017 24.951C68.7618 22.2637 68.5825 18.2186 71.1377 16.0891C72.4595 15.1614 73.9913 14.5768 75.5951 14.388C86.7849 12.1649 98.0879 10.5551 109.453 9.5659C114.839 9.09726 121.858 7.16358 121.903 1.75817C101.619 -2.22556 80.5865 0.603843 62.0763 9.80648C55.4073 13.1468 46.5868 20.1732 40.1628 15.7448C37.7575 14.0867 37.8766 9.62187 34.5662 7.75738C31.1817 5.85126 26.7015 6.62655 23.1088 7.38986L23.1088 7.38986Z" transform="translate(447.7065 0.34375)" id="Shape" fill="#407BFF" stroke="none" />
        <path d="M3.36284 20.1375L12.8845 21.967C9.33884 21.81 5.89725 23.1874 3.43896 25.7474C0.980663 28.3074 -0.2562 31.802 0.0444002 35.3385C8.96107 38.3172 18.6823 35.4186 28.075 35.8145C37.4678 36.2105 48.3963 42.9199 46.7929 52.1832C46.3081 54.9841 44.69 57.7832 45.5315 60.4984C46.1212 62.4014 47.7996 63.7518 48.7469 65.5045C50.721 69.1568 49.1432 73.7764 46.6506 77.0965C44.1579 80.4166 40.8074 83.0656 38.6194 86.594C33.1776 95.3694 36.2694 106.714 39.5111 116.518C40.4483 120.222 42.1791 123.679 44.5837 126.648C49.3864 131.755 57.2129 132.199 64.2223 132.301C69.324 132.376 75.1681 132.124 78.3943 128.171C82.6062 123.011 79.661 114.959 82.4341 108.903C84.9526 103.402 91.3691 101.042 97.1827 99.3689C107.833 96.3028 118.687 93.6961 128.756 89.0648C141.259 83.3139 152.944 74.3517 166.686 73.6114C170.541 73.4037 174.492 73.8587 178.206 72.8024C181.92 71.7461 185.447 68.5353 185.166 64.6847C184.926 61.3945 182.142 58.9785 179.967 56.4982C177.792 54.018 176.084 50.204 178.083 47.5799L214.103 40.852C211.55 33.8936 209.561 24.7293 215.428 20.2C217.545 18.5658 220.38 17.9127 222.182 15.937C225.254 12.5698 223.709 6.76939 220.163 3.90574C216.617 1.04208 211.822 0.377323 207.28 0C128.842 2.1181 175.601 -0.444954 159.776 0.422489C159.776 0.422489 97.9085 3.81371 66.9747 5.5093C60.7474 5.85063 53.5577 5.32916 47.8463 7.45366C43.0112 9.25226 39.5734 12.5538 34.0434 13.7137C23.8349 15.8551 12.6006 14.4061 3.36284 20.1375L3.36284 20.1375Z" transform="translate(533.7876 0)" id="Shape" fill="#407BFF" stroke="none" />
        <path d="M3.88592 6.95287C2.91567 6.79932 1.92348 7.02438 1.11439 7.58145C0.57937 8.17049 0.261116 8.92434 0.21217 9.71858C-0.402509 13.2239 0.329672 16.832 2.26219 19.8204C4.26702 22.8058 7.73415 24.4681 11.3173 24.1617C15.6047 23.615 18.7643 19.9572 22.7059 18.1724C28.7808 15.424 54.5802 11.1394 36.7336 1.49766C30.5833 -1.82511 26.6091 1.1081 21.7616 3.2964C16.2464 6.11788 10.0661 7.38207 3.88592 6.95287L3.88592 6.95287Z" transform="translate(703.8433 88.44629)" id="Shape" fill="#407BFF" stroke="none" />
        <path d="M5.46059 6.11214C3.37664 6.96351 1.63329 8.48102 0.50278 10.4277C-0.579 12.4807 0.139226 15.0214 2.13586 16.2041C2.91424 16.4863 3.73934 16.6172 4.56688 16.5897L13.0402 16.8428C16.6399 16.9504 21.1363 17.717 22.1036 21.1859C22.8218 23.7617 21.2142 27.0716 23.154 28.9123C23.9864 29.5569 24.9873 29.9473 26.0364 30.0365C28.8277 30.7535 31.7425 30.8476 34.5741 30.312C40.7393 28.6583 37.4999 24.8955 39.4416 21.545C42.4126 16.4184 41.8983 19.5218 47.1333 16.5837C50.9994 14.4138 55.9951 10.4777 52.7683 4.94737C47.1567 -4.66974 13.7411 1.98064 5.46059 6.11214L5.46059 6.11214Z" transform="translate(858.5845 8.583008)" id="Shape" fill="#407BFF" stroke="none" />
        <path d="M37.8599 0.935813L32.9396 1.59238C21.8443 3.07299 10.6862 4.56722 0 7.89911C4.62577 9.72802 9.47893 10.9189 14.4259 11.4389C17.149 11.5724 19.8541 11.9569 22.5066 12.5876C27.2265 13.9927 31.9826 17.6211 36.5426 15.7624C39.3699 14.61 40.2926 11.666 42.6346 10.1058C44.2518 9.02854 50.3857 7.28482 51.0714 6.19744C56.615 -2.59321 42.121 0.3672 37.8599 0.935813L37.8599 0.935813Z" transform="translate(993.4282 8.924805)" id="Shape" fill="#407BFF" stroke="none" />
        <path d="M22.6338 4.56344C16.0614 8.23838 9.96364 12.704 4.4764 17.8606C2.16462 20.0337 -0.19663 22.7365 0.0130029 25.9024C0.291668 30.1102 4.77388 32.5509 8.65711 34.195L24.3861 40.8544C26.2943 38.165 24.5479 34.4525 22.5758 31.8095C20.6036 29.1666 18.2603 26.1088 19.1315 22.9284C20.1257 19.2991 24.551 18.0623 28.2618 17.437C34.308 16.4183 50.6179 16.5 48.6582 6.75615C46.3492 -4.72511 28.703 1.17103 22.6338 4.56344L22.6338 4.56344Z" transform="translate(1030.259 27.6582)" id="Shape" fill="#407BFF" stroke="none" />
        <path d="M1.07258 65.7667C-0.424761 70.1017 -0.566841 75.2085 2.02327 78.9934C4.92968 83.2405 10.7464 84.8237 15.7788 83.7465C20.7902 82.4132 25.257 79.5413 28.55 75.5352C31.5617 72.1791 34.0393 68.3796 35.8959 64.2703C38.4872 57.8664 40.3147 51.1795 41.3406 44.3479L46.2242 18.7069C47.3155 12.9763 47.2732 -4.59278 36.7407 1.13136C33.8633 2.69509 27.2013 15.0417 24.1859 18.5428C18.7512 24.853 18.0321 30.9757 15.1711 38.6204C11.5876 48.1957 4.38535 56.176 1.07258 65.7667L1.07258 65.7667Z" transform="translate(1048.658 616.1875)" id="Shape" fill="#407BFF" stroke="none" />
        <path d="M15.0822 4.76457C11.6356 3.41956 8.29067 1.82717 5.07367 0C1.84779 8.86852 0.132778 18.2155 0 27.6516L23.5832 14.3067C27.1308 12.2993 31.1517 9.50989 31.0755 5.43438C31.1406 4.40915 30.6406 3.43023 29.7717 2.88221C29.2476 2.67184 28.6769 2.60481 28.1183 2.68812C24.6214 2.97957 21.4329 4.70029 18.1341 5.89677C14.8353 7.09325 10.9778 7.72585 7.95112 5.95005" transform="translate(1590.945 808.4033)" id="Shape" fill="#407BFF" stroke="none" />
        <path d="M38.2013 8.2445C35.613 8.94909 33.0843 9.85654 30.6385 10.9586C25.2265 13.7122 21.5449 18.9424 16.6748 22.5692C12.0145 26.0398 6.4042 27.9453 0.896884 29.7981C-0.723301 31.2301 0.021143 34.1143 1.77981 35.3723C3.67084 36.448 5.83926 36.9354 8.00853 36.7724C13.7302 36.8987 19.7581 36.9538 24.7698 34.1903C27.5937 32.3586 30.2361 30.2613 32.661 27.927C38.5206 23.0379 45.5574 19.8121 52.5229 16.6948C55.0582 15.7377 57.4025 14.3361 59.4458 12.5559C63.8228 8.24355 64.1306 1.5909 57.8192 0.123158C52.7195 -1.06318 43.0572 6.67357 38.2013 8.2445L38.2013 8.2445Z" transform="translate(1692.232 812.8447)" id="Shape" fill="#407BFF" stroke="none" />
        <path d="M20.8514 16.1194C21.4259 10.1072 19.2067 4.16442 14.8324 0C14.7679 5.93683 14.5876 12.2614 11.2487 17.1707C8.86969 20.6686 5.13943 23.0315 2.53293 26.3633C-0.0735776 29.6951 -1.23052 34.9765 1.82675 37.9002C3.78079 39.3873 6.16106 40.2071 8.61661 40.2388C14.7026 40.9552 21.7468 41.3545 26.0154 36.9576C28.3451 34.5578 29.4784 31.0034 32.32 29.239C33.3784 28.7946 34.3237 28.1181 35.0861 27.2596C36.2594 25.3945 34.3952 22.9365 32.2967 22.2645C30.1983 21.5924 27.8857 21.9083 25.7769 21.2701C23.6681 20.6319 21.7331 18.2604 22.8152 16.341" transform="translate(1764.55 769.0654)" id="Shape" fill="#407BFF" stroke="none" />
        <path d="M95.4333 20.4789C92.2405 21.2553 88.9337 21.4503 85.6716 21.0544C80.2535 20.0583 76.0367 15.975 71.6624 12.6263C61.2641 4.70896 48.6234 0.292407 35.5571 0.0113115C23.6709 -0.213121 11.6739 3.00769 0 0.760512C0.762733 5.00274 4.39277 8.18444 8.26595 10.0757C12.1391 11.9669 16.4138 12.9186 20.3056 14.7712C26.5383 17.7676 31.482 22.9106 34.2297 29.2569C35.4832 32.1826 36.2718 35.3667 38.1706 37.9214C42.0514 43.1432 49.4073 44.2897 55.8993 43.8628C64.3632 43.306 73.2033 40.8717 81.0776 44.0251C87.1015 46.4374 91.4127 51.7099 96.4424 55.8095C101.472 59.9091 108.557 62.9518 114.332 59.9938C102.019 56.0074 93.7283 44.4779 93.8689 31.5366C99.5335 32.0575 115.849 31.8559 114.97 22.231C114.226 14.0742 100.297 19.5985 95.4333 20.4789L95.4333 20.4789Z" transform="translate(1592.271 547.04)" id="Shape" fill="#407BFF" stroke="none" />
        <path d="M169.172 27.9134C170.178 22.3971 175.679 17.5258 173.965 12.1868C172.78 8.49461 168.499 6.67177 164.622 6.58075C160.746 6.48973 156.937 7.64445 153.061 7.75323C150.538 7.61918 148.009 7.65513 145.491 7.86063C137.796 9.12541 133.054 17.1904 125.802 20.058C121.393 21.8017 116.44 21.4683 111.854 22.6737C101.445 25.4099 94.8585 35.2463 87.5819 43.1768C75.825 55.9333 60.5083 64.8656 43.6161 68.8168C37.6976 70.1873 31.3352 71.064 26.6308 74.9079C20.401 79.9982 18.8675 88.7245 17.4815 96.6492C13.6521 118.535 7.79985 140.018 0 160.823L24.7169 163.978C29.4161 164.578 34.2854 165.165 38.8137 163.774C42.1038 162.533 45.2201 160.873 48.0857 158.835C59.0939 152 71.4143 147.553 84.2497 145.781C90.7223 144.892 97.5084 144.729 103.582 147.135C109.657 149.541 114.868 154.997 115.377 161.511C120.729 159.846 126.563 161.264 130.553 165.202C134.424 169.145 136.958 174.205 137.799 179.666C138.45 183.047 139.101 187.099 142.239 188.518C144.799 189.675 147.736 188.429 150.536 188.204C160.039 187.444 167.924 198.525 177.264 196.617C187.282 194.57 189.741 179.568 199.514 176.563C205.126 174.837 212.999 176.936 215.687 171.715C218.056 167.113 213.329 161.803 213.817 156.65C214.417 150.305 221.901 147.612 227.67 144.905C247.561 135.572 257 108.801 247.361 89.0565C241.65 77.358 230.414 68.1491 228.338 55.2976C226.742 45.4099 230.64 33.8797 224.335 26.0968C221.128 22.1375 215.699 19.9521 213.79 15.2279C212.589 12.2541 213.072 8.88025 212.426 5.73883C211.779 2.59741 209.038 -0.688415 205.936 0.125801C196.932 2.48937 194.058 30.3061 189.237 37.0649C181.909 47.3385 166.864 40.5711 169.172 27.9134L169.172 27.9134Z" transform="translate(1444.431 605.9717)" id="Shape" fill="#407BFF" stroke="none" />
        <path d="M12.7996 1.09817C9.72248 0.235321 6.36234 -0.614626 3.41395 0.618432C0.465568 1.85149 -1.25631 6.18041 1.11001 8.32832C19.6228 7.60713 38.2489 6.89102 56.6042 9.40513C77.7526 12.3017 98.6823 19.4769 119.924 17.366C107.79 13.7864 95.4562 10.9244 82.9862 8.79473L62.1916 4.82239C56.6131 3.65403 50.9766 2.78315 45.3057 2.21325C33.4426 1.23348 24.4636 4.36877 12.7996 1.09817L12.7996 1.09817Z" transform="translate(1434.365 576.9307)" id="Shape" fill="#407BFF" stroke="none" />
        <path d="M17.7318 22.3138C16.1949 22.1855 14.2914 22.0749 13.4963 23.3963C12.7366 24.6589 13.6061 26.3269 13.1977 27.7427C12.6396 29.6768 10.1066 30.1708 8.11087 29.9076C6.11518 29.6444 3.9568 29.0137 2.18862 29.9759C0.346745 31.2341 -0.443897 33.5569 0.247901 35.6775C0.97078 37.7273 2.13988 39.5911 3.67084 41.1341C6.2857 44.4291 9.26517 47.4176 12.5523 50.0424C18.9149 54.739 27.535 57.0024 31.5425 63.8201C32.1078 65.1415 32.9767 66.311 34.0788 67.2337C36.0026 68.4522 38.5116 67.5252 40.5829 66.5788L47.8436 63.2612C49.1515 62.7902 50.319 61.996 51.2378 60.9528C52.8966 58.7021 51.8777 55.502 50.4854 53.0773C49.0931 50.6526 47.3109 48.1433 47.6096 45.3634C48.1423 40.4069 54.5154 38.5109 57.1358 34.2701C59.7772 29.9954 58.0577 24.4878 58.3621 19.4717C58.7184 13.6057 62.4043 5.97547 56.4739 1.59275C51.4339 -2.13205 46.6167 1.30965 42.9982 5.4219C35.3674 14.0937 31.7593 23.4852 17.7318 22.3138L17.7318 22.3138Z" transform="translate(1447.966 491.2402)" id="Shape" fill="#407BFF" stroke="none" />
        <path d="M1.34025 17.0789C3.81905 21.8251 8.98671 24.6574 11.6897 29.2796C14.6196 34.2896 14.2858 40.7628 17.4643 45.6188C20.7254 50.601 27.288 53.2461 29.1168 58.9129C31.1135 65.0996 26.5833 72.6191 30.1944 78.0248C31.5561 79.8112 33.6043 80.9451 35.8411 81.1506C38.0778 81.3561 40.2984 80.6145 41.9628 79.106C45.1289 75.6587 44.9709 70.3163 41.6065 67.0621C39.4684 65.1127 36.3982 64.2703 34.6131 61.9933C33.6835 60.6792 33.0641 59.1713 32.8018 57.5831C31.8287 53.002 31.9847 48.253 33.256 43.7456C33.7337 42.6017 33.855 41.3402 33.604 40.1261C32.8004 37.7901 29.6372 37.6243 27.4171 36.5407C22.3749 34.0794 22.4973 26.9633 23.3782 21.4219C22.7917 25.1112 9.65028 18.8365 8.27419 16.7467C5.54051 12.5954 7.02834 4.58744 6.48719 0C0.585449 2.84394 -1.69049 11.2759 1.34025 17.0789L1.34025 17.0789Z" transform="translate(1508.431 408.8271)" id="Shape" fill="#407BFF" stroke="none" />
        <path d="M11.9467 4.40048C9.5212 1.6852 5.8678 -1.15536 2.61602 0.482218C0.135103 1.73156 -0.547391 5.16417 0.424973 7.76618C1.60951 10.2936 3.4334 12.468 5.7161 14.0742C12.4927 19.6632 19.79 24.7074 25.702 31.2042C36.2818 42.8308 41.8864 58.519 53.3924 69.2297C55.7052 71.7131 58.7677 73.3705 62.1114 73.9486C65.4636 74.2605 69.2279 72.1147 69.6133 68.7702C69.9306 66.0151 68.01 63.5492 66.1331 61.5076C61.6636 56.646 56.7705 52.1709 52.5507 47.091C50.6017 45.1397 49.377 42.5819 49.0788 39.8403C49.0573 37.105 51.5517 34.2422 54.2017 34.9196C50.9787 34.0957 48.5885 28.7263 43.8581 27.7169C39.9049 26.8734 38.9485 29.3208 34.2438 27.3029C25.2707 23.4544 18.2306 11.4352 11.9467 4.40048L11.9467 4.40048Z" transform="translate(1365.435 494.5332)" id="Shape" fill="#407BFF" stroke="none" />
        <path d="M47.5279 3.15913C44.954 2.39412 42.4233 1.4901 39.9472 0.451138C33.2847 -1.54872 24.4696 3.34836 25.3577 10.2475C25.9478 14.8315 30.2139 17.922 32.5699 21.8981C36.0638 27.7946 35.1323 35.2735 33.2964 41.877C32.8456 43.9216 31.9884 45.8547 30.7756 47.5614C29.0799 49.3633 27.0529 50.8214 24.8053 51.8561C15.808 56.9014 7.87343 63.6422 1.44026 71.7059C0.74085 72.4506 0.25361 73.369 0.029283 74.3657C-0.288496 76.6951 2.05298 78.392 3.37685 80.3348C6.31741 84.6505 4.19202 90.4578 4.48273 95.672C4.39192 97.1711 5.08319 98.6104 6.30991 99.4767C8.08232 100.377 10.1825 98.8477 11.1432 97.1072C14.3312 91.3314 11.9296 82.0604 17.9102 79.2756C19.0415 78.7488 20.413 78.5267 21.1677 77.5329C22.365 75.9564 21.2099 73.6221 21.8167 71.7377C22.7277 68.9085 26.5973 68.7815 29.567 68.907C34.6824 69.1208 39.796 68.4401 44.6774 66.8952C46.5922 66.4399 48.3314 65.4328 49.6794 63.9986C51.4673 61.7674 51.3088 58.5949 50.9516 55.7583C49.1623 41.6162 44.6826 27.9472 37.7544 15.4892C43.0079 16.1602 48.7234 16.7414 53.2568 14.0036C55.7954 12.4704 58.8394 7.88579 57.5805 4.76525C55.5894 -0.169619 51.9927 3.98407 47.5279 3.15913L47.5279 3.15913Z" transform="translate(1540.697 231.3828)" id="Shape" fill="#407BFF" stroke="none" />
        <path d="M215.883 36.9581C216.511 40.3301 217.13 43.8806 216.024 47.1277C214.919 50.3749 211.443 53.0881 208.161 52.0931C205.613 51.321 204.141 48.7595 202.333 46.8065C192.273 35.9462 169.576 42.2339 163.361 28.798C160.825 23.3144 162.549 16.7447 160.819 10.9561C158.574 4.07493 151.96 -0.417943 144.736 0.0308159C141.533 0.493476 138.415 1.4243 135.482 2.79341C115.833 10.6625 95.2054 15.8218 74.1658 18.1293C70.1673 18.373 66.2122 19.0926 62.3841 20.273C53.7451 23.405 47.8423 31.4141 43.6416 39.587C39.4409 47.7599 36.3396 56.6079 30.7077 63.8689C24.7887 71.5001 16.4945 76.8438 8.75752 82.6239C5.77705 84.5447 3.29523 87.1458 1.51637 90.2131C-0.160951 93.6566 -0.066336 97.662 0.0638517 101.49L1.64513 147.984C1.84853 153.964 2.10394 160.158 4.78047 165.51C8.1228 172.193 14.7255 176.57 19.306 182.474C23.9805 188.541 26.4155 196.036 26.199 203.692C26.1014 206.77 25.7956 210.411 28.1928 212.344C29.651 213.289 31.3574 213.78 33.0951 213.753L95.988 218.901C107.051 219.806 119.312 221.295 126.535 229.724C129.944 233.702 132.682 239.423 137.904 239.849C140.143 240.033 142.323 239.113 144.563 238.936C150.215 238.488 155.179 242.778 158.313 247.502C163.055 254.704 165.208 263.304 164.417 271.89C163.904 277.28 162.233 282.52 161.872 287.922C160.502 308.477 177.927 326.336 178.265 346.934C178.463 359.05 172.712 370.371 167.104 381.113C176.154 394.823 168.743 413.081 172.347 429.109C175.765 444.316 188.444 456.22 191.604 471.483C193.05 478.47 193.134 487.068 199.295 490.667C201.998 491.985 204.995 492.585 207.998 492.41C226.108 492.624 244.012 488.548 260.245 480.515C267.863 476.734 275.759 471.091 277.089 462.69C278.162 455.916 274.727 448.339 278.223 442.438C282.344 435.483 292.9 436.034 298.962 430.688C308.798 422.013 301.128 405.47 305.113 392.976C308.695 381.745 321.026 375.779 327.138 365.699C329.544 361.364 331.27 356.686 332.257 351.827C335.057 340.216 336.8 328.374 337.464 316.448C337.627 309.203 338.161 301.97 339.065 294.779C345.655 253.837 386.129 226.422 399.27 187.091C400.525 183.335 401.115 178.332 397.773 176.207C395.791 175.261 393.544 175.026 391.409 175.541L362.417 179.196C358.816 179.65 354.999 180.074 351.692 178.578C348.385 177.083 346.015 172.899 347.769 169.722C352.693 160.802 342.564 149.531 338.064 140.39C325.945 115.777 311.513 92.3723 294.963 70.4913C293.904 69.3656 293.24 67.9252 293.074 66.3885L301.302 66.6625C298.524 56.6957 293.941 45.7891 284.258 42.1432C278.801 40.0887 272.759 40.7991 266.937 41.1172C250.263 42.0275 232.386 39.5099 215.883 36.9581L215.883 36.9581Z" transform="translate(698.8433 275.3633)" id="Shape" fill="#407BFF" stroke="none" />
        <path d="M213.535 67.5079C217.898 72.1416 222.788 77.0544 229.101 77.862C240.252 79.2886 248.269 67.7576 253.374 57.7417C253.767 63.0511 258.314 67.0831 263.633 66.837C266.385 66.3739 269.012 65.3468 271.349 63.8202C293.442 51.7467 318.188 45.3496 343.365 45.2036C342.864 41.2534 345.427 37.563 349.304 36.6536C354.423 35.6387 359.034 40.0644 361.503 44.6617C363.973 49.259 365.512 54.5876 369.436 58.0288C373.359 61.4699 380.954 61.32 382.504 56.3369C383.992 51.5528 379.008 47.4731 374.867 44.6526C370.727 41.8321 366.362 36.6118 369.151 32.4494C390.304 27.7669 411.589 23.0666 433.235 22.1359C436.921 22.2641 440.593 21.6315 444.023 20.2775C447.324 18.6576 449.947 14.9805 449.06 11.4121C439.398 13.6834 429.322 9.88296 423.567 1.79668C453.602 -0.68186 485.548 -2.79446 512.166 11.3383C515.36 18.1954 499.081 23.9005 503.436 30.0852C504.826 32.0578 507.609 32.2891 510.021 32.3339C528.518 32.6773 547.122 33.0141 565.411 30.2214C572.094 29.2009 578.845 27.7602 585.555 28.5878C596.731 29.9661 606.29 37.4233 617.286 39.8547C621.761 40.8442 626.779 40.8778 630.551 38.2748C634.324 35.6719 635.945 29.7449 632.854 26.3612C643.206 16.2147 660.388 18.7295 674.046 23.5871C687.704 28.4447 700.642 36.2784 715.098 37.3612C725.463 38.1376 735.973 35.3494 746.216 37.1216C752.652 38.2353 758.642 41.0987 764.933 42.858C776.831 46.1852 789.417 45.4828 801.77 45.643C833.29 46.0676 864.464 52.2622 893.752 63.9202C897.562 65.1607 901.052 67.223 903.977 69.9616C906.702 72.8798 908.092 77.4145 906.26 80.9624L875.997 76.5405C878.848 82.1537 886.225 83.1103 892.216 85.0467C898.206 86.9831 904.418 93.5988 900.817 98.7637C894.326 96.697 888.444 103.187 885.166 109.158C881.887 115.128 877.891 122.279 871.089 122.643C864.998 122.969 857.631 117.782 853.66 122.413C859.146 129.333 863.843 136.842 867.665 144.802C871.587 152.974 874.381 163.271 869.079 170.624C868.245 171.936 866.98 172.917 865.501 173.398C861.172 174.495 858.358 169.198 855.253 165.987C851.34 161.941 845.423 160.795 840.124 158.898C834.825 157.001 829.243 153.268 828.828 147.655C828.57 144.163 830.414 140.916 831.772 137.689C834.055 132.248 835.053 126.355 834.69 120.466C834.393 115.729 833.064 110.8 829.662 107.49C826.259 104.18 820.385 103.13 816.733 106.162C815.028 107.576 813.663 109.839 811.449 109.924C807.539 110.073 804.536 103.256 801.39 105.583C801.759 108.063 801.245 110.593 799.937 112.732C790.548 120.898 776.125 117.443 764.021 120.328C758.266 121.975 752.755 124.382 747.635 127.484C745.72 128.303 744.09 129.671 742.952 131.415C741.441 134.352 743.107 138.112 745.77 140.064C748.594 141.796 751.767 142.879 755.061 143.235C769.817 146.03 784.788 150.356 796.438 159.834C808.088 169.312 815.728 184.98 812.041 199.539L782.942 171.733C784.047 183.408 784.674 195.115 784.823 206.854C785.012 209.146 784.697 211.452 783.901 213.61C781.827 218.192 776.204 219.734 771.277 220.745C768.505 221.272 766.09 222.957 764.64 225.377C763.19 227.798 762.843 230.722 763.686 233.414C765.437 239.12 769.801 243.569 773.798 248.002C777.794 252.434 781.727 257.472 782.251 263.417C782.774 269.363 778.288 276.064 772.334 275.651C767.821 275.337 764.472 271.297 762.547 267.202C760.622 263.108 759.476 258.547 756.583 255.068C747.828 244.538 728.163 249.049 720.319 237.824C716.254 242.435 714.866 248.822 716.651 254.704C720.3 252.42 725.295 254.542 728.037 257.861C730.778 261.18 732.072 265.436 734.225 269.164C737.13 274.194 741.753 278.653 742.159 284.448C742.051 286.639 742.088 288.835 742.269 291.022C742.99 294.533 745.958 297.054 748.015 299.989C752.803 306.818 752.566 316.199 749.48 323.947C746.394 331.695 740.85 338.17 735.359 344.447C725.767 355.411 715.98 366.31 704.609 375.415C701.364 378.013 697.901 380.568 695.88 384.2C693.86 387.832 693.756 392.93 696.861 395.693C694.639 395.805 690.655 396.898 688.433 397.009C687.651 388.095 687.482 379.139 687.924 370.202C679.156 365.991 669.715 377.267 670.846 386.928C671.978 396.589 678.965 404.342 683.94 412.7C687.578 418.813 690.282 425.94 689.068 432.949C687.853 439.957 681.597 446.423 674.51 445.805C663.239 444.821 658.524 428.64 647.362 426.788C646.378 426.557 645.345 426.66 644.425 427.08C642.768 427.989 642.48 430.206 642.387 432.094C641.93 441.359 641.535 450.992 645.152 459.534C650.443 472.03 664.111 482.526 661.244 495.79C645.798 488.61 637.767 471.289 634.121 454.65C630.475 438.012 629.867 420.545 623.331 404.816C618.368 411.177 607.936 405.918 603.401 399.245C599.102 392.918 596.455 385.599 592.284 379.187C588.113 372.775 581.723 367.033 574.082 366.681C566.071 366.311 559.123 371.809 553.012 377.003C547.988 381.275 542.829 385.714 539.892 391.619C535.618 400.212 536.736 410.341 536.53 419.936C536.308 430.308 534.109 441.252 527.04 448.845C519.971 456.439 506.922 459.084 499.124 452.24C495.053 448.667 493.082 443.329 491.327 438.205C482.864 413.506 475.816 388.344 470.216 362.843C468.906 368.663 463.795 376.165 458.913 372.737C457.817 371.815 456.93 370.671 456.309 369.381C447.201 353.945 430.335 344.686 413.293 339.135C396.252 333.583 378.323 330.994 361.471 324.893C352.027 321.472 343.007 316.979 334.587 311.502C330.215 317.926 329.719 326.23 333.295 333.129C337.034 339.748 345.493 343.578 352.734 341.264C356.476 340.069 359.636 337.471 363.349 336.188C367.062 334.905 372.045 335.535 373.669 339.112C375.223 342.536 372.874 346.678 374.039 350.253C375.814 355.698 384.026 356.118 386.898 361.073C389.034 364.759 387.276 369.655 384.226 372.629C381.175 375.604 377.105 377.236 373.381 379.307C361.298 386.026 352.705 397.495 342.146 406.419C331.586 415.343 316.687 421.858 304.102 416.134C307.102 400.944 289.008 389.792 285.679 374.67C284.583 369.693 285.151 364.406 283.587 359.556C281.322 352.534 275.092 347.705 269.981 342.383C257.457 329.202 250.79 311.519 251.495 293.349C251.771 287.1 252.919 280.749 251.496 274.657C250.072 268.566 245.029 262.67 238.779 262.946C224.505 263.576 206.523 264.638 199.035 252.47C196.362 248.128 195.199 241.767 199.063 238.44C201.789 236.093 205.813 236.314 209.393 236.666L241.554 239.83C249.076 240.57 257.207 241.181 263.662 237.248C270.116 233.316 272.913 222.878 266.937 218.251C262.569 214.871 254.745 215.054 253.476 209.679C252.419 205.203 257.373 200.124 254.697 196.383C252.779 193.701 248.465 194.445 245.851 196.456C243.237 198.467 241.34 201.407 238.415 202.93C233.283 205.6 227.151 203.059 221.63 201.331C216.109 199.604 208.707 199.457 206.029 204.585C203.034 210.32 208.685 217.835 205.713 223.582C201.783 231.18 188.475 226.855 182.956 233.39C176.623 240.889 187.265 252.072 185.129 261.653C179.583 264.4 173 264.03 167.796 260.679C162.67 257.192 159.874 251.169 160.521 245.003C161.049 240.693 163.296 236.294 161.791 232.221C160.574 228.928 157.267 226.968 154.195 225.27L122.941 207.999C120.04 213.382 123.708 220.055 128.296 224.098C132.884 228.141 138.63 231.186 141.644 236.507C145.601 244.159 142.915 253.57 135.515 257.98C134.611 258.604 133.479 258.802 132.417 258.521C131.41 257.929 130.685 256.954 130.408 255.819C124.894 241.707 116.614 227.794 103.378 220.422C90.1415 213.051 71.1223 214.566 62.4424 226.984C60.3808 229.934 58.9971 233.296 57.2011 236.414C47.6594 252.981 27.2034 260.827 8.09162 260.314C6.22205 260.418 4.36211 259.981 2.73421 259.055C-0.354567 256.922 -0.215447 252.395 0.257415 248.672L2.26356 232.868C2.66644 229.695 3.2502 226.187 5.76188 224.206C9.30248 221.413 14.4099 223.176 18.9188 223.111C25.9164 222.783 31.963 218.117 34.0533 211.431C35.9096 204.713 33.896 197.52 28.8219 192.743C26.7552 190.802 23.9815 188.364 25.073 185.747C25.9548 184.282 27.4396 183.282 29.1289 183.016C37.228 180.664 45.7858 180.048 53.7499 177.273C61.7141 174.498 69.4375 168.82 71.3235 160.6C71.9016 158.081 72.1647 155.029 74.4274 153.78C75.5627 153.301 76.782 153.052 78.0144 153.047C86.9641 151.774 93.4607 143.878 92.9865 134.851C96.8032 132.184 102.151 134.146 105.843 136.982C109.536 139.819 112.795 143.567 117.288 144.79C125.661 147.068 133.753 139.655 142.43 139.621C146.079 139.606 149.857 140.896 153.29 139.659C156.77 138.405 158.848 134.941 161.519 132.381C164.19 129.822 168.877 128.261 171.343 131.018L169.243 115.461C177.801 117.623 186.875 115.982 194.133 110.961L166.989 101.789C166.044 101.553 165.172 101.087 164.451 100.432C162.477 98.307 164.437 94.9956 166.042 92.5799C169.881 86.8012 170.526 77.2821 164.212 74.4051C159.903 72.4414 154.957 74.7986 150.821 77.1047L131.009 88.1515C130.38 91.9174 134.985 94.0517 137.839 96.5884C141.373 99.7298 142.612 104.72 140.959 109.15C139.306 113.58 135.099 116.538 130.371 116.596C133.014 120.032 133.952 124.483 132.92 128.693L119.59 129.652C118.094 129.953 116.539 129.649 115.266 128.808C113.84 127.542 114.034 125.323 113.703 123.445C112.906 118.912 108.468 115.735 103.938 114.921C99.4085 114.106 94.7747 115.15 90.2894 116.181C88.385 116.867 86.2935 116.818 84.4226 116.046C83.3496 115.349 82.5345 114.32 82.1015 113.116C80.1351 108.349 81.9731 102.744 85.1313 98.667C88.2894 94.5896 92.6128 91.6089 96.4956 88.2145C105.781 80.0674 112.603 69.486 116.191 57.6656C123.53 54.5911 131.127 50.4136 138.465 47.339C149.778 41.611 162.465 39.1528 175.099 40.2409L199.951 40.7156C207.308 40.8562 214.865 41.0362 221.668 43.8412C228.472 46.6462 234.45 52.7131 234.92 60.0571C235.208 61.7472 234.606 63.4666 233.326 64.6079C232.366 65.1323 231.277 65.3775 230.185 65.3161C223.322 65.5571 220.397 67.2669 213.535 67.5079L213.535 67.5079Z" transform="translate(752.2573 20.21289)" id="Shape" fill="#407BFF" stroke="none" />
        <path d="M20.7382 8.22604C22.7176 6.35241 23.4829 3.52924 22.7212 0.912372C17.9022 -0.947258 12.4457 0.0830919 8.63658 3.572C7.16429 5.0612 5.8955 6.73853 4.8632 8.56047C1.59767 13.8882 -1.29072 20.2521 0.601781 26.2075C0.913375 27.5195 1.74038 28.6507 2.89606 29.3455C3.7441 29.6861 4.65853 29.8292 5.57022 29.7645C9.16769 29.7598 12.7617 29.5386 16.3326 29.1021C18.5256 28.834 21.0725 28.2147 21.9201 26.1745C23.0341 23.4926 20.3377 20.4575 21.1237 17.6618C21.6409 16.4117 22.4245 15.2893 23.42 14.3733C24.4214 13.438 24.9232 12.0854 24.7743 10.7233C24.457 9.41158 22.4484 8.6674 21.7254 9.80711" transform="translate(746.9741 157.3789)" id="Shape" fill="#407BFF" stroke="none" />
        <path d="M13.5299 0.763684C10.3341 0.0298644 7.03987 -0.176967 3.77741 0.151278C3.05601 0.129818 2.34085 0.292354 1.69947 0.623559C1.07808 1.08183 0.627312 1.73446 0.418843 2.47801C-1.01 7.06434 1.32482 11.9789 5.78282 13.7685C6.95446 14.0378 8.07673 14.4888 9.10903 15.1051C11.8673 17.2452 10.1089 21.6195 10.6311 25.0714C11.2174 28.9475 14.9694 32.2011 14.2816 36.0605C13.7397 39.1011 10.4921 41.5087 11.015 44.5526C11.5626 47.7407 15.6082 48.6987 18.8328 48.954C20.7016 49.2813 22.6253 49.0608 24.3717 48.3192C26.1222 47.1223 27.3671 45.3193 27.8662 43.2584C29.1865 39.3288 29.7413 35.1826 29.5006 31.0441C29.4864 29.1618 29.0137 27.3114 28.1233 25.653C27.1524 24.3392 26.0759 23.1066 24.9047 21.9675C18.7261 14.781 25.2314 4.0614 13.5299 0.763684L13.5299 0.763684Z" transform="translate(772.8374 140.6563)" id="Shape" fill="#407BFF" stroke="none" />
        <path d="M1345.96 514.651C1345.96 514.651 872.763 243.03 669.047 294.495C669.047 294.495 237.311 340.956 187.276 443.172C187.276 443.172 50.0355 14.2959 0 0" transform="translate(252.8403 189.7402)" id="Shape" fill="none" stroke="#4B33FF" stroke-opacity="0.8" stroke-width="3" />
        <path d="M187.276 446.031C266.618 234.452 981.411 0 981.411 0C879.911 25.7326 669.047 297.354 669.047 297.354C669.047 297.354 558.3 216.779 419.582 139.642C279.913 61.9766 111.889 -12.2028 0 2.85916C0 2.85916 982.126 35.0249 1345.96 517.511" transform="translate(252.8403 186.8809)" id="Shape" fill="none" stroke="#1E00FF" stroke-opacity="0.8" stroke-width="3" />
        <path d="M0 20.729C0 9.28069 9.28069 0 20.729 0C32.1773 0 41.458 9.28069 41.458 20.729C41.458 32.1773 32.1773 41.458 20.729 41.458C9.28069 41.458 0 32.1773 0 20.729Z" transform="translate(232.1113 169.0117)" id="Circle" fill="#FFFFFF" stroke="none" />
        <path d="M0 20.729C0 9.28069 9.2807 0 20.729 0C32.1773 0 41.458 9.28069 41.458 20.729C41.458 32.1773 32.1773 41.458 20.729 41.458C9.2807 41.458 0 32.1773 0 20.729Z" transform="translate(419.3867 612.1836)" id="Circle" fill="#FFFFFF" stroke="none" />
        <path d="M0 20.729C0 9.28069 9.28069 0 20.729 0C32.1773 0 41.458 9.28069 41.458 20.729C41.458 32.1773 32.1773 41.458 20.729 41.458C9.28069 41.458 0 32.1773 0 20.729Z" transform="translate(1213.524 166.1533)" id="Circle" fill="#FFFFFF" stroke="none" />
        <path d="M0 20.729C0 9.28069 9.28069 0 20.729 0C32.1773 0 41.458 9.28069 41.458 20.729C41.458 32.1773 32.1773 41.458 20.729 41.458C9.28069 41.458 0 32.1773 0 20.729Z" transform="translate(1578.066 683.6631)" id="Circle" fill="#FFFFFF" stroke="none" />
        <path d="M0 20.729C0 9.2807 9.2807 0 20.729 0C32.1774 0 41.4581 9.2807 41.4581 20.729C41.4581 32.1773 32.1774 41.458 20.729 41.458C9.2807 41.458 0 32.1773 0 20.729Z" transform="translate(901.1587 463.5078)" id="Circle" fill="#FFFFFF" stroke="none" />
      </g>
      <path d="M0 0C0 0 411.179 97.2998 356.404 500.903" transform="translate(1248.923 197.9512)" id="Line" fill="none" stroke="#5A44FF" stroke-width="3" />
    </g>
  </g>
</svg>